M48
; DRILL file {KiCad 8.0.1} date 2024-08-15T13:48:43+0500
; FORMAT={-:-/ absolute / metric / decimal}
; #@! TF.CreationDate,2024-08-15T13:48:43+05:00
; #@! TF.GenerationSoftware,Kicad,Pcbnew,8.0.1
; #@! TF.FileFunction,Plated,1,4,PTH
FMAT,2
METRIC
; #@! TA.AperFunction,Plated,PTH,ViaDrill
T1C0.300
; #@! TA.AperFunction,Plated,PTH,ComponentDrill
T2C0.600
; #@! TA.AperFunction,Plated,PTH,ComponentDrill
T3C0.750
; #@! TA.AperFunction,Plated,PTH,ComponentDrill
T4C0.800
; #@! TA.AperFunction,Plated,PTH,ComponentDrill
T5C1.000
; #@! TA.AperFunction,Plated,PTH,ComponentDrill
T6C1.100
; #@! TA.AperFunction,Plated,PTH,ComponentDrill
T7C1.300
; #@! TA.AperFunction,Plated,PTH,ComponentDrill
T8C1.400
; #@! TA.AperFunction,Plated,PTH,ComponentDrill
T9C2.500
%
G90
G05
T1
X118.315Y-41.27
X118.315Y-43.81
X118.315Y-46.35
X118.315Y-48.89
X118.315Y-51.43
X118.315Y-53.97
X118.315Y-64.13
X118.315Y-66.67
X118.315Y-89.53
X118.315Y-92.07
X118.315Y-94.61
X118.315Y-97.15
X120.855Y-41.27
X120.855Y-43.81
X120.855Y-46.35
X120.855Y-48.89
X120.855Y-51.43
X120.855Y-64.13
X120.855Y-69.21
X120.855Y-71.75
X120.855Y-76.83
X120.855Y-79.37
X120.855Y-81.91
X120.855Y-84.45
X120.855Y-86.99
X120.855Y-92.07
X120.855Y-94.61
X120.855Y-97.15
X123.395Y-36.19
X123.395Y-41.27
X123.395Y-48.89
X123.395Y-53.97
X123.395Y-74.29
X123.395Y-81.91
X123.395Y-94.61
X123.395Y-97.15
X125.935Y-36.19
X125.935Y-38.73
X125.935Y-41.27
X125.935Y-43.81
X125.935Y-48.89
X125.935Y-51.43
X125.935Y-53.97
X125.935Y-56.51
X125.935Y-59.05
X125.935Y-64.13
X125.935Y-74.29
X125.935Y-84.45
X125.935Y-86.99
X125.935Y-89.53
X125.935Y-94.61
X125.935Y-97.15
X128.475Y-36.19
X128.475Y-38.73
X128.475Y-41.27
X128.475Y-43.81
X128.475Y-51.43
X128.475Y-53.97
X128.475Y-56.51
X128.475Y-59.05
X128.475Y-74.29
X128.475Y-84.45
X128.475Y-86.99
X128.475Y-92.07
X128.475Y-94.61
X128.475Y-97.15
X128.8Y-81.2
X131.015Y-36.19
X131.015Y-38.73
X131.015Y-41.27
X131.015Y-43.81
X131.015Y-46.35
X131.015Y-53.97
X131.015Y-56.51
X131.015Y-59.05
X131.015Y-64.13
X131.015Y-86.99
X131.015Y-89.53
X131.015Y-92.07
X132.0Y-84.8
X132.8Y-76.8
X133.2Y-97.8
X133.555Y-36.19
X133.555Y-38.73
X133.555Y-41.27
X133.555Y-43.81
X133.555Y-46.35
X133.555Y-48.89
X133.555Y-56.51
X133.555Y-59.05
X133.555Y-86.99
X133.555Y-92.07
X133.555Y-99.69
X133.555Y-102.23
X133.8Y-97.0
X136.095Y-36.19
X136.095Y-38.73
X136.095Y-41.27
X136.095Y-43.81
X136.095Y-46.35
X136.095Y-59.05
X136.095Y-64.13
X136.095Y-86.99
X136.095Y-89.53
X136.095Y-92.07
X136.095Y-97.15
X136.095Y-99.69
X136.095Y-102.23
X136.6Y-84.0
X138.4Y-85.8
X138.635Y-36.19
X138.635Y-41.27
X138.635Y-48.89
X138.635Y-59.05
X138.635Y-64.13
X138.635Y-92.07
X138.635Y-97.15
X138.635Y-99.69
X138.635Y-102.23
X141.175Y-36.19
X141.175Y-41.27
X141.175Y-48.89
X141.175Y-59.05
X141.175Y-64.13
X141.175Y-66.67
X141.175Y-69.21
X141.175Y-71.75
X141.175Y-74.29
X143.715Y-36.19
X143.715Y-38.73
X143.715Y-48.89
X143.715Y-59.05
X143.715Y-64.13
X143.715Y-66.67
X143.715Y-69.21
X143.715Y-81.91
X143.715Y-92.07
X144.0Y-85.6
X144.0Y-94.6
X144.6Y-97.4
X144.8Y-47.0
X145.8Y-98.0
X146.255Y-36.19
X146.255Y-41.27
X146.255Y-59.05
X146.255Y-61.59
X146.255Y-74.29
X146.255Y-81.91
X146.6Y-90.0
X147.8Y-66.0
X148.795Y-36.19
X148.795Y-41.27
X148.795Y-74.29
X148.795Y-79.37
X148.795Y-81.91
X151.335Y-36.19
X151.335Y-56.51
X151.335Y-71.75
X151.335Y-74.29
X151.335Y-76.83
X151.335Y-79.37
X151.335Y-81.91
X151.335Y-86.99
X151.335Y-92.07
X151.335Y-94.61
X152.4Y-59.8
X153.875Y-36.19
X153.875Y-38.73
X153.875Y-51.43
X153.875Y-53.97
X153.875Y-56.51
X153.875Y-79.37
X153.875Y-81.91
X153.875Y-86.99
X155.6Y-75.2
X156.0Y-67.8
X156.415Y-36.19
X156.415Y-41.27
X156.415Y-48.89
X156.415Y-53.97
X156.415Y-56.51
X156.415Y-59.05
X156.415Y-64.13
X156.415Y-69.21
X156.415Y-76.83
X156.415Y-79.37
X156.415Y-81.91
X156.415Y-86.99
X157.0Y-98.0
X158.0Y-63.4
X158.0Y-89.2
X158.955Y-36.19
X158.955Y-41.27
X158.955Y-48.89
X158.955Y-53.97
X158.955Y-56.51
X158.955Y-59.05
X158.955Y-86.99
X158.955Y-97.15
X158.955Y-99.69
X161.495Y-36.19
X161.495Y-38.73
X161.495Y-41.27
X161.495Y-43.81
X161.495Y-46.35
X161.495Y-48.89
X161.495Y-53.97
X161.495Y-56.51
X161.495Y-59.05
X161.495Y-64.13
X161.495Y-69.21
X161.495Y-76.83
X161.495Y-81.91
X161.495Y-89.53
X161.495Y-97.15
X161.495Y-99.69
X161.495Y-102.23
X162.6Y-103.8
X164.035Y-36.19
X164.035Y-38.73
X164.035Y-41.27
X164.035Y-43.81
X164.035Y-46.35
X164.035Y-48.89
X164.035Y-51.43
X164.035Y-56.51
X164.035Y-59.05
X164.035Y-76.83
X164.035Y-81.91
X164.035Y-84.45
X164.4Y-102.8
X165.6Y-83.4
X166.575Y-36.19
X166.575Y-38.73
X166.575Y-41.27
X166.575Y-43.81
X166.575Y-46.35
X166.575Y-48.89
X166.575Y-51.43
X166.575Y-53.97
X166.575Y-59.05
X166.575Y-89.53
X166.575Y-99.69
X169.115Y-36.19
X169.115Y-38.73
X169.115Y-41.27
X169.115Y-43.81
X169.115Y-46.35
X169.115Y-48.89
X169.115Y-51.43
X169.115Y-53.97
X169.115Y-56.51
X169.115Y-74.29
X169.115Y-99.69
X171.655Y-36.19
X171.655Y-41.27
X171.655Y-48.89
X171.655Y-53.97
X171.655Y-71.75
X171.655Y-74.29
X171.655Y-76.83
X171.655Y-79.37
X171.655Y-81.91
X171.655Y-84.45
X171.655Y-94.61
X171.655Y-99.69
X174.195Y-41.27
X174.195Y-48.89
X174.195Y-53.97
X174.195Y-69.21
X174.195Y-81.91
X174.195Y-92.07
X176.735Y-41.27
X176.735Y-43.81
X176.735Y-46.35
X176.735Y-48.89
X176.735Y-51.43
X176.735Y-53.97
X176.735Y-64.13
X176.735Y-76.83
X176.735Y-79.37
X176.735Y-86.99
X178.8Y-95.4
X179.275Y-43.81
X179.275Y-46.35
X179.275Y-48.89
X179.275Y-51.43
X179.275Y-53.97
X179.275Y-56.51
X179.275Y-59.05
X179.275Y-61.59
X179.275Y-64.13
X179.275Y-66.67
X179.275Y-69.21
X179.275Y-71.75
X179.275Y-74.29
X179.275Y-76.83
X179.275Y-79.37
X179.275Y-81.91
X179.275Y-84.45
X179.275Y-86.99
X179.275Y-97.15
X179.275Y-99.69
X179.275Y-102.23
T2
X167.18Y-70.99
X167.18Y-73.53
X167.18Y-76.07
X167.18Y-78.61
X174.8Y-70.99
X174.8Y-73.53
X174.8Y-76.07
X174.8Y-78.61
T3
X132.64Y-79.13
X132.64Y-80.4
X132.64Y-81.67
T4
X118.2Y-69.2
X118.2Y-71.74
X118.2Y-74.28
X122.8Y-83.9
X122.8Y-86.4
X140.72Y-80.2
X141.15Y-89.05
X141.15Y-91.59
X141.15Y-94.13
X141.305Y-61.8
X143.26Y-80.2
X143.805Y-61.8
X144.2Y-52.705
X144.2Y-55.205
X145.8Y-80.2
X146.505Y-70.2
X148.15Y-89.05
X148.15Y-91.59
X148.15Y-94.13
X148.45Y-63.45
X149.005Y-70.2
X150.195Y-84.6
X150.99Y-63.45
X152.0Y-52.195
X152.0Y-54.695
X152.695Y-84.6
X153.53Y-63.45
X154.2Y-89.12
X154.2Y-91.66
X154.2Y-94.2
X161.705Y-79.0
X161.905Y-73.0
X164.205Y-79.0
X164.405Y-73.0
X175.8Y-97.12
X175.8Y-99.66
X175.8Y-102.2
X176.5Y-91.0
X179.0Y-91.0
T5
X137.95Y-57.375
X140.49Y-57.375
T6
X123.8Y-68.204
X123.8Y-70.744
X127.2Y-68.4
X127.2Y-70.94
X130.6Y-68.204
X130.6Y-70.744
X134.2Y-68.4
X134.2Y-70.94
X137.8Y-68.204
X137.8Y-70.744
X150.66Y-48.6
X153.2Y-48.6
X167.128Y-93.2
X167.128Y-96.8
X169.668Y-93.2
X169.668Y-96.8
T7
X123.6Y-63.8
X123.6Y-89.9
X128.6Y-63.8
X128.6Y-89.9
X133.6Y-63.8
X133.6Y-89.9
X143.55Y-76.3
X148.55Y-76.3
X153.55Y-76.3
X163.6Y-63.8
X163.6Y-89.9
X168.6Y-63.8
X168.6Y-89.9
X173.6Y-63.8
X173.6Y-89.9
T8
X123.4Y-38.735
X123.4Y-45.085
X123.4Y-51.435
X139.63Y-38.735
X139.63Y-45.085
X139.63Y-51.435
X156.97Y-38.735
X156.97Y-45.085
X156.97Y-51.435
X173.2Y-38.735
X173.2Y-45.085
X173.2Y-51.435
T9
X119.4Y-101.2
X120.8Y-59.2
X124.6Y-101.2
X130.029Y-101.2
X141.4Y-101.2
X147.086Y-101.2
X152.4Y-101.2
X174.4Y-59.0
T5
X143.5Y-43.535G85X143.5Y-41.335
G05
X149.4Y-39.035G85X147.2Y-39.035
G05
X149.6Y-45.335G85X147.0Y-45.335
G05
M30
