G04 #@! TF.GenerationSoftware,KiCad,Pcbnew,8.0.1*
G04 #@! TF.CreationDate,2024-07-26T15:20:18+05:00*
G04 #@! TF.ProjectId,Life_pedal,4c696665-5f70-4656-9461-6c2e6b696361,rev?*
G04 #@! TF.SameCoordinates,Original*
G04 #@! TF.FileFunction,Legend,Top*
G04 #@! TF.FilePolarity,Positive*
%FSLAX46Y46*%
G04 Gerber Fmt 4.6, Leading zero omitted, Abs format (unit mm)*
G04 Created by KiCad (PCBNEW 8.0.1) date 2024-07-26 15:20:18*
%MOMM*%
%LPD*%
G01*
G04 APERTURE LIST*
G04 Aperture macros list*
%AMRoundRect*
0 Rectangle with rounded corners*
0 $1 Rounding radius*
0 $2 $3 $4 $5 $6 $7 $8 $9 X,Y pos of 4 corners*
0 Add a 4 corners polygon primitive as box body*
4,1,4,$2,$3,$4,$5,$6,$7,$8,$9,$2,$3,0*
0 Add four circle primitives for the rounded corners*
1,1,$1+$1,$2,$3*
1,1,$1+$1,$4,$5*
1,1,$1+$1,$6,$7*
1,1,$1+$1,$8,$9*
0 Add four rect primitives between the rounded corners*
20,1,$1+$1,$2,$3,$4,$5,0*
20,1,$1+$1,$4,$5,$6,$7,0*
20,1,$1+$1,$6,$7,$8,$9,0*
20,1,$1+$1,$8,$9,$2,$3,0*%
G04 Aperture macros list end*
%ADD10C,0.100000*%
%ADD11C,0.150000*%
%ADD12C,0.120000*%
%ADD13C,0.152400*%
%ADD14O,2.200000X2.200000*%
%ADD15R,2.200000X2.200000*%
%ADD16RoundRect,0.237500X-0.237500X0.300000X-0.237500X-0.300000X0.237500X-0.300000X0.237500X0.300000X0*%
%ADD17RoundRect,0.237500X-0.237500X0.250000X-0.237500X-0.250000X0.237500X-0.250000X0.237500X0.250000X0*%
%ADD18R,1.600000X1.600000*%
%ADD19C,1.600000*%
%ADD20RoundRect,0.237500X0.237500X-0.250000X0.237500X0.250000X-0.237500X0.250000X-0.237500X-0.250000X0*%
%ADD21RoundRect,0.237500X0.250000X0.237500X-0.250000X0.237500X-0.250000X-0.237500X0.250000X-0.237500X0*%
%ADD22R,1.500000X1.050000*%
%ADD23O,1.500000X1.050000*%
%ADD24RoundRect,0.237500X0.300000X0.237500X-0.300000X0.237500X-0.300000X-0.237500X0.300000X-0.237500X0*%
%ADD25C,1.500000*%
%ADD26R,1.500000X1.500000*%
%ADD27RoundRect,0.250002X1.699998X-1.699998X1.699998X1.699998X-1.699998X1.699998X-1.699998X-1.699998X0*%
%ADD28R,1.700000X1.700000*%
%ADD29O,1.700000X1.700000*%
%ADD30C,1.804000*%
%ADD31RoundRect,0.237500X-0.250000X-0.237500X0.250000X-0.237500X0.250000X0.237500X-0.250000X0.237500X0*%
%ADD32C,3.000000*%
%ADD33R,4.600000X2.000000*%
%ADD34O,4.200000X2.000000*%
%ADD35O,2.000000X4.200000*%
%ADD36RoundRect,0.237500X0.237500X-0.300000X0.237500X0.300000X-0.237500X0.300000X-0.237500X-0.300000X0*%
%ADD37RoundRect,0.237500X-0.300000X-0.237500X0.300000X-0.237500X0.300000X0.237500X-0.300000X0.237500X0*%
%ADD38C,2.340000*%
%ADD39C,0.600000*%
G04 APERTURE END LIST*
D10*
X124141764Y-74157105D02*
X123391764Y-74157105D01*
X123391764Y-74157105D02*
X123391764Y-73978534D01*
X123391764Y-73978534D02*
X123427478Y-73871391D01*
X123427478Y-73871391D02*
X123498907Y-73799962D01*
X123498907Y-73799962D02*
X123570335Y-73764248D01*
X123570335Y-73764248D02*
X123713192Y-73728534D01*
X123713192Y-73728534D02*
X123820335Y-73728534D01*
X123820335Y-73728534D02*
X123963192Y-73764248D01*
X123963192Y-73764248D02*
X124034621Y-73799962D01*
X124034621Y-73799962D02*
X124106050Y-73871391D01*
X124106050Y-73871391D02*
X124141764Y-73978534D01*
X124141764Y-73978534D02*
X124141764Y-74157105D01*
X123391764Y-73085677D02*
X123391764Y-73228534D01*
X123391764Y-73228534D02*
X123427478Y-73299962D01*
X123427478Y-73299962D02*
X123463192Y-73335677D01*
X123463192Y-73335677D02*
X123570335Y-73407105D01*
X123570335Y-73407105D02*
X123713192Y-73442819D01*
X123713192Y-73442819D02*
X123998907Y-73442819D01*
X123998907Y-73442819D02*
X124070335Y-73407105D01*
X124070335Y-73407105D02*
X124106050Y-73371391D01*
X124106050Y-73371391D02*
X124141764Y-73299962D01*
X124141764Y-73299962D02*
X124141764Y-73157105D01*
X124141764Y-73157105D02*
X124106050Y-73085677D01*
X124106050Y-73085677D02*
X124070335Y-73049962D01*
X124070335Y-73049962D02*
X123998907Y-73014248D01*
X123998907Y-73014248D02*
X123820335Y-73014248D01*
X123820335Y-73014248D02*
X123748907Y-73049962D01*
X123748907Y-73049962D02*
X123713192Y-73085677D01*
X123713192Y-73085677D02*
X123677478Y-73157105D01*
X123677478Y-73157105D02*
X123677478Y-73299962D01*
X123677478Y-73299962D02*
X123713192Y-73371391D01*
X123713192Y-73371391D02*
X123748907Y-73407105D01*
X123748907Y-73407105D02*
X123820335Y-73442819D01*
D11*
X124254819Y-66365437D02*
X123254819Y-66365437D01*
X124254819Y-65794009D02*
X123683390Y-66222580D01*
X123254819Y-65794009D02*
X123826247Y-66365437D01*
D10*
X126670335Y-81082143D02*
X126706050Y-81117857D01*
X126706050Y-81117857D02*
X126741764Y-81225000D01*
X126741764Y-81225000D02*
X126741764Y-81296428D01*
X126741764Y-81296428D02*
X126706050Y-81403571D01*
X126706050Y-81403571D02*
X126634621Y-81475000D01*
X126634621Y-81475000D02*
X126563192Y-81510714D01*
X126563192Y-81510714D02*
X126420335Y-81546428D01*
X126420335Y-81546428D02*
X126313192Y-81546428D01*
X126313192Y-81546428D02*
X126170335Y-81510714D01*
X126170335Y-81510714D02*
X126098907Y-81475000D01*
X126098907Y-81475000D02*
X126027478Y-81403571D01*
X126027478Y-81403571D02*
X125991764Y-81296428D01*
X125991764Y-81296428D02*
X125991764Y-81225000D01*
X125991764Y-81225000D02*
X126027478Y-81117857D01*
X126027478Y-81117857D02*
X126063192Y-81082143D01*
X126063192Y-80796428D02*
X126027478Y-80760714D01*
X126027478Y-80760714D02*
X125991764Y-80689286D01*
X125991764Y-80689286D02*
X125991764Y-80510714D01*
X125991764Y-80510714D02*
X126027478Y-80439286D01*
X126027478Y-80439286D02*
X126063192Y-80403571D01*
X126063192Y-80403571D02*
X126134621Y-80367857D01*
X126134621Y-80367857D02*
X126206050Y-80367857D01*
X126206050Y-80367857D02*
X126313192Y-80403571D01*
X126313192Y-80403571D02*
X126741764Y-80832143D01*
X126741764Y-80832143D02*
X126741764Y-80367857D01*
X126063192Y-80082142D02*
X126027478Y-80046428D01*
X126027478Y-80046428D02*
X125991764Y-79975000D01*
X125991764Y-79975000D02*
X125991764Y-79796428D01*
X125991764Y-79796428D02*
X126027478Y-79725000D01*
X126027478Y-79725000D02*
X126063192Y-79689285D01*
X126063192Y-79689285D02*
X126134621Y-79653571D01*
X126134621Y-79653571D02*
X126206050Y-79653571D01*
X126206050Y-79653571D02*
X126313192Y-79689285D01*
X126313192Y-79689285D02*
X126741764Y-80117857D01*
X126741764Y-80117857D02*
X126741764Y-79653571D01*
X148341764Y-51925000D02*
X147984621Y-52175000D01*
X148341764Y-52353571D02*
X147591764Y-52353571D01*
X147591764Y-52353571D02*
X147591764Y-52067857D01*
X147591764Y-52067857D02*
X147627478Y-51996428D01*
X147627478Y-51996428D02*
X147663192Y-51960714D01*
X147663192Y-51960714D02*
X147734621Y-51925000D01*
X147734621Y-51925000D02*
X147841764Y-51925000D01*
X147841764Y-51925000D02*
X147913192Y-51960714D01*
X147913192Y-51960714D02*
X147948907Y-51996428D01*
X147948907Y-51996428D02*
X147984621Y-52067857D01*
X147984621Y-52067857D02*
X147984621Y-52353571D01*
X147663192Y-51639285D02*
X147627478Y-51603571D01*
X147627478Y-51603571D02*
X147591764Y-51532143D01*
X147591764Y-51532143D02*
X147591764Y-51353571D01*
X147591764Y-51353571D02*
X147627478Y-51282143D01*
X147627478Y-51282143D02*
X147663192Y-51246428D01*
X147663192Y-51246428D02*
X147734621Y-51210714D01*
X147734621Y-51210714D02*
X147806050Y-51210714D01*
X147806050Y-51210714D02*
X147913192Y-51246428D01*
X147913192Y-51246428D02*
X148341764Y-51675000D01*
X148341764Y-51675000D02*
X148341764Y-51210714D01*
X166141764Y-102082143D02*
X165784621Y-102332143D01*
X166141764Y-102510714D02*
X165391764Y-102510714D01*
X165391764Y-102510714D02*
X165391764Y-102225000D01*
X165391764Y-102225000D02*
X165427478Y-102153571D01*
X165427478Y-102153571D02*
X165463192Y-102117857D01*
X165463192Y-102117857D02*
X165534621Y-102082143D01*
X165534621Y-102082143D02*
X165641764Y-102082143D01*
X165641764Y-102082143D02*
X165713192Y-102117857D01*
X165713192Y-102117857D02*
X165748907Y-102153571D01*
X165748907Y-102153571D02*
X165784621Y-102225000D01*
X165784621Y-102225000D02*
X165784621Y-102510714D01*
X166141764Y-101367857D02*
X166141764Y-101796428D01*
X166141764Y-101582143D02*
X165391764Y-101582143D01*
X165391764Y-101582143D02*
X165498907Y-101653571D01*
X165498907Y-101653571D02*
X165570335Y-101725000D01*
X165570335Y-101725000D02*
X165606050Y-101796428D01*
X165391764Y-100725000D02*
X165391764Y-100867857D01*
X165391764Y-100867857D02*
X165427478Y-100939285D01*
X165427478Y-100939285D02*
X165463192Y-100975000D01*
X165463192Y-100975000D02*
X165570335Y-101046428D01*
X165570335Y-101046428D02*
X165713192Y-101082142D01*
X165713192Y-101082142D02*
X165998907Y-101082142D01*
X165998907Y-101082142D02*
X166070335Y-101046428D01*
X166070335Y-101046428D02*
X166106050Y-101010714D01*
X166106050Y-101010714D02*
X166141764Y-100939285D01*
X166141764Y-100939285D02*
X166141764Y-100796428D01*
X166141764Y-100796428D02*
X166106050Y-100725000D01*
X166106050Y-100725000D02*
X166070335Y-100689285D01*
X166070335Y-100689285D02*
X165998907Y-100653571D01*
X165998907Y-100653571D02*
X165820335Y-100653571D01*
X165820335Y-100653571D02*
X165748907Y-100689285D01*
X165748907Y-100689285D02*
X165713192Y-100725000D01*
X165713192Y-100725000D02*
X165677478Y-100796428D01*
X165677478Y-100796428D02*
X165677478Y-100939285D01*
X165677478Y-100939285D02*
X165713192Y-101010714D01*
X165713192Y-101010714D02*
X165748907Y-101046428D01*
X165748907Y-101046428D02*
X165820335Y-101082142D01*
X127741764Y-66425337D02*
X126991764Y-66425337D01*
X126991764Y-66425337D02*
X126991764Y-66246766D01*
X126991764Y-66246766D02*
X127027478Y-66139623D01*
X127027478Y-66139623D02*
X127098907Y-66068194D01*
X127098907Y-66068194D02*
X127170335Y-66032480D01*
X127170335Y-66032480D02*
X127313192Y-65996766D01*
X127313192Y-65996766D02*
X127420335Y-65996766D01*
X127420335Y-65996766D02*
X127563192Y-66032480D01*
X127563192Y-66032480D02*
X127634621Y-66068194D01*
X127634621Y-66068194D02*
X127706050Y-66139623D01*
X127706050Y-66139623D02*
X127741764Y-66246766D01*
X127741764Y-66246766D02*
X127741764Y-66425337D01*
X127313192Y-65568194D02*
X127277478Y-65639623D01*
X127277478Y-65639623D02*
X127241764Y-65675337D01*
X127241764Y-65675337D02*
X127170335Y-65711051D01*
X127170335Y-65711051D02*
X127134621Y-65711051D01*
X127134621Y-65711051D02*
X127063192Y-65675337D01*
X127063192Y-65675337D02*
X127027478Y-65639623D01*
X127027478Y-65639623D02*
X126991764Y-65568194D01*
X126991764Y-65568194D02*
X126991764Y-65425337D01*
X126991764Y-65425337D02*
X127027478Y-65353909D01*
X127027478Y-65353909D02*
X127063192Y-65318194D01*
X127063192Y-65318194D02*
X127134621Y-65282480D01*
X127134621Y-65282480D02*
X127170335Y-65282480D01*
X127170335Y-65282480D02*
X127241764Y-65318194D01*
X127241764Y-65318194D02*
X127277478Y-65353909D01*
X127277478Y-65353909D02*
X127313192Y-65425337D01*
X127313192Y-65425337D02*
X127313192Y-65568194D01*
X127313192Y-65568194D02*
X127348907Y-65639623D01*
X127348907Y-65639623D02*
X127384621Y-65675337D01*
X127384621Y-65675337D02*
X127456050Y-65711051D01*
X127456050Y-65711051D02*
X127598907Y-65711051D01*
X127598907Y-65711051D02*
X127670335Y-65675337D01*
X127670335Y-65675337D02*
X127706050Y-65639623D01*
X127706050Y-65639623D02*
X127741764Y-65568194D01*
X127741764Y-65568194D02*
X127741764Y-65425337D01*
X127741764Y-65425337D02*
X127706050Y-65353909D01*
X127706050Y-65353909D02*
X127670335Y-65318194D01*
X127670335Y-65318194D02*
X127598907Y-65282480D01*
X127598907Y-65282480D02*
X127456050Y-65282480D01*
X127456050Y-65282480D02*
X127384621Y-65318194D01*
X127384621Y-65318194D02*
X127348907Y-65353909D01*
X127348907Y-65353909D02*
X127313192Y-65425337D01*
D11*
X127654819Y-73301904D02*
X126654819Y-73301904D01*
X127654819Y-72730476D02*
X127083390Y-73159047D01*
X126654819Y-72730476D02*
X127226247Y-73301904D01*
D10*
X151319887Y-81120335D02*
X151284173Y-81156050D01*
X151284173Y-81156050D02*
X151177030Y-81191764D01*
X151177030Y-81191764D02*
X151105602Y-81191764D01*
X151105602Y-81191764D02*
X150998459Y-81156050D01*
X150998459Y-81156050D02*
X150927030Y-81084621D01*
X150927030Y-81084621D02*
X150891316Y-81013192D01*
X150891316Y-81013192D02*
X150855602Y-80870335D01*
X150855602Y-80870335D02*
X150855602Y-80763192D01*
X150855602Y-80763192D02*
X150891316Y-80620335D01*
X150891316Y-80620335D02*
X150927030Y-80548907D01*
X150927030Y-80548907D02*
X150998459Y-80477478D01*
X150998459Y-80477478D02*
X151105602Y-80441764D01*
X151105602Y-80441764D02*
X151177030Y-80441764D01*
X151177030Y-80441764D02*
X151284173Y-80477478D01*
X151284173Y-80477478D02*
X151319887Y-80513192D01*
X151962745Y-80441764D02*
X151819887Y-80441764D01*
X151819887Y-80441764D02*
X151748459Y-80477478D01*
X151748459Y-80477478D02*
X151712745Y-80513192D01*
X151712745Y-80513192D02*
X151641316Y-80620335D01*
X151641316Y-80620335D02*
X151605602Y-80763192D01*
X151605602Y-80763192D02*
X151605602Y-81048907D01*
X151605602Y-81048907D02*
X151641316Y-81120335D01*
X151641316Y-81120335D02*
X151677030Y-81156050D01*
X151677030Y-81156050D02*
X151748459Y-81191764D01*
X151748459Y-81191764D02*
X151891316Y-81191764D01*
X151891316Y-81191764D02*
X151962745Y-81156050D01*
X151962745Y-81156050D02*
X151998459Y-81120335D01*
X151998459Y-81120335D02*
X152034173Y-81048907D01*
X152034173Y-81048907D02*
X152034173Y-80870335D01*
X152034173Y-80870335D02*
X151998459Y-80798907D01*
X151998459Y-80798907D02*
X151962745Y-80763192D01*
X151962745Y-80763192D02*
X151891316Y-80727478D01*
X151891316Y-80727478D02*
X151748459Y-80727478D01*
X151748459Y-80727478D02*
X151677030Y-80763192D01*
X151677030Y-80763192D02*
X151641316Y-80798907D01*
X151641316Y-80798907D02*
X151605602Y-80870335D01*
X165711764Y-86282143D02*
X165354621Y-86532143D01*
X165711764Y-86710714D02*
X164961764Y-86710714D01*
X164961764Y-86710714D02*
X164961764Y-86425000D01*
X164961764Y-86425000D02*
X164997478Y-86353571D01*
X164997478Y-86353571D02*
X165033192Y-86317857D01*
X165033192Y-86317857D02*
X165104621Y-86282143D01*
X165104621Y-86282143D02*
X165211764Y-86282143D01*
X165211764Y-86282143D02*
X165283192Y-86317857D01*
X165283192Y-86317857D02*
X165318907Y-86353571D01*
X165318907Y-86353571D02*
X165354621Y-86425000D01*
X165354621Y-86425000D02*
X165354621Y-86710714D01*
X165711764Y-85567857D02*
X165711764Y-85996428D01*
X165711764Y-85782143D02*
X164961764Y-85782143D01*
X164961764Y-85782143D02*
X165068907Y-85853571D01*
X165068907Y-85853571D02*
X165140335Y-85925000D01*
X165140335Y-85925000D02*
X165176050Y-85996428D01*
X165283192Y-85139285D02*
X165247478Y-85210714D01*
X165247478Y-85210714D02*
X165211764Y-85246428D01*
X165211764Y-85246428D02*
X165140335Y-85282142D01*
X165140335Y-85282142D02*
X165104621Y-85282142D01*
X165104621Y-85282142D02*
X165033192Y-85246428D01*
X165033192Y-85246428D02*
X164997478Y-85210714D01*
X164997478Y-85210714D02*
X164961764Y-85139285D01*
X164961764Y-85139285D02*
X164961764Y-84996428D01*
X164961764Y-84996428D02*
X164997478Y-84925000D01*
X164997478Y-84925000D02*
X165033192Y-84889285D01*
X165033192Y-84889285D02*
X165104621Y-84853571D01*
X165104621Y-84853571D02*
X165140335Y-84853571D01*
X165140335Y-84853571D02*
X165211764Y-84889285D01*
X165211764Y-84889285D02*
X165247478Y-84925000D01*
X165247478Y-84925000D02*
X165283192Y-84996428D01*
X165283192Y-84996428D02*
X165283192Y-85139285D01*
X165283192Y-85139285D02*
X165318907Y-85210714D01*
X165318907Y-85210714D02*
X165354621Y-85246428D01*
X165354621Y-85246428D02*
X165426050Y-85282142D01*
X165426050Y-85282142D02*
X165568907Y-85282142D01*
X165568907Y-85282142D02*
X165640335Y-85246428D01*
X165640335Y-85246428D02*
X165676050Y-85210714D01*
X165676050Y-85210714D02*
X165711764Y-85139285D01*
X165711764Y-85139285D02*
X165711764Y-84996428D01*
X165711764Y-84996428D02*
X165676050Y-84925000D01*
X165676050Y-84925000D02*
X165640335Y-84889285D01*
X165640335Y-84889285D02*
X165568907Y-84853571D01*
X165568907Y-84853571D02*
X165426050Y-84853571D01*
X165426050Y-84853571D02*
X165354621Y-84889285D01*
X165354621Y-84889285D02*
X165318907Y-84925000D01*
X165318907Y-84925000D02*
X165283192Y-84996428D01*
X128474999Y-94541764D02*
X128224999Y-94184621D01*
X128046428Y-94541764D02*
X128046428Y-93791764D01*
X128046428Y-93791764D02*
X128332142Y-93791764D01*
X128332142Y-93791764D02*
X128403571Y-93827478D01*
X128403571Y-93827478D02*
X128439285Y-93863192D01*
X128439285Y-93863192D02*
X128474999Y-93934621D01*
X128474999Y-93934621D02*
X128474999Y-94041764D01*
X128474999Y-94041764D02*
X128439285Y-94113192D01*
X128439285Y-94113192D02*
X128403571Y-94148907D01*
X128403571Y-94148907D02*
X128332142Y-94184621D01*
X128332142Y-94184621D02*
X128046428Y-94184621D01*
X129117857Y-94041764D02*
X129117857Y-94541764D01*
X128939285Y-93756050D02*
X128760714Y-94291764D01*
X128760714Y-94291764D02*
X129224999Y-94291764D01*
X136613194Y-80471428D02*
X136577480Y-80542857D01*
X136577480Y-80542857D02*
X136506052Y-80614285D01*
X136506052Y-80614285D02*
X136398909Y-80721428D01*
X136398909Y-80721428D02*
X136363194Y-80792857D01*
X136363194Y-80792857D02*
X136363194Y-80864285D01*
X136541766Y-80828571D02*
X136506052Y-80900000D01*
X136506052Y-80900000D02*
X136434623Y-80971428D01*
X136434623Y-80971428D02*
X136291766Y-81007142D01*
X136291766Y-81007142D02*
X136041766Y-81007142D01*
X136041766Y-81007142D02*
X135898909Y-80971428D01*
X135898909Y-80971428D02*
X135827480Y-80900000D01*
X135827480Y-80900000D02*
X135791766Y-80828571D01*
X135791766Y-80828571D02*
X135791766Y-80685714D01*
X135791766Y-80685714D02*
X135827480Y-80614285D01*
X135827480Y-80614285D02*
X135898909Y-80542857D01*
X135898909Y-80542857D02*
X136041766Y-80507142D01*
X136041766Y-80507142D02*
X136291766Y-80507142D01*
X136291766Y-80507142D02*
X136434623Y-80542857D01*
X136434623Y-80542857D02*
X136506052Y-80614285D01*
X136506052Y-80614285D02*
X136541766Y-80685714D01*
X136541766Y-80685714D02*
X136541766Y-80828571D01*
X135791766Y-79864286D02*
X135791766Y-80007143D01*
X135791766Y-80007143D02*
X135827480Y-80078571D01*
X135827480Y-80078571D02*
X135863194Y-80114286D01*
X135863194Y-80114286D02*
X135970337Y-80185714D01*
X135970337Y-80185714D02*
X136113194Y-80221428D01*
X136113194Y-80221428D02*
X136398909Y-80221428D01*
X136398909Y-80221428D02*
X136470337Y-80185714D01*
X136470337Y-80185714D02*
X136506052Y-80150000D01*
X136506052Y-80150000D02*
X136541766Y-80078571D01*
X136541766Y-80078571D02*
X136541766Y-79935714D01*
X136541766Y-79935714D02*
X136506052Y-79864286D01*
X136506052Y-79864286D02*
X136470337Y-79828571D01*
X136470337Y-79828571D02*
X136398909Y-79792857D01*
X136398909Y-79792857D02*
X136220337Y-79792857D01*
X136220337Y-79792857D02*
X136148909Y-79828571D01*
X136148909Y-79828571D02*
X136113194Y-79864286D01*
X136113194Y-79864286D02*
X136077480Y-79935714D01*
X136077480Y-79935714D02*
X136077480Y-80078571D01*
X136077480Y-80078571D02*
X136113194Y-80150000D01*
X136113194Y-80150000D02*
X136148909Y-80185714D01*
X136148909Y-80185714D02*
X136220337Y-80221428D01*
X146941764Y-88725000D02*
X146584621Y-88975000D01*
X146941764Y-89153571D02*
X146191764Y-89153571D01*
X146191764Y-89153571D02*
X146191764Y-88867857D01*
X146191764Y-88867857D02*
X146227478Y-88796428D01*
X146227478Y-88796428D02*
X146263192Y-88760714D01*
X146263192Y-88760714D02*
X146334621Y-88725000D01*
X146334621Y-88725000D02*
X146441764Y-88725000D01*
X146441764Y-88725000D02*
X146513192Y-88760714D01*
X146513192Y-88760714D02*
X146548907Y-88796428D01*
X146548907Y-88796428D02*
X146584621Y-88867857D01*
X146584621Y-88867857D02*
X146584621Y-89153571D01*
X146191764Y-88475000D02*
X146191764Y-87975000D01*
X146191764Y-87975000D02*
X146941764Y-88296428D01*
X140874999Y-86070335D02*
X140839285Y-86106050D01*
X140839285Y-86106050D02*
X140732142Y-86141764D01*
X140732142Y-86141764D02*
X140660714Y-86141764D01*
X140660714Y-86141764D02*
X140553571Y-86106050D01*
X140553571Y-86106050D02*
X140482142Y-86034621D01*
X140482142Y-86034621D02*
X140446428Y-85963192D01*
X140446428Y-85963192D02*
X140410714Y-85820335D01*
X140410714Y-85820335D02*
X140410714Y-85713192D01*
X140410714Y-85713192D02*
X140446428Y-85570335D01*
X140446428Y-85570335D02*
X140482142Y-85498907D01*
X140482142Y-85498907D02*
X140553571Y-85427478D01*
X140553571Y-85427478D02*
X140660714Y-85391764D01*
X140660714Y-85391764D02*
X140732142Y-85391764D01*
X140732142Y-85391764D02*
X140839285Y-85427478D01*
X140839285Y-85427478D02*
X140874999Y-85463192D01*
X141124999Y-85391764D02*
X141624999Y-85391764D01*
X141624999Y-85391764D02*
X141303571Y-86141764D01*
X158741764Y-96482143D02*
X158384621Y-96732143D01*
X158741764Y-96910714D02*
X157991764Y-96910714D01*
X157991764Y-96910714D02*
X157991764Y-96625000D01*
X157991764Y-96625000D02*
X158027478Y-96553571D01*
X158027478Y-96553571D02*
X158063192Y-96517857D01*
X158063192Y-96517857D02*
X158134621Y-96482143D01*
X158134621Y-96482143D02*
X158241764Y-96482143D01*
X158241764Y-96482143D02*
X158313192Y-96517857D01*
X158313192Y-96517857D02*
X158348907Y-96553571D01*
X158348907Y-96553571D02*
X158384621Y-96625000D01*
X158384621Y-96625000D02*
X158384621Y-96910714D01*
X158741764Y-95767857D02*
X158741764Y-96196428D01*
X158741764Y-95982143D02*
X157991764Y-95982143D01*
X157991764Y-95982143D02*
X158098907Y-96053571D01*
X158098907Y-96053571D02*
X158170335Y-96125000D01*
X158170335Y-96125000D02*
X158206050Y-96196428D01*
X158063192Y-95482142D02*
X158027478Y-95446428D01*
X158027478Y-95446428D02*
X157991764Y-95375000D01*
X157991764Y-95375000D02*
X157991764Y-95196428D01*
X157991764Y-95196428D02*
X158027478Y-95125000D01*
X158027478Y-95125000D02*
X158063192Y-95089285D01*
X158063192Y-95089285D02*
X158134621Y-95053571D01*
X158134621Y-95053571D02*
X158206050Y-95053571D01*
X158206050Y-95053571D02*
X158313192Y-95089285D01*
X158313192Y-95089285D02*
X158741764Y-95517857D01*
X158741764Y-95517857D02*
X158741764Y-95053571D01*
X152413192Y-88871428D02*
X152377478Y-88942857D01*
X152377478Y-88942857D02*
X152306050Y-89014285D01*
X152306050Y-89014285D02*
X152198907Y-89121428D01*
X152198907Y-89121428D02*
X152163192Y-89192857D01*
X152163192Y-89192857D02*
X152163192Y-89264285D01*
X152341764Y-89228571D02*
X152306050Y-89300000D01*
X152306050Y-89300000D02*
X152234621Y-89371428D01*
X152234621Y-89371428D02*
X152091764Y-89407142D01*
X152091764Y-89407142D02*
X151841764Y-89407142D01*
X151841764Y-89407142D02*
X151698907Y-89371428D01*
X151698907Y-89371428D02*
X151627478Y-89300000D01*
X151627478Y-89300000D02*
X151591764Y-89228571D01*
X151591764Y-89228571D02*
X151591764Y-89085714D01*
X151591764Y-89085714D02*
X151627478Y-89014285D01*
X151627478Y-89014285D02*
X151698907Y-88942857D01*
X151698907Y-88942857D02*
X151841764Y-88907142D01*
X151841764Y-88907142D02*
X152091764Y-88907142D01*
X152091764Y-88907142D02*
X152234621Y-88942857D01*
X152234621Y-88942857D02*
X152306050Y-89014285D01*
X152306050Y-89014285D02*
X152341764Y-89085714D01*
X152341764Y-89085714D02*
X152341764Y-89228571D01*
X151591764Y-88657143D02*
X151591764Y-88192857D01*
X151591764Y-88192857D02*
X151877478Y-88442857D01*
X151877478Y-88442857D02*
X151877478Y-88335714D01*
X151877478Y-88335714D02*
X151913192Y-88264286D01*
X151913192Y-88264286D02*
X151948907Y-88228571D01*
X151948907Y-88228571D02*
X152020335Y-88192857D01*
X152020335Y-88192857D02*
X152198907Y-88192857D01*
X152198907Y-88192857D02*
X152270335Y-88228571D01*
X152270335Y-88228571D02*
X152306050Y-88264286D01*
X152306050Y-88264286D02*
X152341764Y-88335714D01*
X152341764Y-88335714D02*
X152341764Y-88550000D01*
X152341764Y-88550000D02*
X152306050Y-88621428D01*
X152306050Y-88621428D02*
X152270335Y-88657143D01*
X129341764Y-84682143D02*
X128984621Y-84932143D01*
X129341764Y-85110714D02*
X128591764Y-85110714D01*
X128591764Y-85110714D02*
X128591764Y-84825000D01*
X128591764Y-84825000D02*
X128627478Y-84753571D01*
X128627478Y-84753571D02*
X128663192Y-84717857D01*
X128663192Y-84717857D02*
X128734621Y-84682143D01*
X128734621Y-84682143D02*
X128841764Y-84682143D01*
X128841764Y-84682143D02*
X128913192Y-84717857D01*
X128913192Y-84717857D02*
X128948907Y-84753571D01*
X128948907Y-84753571D02*
X128984621Y-84825000D01*
X128984621Y-84825000D02*
X128984621Y-85110714D01*
X128663192Y-84396428D02*
X128627478Y-84360714D01*
X128627478Y-84360714D02*
X128591764Y-84289286D01*
X128591764Y-84289286D02*
X128591764Y-84110714D01*
X128591764Y-84110714D02*
X128627478Y-84039286D01*
X128627478Y-84039286D02*
X128663192Y-84003571D01*
X128663192Y-84003571D02*
X128734621Y-83967857D01*
X128734621Y-83967857D02*
X128806050Y-83967857D01*
X128806050Y-83967857D02*
X128913192Y-84003571D01*
X128913192Y-84003571D02*
X129341764Y-84432143D01*
X129341764Y-84432143D02*
X129341764Y-83967857D01*
X128913192Y-83539285D02*
X128877478Y-83610714D01*
X128877478Y-83610714D02*
X128841764Y-83646428D01*
X128841764Y-83646428D02*
X128770335Y-83682142D01*
X128770335Y-83682142D02*
X128734621Y-83682142D01*
X128734621Y-83682142D02*
X128663192Y-83646428D01*
X128663192Y-83646428D02*
X128627478Y-83610714D01*
X128627478Y-83610714D02*
X128591764Y-83539285D01*
X128591764Y-83539285D02*
X128591764Y-83396428D01*
X128591764Y-83396428D02*
X128627478Y-83325000D01*
X128627478Y-83325000D02*
X128663192Y-83289285D01*
X128663192Y-83289285D02*
X128734621Y-83253571D01*
X128734621Y-83253571D02*
X128770335Y-83253571D01*
X128770335Y-83253571D02*
X128841764Y-83289285D01*
X128841764Y-83289285D02*
X128877478Y-83325000D01*
X128877478Y-83325000D02*
X128913192Y-83396428D01*
X128913192Y-83396428D02*
X128913192Y-83539285D01*
X128913192Y-83539285D02*
X128948907Y-83610714D01*
X128948907Y-83610714D02*
X128984621Y-83646428D01*
X128984621Y-83646428D02*
X129056050Y-83682142D01*
X129056050Y-83682142D02*
X129198907Y-83682142D01*
X129198907Y-83682142D02*
X129270335Y-83646428D01*
X129270335Y-83646428D02*
X129306050Y-83610714D01*
X129306050Y-83610714D02*
X129341764Y-83539285D01*
X129341764Y-83539285D02*
X129341764Y-83396428D01*
X129341764Y-83396428D02*
X129306050Y-83325000D01*
X129306050Y-83325000D02*
X129270335Y-83289285D01*
X129270335Y-83289285D02*
X129198907Y-83253571D01*
X129198907Y-83253571D02*
X129056050Y-83253571D01*
X129056050Y-83253571D02*
X128984621Y-83289285D01*
X128984621Y-83289285D02*
X128948907Y-83325000D01*
X128948907Y-83325000D02*
X128913192Y-83396428D01*
X171246428Y-98541764D02*
X171246428Y-97791764D01*
X171246428Y-97791764D02*
X171424999Y-97791764D01*
X171424999Y-97791764D02*
X171532142Y-97827478D01*
X171532142Y-97827478D02*
X171603571Y-97898907D01*
X171603571Y-97898907D02*
X171639285Y-97970335D01*
X171639285Y-97970335D02*
X171674999Y-98113192D01*
X171674999Y-98113192D02*
X171674999Y-98220335D01*
X171674999Y-98220335D02*
X171639285Y-98363192D01*
X171639285Y-98363192D02*
X171603571Y-98434621D01*
X171603571Y-98434621D02*
X171532142Y-98506050D01*
X171532142Y-98506050D02*
X171424999Y-98541764D01*
X171424999Y-98541764D02*
X171246428Y-98541764D01*
X171960714Y-97863192D02*
X171996428Y-97827478D01*
X171996428Y-97827478D02*
X172067857Y-97791764D01*
X172067857Y-97791764D02*
X172246428Y-97791764D01*
X172246428Y-97791764D02*
X172317857Y-97827478D01*
X172317857Y-97827478D02*
X172353571Y-97863192D01*
X172353571Y-97863192D02*
X172389285Y-97934621D01*
X172389285Y-97934621D02*
X172389285Y-98006050D01*
X172389285Y-98006050D02*
X172353571Y-98113192D01*
X172353571Y-98113192D02*
X171924999Y-98541764D01*
X171924999Y-98541764D02*
X172389285Y-98541764D01*
D11*
X171506329Y-97254819D02*
X171506329Y-96254819D01*
X172077757Y-97254819D02*
X171649186Y-96683390D01*
X172077757Y-96254819D02*
X171506329Y-96826247D01*
D10*
X160074999Y-96270335D02*
X160039285Y-96306050D01*
X160039285Y-96306050D02*
X159932142Y-96341764D01*
X159932142Y-96341764D02*
X159860714Y-96341764D01*
X159860714Y-96341764D02*
X159753571Y-96306050D01*
X159753571Y-96306050D02*
X159682142Y-96234621D01*
X159682142Y-96234621D02*
X159646428Y-96163192D01*
X159646428Y-96163192D02*
X159610714Y-96020335D01*
X159610714Y-96020335D02*
X159610714Y-95913192D01*
X159610714Y-95913192D02*
X159646428Y-95770335D01*
X159646428Y-95770335D02*
X159682142Y-95698907D01*
X159682142Y-95698907D02*
X159753571Y-95627478D01*
X159753571Y-95627478D02*
X159860714Y-95591764D01*
X159860714Y-95591764D02*
X159932142Y-95591764D01*
X159932142Y-95591764D02*
X160039285Y-95627478D01*
X160039285Y-95627478D02*
X160074999Y-95663192D01*
X160503571Y-95913192D02*
X160432142Y-95877478D01*
X160432142Y-95877478D02*
X160396428Y-95841764D01*
X160396428Y-95841764D02*
X160360714Y-95770335D01*
X160360714Y-95770335D02*
X160360714Y-95734621D01*
X160360714Y-95734621D02*
X160396428Y-95663192D01*
X160396428Y-95663192D02*
X160432142Y-95627478D01*
X160432142Y-95627478D02*
X160503571Y-95591764D01*
X160503571Y-95591764D02*
X160646428Y-95591764D01*
X160646428Y-95591764D02*
X160717857Y-95627478D01*
X160717857Y-95627478D02*
X160753571Y-95663192D01*
X160753571Y-95663192D02*
X160789285Y-95734621D01*
X160789285Y-95734621D02*
X160789285Y-95770335D01*
X160789285Y-95770335D02*
X160753571Y-95841764D01*
X160753571Y-95841764D02*
X160717857Y-95877478D01*
X160717857Y-95877478D02*
X160646428Y-95913192D01*
X160646428Y-95913192D02*
X160503571Y-95913192D01*
X160503571Y-95913192D02*
X160432142Y-95948907D01*
X160432142Y-95948907D02*
X160396428Y-95984621D01*
X160396428Y-95984621D02*
X160360714Y-96056050D01*
X160360714Y-96056050D02*
X160360714Y-96198907D01*
X160360714Y-96198907D02*
X160396428Y-96270335D01*
X160396428Y-96270335D02*
X160432142Y-96306050D01*
X160432142Y-96306050D02*
X160503571Y-96341764D01*
X160503571Y-96341764D02*
X160646428Y-96341764D01*
X160646428Y-96341764D02*
X160717857Y-96306050D01*
X160717857Y-96306050D02*
X160753571Y-96270335D01*
X160753571Y-96270335D02*
X160789285Y-96198907D01*
X160789285Y-96198907D02*
X160789285Y-96056050D01*
X160789285Y-96056050D02*
X160753571Y-95984621D01*
X160753571Y-95984621D02*
X160717857Y-95948907D01*
X160717857Y-95948907D02*
X160646428Y-95913192D01*
X173963192Y-96921428D02*
X173927478Y-96992857D01*
X173927478Y-96992857D02*
X173856050Y-97064285D01*
X173856050Y-97064285D02*
X173748907Y-97171428D01*
X173748907Y-97171428D02*
X173713192Y-97242857D01*
X173713192Y-97242857D02*
X173713192Y-97314285D01*
X173891764Y-97278571D02*
X173856050Y-97350000D01*
X173856050Y-97350000D02*
X173784621Y-97421428D01*
X173784621Y-97421428D02*
X173641764Y-97457142D01*
X173641764Y-97457142D02*
X173391764Y-97457142D01*
X173391764Y-97457142D02*
X173248907Y-97421428D01*
X173248907Y-97421428D02*
X173177478Y-97350000D01*
X173177478Y-97350000D02*
X173141764Y-97278571D01*
X173141764Y-97278571D02*
X173141764Y-97135714D01*
X173141764Y-97135714D02*
X173177478Y-97064285D01*
X173177478Y-97064285D02*
X173248907Y-96992857D01*
X173248907Y-96992857D02*
X173391764Y-96957142D01*
X173391764Y-96957142D02*
X173641764Y-96957142D01*
X173641764Y-96957142D02*
X173784621Y-96992857D01*
X173784621Y-96992857D02*
X173856050Y-97064285D01*
X173856050Y-97064285D02*
X173891764Y-97135714D01*
X173891764Y-97135714D02*
X173891764Y-97278571D01*
X173391764Y-96314286D02*
X173891764Y-96314286D01*
X173106050Y-96492857D02*
X173641764Y-96671428D01*
X173641764Y-96671428D02*
X173641764Y-96207143D01*
X170300335Y-86282143D02*
X170336050Y-86317857D01*
X170336050Y-86317857D02*
X170371764Y-86425000D01*
X170371764Y-86425000D02*
X170371764Y-86496428D01*
X170371764Y-86496428D02*
X170336050Y-86603571D01*
X170336050Y-86603571D02*
X170264621Y-86675000D01*
X170264621Y-86675000D02*
X170193192Y-86710714D01*
X170193192Y-86710714D02*
X170050335Y-86746428D01*
X170050335Y-86746428D02*
X169943192Y-86746428D01*
X169943192Y-86746428D02*
X169800335Y-86710714D01*
X169800335Y-86710714D02*
X169728907Y-86675000D01*
X169728907Y-86675000D02*
X169657478Y-86603571D01*
X169657478Y-86603571D02*
X169621764Y-86496428D01*
X169621764Y-86496428D02*
X169621764Y-86425000D01*
X169621764Y-86425000D02*
X169657478Y-86317857D01*
X169657478Y-86317857D02*
X169693192Y-86282143D01*
X170371764Y-85567857D02*
X170371764Y-85996428D01*
X170371764Y-85782143D02*
X169621764Y-85782143D01*
X169621764Y-85782143D02*
X169728907Y-85853571D01*
X169728907Y-85853571D02*
X169800335Y-85925000D01*
X169800335Y-85925000D02*
X169836050Y-85996428D01*
X170371764Y-84853571D02*
X170371764Y-85282142D01*
X170371764Y-85067857D02*
X169621764Y-85067857D01*
X169621764Y-85067857D02*
X169728907Y-85139285D01*
X169728907Y-85139285D02*
X169800335Y-85210714D01*
X169800335Y-85210714D02*
X169836050Y-85282142D01*
X157300335Y-46725000D02*
X157336050Y-46760714D01*
X157336050Y-46760714D02*
X157371764Y-46867857D01*
X157371764Y-46867857D02*
X157371764Y-46939285D01*
X157371764Y-46939285D02*
X157336050Y-47046428D01*
X157336050Y-47046428D02*
X157264621Y-47117857D01*
X157264621Y-47117857D02*
X157193192Y-47153571D01*
X157193192Y-47153571D02*
X157050335Y-47189285D01*
X157050335Y-47189285D02*
X156943192Y-47189285D01*
X156943192Y-47189285D02*
X156800335Y-47153571D01*
X156800335Y-47153571D02*
X156728907Y-47117857D01*
X156728907Y-47117857D02*
X156657478Y-47046428D01*
X156657478Y-47046428D02*
X156621764Y-46939285D01*
X156621764Y-46939285D02*
X156621764Y-46867857D01*
X156621764Y-46867857D02*
X156657478Y-46760714D01*
X156657478Y-46760714D02*
X156693192Y-46725000D01*
X157371764Y-46010714D02*
X157371764Y-46439285D01*
X157371764Y-46225000D02*
X156621764Y-46225000D01*
X156621764Y-46225000D02*
X156728907Y-46296428D01*
X156728907Y-46296428D02*
X156800335Y-46367857D01*
X156800335Y-46367857D02*
X156836050Y-46439285D01*
X134341764Y-66425337D02*
X133591764Y-66425337D01*
X133591764Y-66425337D02*
X133591764Y-66246766D01*
X133591764Y-66246766D02*
X133627478Y-66139623D01*
X133627478Y-66139623D02*
X133698907Y-66068194D01*
X133698907Y-66068194D02*
X133770335Y-66032480D01*
X133770335Y-66032480D02*
X133913192Y-65996766D01*
X133913192Y-65996766D02*
X134020335Y-65996766D01*
X134020335Y-65996766D02*
X134163192Y-66032480D01*
X134163192Y-66032480D02*
X134234621Y-66068194D01*
X134234621Y-66068194D02*
X134306050Y-66139623D01*
X134306050Y-66139623D02*
X134341764Y-66246766D01*
X134341764Y-66246766D02*
X134341764Y-66425337D01*
X133841764Y-65353909D02*
X134341764Y-65353909D01*
X133556050Y-65532480D02*
X134091764Y-65711051D01*
X134091764Y-65711051D02*
X134091764Y-65246766D01*
D11*
X134654819Y-73301904D02*
X133654819Y-73301904D01*
X134654819Y-72730476D02*
X134083390Y-73159047D01*
X133654819Y-72730476D02*
X134226247Y-73301904D01*
D10*
X159317856Y-76870335D02*
X159282142Y-76906050D01*
X159282142Y-76906050D02*
X159174999Y-76941764D01*
X159174999Y-76941764D02*
X159103571Y-76941764D01*
X159103571Y-76941764D02*
X158996428Y-76906050D01*
X158996428Y-76906050D02*
X158924999Y-76834621D01*
X158924999Y-76834621D02*
X158889285Y-76763192D01*
X158889285Y-76763192D02*
X158853571Y-76620335D01*
X158853571Y-76620335D02*
X158853571Y-76513192D01*
X158853571Y-76513192D02*
X158889285Y-76370335D01*
X158889285Y-76370335D02*
X158924999Y-76298907D01*
X158924999Y-76298907D02*
X158996428Y-76227478D01*
X158996428Y-76227478D02*
X159103571Y-76191764D01*
X159103571Y-76191764D02*
X159174999Y-76191764D01*
X159174999Y-76191764D02*
X159282142Y-76227478D01*
X159282142Y-76227478D02*
X159317856Y-76263192D01*
X160032142Y-76941764D02*
X159603571Y-76941764D01*
X159817856Y-76941764D02*
X159817856Y-76191764D01*
X159817856Y-76191764D02*
X159746428Y-76298907D01*
X159746428Y-76298907D02*
X159674999Y-76370335D01*
X159674999Y-76370335D02*
X159603571Y-76406050D01*
X160675000Y-76191764D02*
X160532142Y-76191764D01*
X160532142Y-76191764D02*
X160460714Y-76227478D01*
X160460714Y-76227478D02*
X160425000Y-76263192D01*
X160425000Y-76263192D02*
X160353571Y-76370335D01*
X160353571Y-76370335D02*
X160317857Y-76513192D01*
X160317857Y-76513192D02*
X160317857Y-76798907D01*
X160317857Y-76798907D02*
X160353571Y-76870335D01*
X160353571Y-76870335D02*
X160389285Y-76906050D01*
X160389285Y-76906050D02*
X160460714Y-76941764D01*
X160460714Y-76941764D02*
X160603571Y-76941764D01*
X160603571Y-76941764D02*
X160675000Y-76906050D01*
X160675000Y-76906050D02*
X160710714Y-76870335D01*
X160710714Y-76870335D02*
X160746428Y-76798907D01*
X160746428Y-76798907D02*
X160746428Y-76620335D01*
X160746428Y-76620335D02*
X160710714Y-76548907D01*
X160710714Y-76548907D02*
X160675000Y-76513192D01*
X160675000Y-76513192D02*
X160603571Y-76477478D01*
X160603571Y-76477478D02*
X160460714Y-76477478D01*
X160460714Y-76477478D02*
X160389285Y-76513192D01*
X160389285Y-76513192D02*
X160353571Y-76548907D01*
X160353571Y-76548907D02*
X160317857Y-76620335D01*
X162141764Y-67882143D02*
X161784621Y-68132143D01*
X162141764Y-68310714D02*
X161391764Y-68310714D01*
X161391764Y-68310714D02*
X161391764Y-68025000D01*
X161391764Y-68025000D02*
X161427478Y-67953571D01*
X161427478Y-67953571D02*
X161463192Y-67917857D01*
X161463192Y-67917857D02*
X161534621Y-67882143D01*
X161534621Y-67882143D02*
X161641764Y-67882143D01*
X161641764Y-67882143D02*
X161713192Y-67917857D01*
X161713192Y-67917857D02*
X161748907Y-67953571D01*
X161748907Y-67953571D02*
X161784621Y-68025000D01*
X161784621Y-68025000D02*
X161784621Y-68310714D01*
X161463192Y-67596428D02*
X161427478Y-67560714D01*
X161427478Y-67560714D02*
X161391764Y-67489286D01*
X161391764Y-67489286D02*
X161391764Y-67310714D01*
X161391764Y-67310714D02*
X161427478Y-67239286D01*
X161427478Y-67239286D02*
X161463192Y-67203571D01*
X161463192Y-67203571D02*
X161534621Y-67167857D01*
X161534621Y-67167857D02*
X161606050Y-67167857D01*
X161606050Y-67167857D02*
X161713192Y-67203571D01*
X161713192Y-67203571D02*
X162141764Y-67632143D01*
X162141764Y-67632143D02*
X162141764Y-67167857D01*
X161391764Y-66703571D02*
X161391764Y-66632142D01*
X161391764Y-66632142D02*
X161427478Y-66560714D01*
X161427478Y-66560714D02*
X161463192Y-66525000D01*
X161463192Y-66525000D02*
X161534621Y-66489285D01*
X161534621Y-66489285D02*
X161677478Y-66453571D01*
X161677478Y-66453571D02*
X161856050Y-66453571D01*
X161856050Y-66453571D02*
X161998907Y-66489285D01*
X161998907Y-66489285D02*
X162070335Y-66525000D01*
X162070335Y-66525000D02*
X162106050Y-66560714D01*
X162106050Y-66560714D02*
X162141764Y-66632142D01*
X162141764Y-66632142D02*
X162141764Y-66703571D01*
X162141764Y-66703571D02*
X162106050Y-66775000D01*
X162106050Y-66775000D02*
X162070335Y-66810714D01*
X162070335Y-66810714D02*
X161998907Y-66846428D01*
X161998907Y-66846428D02*
X161856050Y-66882142D01*
X161856050Y-66882142D02*
X161677478Y-66882142D01*
X161677478Y-66882142D02*
X161534621Y-66846428D01*
X161534621Y-66846428D02*
X161463192Y-66810714D01*
X161463192Y-66810714D02*
X161427478Y-66775000D01*
X161427478Y-66775000D02*
X161391764Y-66703571D01*
X150813192Y-88871428D02*
X150777478Y-88942857D01*
X150777478Y-88942857D02*
X150706050Y-89014285D01*
X150706050Y-89014285D02*
X150598907Y-89121428D01*
X150598907Y-89121428D02*
X150563192Y-89192857D01*
X150563192Y-89192857D02*
X150563192Y-89264285D01*
X150741764Y-89228571D02*
X150706050Y-89300000D01*
X150706050Y-89300000D02*
X150634621Y-89371428D01*
X150634621Y-89371428D02*
X150491764Y-89407142D01*
X150491764Y-89407142D02*
X150241764Y-89407142D01*
X150241764Y-89407142D02*
X150098907Y-89371428D01*
X150098907Y-89371428D02*
X150027478Y-89300000D01*
X150027478Y-89300000D02*
X149991764Y-89228571D01*
X149991764Y-89228571D02*
X149991764Y-89085714D01*
X149991764Y-89085714D02*
X150027478Y-89014285D01*
X150027478Y-89014285D02*
X150098907Y-88942857D01*
X150098907Y-88942857D02*
X150241764Y-88907142D01*
X150241764Y-88907142D02*
X150491764Y-88907142D01*
X150491764Y-88907142D02*
X150634621Y-88942857D01*
X150634621Y-88942857D02*
X150706050Y-89014285D01*
X150706050Y-89014285D02*
X150741764Y-89085714D01*
X150741764Y-89085714D02*
X150741764Y-89228571D01*
X150063192Y-88621428D02*
X150027478Y-88585714D01*
X150027478Y-88585714D02*
X149991764Y-88514286D01*
X149991764Y-88514286D02*
X149991764Y-88335714D01*
X149991764Y-88335714D02*
X150027478Y-88264286D01*
X150027478Y-88264286D02*
X150063192Y-88228571D01*
X150063192Y-88228571D02*
X150134621Y-88192857D01*
X150134621Y-88192857D02*
X150206050Y-88192857D01*
X150206050Y-88192857D02*
X150313192Y-88228571D01*
X150313192Y-88228571D02*
X150741764Y-88657143D01*
X150741764Y-88657143D02*
X150741764Y-88192857D01*
X146741764Y-51925000D02*
X146384621Y-52175000D01*
X146741764Y-52353571D02*
X145991764Y-52353571D01*
X145991764Y-52353571D02*
X145991764Y-52067857D01*
X145991764Y-52067857D02*
X146027478Y-51996428D01*
X146027478Y-51996428D02*
X146063192Y-51960714D01*
X146063192Y-51960714D02*
X146134621Y-51925000D01*
X146134621Y-51925000D02*
X146241764Y-51925000D01*
X146241764Y-51925000D02*
X146313192Y-51960714D01*
X146313192Y-51960714D02*
X146348907Y-51996428D01*
X146348907Y-51996428D02*
X146384621Y-52067857D01*
X146384621Y-52067857D02*
X146384621Y-52353571D01*
X146741764Y-51210714D02*
X146741764Y-51639285D01*
X146741764Y-51425000D02*
X145991764Y-51425000D01*
X145991764Y-51425000D02*
X146098907Y-51496428D01*
X146098907Y-51496428D02*
X146170335Y-51567857D01*
X146170335Y-51567857D02*
X146206050Y-51639285D01*
X131541764Y-76882143D02*
X131184621Y-77132143D01*
X131541764Y-77310714D02*
X130791764Y-77310714D01*
X130791764Y-77310714D02*
X130791764Y-77025000D01*
X130791764Y-77025000D02*
X130827478Y-76953571D01*
X130827478Y-76953571D02*
X130863192Y-76917857D01*
X130863192Y-76917857D02*
X130934621Y-76882143D01*
X130934621Y-76882143D02*
X131041764Y-76882143D01*
X131041764Y-76882143D02*
X131113192Y-76917857D01*
X131113192Y-76917857D02*
X131148907Y-76953571D01*
X131148907Y-76953571D02*
X131184621Y-77025000D01*
X131184621Y-77025000D02*
X131184621Y-77310714D01*
X130791764Y-76632143D02*
X130791764Y-76167857D01*
X130791764Y-76167857D02*
X131077478Y-76417857D01*
X131077478Y-76417857D02*
X131077478Y-76310714D01*
X131077478Y-76310714D02*
X131113192Y-76239286D01*
X131113192Y-76239286D02*
X131148907Y-76203571D01*
X131148907Y-76203571D02*
X131220335Y-76167857D01*
X131220335Y-76167857D02*
X131398907Y-76167857D01*
X131398907Y-76167857D02*
X131470335Y-76203571D01*
X131470335Y-76203571D02*
X131506050Y-76239286D01*
X131506050Y-76239286D02*
X131541764Y-76310714D01*
X131541764Y-76310714D02*
X131541764Y-76525000D01*
X131541764Y-76525000D02*
X131506050Y-76596428D01*
X131506050Y-76596428D02*
X131470335Y-76632143D01*
X130791764Y-75703571D02*
X130791764Y-75632142D01*
X130791764Y-75632142D02*
X130827478Y-75560714D01*
X130827478Y-75560714D02*
X130863192Y-75525000D01*
X130863192Y-75525000D02*
X130934621Y-75489285D01*
X130934621Y-75489285D02*
X131077478Y-75453571D01*
X131077478Y-75453571D02*
X131256050Y-75453571D01*
X131256050Y-75453571D02*
X131398907Y-75489285D01*
X131398907Y-75489285D02*
X131470335Y-75525000D01*
X131470335Y-75525000D02*
X131506050Y-75560714D01*
X131506050Y-75560714D02*
X131541764Y-75632142D01*
X131541764Y-75632142D02*
X131541764Y-75703571D01*
X131541764Y-75703571D02*
X131506050Y-75775000D01*
X131506050Y-75775000D02*
X131470335Y-75810714D01*
X131470335Y-75810714D02*
X131398907Y-75846428D01*
X131398907Y-75846428D02*
X131256050Y-75882142D01*
X131256050Y-75882142D02*
X131077478Y-75882142D01*
X131077478Y-75882142D02*
X130934621Y-75846428D01*
X130934621Y-75846428D02*
X130863192Y-75810714D01*
X130863192Y-75810714D02*
X130827478Y-75775000D01*
X130827478Y-75775000D02*
X130791764Y-75703571D01*
X142072968Y-65820335D02*
X142037254Y-65856050D01*
X142037254Y-65856050D02*
X141930111Y-65891764D01*
X141930111Y-65891764D02*
X141858683Y-65891764D01*
X141858683Y-65891764D02*
X141751540Y-65856050D01*
X141751540Y-65856050D02*
X141680111Y-65784621D01*
X141680111Y-65784621D02*
X141644397Y-65713192D01*
X141644397Y-65713192D02*
X141608683Y-65570335D01*
X141608683Y-65570335D02*
X141608683Y-65463192D01*
X141608683Y-65463192D02*
X141644397Y-65320335D01*
X141644397Y-65320335D02*
X141680111Y-65248907D01*
X141680111Y-65248907D02*
X141751540Y-65177478D01*
X141751540Y-65177478D02*
X141858683Y-65141764D01*
X141858683Y-65141764D02*
X141930111Y-65141764D01*
X141930111Y-65141764D02*
X142037254Y-65177478D01*
X142037254Y-65177478D02*
X142072968Y-65213192D01*
X142358683Y-65213192D02*
X142394397Y-65177478D01*
X142394397Y-65177478D02*
X142465826Y-65141764D01*
X142465826Y-65141764D02*
X142644397Y-65141764D01*
X142644397Y-65141764D02*
X142715826Y-65177478D01*
X142715826Y-65177478D02*
X142751540Y-65213192D01*
X142751540Y-65213192D02*
X142787254Y-65284621D01*
X142787254Y-65284621D02*
X142787254Y-65356050D01*
X142787254Y-65356050D02*
X142751540Y-65463192D01*
X142751540Y-65463192D02*
X142322968Y-65891764D01*
X142322968Y-65891764D02*
X142787254Y-65891764D01*
X143251540Y-65141764D02*
X143322969Y-65141764D01*
X143322969Y-65141764D02*
X143394397Y-65177478D01*
X143394397Y-65177478D02*
X143430112Y-65213192D01*
X143430112Y-65213192D02*
X143465826Y-65284621D01*
X143465826Y-65284621D02*
X143501540Y-65427478D01*
X143501540Y-65427478D02*
X143501540Y-65606050D01*
X143501540Y-65606050D02*
X143465826Y-65748907D01*
X143465826Y-65748907D02*
X143430112Y-65820335D01*
X143430112Y-65820335D02*
X143394397Y-65856050D01*
X143394397Y-65856050D02*
X143322969Y-65891764D01*
X143322969Y-65891764D02*
X143251540Y-65891764D01*
X143251540Y-65891764D02*
X143180112Y-65856050D01*
X143180112Y-65856050D02*
X143144397Y-65820335D01*
X143144397Y-65820335D02*
X143108683Y-65748907D01*
X143108683Y-65748907D02*
X143072969Y-65606050D01*
X143072969Y-65606050D02*
X143072969Y-65427478D01*
X143072969Y-65427478D02*
X143108683Y-65284621D01*
X143108683Y-65284621D02*
X143144397Y-65213192D01*
X143144397Y-65213192D02*
X143180112Y-65177478D01*
X143180112Y-65177478D02*
X143251540Y-65141764D01*
X145541764Y-65882143D02*
X145184621Y-66132143D01*
X145541764Y-66310714D02*
X144791764Y-66310714D01*
X144791764Y-66310714D02*
X144791764Y-66025000D01*
X144791764Y-66025000D02*
X144827478Y-65953571D01*
X144827478Y-65953571D02*
X144863192Y-65917857D01*
X144863192Y-65917857D02*
X144934621Y-65882143D01*
X144934621Y-65882143D02*
X145041764Y-65882143D01*
X145041764Y-65882143D02*
X145113192Y-65917857D01*
X145113192Y-65917857D02*
X145148907Y-65953571D01*
X145148907Y-65953571D02*
X145184621Y-66025000D01*
X145184621Y-66025000D02*
X145184621Y-66310714D01*
X144863192Y-65596428D02*
X144827478Y-65560714D01*
X144827478Y-65560714D02*
X144791764Y-65489286D01*
X144791764Y-65489286D02*
X144791764Y-65310714D01*
X144791764Y-65310714D02*
X144827478Y-65239286D01*
X144827478Y-65239286D02*
X144863192Y-65203571D01*
X144863192Y-65203571D02*
X144934621Y-65167857D01*
X144934621Y-65167857D02*
X145006050Y-65167857D01*
X145006050Y-65167857D02*
X145113192Y-65203571D01*
X145113192Y-65203571D02*
X145541764Y-65632143D01*
X145541764Y-65632143D02*
X145541764Y-65167857D01*
X144791764Y-64489285D02*
X144791764Y-64846428D01*
X144791764Y-64846428D02*
X145148907Y-64882142D01*
X145148907Y-64882142D02*
X145113192Y-64846428D01*
X145113192Y-64846428D02*
X145077478Y-64775000D01*
X145077478Y-64775000D02*
X145077478Y-64596428D01*
X145077478Y-64596428D02*
X145113192Y-64525000D01*
X145113192Y-64525000D02*
X145148907Y-64489285D01*
X145148907Y-64489285D02*
X145220335Y-64453571D01*
X145220335Y-64453571D02*
X145398907Y-64453571D01*
X145398907Y-64453571D02*
X145470335Y-64489285D01*
X145470335Y-64489285D02*
X145506050Y-64525000D01*
X145506050Y-64525000D02*
X145541764Y-64596428D01*
X145541764Y-64596428D02*
X145541764Y-64775000D01*
X145541764Y-64775000D02*
X145506050Y-64846428D01*
X145506050Y-64846428D02*
X145470335Y-64882142D01*
X155300335Y-69682143D02*
X155336050Y-69717857D01*
X155336050Y-69717857D02*
X155371764Y-69825000D01*
X155371764Y-69825000D02*
X155371764Y-69896428D01*
X155371764Y-69896428D02*
X155336050Y-70003571D01*
X155336050Y-70003571D02*
X155264621Y-70075000D01*
X155264621Y-70075000D02*
X155193192Y-70110714D01*
X155193192Y-70110714D02*
X155050335Y-70146428D01*
X155050335Y-70146428D02*
X154943192Y-70146428D01*
X154943192Y-70146428D02*
X154800335Y-70110714D01*
X154800335Y-70110714D02*
X154728907Y-70075000D01*
X154728907Y-70075000D02*
X154657478Y-70003571D01*
X154657478Y-70003571D02*
X154621764Y-69896428D01*
X154621764Y-69896428D02*
X154621764Y-69825000D01*
X154621764Y-69825000D02*
X154657478Y-69717857D01*
X154657478Y-69717857D02*
X154693192Y-69682143D01*
X155371764Y-68967857D02*
X155371764Y-69396428D01*
X155371764Y-69182143D02*
X154621764Y-69182143D01*
X154621764Y-69182143D02*
X154728907Y-69253571D01*
X154728907Y-69253571D02*
X154800335Y-69325000D01*
X154800335Y-69325000D02*
X154836050Y-69396428D01*
X155371764Y-68610714D02*
X155371764Y-68467857D01*
X155371764Y-68467857D02*
X155336050Y-68396428D01*
X155336050Y-68396428D02*
X155300335Y-68360714D01*
X155300335Y-68360714D02*
X155193192Y-68289285D01*
X155193192Y-68289285D02*
X155050335Y-68253571D01*
X155050335Y-68253571D02*
X154764621Y-68253571D01*
X154764621Y-68253571D02*
X154693192Y-68289285D01*
X154693192Y-68289285D02*
X154657478Y-68325000D01*
X154657478Y-68325000D02*
X154621764Y-68396428D01*
X154621764Y-68396428D02*
X154621764Y-68539285D01*
X154621764Y-68539285D02*
X154657478Y-68610714D01*
X154657478Y-68610714D02*
X154693192Y-68646428D01*
X154693192Y-68646428D02*
X154764621Y-68682142D01*
X154764621Y-68682142D02*
X154943192Y-68682142D01*
X154943192Y-68682142D02*
X155014621Y-68646428D01*
X155014621Y-68646428D02*
X155050335Y-68610714D01*
X155050335Y-68610714D02*
X155086050Y-68539285D01*
X155086050Y-68539285D02*
X155086050Y-68396428D01*
X155086050Y-68396428D02*
X155050335Y-68325000D01*
X155050335Y-68325000D02*
X155014621Y-68289285D01*
X155014621Y-68289285D02*
X154943192Y-68253571D01*
X170341764Y-83282143D02*
X169984621Y-83532143D01*
X170341764Y-83710714D02*
X169591764Y-83710714D01*
X169591764Y-83710714D02*
X169591764Y-83425000D01*
X169591764Y-83425000D02*
X169627478Y-83353571D01*
X169627478Y-83353571D02*
X169663192Y-83317857D01*
X169663192Y-83317857D02*
X169734621Y-83282143D01*
X169734621Y-83282143D02*
X169841764Y-83282143D01*
X169841764Y-83282143D02*
X169913192Y-83317857D01*
X169913192Y-83317857D02*
X169948907Y-83353571D01*
X169948907Y-83353571D02*
X169984621Y-83425000D01*
X169984621Y-83425000D02*
X169984621Y-83710714D01*
X170341764Y-82567857D02*
X170341764Y-82996428D01*
X170341764Y-82782143D02*
X169591764Y-82782143D01*
X169591764Y-82782143D02*
X169698907Y-82853571D01*
X169698907Y-82853571D02*
X169770335Y-82925000D01*
X169770335Y-82925000D02*
X169806050Y-82996428D01*
X170341764Y-82210714D02*
X170341764Y-82067857D01*
X170341764Y-82067857D02*
X170306050Y-81996428D01*
X170306050Y-81996428D02*
X170270335Y-81960714D01*
X170270335Y-81960714D02*
X170163192Y-81889285D01*
X170163192Y-81889285D02*
X170020335Y-81853571D01*
X170020335Y-81853571D02*
X169734621Y-81853571D01*
X169734621Y-81853571D02*
X169663192Y-81889285D01*
X169663192Y-81889285D02*
X169627478Y-81925000D01*
X169627478Y-81925000D02*
X169591764Y-81996428D01*
X169591764Y-81996428D02*
X169591764Y-82139285D01*
X169591764Y-82139285D02*
X169627478Y-82210714D01*
X169627478Y-82210714D02*
X169663192Y-82246428D01*
X169663192Y-82246428D02*
X169734621Y-82282142D01*
X169734621Y-82282142D02*
X169913192Y-82282142D01*
X169913192Y-82282142D02*
X169984621Y-82246428D01*
X169984621Y-82246428D02*
X170020335Y-82210714D01*
X170020335Y-82210714D02*
X170056050Y-82139285D01*
X170056050Y-82139285D02*
X170056050Y-81996428D01*
X170056050Y-81996428D02*
X170020335Y-81925000D01*
X170020335Y-81925000D02*
X169984621Y-81889285D01*
X169984621Y-81889285D02*
X169913192Y-81853571D01*
X127341764Y-77482143D02*
X126984621Y-77732143D01*
X127341764Y-77910714D02*
X126591764Y-77910714D01*
X126591764Y-77910714D02*
X126591764Y-77625000D01*
X126591764Y-77625000D02*
X126627478Y-77553571D01*
X126627478Y-77553571D02*
X126663192Y-77517857D01*
X126663192Y-77517857D02*
X126734621Y-77482143D01*
X126734621Y-77482143D02*
X126841764Y-77482143D01*
X126841764Y-77482143D02*
X126913192Y-77517857D01*
X126913192Y-77517857D02*
X126948907Y-77553571D01*
X126948907Y-77553571D02*
X126984621Y-77625000D01*
X126984621Y-77625000D02*
X126984621Y-77910714D01*
X126663192Y-77196428D02*
X126627478Y-77160714D01*
X126627478Y-77160714D02*
X126591764Y-77089286D01*
X126591764Y-77089286D02*
X126591764Y-76910714D01*
X126591764Y-76910714D02*
X126627478Y-76839286D01*
X126627478Y-76839286D02*
X126663192Y-76803571D01*
X126663192Y-76803571D02*
X126734621Y-76767857D01*
X126734621Y-76767857D02*
X126806050Y-76767857D01*
X126806050Y-76767857D02*
X126913192Y-76803571D01*
X126913192Y-76803571D02*
X127341764Y-77232143D01*
X127341764Y-77232143D02*
X127341764Y-76767857D01*
X126591764Y-76517857D02*
X126591764Y-76017857D01*
X126591764Y-76017857D02*
X127341764Y-76339285D01*
X140417857Y-32771764D02*
X140417857Y-33307478D01*
X140417857Y-33307478D02*
X140382142Y-33414621D01*
X140382142Y-33414621D02*
X140310714Y-33486050D01*
X140310714Y-33486050D02*
X140203571Y-33521764D01*
X140203571Y-33521764D02*
X140132142Y-33521764D01*
X141167857Y-33521764D02*
X140739286Y-33521764D01*
X140953571Y-33521764D02*
X140953571Y-32771764D01*
X140953571Y-32771764D02*
X140882143Y-32878907D01*
X140882143Y-32878907D02*
X140810714Y-32950335D01*
X140810714Y-32950335D02*
X140739286Y-32986050D01*
X141453572Y-32843192D02*
X141489286Y-32807478D01*
X141489286Y-32807478D02*
X141560715Y-32771764D01*
X141560715Y-32771764D02*
X141739286Y-32771764D01*
X141739286Y-32771764D02*
X141810715Y-32807478D01*
X141810715Y-32807478D02*
X141846429Y-32843192D01*
X141846429Y-32843192D02*
X141882143Y-32914621D01*
X141882143Y-32914621D02*
X141882143Y-32986050D01*
X141882143Y-32986050D02*
X141846429Y-33093192D01*
X141846429Y-33093192D02*
X141417857Y-33521764D01*
X141417857Y-33521764D02*
X141882143Y-33521764D01*
X171331764Y-75532142D02*
X170581764Y-75532142D01*
X171260335Y-74746428D02*
X171296050Y-74782142D01*
X171296050Y-74782142D02*
X171331764Y-74889285D01*
X171331764Y-74889285D02*
X171331764Y-74960713D01*
X171331764Y-74960713D02*
X171296050Y-75067856D01*
X171296050Y-75067856D02*
X171224621Y-75139285D01*
X171224621Y-75139285D02*
X171153192Y-75174999D01*
X171153192Y-75174999D02*
X171010335Y-75210713D01*
X171010335Y-75210713D02*
X170903192Y-75210713D01*
X170903192Y-75210713D02*
X170760335Y-75174999D01*
X170760335Y-75174999D02*
X170688907Y-75139285D01*
X170688907Y-75139285D02*
X170617478Y-75067856D01*
X170617478Y-75067856D02*
X170581764Y-74960713D01*
X170581764Y-74960713D02*
X170581764Y-74889285D01*
X170581764Y-74889285D02*
X170617478Y-74782142D01*
X170617478Y-74782142D02*
X170653192Y-74746428D01*
X171331764Y-74032142D02*
X171331764Y-74460713D01*
X171331764Y-74246428D02*
X170581764Y-74246428D01*
X170581764Y-74246428D02*
X170688907Y-74317856D01*
X170688907Y-74317856D02*
X170760335Y-74389285D01*
X170760335Y-74389285D02*
X170796050Y-74460713D01*
X156917856Y-66941764D02*
X156667856Y-66584621D01*
X156489285Y-66941764D02*
X156489285Y-66191764D01*
X156489285Y-66191764D02*
X156774999Y-66191764D01*
X156774999Y-66191764D02*
X156846428Y-66227478D01*
X156846428Y-66227478D02*
X156882142Y-66263192D01*
X156882142Y-66263192D02*
X156917856Y-66334621D01*
X156917856Y-66334621D02*
X156917856Y-66441764D01*
X156917856Y-66441764D02*
X156882142Y-66513192D01*
X156882142Y-66513192D02*
X156846428Y-66548907D01*
X156846428Y-66548907D02*
X156774999Y-66584621D01*
X156774999Y-66584621D02*
X156489285Y-66584621D01*
X157203571Y-66263192D02*
X157239285Y-66227478D01*
X157239285Y-66227478D02*
X157310714Y-66191764D01*
X157310714Y-66191764D02*
X157489285Y-66191764D01*
X157489285Y-66191764D02*
X157560714Y-66227478D01*
X157560714Y-66227478D02*
X157596428Y-66263192D01*
X157596428Y-66263192D02*
X157632142Y-66334621D01*
X157632142Y-66334621D02*
X157632142Y-66406050D01*
X157632142Y-66406050D02*
X157596428Y-66513192D01*
X157596428Y-66513192D02*
X157167856Y-66941764D01*
X157167856Y-66941764D02*
X157632142Y-66941764D01*
X158275000Y-66441764D02*
X158275000Y-66941764D01*
X158096428Y-66156050D02*
X157917857Y-66691764D01*
X157917857Y-66691764D02*
X158382142Y-66691764D01*
X130941764Y-74025337D02*
X130191764Y-74025337D01*
X130191764Y-74025337D02*
X130191764Y-73846766D01*
X130191764Y-73846766D02*
X130227478Y-73739623D01*
X130227478Y-73739623D02*
X130298907Y-73668194D01*
X130298907Y-73668194D02*
X130370335Y-73632480D01*
X130370335Y-73632480D02*
X130513192Y-73596766D01*
X130513192Y-73596766D02*
X130620335Y-73596766D01*
X130620335Y-73596766D02*
X130763192Y-73632480D01*
X130763192Y-73632480D02*
X130834621Y-73668194D01*
X130834621Y-73668194D02*
X130906050Y-73739623D01*
X130906050Y-73739623D02*
X130941764Y-73846766D01*
X130941764Y-73846766D02*
X130941764Y-74025337D01*
X130191764Y-73346766D02*
X130191764Y-72846766D01*
X130191764Y-72846766D02*
X130941764Y-73168194D01*
D11*
X131054819Y-66365436D02*
X130054819Y-66365436D01*
X131054819Y-65794008D02*
X130483390Y-66222579D01*
X130054819Y-65794008D02*
X130626247Y-66365436D01*
D10*
X136674999Y-94470335D02*
X136639285Y-94506050D01*
X136639285Y-94506050D02*
X136532142Y-94541764D01*
X136532142Y-94541764D02*
X136460714Y-94541764D01*
X136460714Y-94541764D02*
X136353571Y-94506050D01*
X136353571Y-94506050D02*
X136282142Y-94434621D01*
X136282142Y-94434621D02*
X136246428Y-94363192D01*
X136246428Y-94363192D02*
X136210714Y-94220335D01*
X136210714Y-94220335D02*
X136210714Y-94113192D01*
X136210714Y-94113192D02*
X136246428Y-93970335D01*
X136246428Y-93970335D02*
X136282142Y-93898907D01*
X136282142Y-93898907D02*
X136353571Y-93827478D01*
X136353571Y-93827478D02*
X136460714Y-93791764D01*
X136460714Y-93791764D02*
X136532142Y-93791764D01*
X136532142Y-93791764D02*
X136639285Y-93827478D01*
X136639285Y-93827478D02*
X136674999Y-93863192D01*
X137353571Y-93791764D02*
X136996428Y-93791764D01*
X136996428Y-93791764D02*
X136960714Y-94148907D01*
X136960714Y-94148907D02*
X136996428Y-94113192D01*
X136996428Y-94113192D02*
X137067857Y-94077478D01*
X137067857Y-94077478D02*
X137246428Y-94077478D01*
X137246428Y-94077478D02*
X137317857Y-94113192D01*
X137317857Y-94113192D02*
X137353571Y-94148907D01*
X137353571Y-94148907D02*
X137389285Y-94220335D01*
X137389285Y-94220335D02*
X137389285Y-94398907D01*
X137389285Y-94398907D02*
X137353571Y-94470335D01*
X137353571Y-94470335D02*
X137317857Y-94506050D01*
X137317857Y-94506050D02*
X137246428Y-94541764D01*
X137246428Y-94541764D02*
X137067857Y-94541764D01*
X137067857Y-94541764D02*
X136996428Y-94506050D01*
X136996428Y-94506050D02*
X136960714Y-94470335D01*
X142541764Y-73682143D02*
X142184621Y-73932143D01*
X142541764Y-74110714D02*
X141791764Y-74110714D01*
X141791764Y-74110714D02*
X141791764Y-73825000D01*
X141791764Y-73825000D02*
X141827478Y-73753571D01*
X141827478Y-73753571D02*
X141863192Y-73717857D01*
X141863192Y-73717857D02*
X141934621Y-73682143D01*
X141934621Y-73682143D02*
X142041764Y-73682143D01*
X142041764Y-73682143D02*
X142113192Y-73717857D01*
X142113192Y-73717857D02*
X142148907Y-73753571D01*
X142148907Y-73753571D02*
X142184621Y-73825000D01*
X142184621Y-73825000D02*
X142184621Y-74110714D01*
X141863192Y-73396428D02*
X141827478Y-73360714D01*
X141827478Y-73360714D02*
X141791764Y-73289286D01*
X141791764Y-73289286D02*
X141791764Y-73110714D01*
X141791764Y-73110714D02*
X141827478Y-73039286D01*
X141827478Y-73039286D02*
X141863192Y-73003571D01*
X141863192Y-73003571D02*
X141934621Y-72967857D01*
X141934621Y-72967857D02*
X142006050Y-72967857D01*
X142006050Y-72967857D02*
X142113192Y-73003571D01*
X142113192Y-73003571D02*
X142541764Y-73432143D01*
X142541764Y-73432143D02*
X142541764Y-72967857D01*
X141863192Y-72682142D02*
X141827478Y-72646428D01*
X141827478Y-72646428D02*
X141791764Y-72575000D01*
X141791764Y-72575000D02*
X141791764Y-72396428D01*
X141791764Y-72396428D02*
X141827478Y-72325000D01*
X141827478Y-72325000D02*
X141863192Y-72289285D01*
X141863192Y-72289285D02*
X141934621Y-72253571D01*
X141934621Y-72253571D02*
X142006050Y-72253571D01*
X142006050Y-72253571D02*
X142113192Y-72289285D01*
X142113192Y-72289285D02*
X142541764Y-72717857D01*
X142541764Y-72717857D02*
X142541764Y-72253571D01*
X150918571Y-60303192D02*
X150847142Y-60267478D01*
X150847142Y-60267478D02*
X150775714Y-60196050D01*
X150775714Y-60196050D02*
X150668571Y-60088907D01*
X150668571Y-60088907D02*
X150597142Y-60053192D01*
X150597142Y-60053192D02*
X150525714Y-60053192D01*
X150561428Y-60231764D02*
X150490000Y-60196050D01*
X150490000Y-60196050D02*
X150418571Y-60124621D01*
X150418571Y-60124621D02*
X150382857Y-59981764D01*
X150382857Y-59981764D02*
X150382857Y-59731764D01*
X150382857Y-59731764D02*
X150418571Y-59588907D01*
X150418571Y-59588907D02*
X150490000Y-59517478D01*
X150490000Y-59517478D02*
X150561428Y-59481764D01*
X150561428Y-59481764D02*
X150704285Y-59481764D01*
X150704285Y-59481764D02*
X150775714Y-59517478D01*
X150775714Y-59517478D02*
X150847142Y-59588907D01*
X150847142Y-59588907D02*
X150882857Y-59731764D01*
X150882857Y-59731764D02*
X150882857Y-59981764D01*
X150882857Y-59981764D02*
X150847142Y-60124621D01*
X150847142Y-60124621D02*
X150775714Y-60196050D01*
X150775714Y-60196050D02*
X150704285Y-60231764D01*
X150704285Y-60231764D02*
X150561428Y-60231764D01*
X151561428Y-59481764D02*
X151204285Y-59481764D01*
X151204285Y-59481764D02*
X151168571Y-59838907D01*
X151168571Y-59838907D02*
X151204285Y-59803192D01*
X151204285Y-59803192D02*
X151275714Y-59767478D01*
X151275714Y-59767478D02*
X151454285Y-59767478D01*
X151454285Y-59767478D02*
X151525714Y-59803192D01*
X151525714Y-59803192D02*
X151561428Y-59838907D01*
X151561428Y-59838907D02*
X151597142Y-59910335D01*
X151597142Y-59910335D02*
X151597142Y-60088907D01*
X151597142Y-60088907D02*
X151561428Y-60160335D01*
X151561428Y-60160335D02*
X151525714Y-60196050D01*
X151525714Y-60196050D02*
X151454285Y-60231764D01*
X151454285Y-60231764D02*
X151275714Y-60231764D01*
X151275714Y-60231764D02*
X151204285Y-60196050D01*
X151204285Y-60196050D02*
X151168571Y-60160335D01*
X145317856Y-85911764D02*
X145067856Y-85554621D01*
X144889285Y-85911764D02*
X144889285Y-85161764D01*
X144889285Y-85161764D02*
X145174999Y-85161764D01*
X145174999Y-85161764D02*
X145246428Y-85197478D01*
X145246428Y-85197478D02*
X145282142Y-85233192D01*
X145282142Y-85233192D02*
X145317856Y-85304621D01*
X145317856Y-85304621D02*
X145317856Y-85411764D01*
X145317856Y-85411764D02*
X145282142Y-85483192D01*
X145282142Y-85483192D02*
X145246428Y-85518907D01*
X145246428Y-85518907D02*
X145174999Y-85554621D01*
X145174999Y-85554621D02*
X144889285Y-85554621D01*
X146032142Y-85911764D02*
X145603571Y-85911764D01*
X145817856Y-85911764D02*
X145817856Y-85161764D01*
X145817856Y-85161764D02*
X145746428Y-85268907D01*
X145746428Y-85268907D02*
X145674999Y-85340335D01*
X145674999Y-85340335D02*
X145603571Y-85376050D01*
X146496428Y-85161764D02*
X146567857Y-85161764D01*
X146567857Y-85161764D02*
X146639285Y-85197478D01*
X146639285Y-85197478D02*
X146675000Y-85233192D01*
X146675000Y-85233192D02*
X146710714Y-85304621D01*
X146710714Y-85304621D02*
X146746428Y-85447478D01*
X146746428Y-85447478D02*
X146746428Y-85626050D01*
X146746428Y-85626050D02*
X146710714Y-85768907D01*
X146710714Y-85768907D02*
X146675000Y-85840335D01*
X146675000Y-85840335D02*
X146639285Y-85876050D01*
X146639285Y-85876050D02*
X146567857Y-85911764D01*
X146567857Y-85911764D02*
X146496428Y-85911764D01*
X146496428Y-85911764D02*
X146425000Y-85876050D01*
X146425000Y-85876050D02*
X146389285Y-85840335D01*
X146389285Y-85840335D02*
X146353571Y-85768907D01*
X146353571Y-85768907D02*
X146317857Y-85626050D01*
X146317857Y-85626050D02*
X146317857Y-85447478D01*
X146317857Y-85447478D02*
X146353571Y-85304621D01*
X146353571Y-85304621D02*
X146389285Y-85233192D01*
X146389285Y-85233192D02*
X146425000Y-85197478D01*
X146425000Y-85197478D02*
X146496428Y-85161764D01*
X141717856Y-99371764D02*
X141467856Y-99014621D01*
X141289285Y-99371764D02*
X141289285Y-98621764D01*
X141289285Y-98621764D02*
X141574999Y-98621764D01*
X141574999Y-98621764D02*
X141646428Y-98657478D01*
X141646428Y-98657478D02*
X141682142Y-98693192D01*
X141682142Y-98693192D02*
X141717856Y-98764621D01*
X141717856Y-98764621D02*
X141717856Y-98871764D01*
X141717856Y-98871764D02*
X141682142Y-98943192D01*
X141682142Y-98943192D02*
X141646428Y-98978907D01*
X141646428Y-98978907D02*
X141574999Y-99014621D01*
X141574999Y-99014621D02*
X141289285Y-99014621D01*
X141967856Y-98621764D02*
X142432142Y-98621764D01*
X142432142Y-98621764D02*
X142182142Y-98907478D01*
X142182142Y-98907478D02*
X142289285Y-98907478D01*
X142289285Y-98907478D02*
X142360714Y-98943192D01*
X142360714Y-98943192D02*
X142396428Y-98978907D01*
X142396428Y-98978907D02*
X142432142Y-99050335D01*
X142432142Y-99050335D02*
X142432142Y-99228907D01*
X142432142Y-99228907D02*
X142396428Y-99300335D01*
X142396428Y-99300335D02*
X142360714Y-99336050D01*
X142360714Y-99336050D02*
X142289285Y-99371764D01*
X142289285Y-99371764D02*
X142074999Y-99371764D01*
X142074999Y-99371764D02*
X142003571Y-99336050D01*
X142003571Y-99336050D02*
X141967856Y-99300335D01*
X142717857Y-98693192D02*
X142753571Y-98657478D01*
X142753571Y-98657478D02*
X142825000Y-98621764D01*
X142825000Y-98621764D02*
X143003571Y-98621764D01*
X143003571Y-98621764D02*
X143075000Y-98657478D01*
X143075000Y-98657478D02*
X143110714Y-98693192D01*
X143110714Y-98693192D02*
X143146428Y-98764621D01*
X143146428Y-98764621D02*
X143146428Y-98836050D01*
X143146428Y-98836050D02*
X143110714Y-98943192D01*
X143110714Y-98943192D02*
X142682142Y-99371764D01*
X142682142Y-99371764D02*
X143146428Y-99371764D01*
X177917856Y-87870335D02*
X177882142Y-87906050D01*
X177882142Y-87906050D02*
X177774999Y-87941764D01*
X177774999Y-87941764D02*
X177703571Y-87941764D01*
X177703571Y-87941764D02*
X177596428Y-87906050D01*
X177596428Y-87906050D02*
X177524999Y-87834621D01*
X177524999Y-87834621D02*
X177489285Y-87763192D01*
X177489285Y-87763192D02*
X177453571Y-87620335D01*
X177453571Y-87620335D02*
X177453571Y-87513192D01*
X177453571Y-87513192D02*
X177489285Y-87370335D01*
X177489285Y-87370335D02*
X177524999Y-87298907D01*
X177524999Y-87298907D02*
X177596428Y-87227478D01*
X177596428Y-87227478D02*
X177703571Y-87191764D01*
X177703571Y-87191764D02*
X177774999Y-87191764D01*
X177774999Y-87191764D02*
X177882142Y-87227478D01*
X177882142Y-87227478D02*
X177917856Y-87263192D01*
X178632142Y-87941764D02*
X178203571Y-87941764D01*
X178417856Y-87941764D02*
X178417856Y-87191764D01*
X178417856Y-87191764D02*
X178346428Y-87298907D01*
X178346428Y-87298907D02*
X178274999Y-87370335D01*
X178274999Y-87370335D02*
X178203571Y-87406050D01*
X179096428Y-87191764D02*
X179167857Y-87191764D01*
X179167857Y-87191764D02*
X179239285Y-87227478D01*
X179239285Y-87227478D02*
X179275000Y-87263192D01*
X179275000Y-87263192D02*
X179310714Y-87334621D01*
X179310714Y-87334621D02*
X179346428Y-87477478D01*
X179346428Y-87477478D02*
X179346428Y-87656050D01*
X179346428Y-87656050D02*
X179310714Y-87798907D01*
X179310714Y-87798907D02*
X179275000Y-87870335D01*
X179275000Y-87870335D02*
X179239285Y-87906050D01*
X179239285Y-87906050D02*
X179167857Y-87941764D01*
X179167857Y-87941764D02*
X179096428Y-87941764D01*
X179096428Y-87941764D02*
X179025000Y-87906050D01*
X179025000Y-87906050D02*
X178989285Y-87870335D01*
X178989285Y-87870335D02*
X178953571Y-87798907D01*
X178953571Y-87798907D02*
X178917857Y-87656050D01*
X178917857Y-87656050D02*
X178917857Y-87477478D01*
X178917857Y-87477478D02*
X178953571Y-87334621D01*
X178953571Y-87334621D02*
X178989285Y-87263192D01*
X178989285Y-87263192D02*
X179025000Y-87227478D01*
X179025000Y-87227478D02*
X179096428Y-87191764D01*
X164741764Y-95082143D02*
X164384621Y-95332143D01*
X164741764Y-95510714D02*
X163991764Y-95510714D01*
X163991764Y-95510714D02*
X163991764Y-95225000D01*
X163991764Y-95225000D02*
X164027478Y-95153571D01*
X164027478Y-95153571D02*
X164063192Y-95117857D01*
X164063192Y-95117857D02*
X164134621Y-95082143D01*
X164134621Y-95082143D02*
X164241764Y-95082143D01*
X164241764Y-95082143D02*
X164313192Y-95117857D01*
X164313192Y-95117857D02*
X164348907Y-95153571D01*
X164348907Y-95153571D02*
X164384621Y-95225000D01*
X164384621Y-95225000D02*
X164384621Y-95510714D01*
X164741764Y-94367857D02*
X164741764Y-94796428D01*
X164741764Y-94582143D02*
X163991764Y-94582143D01*
X163991764Y-94582143D02*
X164098907Y-94653571D01*
X164098907Y-94653571D02*
X164170335Y-94725000D01*
X164170335Y-94725000D02*
X164206050Y-94796428D01*
X164241764Y-93725000D02*
X164741764Y-93725000D01*
X163956050Y-93903571D02*
X164491764Y-94082142D01*
X164491764Y-94082142D02*
X164491764Y-93617857D01*
X152541764Y-73682143D02*
X152184621Y-73932143D01*
X152541764Y-74110714D02*
X151791764Y-74110714D01*
X151791764Y-74110714D02*
X151791764Y-73825000D01*
X151791764Y-73825000D02*
X151827478Y-73753571D01*
X151827478Y-73753571D02*
X151863192Y-73717857D01*
X151863192Y-73717857D02*
X151934621Y-73682143D01*
X151934621Y-73682143D02*
X152041764Y-73682143D01*
X152041764Y-73682143D02*
X152113192Y-73717857D01*
X152113192Y-73717857D02*
X152148907Y-73753571D01*
X152148907Y-73753571D02*
X152184621Y-73825000D01*
X152184621Y-73825000D02*
X152184621Y-74110714D01*
X151863192Y-73396428D02*
X151827478Y-73360714D01*
X151827478Y-73360714D02*
X151791764Y-73289286D01*
X151791764Y-73289286D02*
X151791764Y-73110714D01*
X151791764Y-73110714D02*
X151827478Y-73039286D01*
X151827478Y-73039286D02*
X151863192Y-73003571D01*
X151863192Y-73003571D02*
X151934621Y-72967857D01*
X151934621Y-72967857D02*
X152006050Y-72967857D01*
X152006050Y-72967857D02*
X152113192Y-73003571D01*
X152113192Y-73003571D02*
X152541764Y-73432143D01*
X152541764Y-73432143D02*
X152541764Y-72967857D01*
X151791764Y-72717857D02*
X151791764Y-72253571D01*
X151791764Y-72253571D02*
X152077478Y-72503571D01*
X152077478Y-72503571D02*
X152077478Y-72396428D01*
X152077478Y-72396428D02*
X152113192Y-72325000D01*
X152113192Y-72325000D02*
X152148907Y-72289285D01*
X152148907Y-72289285D02*
X152220335Y-72253571D01*
X152220335Y-72253571D02*
X152398907Y-72253571D01*
X152398907Y-72253571D02*
X152470335Y-72289285D01*
X152470335Y-72289285D02*
X152506050Y-72325000D01*
X152506050Y-72325000D02*
X152541764Y-72396428D01*
X152541764Y-72396428D02*
X152541764Y-72610714D01*
X152541764Y-72610714D02*
X152506050Y-72682142D01*
X152506050Y-72682142D02*
X152470335Y-72717857D01*
X128274999Y-97741764D02*
X128024999Y-97384621D01*
X127846428Y-97741764D02*
X127846428Y-96991764D01*
X127846428Y-96991764D02*
X128132142Y-96991764D01*
X128132142Y-96991764D02*
X128203571Y-97027478D01*
X128203571Y-97027478D02*
X128239285Y-97063192D01*
X128239285Y-97063192D02*
X128274999Y-97134621D01*
X128274999Y-97134621D02*
X128274999Y-97241764D01*
X128274999Y-97241764D02*
X128239285Y-97313192D01*
X128239285Y-97313192D02*
X128203571Y-97348907D01*
X128203571Y-97348907D02*
X128132142Y-97384621D01*
X128132142Y-97384621D02*
X127846428Y-97384621D01*
X128524999Y-96991764D02*
X128989285Y-96991764D01*
X128989285Y-96991764D02*
X128739285Y-97277478D01*
X128739285Y-97277478D02*
X128846428Y-97277478D01*
X128846428Y-97277478D02*
X128917857Y-97313192D01*
X128917857Y-97313192D02*
X128953571Y-97348907D01*
X128953571Y-97348907D02*
X128989285Y-97420335D01*
X128989285Y-97420335D02*
X128989285Y-97598907D01*
X128989285Y-97598907D02*
X128953571Y-97670335D01*
X128953571Y-97670335D02*
X128917857Y-97706050D01*
X128917857Y-97706050D02*
X128846428Y-97741764D01*
X128846428Y-97741764D02*
X128632142Y-97741764D01*
X128632142Y-97741764D02*
X128560714Y-97706050D01*
X128560714Y-97706050D02*
X128524999Y-97670335D01*
X130117856Y-85741764D02*
X129867856Y-85384621D01*
X129689285Y-85741764D02*
X129689285Y-84991764D01*
X129689285Y-84991764D02*
X129974999Y-84991764D01*
X129974999Y-84991764D02*
X130046428Y-85027478D01*
X130046428Y-85027478D02*
X130082142Y-85063192D01*
X130082142Y-85063192D02*
X130117856Y-85134621D01*
X130117856Y-85134621D02*
X130117856Y-85241764D01*
X130117856Y-85241764D02*
X130082142Y-85313192D01*
X130082142Y-85313192D02*
X130046428Y-85348907D01*
X130046428Y-85348907D02*
X129974999Y-85384621D01*
X129974999Y-85384621D02*
X129689285Y-85384621D01*
X130403571Y-85063192D02*
X130439285Y-85027478D01*
X130439285Y-85027478D02*
X130510714Y-84991764D01*
X130510714Y-84991764D02*
X130689285Y-84991764D01*
X130689285Y-84991764D02*
X130760714Y-85027478D01*
X130760714Y-85027478D02*
X130796428Y-85063192D01*
X130796428Y-85063192D02*
X130832142Y-85134621D01*
X130832142Y-85134621D02*
X130832142Y-85206050D01*
X130832142Y-85206050D02*
X130796428Y-85313192D01*
X130796428Y-85313192D02*
X130367856Y-85741764D01*
X130367856Y-85741764D02*
X130832142Y-85741764D01*
X131189285Y-85741764D02*
X131332142Y-85741764D01*
X131332142Y-85741764D02*
X131403571Y-85706050D01*
X131403571Y-85706050D02*
X131439285Y-85670335D01*
X131439285Y-85670335D02*
X131510714Y-85563192D01*
X131510714Y-85563192D02*
X131546428Y-85420335D01*
X131546428Y-85420335D02*
X131546428Y-85134621D01*
X131546428Y-85134621D02*
X131510714Y-85063192D01*
X131510714Y-85063192D02*
X131475000Y-85027478D01*
X131475000Y-85027478D02*
X131403571Y-84991764D01*
X131403571Y-84991764D02*
X131260714Y-84991764D01*
X131260714Y-84991764D02*
X131189285Y-85027478D01*
X131189285Y-85027478D02*
X131153571Y-85063192D01*
X131153571Y-85063192D02*
X131117857Y-85134621D01*
X131117857Y-85134621D02*
X131117857Y-85313192D01*
X131117857Y-85313192D02*
X131153571Y-85384621D01*
X131153571Y-85384621D02*
X131189285Y-85420335D01*
X131189285Y-85420335D02*
X131260714Y-85456050D01*
X131260714Y-85456050D02*
X131403571Y-85456050D01*
X131403571Y-85456050D02*
X131475000Y-85420335D01*
X131475000Y-85420335D02*
X131510714Y-85384621D01*
X131510714Y-85384621D02*
X131546428Y-85313192D01*
X138341764Y-73953571D02*
X137591764Y-73953571D01*
X137591764Y-73953571D02*
X137591764Y-73775000D01*
X137591764Y-73775000D02*
X137627478Y-73667857D01*
X137627478Y-73667857D02*
X137698907Y-73596428D01*
X137698907Y-73596428D02*
X137770335Y-73560714D01*
X137770335Y-73560714D02*
X137913192Y-73525000D01*
X137913192Y-73525000D02*
X138020335Y-73525000D01*
X138020335Y-73525000D02*
X138163192Y-73560714D01*
X138163192Y-73560714D02*
X138234621Y-73596428D01*
X138234621Y-73596428D02*
X138306050Y-73667857D01*
X138306050Y-73667857D02*
X138341764Y-73775000D01*
X138341764Y-73775000D02*
X138341764Y-73953571D01*
X137591764Y-72846428D02*
X137591764Y-73203571D01*
X137591764Y-73203571D02*
X137948907Y-73239285D01*
X137948907Y-73239285D02*
X137913192Y-73203571D01*
X137913192Y-73203571D02*
X137877478Y-73132143D01*
X137877478Y-73132143D02*
X137877478Y-72953571D01*
X137877478Y-72953571D02*
X137913192Y-72882143D01*
X137913192Y-72882143D02*
X137948907Y-72846428D01*
X137948907Y-72846428D02*
X138020335Y-72810714D01*
X138020335Y-72810714D02*
X138198907Y-72810714D01*
X138198907Y-72810714D02*
X138270335Y-72846428D01*
X138270335Y-72846428D02*
X138306050Y-72882143D01*
X138306050Y-72882143D02*
X138341764Y-72953571D01*
X138341764Y-72953571D02*
X138341764Y-73132143D01*
X138341764Y-73132143D02*
X138306050Y-73203571D01*
X138306050Y-73203571D02*
X138270335Y-73239285D01*
D11*
X138254819Y-66365436D02*
X137254819Y-66365436D01*
X138254819Y-65794008D02*
X137683390Y-66222579D01*
X137254819Y-65794008D02*
X137826247Y-66365436D01*
D10*
X159717856Y-70470335D02*
X159682142Y-70506050D01*
X159682142Y-70506050D02*
X159574999Y-70541764D01*
X159574999Y-70541764D02*
X159503571Y-70541764D01*
X159503571Y-70541764D02*
X159396428Y-70506050D01*
X159396428Y-70506050D02*
X159324999Y-70434621D01*
X159324999Y-70434621D02*
X159289285Y-70363192D01*
X159289285Y-70363192D02*
X159253571Y-70220335D01*
X159253571Y-70220335D02*
X159253571Y-70113192D01*
X159253571Y-70113192D02*
X159289285Y-69970335D01*
X159289285Y-69970335D02*
X159324999Y-69898907D01*
X159324999Y-69898907D02*
X159396428Y-69827478D01*
X159396428Y-69827478D02*
X159503571Y-69791764D01*
X159503571Y-69791764D02*
X159574999Y-69791764D01*
X159574999Y-69791764D02*
X159682142Y-69827478D01*
X159682142Y-69827478D02*
X159717856Y-69863192D01*
X160432142Y-70541764D02*
X160003571Y-70541764D01*
X160217856Y-70541764D02*
X160217856Y-69791764D01*
X160217856Y-69791764D02*
X160146428Y-69898907D01*
X160146428Y-69898907D02*
X160074999Y-69970335D01*
X160074999Y-69970335D02*
X160003571Y-70006050D01*
X161110714Y-69791764D02*
X160753571Y-69791764D01*
X160753571Y-69791764D02*
X160717857Y-70148907D01*
X160717857Y-70148907D02*
X160753571Y-70113192D01*
X160753571Y-70113192D02*
X160825000Y-70077478D01*
X160825000Y-70077478D02*
X161003571Y-70077478D01*
X161003571Y-70077478D02*
X161075000Y-70113192D01*
X161075000Y-70113192D02*
X161110714Y-70148907D01*
X161110714Y-70148907D02*
X161146428Y-70220335D01*
X161146428Y-70220335D02*
X161146428Y-70398907D01*
X161146428Y-70398907D02*
X161110714Y-70470335D01*
X161110714Y-70470335D02*
X161075000Y-70506050D01*
X161075000Y-70506050D02*
X161003571Y-70541764D01*
X161003571Y-70541764D02*
X160825000Y-70541764D01*
X160825000Y-70541764D02*
X160753571Y-70506050D01*
X160753571Y-70506050D02*
X160717857Y-70470335D01*
X125270335Y-80882143D02*
X125306050Y-80917857D01*
X125306050Y-80917857D02*
X125341764Y-81025000D01*
X125341764Y-81025000D02*
X125341764Y-81096428D01*
X125341764Y-81096428D02*
X125306050Y-81203571D01*
X125306050Y-81203571D02*
X125234621Y-81275000D01*
X125234621Y-81275000D02*
X125163192Y-81310714D01*
X125163192Y-81310714D02*
X125020335Y-81346428D01*
X125020335Y-81346428D02*
X124913192Y-81346428D01*
X124913192Y-81346428D02*
X124770335Y-81310714D01*
X124770335Y-81310714D02*
X124698907Y-81275000D01*
X124698907Y-81275000D02*
X124627478Y-81203571D01*
X124627478Y-81203571D02*
X124591764Y-81096428D01*
X124591764Y-81096428D02*
X124591764Y-81025000D01*
X124591764Y-81025000D02*
X124627478Y-80917857D01*
X124627478Y-80917857D02*
X124663192Y-80882143D01*
X124663192Y-80596428D02*
X124627478Y-80560714D01*
X124627478Y-80560714D02*
X124591764Y-80489286D01*
X124591764Y-80489286D02*
X124591764Y-80310714D01*
X124591764Y-80310714D02*
X124627478Y-80239286D01*
X124627478Y-80239286D02*
X124663192Y-80203571D01*
X124663192Y-80203571D02*
X124734621Y-80167857D01*
X124734621Y-80167857D02*
X124806050Y-80167857D01*
X124806050Y-80167857D02*
X124913192Y-80203571D01*
X124913192Y-80203571D02*
X125341764Y-80632143D01*
X125341764Y-80632143D02*
X125341764Y-80167857D01*
X125341764Y-79453571D02*
X125341764Y-79882142D01*
X125341764Y-79667857D02*
X124591764Y-79667857D01*
X124591764Y-79667857D02*
X124698907Y-79739285D01*
X124698907Y-79739285D02*
X124770335Y-79810714D01*
X124770335Y-79810714D02*
X124806050Y-79882142D01*
X165870335Y-82282143D02*
X165906050Y-82317857D01*
X165906050Y-82317857D02*
X165941764Y-82425000D01*
X165941764Y-82425000D02*
X165941764Y-82496428D01*
X165941764Y-82496428D02*
X165906050Y-82603571D01*
X165906050Y-82603571D02*
X165834621Y-82675000D01*
X165834621Y-82675000D02*
X165763192Y-82710714D01*
X165763192Y-82710714D02*
X165620335Y-82746428D01*
X165620335Y-82746428D02*
X165513192Y-82746428D01*
X165513192Y-82746428D02*
X165370335Y-82710714D01*
X165370335Y-82710714D02*
X165298907Y-82675000D01*
X165298907Y-82675000D02*
X165227478Y-82603571D01*
X165227478Y-82603571D02*
X165191764Y-82496428D01*
X165191764Y-82496428D02*
X165191764Y-82425000D01*
X165191764Y-82425000D02*
X165227478Y-82317857D01*
X165227478Y-82317857D02*
X165263192Y-82282143D01*
X165941764Y-81567857D02*
X165941764Y-81996428D01*
X165941764Y-81782143D02*
X165191764Y-81782143D01*
X165191764Y-81782143D02*
X165298907Y-81853571D01*
X165298907Y-81853571D02*
X165370335Y-81925000D01*
X165370335Y-81925000D02*
X165406050Y-81996428D01*
X165263192Y-81282142D02*
X165227478Y-81246428D01*
X165227478Y-81246428D02*
X165191764Y-81175000D01*
X165191764Y-81175000D02*
X165191764Y-80996428D01*
X165191764Y-80996428D02*
X165227478Y-80925000D01*
X165227478Y-80925000D02*
X165263192Y-80889285D01*
X165263192Y-80889285D02*
X165334621Y-80853571D01*
X165334621Y-80853571D02*
X165406050Y-80853571D01*
X165406050Y-80853571D02*
X165513192Y-80889285D01*
X165513192Y-80889285D02*
X165941764Y-81317857D01*
X165941764Y-81317857D02*
X165941764Y-80853571D01*
X166341764Y-67882143D02*
X165984621Y-68132143D01*
X166341764Y-68310714D02*
X165591764Y-68310714D01*
X165591764Y-68310714D02*
X165591764Y-68025000D01*
X165591764Y-68025000D02*
X165627478Y-67953571D01*
X165627478Y-67953571D02*
X165663192Y-67917857D01*
X165663192Y-67917857D02*
X165734621Y-67882143D01*
X165734621Y-67882143D02*
X165841764Y-67882143D01*
X165841764Y-67882143D02*
X165913192Y-67917857D01*
X165913192Y-67917857D02*
X165948907Y-67953571D01*
X165948907Y-67953571D02*
X165984621Y-68025000D01*
X165984621Y-68025000D02*
X165984621Y-68310714D01*
X165663192Y-67596428D02*
X165627478Y-67560714D01*
X165627478Y-67560714D02*
X165591764Y-67489286D01*
X165591764Y-67489286D02*
X165591764Y-67310714D01*
X165591764Y-67310714D02*
X165627478Y-67239286D01*
X165627478Y-67239286D02*
X165663192Y-67203571D01*
X165663192Y-67203571D02*
X165734621Y-67167857D01*
X165734621Y-67167857D02*
X165806050Y-67167857D01*
X165806050Y-67167857D02*
X165913192Y-67203571D01*
X165913192Y-67203571D02*
X166341764Y-67632143D01*
X166341764Y-67632143D02*
X166341764Y-67167857D01*
X166341764Y-66453571D02*
X166341764Y-66882142D01*
X166341764Y-66667857D02*
X165591764Y-66667857D01*
X165591764Y-66667857D02*
X165698907Y-66739285D01*
X165698907Y-66739285D02*
X165770335Y-66810714D01*
X165770335Y-66810714D02*
X165806050Y-66882142D01*
X140141764Y-87125000D02*
X139784621Y-87375000D01*
X140141764Y-87553571D02*
X139391764Y-87553571D01*
X139391764Y-87553571D02*
X139391764Y-87267857D01*
X139391764Y-87267857D02*
X139427478Y-87196428D01*
X139427478Y-87196428D02*
X139463192Y-87160714D01*
X139463192Y-87160714D02*
X139534621Y-87125000D01*
X139534621Y-87125000D02*
X139641764Y-87125000D01*
X139641764Y-87125000D02*
X139713192Y-87160714D01*
X139713192Y-87160714D02*
X139748907Y-87196428D01*
X139748907Y-87196428D02*
X139784621Y-87267857D01*
X139784621Y-87267857D02*
X139784621Y-87553571D01*
X139391764Y-86482143D02*
X139391764Y-86625000D01*
X139391764Y-86625000D02*
X139427478Y-86696428D01*
X139427478Y-86696428D02*
X139463192Y-86732143D01*
X139463192Y-86732143D02*
X139570335Y-86803571D01*
X139570335Y-86803571D02*
X139713192Y-86839285D01*
X139713192Y-86839285D02*
X139998907Y-86839285D01*
X139998907Y-86839285D02*
X140070335Y-86803571D01*
X140070335Y-86803571D02*
X140106050Y-86767857D01*
X140106050Y-86767857D02*
X140141764Y-86696428D01*
X140141764Y-86696428D02*
X140141764Y-86553571D01*
X140141764Y-86553571D02*
X140106050Y-86482143D01*
X140106050Y-86482143D02*
X140070335Y-86446428D01*
X140070335Y-86446428D02*
X139998907Y-86410714D01*
X139998907Y-86410714D02*
X139820335Y-86410714D01*
X139820335Y-86410714D02*
X139748907Y-86446428D01*
X139748907Y-86446428D02*
X139713192Y-86482143D01*
X139713192Y-86482143D02*
X139677478Y-86553571D01*
X139677478Y-86553571D02*
X139677478Y-86696428D01*
X139677478Y-86696428D02*
X139713192Y-86767857D01*
X139713192Y-86767857D02*
X139748907Y-86803571D01*
X139748907Y-86803571D02*
X139820335Y-86839285D01*
X135517856Y-85741764D02*
X135267856Y-85384621D01*
X135089285Y-85741764D02*
X135089285Y-84991764D01*
X135089285Y-84991764D02*
X135374999Y-84991764D01*
X135374999Y-84991764D02*
X135446428Y-85027478D01*
X135446428Y-85027478D02*
X135482142Y-85063192D01*
X135482142Y-85063192D02*
X135517856Y-85134621D01*
X135517856Y-85134621D02*
X135517856Y-85241764D01*
X135517856Y-85241764D02*
X135482142Y-85313192D01*
X135482142Y-85313192D02*
X135446428Y-85348907D01*
X135446428Y-85348907D02*
X135374999Y-85384621D01*
X135374999Y-85384621D02*
X135089285Y-85384621D01*
X135767856Y-84991764D02*
X136232142Y-84991764D01*
X136232142Y-84991764D02*
X135982142Y-85277478D01*
X135982142Y-85277478D02*
X136089285Y-85277478D01*
X136089285Y-85277478D02*
X136160714Y-85313192D01*
X136160714Y-85313192D02*
X136196428Y-85348907D01*
X136196428Y-85348907D02*
X136232142Y-85420335D01*
X136232142Y-85420335D02*
X136232142Y-85598907D01*
X136232142Y-85598907D02*
X136196428Y-85670335D01*
X136196428Y-85670335D02*
X136160714Y-85706050D01*
X136160714Y-85706050D02*
X136089285Y-85741764D01*
X136089285Y-85741764D02*
X135874999Y-85741764D01*
X135874999Y-85741764D02*
X135803571Y-85706050D01*
X135803571Y-85706050D02*
X135767856Y-85670335D01*
X136946428Y-85741764D02*
X136517857Y-85741764D01*
X136732142Y-85741764D02*
X136732142Y-84991764D01*
X136732142Y-84991764D02*
X136660714Y-85098907D01*
X136660714Y-85098907D02*
X136589285Y-85170335D01*
X136589285Y-85170335D02*
X136517857Y-85206050D01*
X155941764Y-36753571D02*
X155191764Y-36753571D01*
X155191764Y-36753571D02*
X155191764Y-36575000D01*
X155191764Y-36575000D02*
X155227478Y-36467857D01*
X155227478Y-36467857D02*
X155298907Y-36396428D01*
X155298907Y-36396428D02*
X155370335Y-36360714D01*
X155370335Y-36360714D02*
X155513192Y-36325000D01*
X155513192Y-36325000D02*
X155620335Y-36325000D01*
X155620335Y-36325000D02*
X155763192Y-36360714D01*
X155763192Y-36360714D02*
X155834621Y-36396428D01*
X155834621Y-36396428D02*
X155906050Y-36467857D01*
X155906050Y-36467857D02*
X155941764Y-36575000D01*
X155941764Y-36575000D02*
X155941764Y-36753571D01*
X155941764Y-35610714D02*
X155941764Y-36039285D01*
X155941764Y-35825000D02*
X155191764Y-35825000D01*
X155191764Y-35825000D02*
X155298907Y-35896428D01*
X155298907Y-35896428D02*
X155370335Y-35967857D01*
X155370335Y-35967857D02*
X155406050Y-36039285D01*
D11*
X156054819Y-44030138D02*
X155054819Y-44030138D01*
X156054819Y-43458710D02*
X155483390Y-43887281D01*
X155054819Y-43458710D02*
X155626247Y-44030138D01*
D10*
X143474999Y-96541764D02*
X143224999Y-96184621D01*
X143046428Y-96541764D02*
X143046428Y-95791764D01*
X143046428Y-95791764D02*
X143332142Y-95791764D01*
X143332142Y-95791764D02*
X143403571Y-95827478D01*
X143403571Y-95827478D02*
X143439285Y-95863192D01*
X143439285Y-95863192D02*
X143474999Y-95934621D01*
X143474999Y-95934621D02*
X143474999Y-96041764D01*
X143474999Y-96041764D02*
X143439285Y-96113192D01*
X143439285Y-96113192D02*
X143403571Y-96148907D01*
X143403571Y-96148907D02*
X143332142Y-96184621D01*
X143332142Y-96184621D02*
X143046428Y-96184621D01*
X143832142Y-96541764D02*
X143974999Y-96541764D01*
X143974999Y-96541764D02*
X144046428Y-96506050D01*
X144046428Y-96506050D02*
X144082142Y-96470335D01*
X144082142Y-96470335D02*
X144153571Y-96363192D01*
X144153571Y-96363192D02*
X144189285Y-96220335D01*
X144189285Y-96220335D02*
X144189285Y-95934621D01*
X144189285Y-95934621D02*
X144153571Y-95863192D01*
X144153571Y-95863192D02*
X144117857Y-95827478D01*
X144117857Y-95827478D02*
X144046428Y-95791764D01*
X144046428Y-95791764D02*
X143903571Y-95791764D01*
X143903571Y-95791764D02*
X143832142Y-95827478D01*
X143832142Y-95827478D02*
X143796428Y-95863192D01*
X143796428Y-95863192D02*
X143760714Y-95934621D01*
X143760714Y-95934621D02*
X143760714Y-96113192D01*
X143760714Y-96113192D02*
X143796428Y-96184621D01*
X143796428Y-96184621D02*
X143832142Y-96220335D01*
X143832142Y-96220335D02*
X143903571Y-96256050D01*
X143903571Y-96256050D02*
X144046428Y-96256050D01*
X144046428Y-96256050D02*
X144117857Y-96220335D01*
X144117857Y-96220335D02*
X144153571Y-96184621D01*
X144153571Y-96184621D02*
X144189285Y-96113192D01*
X161941764Y-98482143D02*
X161584621Y-98732143D01*
X161941764Y-98910714D02*
X161191764Y-98910714D01*
X161191764Y-98910714D02*
X161191764Y-98625000D01*
X161191764Y-98625000D02*
X161227478Y-98553571D01*
X161227478Y-98553571D02*
X161263192Y-98517857D01*
X161263192Y-98517857D02*
X161334621Y-98482143D01*
X161334621Y-98482143D02*
X161441764Y-98482143D01*
X161441764Y-98482143D02*
X161513192Y-98517857D01*
X161513192Y-98517857D02*
X161548907Y-98553571D01*
X161548907Y-98553571D02*
X161584621Y-98625000D01*
X161584621Y-98625000D02*
X161584621Y-98910714D01*
X161941764Y-97767857D02*
X161941764Y-98196428D01*
X161941764Y-97982143D02*
X161191764Y-97982143D01*
X161191764Y-97982143D02*
X161298907Y-98053571D01*
X161298907Y-98053571D02*
X161370335Y-98125000D01*
X161370335Y-98125000D02*
X161406050Y-98196428D01*
X161191764Y-97517857D02*
X161191764Y-97053571D01*
X161191764Y-97053571D02*
X161477478Y-97303571D01*
X161477478Y-97303571D02*
X161477478Y-97196428D01*
X161477478Y-97196428D02*
X161513192Y-97125000D01*
X161513192Y-97125000D02*
X161548907Y-97089285D01*
X161548907Y-97089285D02*
X161620335Y-97053571D01*
X161620335Y-97053571D02*
X161798907Y-97053571D01*
X161798907Y-97053571D02*
X161870335Y-97089285D01*
X161870335Y-97089285D02*
X161906050Y-97125000D01*
X161906050Y-97125000D02*
X161941764Y-97196428D01*
X161941764Y-97196428D02*
X161941764Y-97410714D01*
X161941764Y-97410714D02*
X161906050Y-97482142D01*
X161906050Y-97482142D02*
X161870335Y-97517857D01*
X167680000Y-44491764D02*
X167680000Y-45027478D01*
X167680000Y-45027478D02*
X167644285Y-45134621D01*
X167644285Y-45134621D02*
X167572857Y-45206050D01*
X167572857Y-45206050D02*
X167465714Y-45241764D01*
X167465714Y-45241764D02*
X167394285Y-45241764D01*
X167965714Y-44491764D02*
X168430000Y-44491764D01*
X168430000Y-44491764D02*
X168180000Y-44777478D01*
X168180000Y-44777478D02*
X168287143Y-44777478D01*
X168287143Y-44777478D02*
X168358572Y-44813192D01*
X168358572Y-44813192D02*
X168394286Y-44848907D01*
X168394286Y-44848907D02*
X168430000Y-44920335D01*
X168430000Y-44920335D02*
X168430000Y-45098907D01*
X168430000Y-45098907D02*
X168394286Y-45170335D01*
X168394286Y-45170335D02*
X168358572Y-45206050D01*
X168358572Y-45206050D02*
X168287143Y-45241764D01*
X168287143Y-45241764D02*
X168072857Y-45241764D01*
X168072857Y-45241764D02*
X168001429Y-45206050D01*
X168001429Y-45206050D02*
X167965714Y-45170335D01*
X157341764Y-88282143D02*
X156984621Y-88532143D01*
X157341764Y-88710714D02*
X156591764Y-88710714D01*
X156591764Y-88710714D02*
X156591764Y-88425000D01*
X156591764Y-88425000D02*
X156627478Y-88353571D01*
X156627478Y-88353571D02*
X156663192Y-88317857D01*
X156663192Y-88317857D02*
X156734621Y-88282143D01*
X156734621Y-88282143D02*
X156841764Y-88282143D01*
X156841764Y-88282143D02*
X156913192Y-88317857D01*
X156913192Y-88317857D02*
X156948907Y-88353571D01*
X156948907Y-88353571D02*
X156984621Y-88425000D01*
X156984621Y-88425000D02*
X156984621Y-88710714D01*
X157341764Y-87567857D02*
X157341764Y-87996428D01*
X157341764Y-87782143D02*
X156591764Y-87782143D01*
X156591764Y-87782143D02*
X156698907Y-87853571D01*
X156698907Y-87853571D02*
X156770335Y-87925000D01*
X156770335Y-87925000D02*
X156806050Y-87996428D01*
X157341764Y-86853571D02*
X157341764Y-87282142D01*
X157341764Y-87067857D02*
X156591764Y-87067857D01*
X156591764Y-87067857D02*
X156698907Y-87139285D01*
X156698907Y-87139285D02*
X156770335Y-87210714D01*
X156770335Y-87210714D02*
X156806050Y-87282142D01*
X123541764Y-80882143D02*
X123184621Y-81132143D01*
X123541764Y-81310714D02*
X122791764Y-81310714D01*
X122791764Y-81310714D02*
X122791764Y-81025000D01*
X122791764Y-81025000D02*
X122827478Y-80953571D01*
X122827478Y-80953571D02*
X122863192Y-80917857D01*
X122863192Y-80917857D02*
X122934621Y-80882143D01*
X122934621Y-80882143D02*
X123041764Y-80882143D01*
X123041764Y-80882143D02*
X123113192Y-80917857D01*
X123113192Y-80917857D02*
X123148907Y-80953571D01*
X123148907Y-80953571D02*
X123184621Y-81025000D01*
X123184621Y-81025000D02*
X123184621Y-81310714D01*
X122863192Y-80596428D02*
X122827478Y-80560714D01*
X122827478Y-80560714D02*
X122791764Y-80489286D01*
X122791764Y-80489286D02*
X122791764Y-80310714D01*
X122791764Y-80310714D02*
X122827478Y-80239286D01*
X122827478Y-80239286D02*
X122863192Y-80203571D01*
X122863192Y-80203571D02*
X122934621Y-80167857D01*
X122934621Y-80167857D02*
X123006050Y-80167857D01*
X123006050Y-80167857D02*
X123113192Y-80203571D01*
X123113192Y-80203571D02*
X123541764Y-80632143D01*
X123541764Y-80632143D02*
X123541764Y-80167857D01*
X122791764Y-79525000D02*
X122791764Y-79667857D01*
X122791764Y-79667857D02*
X122827478Y-79739285D01*
X122827478Y-79739285D02*
X122863192Y-79775000D01*
X122863192Y-79775000D02*
X122970335Y-79846428D01*
X122970335Y-79846428D02*
X123113192Y-79882142D01*
X123113192Y-79882142D02*
X123398907Y-79882142D01*
X123398907Y-79882142D02*
X123470335Y-79846428D01*
X123470335Y-79846428D02*
X123506050Y-79810714D01*
X123506050Y-79810714D02*
X123541764Y-79739285D01*
X123541764Y-79739285D02*
X123541764Y-79596428D01*
X123541764Y-79596428D02*
X123506050Y-79525000D01*
X123506050Y-79525000D02*
X123470335Y-79489285D01*
X123470335Y-79489285D02*
X123398907Y-79453571D01*
X123398907Y-79453571D02*
X123220335Y-79453571D01*
X123220335Y-79453571D02*
X123148907Y-79489285D01*
X123148907Y-79489285D02*
X123113192Y-79525000D01*
X123113192Y-79525000D02*
X123077478Y-79596428D01*
X123077478Y-79596428D02*
X123077478Y-79739285D01*
X123077478Y-79739285D02*
X123113192Y-79810714D01*
X123113192Y-79810714D02*
X123148907Y-79846428D01*
X123148907Y-79846428D02*
X123220335Y-79882142D01*
X148050000Y-35491764D02*
X148050000Y-36027478D01*
X148050000Y-36027478D02*
X148014285Y-36134621D01*
X148014285Y-36134621D02*
X147942857Y-36206050D01*
X147942857Y-36206050D02*
X147835714Y-36241764D01*
X147835714Y-36241764D02*
X147764285Y-36241764D01*
X148800000Y-36241764D02*
X148371429Y-36241764D01*
X148585714Y-36241764D02*
X148585714Y-35491764D01*
X148585714Y-35491764D02*
X148514286Y-35598907D01*
X148514286Y-35598907D02*
X148442857Y-35670335D01*
X148442857Y-35670335D02*
X148371429Y-35706050D01*
X143813192Y-88871428D02*
X143777478Y-88942857D01*
X143777478Y-88942857D02*
X143706050Y-89014285D01*
X143706050Y-89014285D02*
X143598907Y-89121428D01*
X143598907Y-89121428D02*
X143563192Y-89192857D01*
X143563192Y-89192857D02*
X143563192Y-89264285D01*
X143741764Y-89228571D02*
X143706050Y-89300000D01*
X143706050Y-89300000D02*
X143634621Y-89371428D01*
X143634621Y-89371428D02*
X143491764Y-89407142D01*
X143491764Y-89407142D02*
X143241764Y-89407142D01*
X143241764Y-89407142D02*
X143098907Y-89371428D01*
X143098907Y-89371428D02*
X143027478Y-89300000D01*
X143027478Y-89300000D02*
X142991764Y-89228571D01*
X142991764Y-89228571D02*
X142991764Y-89085714D01*
X142991764Y-89085714D02*
X143027478Y-89014285D01*
X143027478Y-89014285D02*
X143098907Y-88942857D01*
X143098907Y-88942857D02*
X143241764Y-88907142D01*
X143241764Y-88907142D02*
X143491764Y-88907142D01*
X143491764Y-88907142D02*
X143634621Y-88942857D01*
X143634621Y-88942857D02*
X143706050Y-89014285D01*
X143706050Y-89014285D02*
X143741764Y-89085714D01*
X143741764Y-89085714D02*
X143741764Y-89228571D01*
X143741764Y-88192857D02*
X143741764Y-88621428D01*
X143741764Y-88407143D02*
X142991764Y-88407143D01*
X142991764Y-88407143D02*
X143098907Y-88478571D01*
X143098907Y-88478571D02*
X143170335Y-88550000D01*
X143170335Y-88550000D02*
X143206050Y-88621428D01*
X144117856Y-68270335D02*
X144082142Y-68306050D01*
X144082142Y-68306050D02*
X143974999Y-68341764D01*
X143974999Y-68341764D02*
X143903571Y-68341764D01*
X143903571Y-68341764D02*
X143796428Y-68306050D01*
X143796428Y-68306050D02*
X143724999Y-68234621D01*
X143724999Y-68234621D02*
X143689285Y-68163192D01*
X143689285Y-68163192D02*
X143653571Y-68020335D01*
X143653571Y-68020335D02*
X143653571Y-67913192D01*
X143653571Y-67913192D02*
X143689285Y-67770335D01*
X143689285Y-67770335D02*
X143724999Y-67698907D01*
X143724999Y-67698907D02*
X143796428Y-67627478D01*
X143796428Y-67627478D02*
X143903571Y-67591764D01*
X143903571Y-67591764D02*
X143974999Y-67591764D01*
X143974999Y-67591764D02*
X144082142Y-67627478D01*
X144082142Y-67627478D02*
X144117856Y-67663192D01*
X144832142Y-68341764D02*
X144403571Y-68341764D01*
X144617856Y-68341764D02*
X144617856Y-67591764D01*
X144617856Y-67591764D02*
X144546428Y-67698907D01*
X144546428Y-67698907D02*
X144474999Y-67770335D01*
X144474999Y-67770335D02*
X144403571Y-67806050D01*
X145082142Y-67591764D02*
X145582142Y-67591764D01*
X145582142Y-67591764D02*
X145260714Y-68341764D01*
X156870335Y-73682143D02*
X156906050Y-73717857D01*
X156906050Y-73717857D02*
X156941764Y-73825000D01*
X156941764Y-73825000D02*
X156941764Y-73896428D01*
X156941764Y-73896428D02*
X156906050Y-74003571D01*
X156906050Y-74003571D02*
X156834621Y-74075000D01*
X156834621Y-74075000D02*
X156763192Y-74110714D01*
X156763192Y-74110714D02*
X156620335Y-74146428D01*
X156620335Y-74146428D02*
X156513192Y-74146428D01*
X156513192Y-74146428D02*
X156370335Y-74110714D01*
X156370335Y-74110714D02*
X156298907Y-74075000D01*
X156298907Y-74075000D02*
X156227478Y-74003571D01*
X156227478Y-74003571D02*
X156191764Y-73896428D01*
X156191764Y-73896428D02*
X156191764Y-73825000D01*
X156191764Y-73825000D02*
X156227478Y-73717857D01*
X156227478Y-73717857D02*
X156263192Y-73682143D01*
X156941764Y-72967857D02*
X156941764Y-73396428D01*
X156941764Y-73182143D02*
X156191764Y-73182143D01*
X156191764Y-73182143D02*
X156298907Y-73253571D01*
X156298907Y-73253571D02*
X156370335Y-73325000D01*
X156370335Y-73325000D02*
X156406050Y-73396428D01*
X156513192Y-72539285D02*
X156477478Y-72610714D01*
X156477478Y-72610714D02*
X156441764Y-72646428D01*
X156441764Y-72646428D02*
X156370335Y-72682142D01*
X156370335Y-72682142D02*
X156334621Y-72682142D01*
X156334621Y-72682142D02*
X156263192Y-72646428D01*
X156263192Y-72646428D02*
X156227478Y-72610714D01*
X156227478Y-72610714D02*
X156191764Y-72539285D01*
X156191764Y-72539285D02*
X156191764Y-72396428D01*
X156191764Y-72396428D02*
X156227478Y-72325000D01*
X156227478Y-72325000D02*
X156263192Y-72289285D01*
X156263192Y-72289285D02*
X156334621Y-72253571D01*
X156334621Y-72253571D02*
X156370335Y-72253571D01*
X156370335Y-72253571D02*
X156441764Y-72289285D01*
X156441764Y-72289285D02*
X156477478Y-72325000D01*
X156477478Y-72325000D02*
X156513192Y-72396428D01*
X156513192Y-72396428D02*
X156513192Y-72539285D01*
X156513192Y-72539285D02*
X156548907Y-72610714D01*
X156548907Y-72610714D02*
X156584621Y-72646428D01*
X156584621Y-72646428D02*
X156656050Y-72682142D01*
X156656050Y-72682142D02*
X156798907Y-72682142D01*
X156798907Y-72682142D02*
X156870335Y-72646428D01*
X156870335Y-72646428D02*
X156906050Y-72610714D01*
X156906050Y-72610714D02*
X156941764Y-72539285D01*
X156941764Y-72539285D02*
X156941764Y-72396428D01*
X156941764Y-72396428D02*
X156906050Y-72325000D01*
X156906050Y-72325000D02*
X156870335Y-72289285D01*
X156870335Y-72289285D02*
X156798907Y-72253571D01*
X156798907Y-72253571D02*
X156656050Y-72253571D01*
X156656050Y-72253571D02*
X156584621Y-72289285D01*
X156584621Y-72289285D02*
X156548907Y-72325000D01*
X156548907Y-72325000D02*
X156513192Y-72396428D01*
X128830000Y-44491764D02*
X128830000Y-45027478D01*
X128830000Y-45027478D02*
X128794285Y-45134621D01*
X128794285Y-45134621D02*
X128722857Y-45206050D01*
X128722857Y-45206050D02*
X128615714Y-45241764D01*
X128615714Y-45241764D02*
X128544285Y-45241764D01*
X129151429Y-44563192D02*
X129187143Y-44527478D01*
X129187143Y-44527478D02*
X129258572Y-44491764D01*
X129258572Y-44491764D02*
X129437143Y-44491764D01*
X129437143Y-44491764D02*
X129508572Y-44527478D01*
X129508572Y-44527478D02*
X129544286Y-44563192D01*
X129544286Y-44563192D02*
X129580000Y-44634621D01*
X129580000Y-44634621D02*
X129580000Y-44706050D01*
X129580000Y-44706050D02*
X129544286Y-44813192D01*
X129544286Y-44813192D02*
X129115714Y-45241764D01*
X129115714Y-45241764D02*
X129580000Y-45241764D01*
X146941764Y-94725000D02*
X146584621Y-94975000D01*
X146941764Y-95153571D02*
X146191764Y-95153571D01*
X146191764Y-95153571D02*
X146191764Y-94867857D01*
X146191764Y-94867857D02*
X146227478Y-94796428D01*
X146227478Y-94796428D02*
X146263192Y-94760714D01*
X146263192Y-94760714D02*
X146334621Y-94725000D01*
X146334621Y-94725000D02*
X146441764Y-94725000D01*
X146441764Y-94725000D02*
X146513192Y-94760714D01*
X146513192Y-94760714D02*
X146548907Y-94796428D01*
X146548907Y-94796428D02*
X146584621Y-94867857D01*
X146584621Y-94867857D02*
X146584621Y-95153571D01*
X146513192Y-94296428D02*
X146477478Y-94367857D01*
X146477478Y-94367857D02*
X146441764Y-94403571D01*
X146441764Y-94403571D02*
X146370335Y-94439285D01*
X146370335Y-94439285D02*
X146334621Y-94439285D01*
X146334621Y-94439285D02*
X146263192Y-94403571D01*
X146263192Y-94403571D02*
X146227478Y-94367857D01*
X146227478Y-94367857D02*
X146191764Y-94296428D01*
X146191764Y-94296428D02*
X146191764Y-94153571D01*
X146191764Y-94153571D02*
X146227478Y-94082143D01*
X146227478Y-94082143D02*
X146263192Y-94046428D01*
X146263192Y-94046428D02*
X146334621Y-94010714D01*
X146334621Y-94010714D02*
X146370335Y-94010714D01*
X146370335Y-94010714D02*
X146441764Y-94046428D01*
X146441764Y-94046428D02*
X146477478Y-94082143D01*
X146477478Y-94082143D02*
X146513192Y-94153571D01*
X146513192Y-94153571D02*
X146513192Y-94296428D01*
X146513192Y-94296428D02*
X146548907Y-94367857D01*
X146548907Y-94367857D02*
X146584621Y-94403571D01*
X146584621Y-94403571D02*
X146656050Y-94439285D01*
X146656050Y-94439285D02*
X146798907Y-94439285D01*
X146798907Y-94439285D02*
X146870335Y-94403571D01*
X146870335Y-94403571D02*
X146906050Y-94367857D01*
X146906050Y-94367857D02*
X146941764Y-94296428D01*
X146941764Y-94296428D02*
X146941764Y-94153571D01*
X146941764Y-94153571D02*
X146906050Y-94082143D01*
X146906050Y-94082143D02*
X146870335Y-94046428D01*
X146870335Y-94046428D02*
X146798907Y-94010714D01*
X146798907Y-94010714D02*
X146656050Y-94010714D01*
X146656050Y-94010714D02*
X146584621Y-94046428D01*
X146584621Y-94046428D02*
X146548907Y-94082143D01*
X146548907Y-94082143D02*
X146513192Y-94153571D01*
X173507855Y-68670337D02*
X173472141Y-68706052D01*
X173472141Y-68706052D02*
X173364998Y-68741766D01*
X173364998Y-68741766D02*
X173293570Y-68741766D01*
X173293570Y-68741766D02*
X173186427Y-68706052D01*
X173186427Y-68706052D02*
X173114998Y-68634623D01*
X173114998Y-68634623D02*
X173079284Y-68563194D01*
X173079284Y-68563194D02*
X173043570Y-68420337D01*
X173043570Y-68420337D02*
X173043570Y-68313194D01*
X173043570Y-68313194D02*
X173079284Y-68170337D01*
X173079284Y-68170337D02*
X173114998Y-68098909D01*
X173114998Y-68098909D02*
X173186427Y-68027480D01*
X173186427Y-68027480D02*
X173293570Y-67991766D01*
X173293570Y-67991766D02*
X173364998Y-67991766D01*
X173364998Y-67991766D02*
X173472141Y-68027480D01*
X173472141Y-68027480D02*
X173507855Y-68063194D01*
X174222141Y-68741766D02*
X173793570Y-68741766D01*
X174007855Y-68741766D02*
X174007855Y-67991766D01*
X174007855Y-67991766D02*
X173936427Y-68098909D01*
X173936427Y-68098909D02*
X173864998Y-68170337D01*
X173864998Y-68170337D02*
X173793570Y-68206052D01*
X174472141Y-67991766D02*
X174936427Y-67991766D01*
X174936427Y-67991766D02*
X174686427Y-68277480D01*
X174686427Y-68277480D02*
X174793570Y-68277480D01*
X174793570Y-68277480D02*
X174864999Y-68313194D01*
X174864999Y-68313194D02*
X174900713Y-68348909D01*
X174900713Y-68348909D02*
X174936427Y-68420337D01*
X174936427Y-68420337D02*
X174936427Y-68598909D01*
X174936427Y-68598909D02*
X174900713Y-68670337D01*
X174900713Y-68670337D02*
X174864999Y-68706052D01*
X174864999Y-68706052D02*
X174793570Y-68741766D01*
X174793570Y-68741766D02*
X174579284Y-68741766D01*
X174579284Y-68741766D02*
X174507856Y-68706052D01*
X174507856Y-68706052D02*
X174472141Y-68670337D01*
X171246428Y-94941764D02*
X171246428Y-94191764D01*
X171246428Y-94191764D02*
X171424999Y-94191764D01*
X171424999Y-94191764D02*
X171532142Y-94227478D01*
X171532142Y-94227478D02*
X171603571Y-94298907D01*
X171603571Y-94298907D02*
X171639285Y-94370335D01*
X171639285Y-94370335D02*
X171674999Y-94513192D01*
X171674999Y-94513192D02*
X171674999Y-94620335D01*
X171674999Y-94620335D02*
X171639285Y-94763192D01*
X171639285Y-94763192D02*
X171603571Y-94834621D01*
X171603571Y-94834621D02*
X171532142Y-94906050D01*
X171532142Y-94906050D02*
X171424999Y-94941764D01*
X171424999Y-94941764D02*
X171246428Y-94941764D01*
X171924999Y-94191764D02*
X172389285Y-94191764D01*
X172389285Y-94191764D02*
X172139285Y-94477478D01*
X172139285Y-94477478D02*
X172246428Y-94477478D01*
X172246428Y-94477478D02*
X172317857Y-94513192D01*
X172317857Y-94513192D02*
X172353571Y-94548907D01*
X172353571Y-94548907D02*
X172389285Y-94620335D01*
X172389285Y-94620335D02*
X172389285Y-94798907D01*
X172389285Y-94798907D02*
X172353571Y-94870335D01*
X172353571Y-94870335D02*
X172317857Y-94906050D01*
X172317857Y-94906050D02*
X172246428Y-94941764D01*
X172246428Y-94941764D02*
X172032142Y-94941764D01*
X172032142Y-94941764D02*
X171960714Y-94906050D01*
X171960714Y-94906050D02*
X171924999Y-94870335D01*
D11*
X171506329Y-93654819D02*
X171506329Y-92654819D01*
X172077757Y-93654819D02*
X171649186Y-93083390D01*
X172077757Y-92654819D02*
X171506329Y-93226247D01*
D10*
X159874999Y-92070335D02*
X159839285Y-92106050D01*
X159839285Y-92106050D02*
X159732142Y-92141764D01*
X159732142Y-92141764D02*
X159660714Y-92141764D01*
X159660714Y-92141764D02*
X159553571Y-92106050D01*
X159553571Y-92106050D02*
X159482142Y-92034621D01*
X159482142Y-92034621D02*
X159446428Y-91963192D01*
X159446428Y-91963192D02*
X159410714Y-91820335D01*
X159410714Y-91820335D02*
X159410714Y-91713192D01*
X159410714Y-91713192D02*
X159446428Y-91570335D01*
X159446428Y-91570335D02*
X159482142Y-91498907D01*
X159482142Y-91498907D02*
X159553571Y-91427478D01*
X159553571Y-91427478D02*
X159660714Y-91391764D01*
X159660714Y-91391764D02*
X159732142Y-91391764D01*
X159732142Y-91391764D02*
X159839285Y-91427478D01*
X159839285Y-91427478D02*
X159874999Y-91463192D01*
X160232142Y-92141764D02*
X160374999Y-92141764D01*
X160374999Y-92141764D02*
X160446428Y-92106050D01*
X160446428Y-92106050D02*
X160482142Y-92070335D01*
X160482142Y-92070335D02*
X160553571Y-91963192D01*
X160553571Y-91963192D02*
X160589285Y-91820335D01*
X160589285Y-91820335D02*
X160589285Y-91534621D01*
X160589285Y-91534621D02*
X160553571Y-91463192D01*
X160553571Y-91463192D02*
X160517857Y-91427478D01*
X160517857Y-91427478D02*
X160446428Y-91391764D01*
X160446428Y-91391764D02*
X160303571Y-91391764D01*
X160303571Y-91391764D02*
X160232142Y-91427478D01*
X160232142Y-91427478D02*
X160196428Y-91463192D01*
X160196428Y-91463192D02*
X160160714Y-91534621D01*
X160160714Y-91534621D02*
X160160714Y-91713192D01*
X160160714Y-91713192D02*
X160196428Y-91784621D01*
X160196428Y-91784621D02*
X160232142Y-91820335D01*
X160232142Y-91820335D02*
X160303571Y-91856050D01*
X160303571Y-91856050D02*
X160446428Y-91856050D01*
X160446428Y-91856050D02*
X160517857Y-91820335D01*
X160517857Y-91820335D02*
X160553571Y-91784621D01*
X160553571Y-91784621D02*
X160589285Y-91713192D01*
X150270335Y-52924999D02*
X150306050Y-52960713D01*
X150306050Y-52960713D02*
X150341764Y-53067856D01*
X150341764Y-53067856D02*
X150341764Y-53139284D01*
X150341764Y-53139284D02*
X150306050Y-53246427D01*
X150306050Y-53246427D02*
X150234621Y-53317856D01*
X150234621Y-53317856D02*
X150163192Y-53353570D01*
X150163192Y-53353570D02*
X150020335Y-53389284D01*
X150020335Y-53389284D02*
X149913192Y-53389284D01*
X149913192Y-53389284D02*
X149770335Y-53353570D01*
X149770335Y-53353570D02*
X149698907Y-53317856D01*
X149698907Y-53317856D02*
X149627478Y-53246427D01*
X149627478Y-53246427D02*
X149591764Y-53139284D01*
X149591764Y-53139284D02*
X149591764Y-53067856D01*
X149591764Y-53067856D02*
X149627478Y-52960713D01*
X149627478Y-52960713D02*
X149663192Y-52924999D01*
X149663192Y-52639284D02*
X149627478Y-52603570D01*
X149627478Y-52603570D02*
X149591764Y-52532142D01*
X149591764Y-52532142D02*
X149591764Y-52353570D01*
X149591764Y-52353570D02*
X149627478Y-52282142D01*
X149627478Y-52282142D02*
X149663192Y-52246427D01*
X149663192Y-52246427D02*
X149734621Y-52210713D01*
X149734621Y-52210713D02*
X149806050Y-52210713D01*
X149806050Y-52210713D02*
X149913192Y-52246427D01*
X149913192Y-52246427D02*
X150341764Y-52674999D01*
X150341764Y-52674999D02*
X150341764Y-52210713D01*
X173455355Y-66870335D02*
X173419641Y-66906050D01*
X173419641Y-66906050D02*
X173312498Y-66941764D01*
X173312498Y-66941764D02*
X173241070Y-66941764D01*
X173241070Y-66941764D02*
X173133927Y-66906050D01*
X173133927Y-66906050D02*
X173062498Y-66834621D01*
X173062498Y-66834621D02*
X173026784Y-66763192D01*
X173026784Y-66763192D02*
X172991070Y-66620335D01*
X172991070Y-66620335D02*
X172991070Y-66513192D01*
X172991070Y-66513192D02*
X173026784Y-66370335D01*
X173026784Y-66370335D02*
X173062498Y-66298907D01*
X173062498Y-66298907D02*
X173133927Y-66227478D01*
X173133927Y-66227478D02*
X173241070Y-66191764D01*
X173241070Y-66191764D02*
X173312498Y-66191764D01*
X173312498Y-66191764D02*
X173419641Y-66227478D01*
X173419641Y-66227478D02*
X173455355Y-66263192D01*
X174169641Y-66941764D02*
X173741070Y-66941764D01*
X173955355Y-66941764D02*
X173955355Y-66191764D01*
X173955355Y-66191764D02*
X173883927Y-66298907D01*
X173883927Y-66298907D02*
X173812498Y-66370335D01*
X173812498Y-66370335D02*
X173741070Y-66406050D01*
X174812499Y-66441764D02*
X174812499Y-66941764D01*
X174633927Y-66156050D02*
X174455356Y-66691764D01*
X174455356Y-66691764D02*
X174919641Y-66691764D01*
X128274999Y-96070335D02*
X128239285Y-96106050D01*
X128239285Y-96106050D02*
X128132142Y-96141764D01*
X128132142Y-96141764D02*
X128060714Y-96141764D01*
X128060714Y-96141764D02*
X127953571Y-96106050D01*
X127953571Y-96106050D02*
X127882142Y-96034621D01*
X127882142Y-96034621D02*
X127846428Y-95963192D01*
X127846428Y-95963192D02*
X127810714Y-95820335D01*
X127810714Y-95820335D02*
X127810714Y-95713192D01*
X127810714Y-95713192D02*
X127846428Y-95570335D01*
X127846428Y-95570335D02*
X127882142Y-95498907D01*
X127882142Y-95498907D02*
X127953571Y-95427478D01*
X127953571Y-95427478D02*
X128060714Y-95391764D01*
X128060714Y-95391764D02*
X128132142Y-95391764D01*
X128132142Y-95391764D02*
X128239285Y-95427478D01*
X128239285Y-95427478D02*
X128274999Y-95463192D01*
X128917857Y-95641764D02*
X128917857Y-96141764D01*
X128739285Y-95356050D02*
X128560714Y-95891764D01*
X128560714Y-95891764D02*
X129024999Y-95891764D01*
X140274999Y-47070335D02*
X140239285Y-47106050D01*
X140239285Y-47106050D02*
X140132142Y-47141764D01*
X140132142Y-47141764D02*
X140060714Y-47141764D01*
X140060714Y-47141764D02*
X139953571Y-47106050D01*
X139953571Y-47106050D02*
X139882142Y-47034621D01*
X139882142Y-47034621D02*
X139846428Y-46963192D01*
X139846428Y-46963192D02*
X139810714Y-46820335D01*
X139810714Y-46820335D02*
X139810714Y-46713192D01*
X139810714Y-46713192D02*
X139846428Y-46570335D01*
X139846428Y-46570335D02*
X139882142Y-46498907D01*
X139882142Y-46498907D02*
X139953571Y-46427478D01*
X139953571Y-46427478D02*
X140060714Y-46391764D01*
X140060714Y-46391764D02*
X140132142Y-46391764D01*
X140132142Y-46391764D02*
X140239285Y-46427478D01*
X140239285Y-46427478D02*
X140274999Y-46463192D01*
X140524999Y-46391764D02*
X140989285Y-46391764D01*
X140989285Y-46391764D02*
X140739285Y-46677478D01*
X140739285Y-46677478D02*
X140846428Y-46677478D01*
X140846428Y-46677478D02*
X140917857Y-46713192D01*
X140917857Y-46713192D02*
X140953571Y-46748907D01*
X140953571Y-46748907D02*
X140989285Y-46820335D01*
X140989285Y-46820335D02*
X140989285Y-46998907D01*
X140989285Y-46998907D02*
X140953571Y-47070335D01*
X140953571Y-47070335D02*
X140917857Y-47106050D01*
X140917857Y-47106050D02*
X140846428Y-47141764D01*
X140846428Y-47141764D02*
X140632142Y-47141764D01*
X140632142Y-47141764D02*
X140560714Y-47106050D01*
X140560714Y-47106050D02*
X140524999Y-47070335D01*
X136674999Y-96141764D02*
X136424999Y-95784621D01*
X136246428Y-96141764D02*
X136246428Y-95391764D01*
X136246428Y-95391764D02*
X136532142Y-95391764D01*
X136532142Y-95391764D02*
X136603571Y-95427478D01*
X136603571Y-95427478D02*
X136639285Y-95463192D01*
X136639285Y-95463192D02*
X136674999Y-95534621D01*
X136674999Y-95534621D02*
X136674999Y-95641764D01*
X136674999Y-95641764D02*
X136639285Y-95713192D01*
X136639285Y-95713192D02*
X136603571Y-95748907D01*
X136603571Y-95748907D02*
X136532142Y-95784621D01*
X136532142Y-95784621D02*
X136246428Y-95784621D01*
X137353571Y-95391764D02*
X136996428Y-95391764D01*
X136996428Y-95391764D02*
X136960714Y-95748907D01*
X136960714Y-95748907D02*
X136996428Y-95713192D01*
X136996428Y-95713192D02*
X137067857Y-95677478D01*
X137067857Y-95677478D02*
X137246428Y-95677478D01*
X137246428Y-95677478D02*
X137317857Y-95713192D01*
X137317857Y-95713192D02*
X137353571Y-95748907D01*
X137353571Y-95748907D02*
X137389285Y-95820335D01*
X137389285Y-95820335D02*
X137389285Y-95998907D01*
X137389285Y-95998907D02*
X137353571Y-96070335D01*
X137353571Y-96070335D02*
X137317857Y-96106050D01*
X137317857Y-96106050D02*
X137246428Y-96141764D01*
X137246428Y-96141764D02*
X137067857Y-96141764D01*
X137067857Y-96141764D02*
X136996428Y-96106050D01*
X136996428Y-96106050D02*
X136960714Y-96070335D01*
X126270335Y-87282143D02*
X126306050Y-87317857D01*
X126306050Y-87317857D02*
X126341764Y-87425000D01*
X126341764Y-87425000D02*
X126341764Y-87496428D01*
X126341764Y-87496428D02*
X126306050Y-87603571D01*
X126306050Y-87603571D02*
X126234621Y-87675000D01*
X126234621Y-87675000D02*
X126163192Y-87710714D01*
X126163192Y-87710714D02*
X126020335Y-87746428D01*
X126020335Y-87746428D02*
X125913192Y-87746428D01*
X125913192Y-87746428D02*
X125770335Y-87710714D01*
X125770335Y-87710714D02*
X125698907Y-87675000D01*
X125698907Y-87675000D02*
X125627478Y-87603571D01*
X125627478Y-87603571D02*
X125591764Y-87496428D01*
X125591764Y-87496428D02*
X125591764Y-87425000D01*
X125591764Y-87425000D02*
X125627478Y-87317857D01*
X125627478Y-87317857D02*
X125663192Y-87282143D01*
X125663192Y-86996428D02*
X125627478Y-86960714D01*
X125627478Y-86960714D02*
X125591764Y-86889286D01*
X125591764Y-86889286D02*
X125591764Y-86710714D01*
X125591764Y-86710714D02*
X125627478Y-86639286D01*
X125627478Y-86639286D02*
X125663192Y-86603571D01*
X125663192Y-86603571D02*
X125734621Y-86567857D01*
X125734621Y-86567857D02*
X125806050Y-86567857D01*
X125806050Y-86567857D02*
X125913192Y-86603571D01*
X125913192Y-86603571D02*
X126341764Y-87032143D01*
X126341764Y-87032143D02*
X126341764Y-86567857D01*
X125591764Y-86317857D02*
X125591764Y-85853571D01*
X125591764Y-85853571D02*
X125877478Y-86103571D01*
X125877478Y-86103571D02*
X125877478Y-85996428D01*
X125877478Y-85996428D02*
X125913192Y-85925000D01*
X125913192Y-85925000D02*
X125948907Y-85889285D01*
X125948907Y-85889285D02*
X126020335Y-85853571D01*
X126020335Y-85853571D02*
X126198907Y-85853571D01*
X126198907Y-85853571D02*
X126270335Y-85889285D01*
X126270335Y-85889285D02*
X126306050Y-85925000D01*
X126306050Y-85925000D02*
X126341764Y-85996428D01*
X126341764Y-85996428D02*
X126341764Y-86210714D01*
X126341764Y-86210714D02*
X126306050Y-86282142D01*
X126306050Y-86282142D02*
X126270335Y-86317857D01*
X173667853Y-95591764D02*
X173417853Y-95234621D01*
X173239282Y-95591764D02*
X173239282Y-94841764D01*
X173239282Y-94841764D02*
X173524996Y-94841764D01*
X173524996Y-94841764D02*
X173596425Y-94877478D01*
X173596425Y-94877478D02*
X173632139Y-94913192D01*
X173632139Y-94913192D02*
X173667853Y-94984621D01*
X173667853Y-94984621D02*
X173667853Y-95091764D01*
X173667853Y-95091764D02*
X173632139Y-95163192D01*
X173632139Y-95163192D02*
X173596425Y-95198907D01*
X173596425Y-95198907D02*
X173524996Y-95234621D01*
X173524996Y-95234621D02*
X173239282Y-95234621D01*
X174382139Y-95591764D02*
X173953568Y-95591764D01*
X174167853Y-95591764D02*
X174167853Y-94841764D01*
X174167853Y-94841764D02*
X174096425Y-94948907D01*
X174096425Y-94948907D02*
X174024996Y-95020335D01*
X174024996Y-95020335D02*
X173953568Y-95056050D01*
X174632139Y-94841764D02*
X175132139Y-94841764D01*
X175132139Y-94841764D02*
X174810711Y-95591764D01*
X161941764Y-102082144D02*
X161584621Y-102332144D01*
X161941764Y-102510715D02*
X161191764Y-102510715D01*
X161191764Y-102510715D02*
X161191764Y-102225001D01*
X161191764Y-102225001D02*
X161227478Y-102153572D01*
X161227478Y-102153572D02*
X161263192Y-102117858D01*
X161263192Y-102117858D02*
X161334621Y-102082144D01*
X161334621Y-102082144D02*
X161441764Y-102082144D01*
X161441764Y-102082144D02*
X161513192Y-102117858D01*
X161513192Y-102117858D02*
X161548907Y-102153572D01*
X161548907Y-102153572D02*
X161584621Y-102225001D01*
X161584621Y-102225001D02*
X161584621Y-102510715D01*
X161941764Y-101367858D02*
X161941764Y-101796429D01*
X161941764Y-101582144D02*
X161191764Y-101582144D01*
X161191764Y-101582144D02*
X161298907Y-101653572D01*
X161298907Y-101653572D02*
X161370335Y-101725001D01*
X161370335Y-101725001D02*
X161406050Y-101796429D01*
X161191764Y-100689286D02*
X161191764Y-101046429D01*
X161191764Y-101046429D02*
X161548907Y-101082143D01*
X161548907Y-101082143D02*
X161513192Y-101046429D01*
X161513192Y-101046429D02*
X161477478Y-100975001D01*
X161477478Y-100975001D02*
X161477478Y-100796429D01*
X161477478Y-100796429D02*
X161513192Y-100725001D01*
X161513192Y-100725001D02*
X161548907Y-100689286D01*
X161548907Y-100689286D02*
X161620335Y-100653572D01*
X161620335Y-100653572D02*
X161798907Y-100653572D01*
X161798907Y-100653572D02*
X161870335Y-100689286D01*
X161870335Y-100689286D02*
X161906050Y-100725001D01*
X161906050Y-100725001D02*
X161941764Y-100796429D01*
X161941764Y-100796429D02*
X161941764Y-100975001D01*
X161941764Y-100975001D02*
X161906050Y-101046429D01*
X161906050Y-101046429D02*
X161870335Y-101082143D01*
X169046428Y-51591764D02*
X169296428Y-51234621D01*
X169474999Y-51591764D02*
X169474999Y-50841764D01*
X169474999Y-50841764D02*
X169189285Y-50841764D01*
X169189285Y-50841764D02*
X169117856Y-50877478D01*
X169117856Y-50877478D02*
X169082142Y-50913192D01*
X169082142Y-50913192D02*
X169046428Y-50984621D01*
X169046428Y-50984621D02*
X169046428Y-51091764D01*
X169046428Y-51091764D02*
X169082142Y-51163192D01*
X169082142Y-51163192D02*
X169117856Y-51198907D01*
X169117856Y-51198907D02*
X169189285Y-51234621D01*
X169189285Y-51234621D02*
X169474999Y-51234621D01*
X168832142Y-50841764D02*
X168582142Y-51591764D01*
X168582142Y-51591764D02*
X168332142Y-50841764D01*
X168117856Y-50913192D02*
X168082142Y-50877478D01*
X168082142Y-50877478D02*
X168010714Y-50841764D01*
X168010714Y-50841764D02*
X167832142Y-50841764D01*
X167832142Y-50841764D02*
X167760714Y-50877478D01*
X167760714Y-50877478D02*
X167724999Y-50913192D01*
X167724999Y-50913192D02*
X167689285Y-50984621D01*
X167689285Y-50984621D02*
X167689285Y-51056050D01*
X167689285Y-51056050D02*
X167724999Y-51163192D01*
X167724999Y-51163192D02*
X168153571Y-51591764D01*
X168153571Y-51591764D02*
X167689285Y-51591764D01*
X129046428Y-51591764D02*
X129296428Y-51234621D01*
X129474999Y-51591764D02*
X129474999Y-50841764D01*
X129474999Y-50841764D02*
X129189285Y-50841764D01*
X129189285Y-50841764D02*
X129117856Y-50877478D01*
X129117856Y-50877478D02*
X129082142Y-50913192D01*
X129082142Y-50913192D02*
X129046428Y-50984621D01*
X129046428Y-50984621D02*
X129046428Y-51091764D01*
X129046428Y-51091764D02*
X129082142Y-51163192D01*
X129082142Y-51163192D02*
X129117856Y-51198907D01*
X129117856Y-51198907D02*
X129189285Y-51234621D01*
X129189285Y-51234621D02*
X129474999Y-51234621D01*
X128832142Y-50841764D02*
X128582142Y-51591764D01*
X128582142Y-51591764D02*
X128332142Y-50841764D01*
X127760714Y-51091764D02*
X127760714Y-51591764D01*
X127939285Y-50806050D02*
X128117856Y-51341764D01*
X128117856Y-51341764D02*
X127653571Y-51341764D01*
D12*
X124900000Y-69432381D02*
G75*
G02*
X122632635Y-69491982I-1100000J-1311152D01*
G01*
X128110000Y-81253733D02*
X128110000Y-81546267D01*
X127090000Y-81253733D02*
X127090000Y-81546267D01*
X147477500Y-49145276D02*
X147477500Y-49654724D01*
X148522500Y-49145276D02*
X148522500Y-49654724D01*
X164922500Y-100745276D02*
X164922500Y-101254724D01*
X163877500Y-100745276D02*
X163877500Y-101254724D01*
X126100000Y-69711152D02*
G75*
G02*
X128367365Y-69651551I1100000J1311152D01*
G01*
X148640113Y-83125000D02*
X149140113Y-83125000D01*
X148890113Y-82875000D02*
X148890113Y-83375000D01*
X151444888Y-82020000D02*
X151444888Y-87180000D01*
X151484888Y-82020000D02*
X151484888Y-87180000D01*
X151524888Y-82021000D02*
X151524888Y-87179000D01*
X151564888Y-82022000D02*
X151564888Y-87178000D01*
X151604888Y-82024000D02*
X151604888Y-87176000D01*
X151644888Y-82027000D02*
X151644888Y-87173000D01*
X151684888Y-82031000D02*
X151684888Y-83560000D01*
X151684888Y-85640000D02*
X151684888Y-87169000D01*
X151724888Y-82035000D02*
X151724888Y-83560000D01*
X151724888Y-85640000D02*
X151724888Y-87165000D01*
X151764888Y-82039000D02*
X151764888Y-83560000D01*
X151764888Y-85640000D02*
X151764888Y-87161000D01*
X151804888Y-82044000D02*
X151804888Y-83560000D01*
X151804888Y-85640000D02*
X151804888Y-87156000D01*
X151844888Y-82050000D02*
X151844888Y-83560000D01*
X151844888Y-85640000D02*
X151844888Y-87150000D01*
X151884888Y-82057000D02*
X151884888Y-83560000D01*
X151884888Y-85640000D02*
X151884888Y-87143000D01*
X151924888Y-82064000D02*
X151924888Y-83560000D01*
X151924888Y-85640000D02*
X151924888Y-87136000D01*
X151964888Y-82072000D02*
X151964888Y-83560000D01*
X151964888Y-85640000D02*
X151964888Y-87128000D01*
X152004888Y-82080000D02*
X152004888Y-83560000D01*
X152004888Y-85640000D02*
X152004888Y-87120000D01*
X152044888Y-82089000D02*
X152044888Y-83560000D01*
X152044888Y-85640000D02*
X152044888Y-87111000D01*
X152084888Y-82099000D02*
X152084888Y-83560000D01*
X152084888Y-85640000D02*
X152084888Y-87101000D01*
X152124888Y-82109000D02*
X152124888Y-83560000D01*
X152124888Y-85640000D02*
X152124888Y-87091000D01*
X152165888Y-82120000D02*
X152165888Y-83560000D01*
X152165888Y-85640000D02*
X152165888Y-87080000D01*
X152205888Y-82132000D02*
X152205888Y-83560000D01*
X152205888Y-85640000D02*
X152205888Y-87068000D01*
X152245888Y-82145000D02*
X152245888Y-83560000D01*
X152245888Y-85640000D02*
X152245888Y-87055000D01*
X152285888Y-82158000D02*
X152285888Y-83560000D01*
X152285888Y-85640000D02*
X152285888Y-87042000D01*
X152325888Y-82172000D02*
X152325888Y-83560000D01*
X152325888Y-85640000D02*
X152325888Y-87028000D01*
X152365888Y-82186000D02*
X152365888Y-83560000D01*
X152365888Y-85640000D02*
X152365888Y-87014000D01*
X152405888Y-82202000D02*
X152405888Y-83560000D01*
X152405888Y-85640000D02*
X152405888Y-86998000D01*
X152445888Y-82218000D02*
X152445888Y-83560000D01*
X152445888Y-85640000D02*
X152445888Y-86982000D01*
X152485888Y-82235000D02*
X152485888Y-83560000D01*
X152485888Y-85640000D02*
X152485888Y-86965000D01*
X152525888Y-82252000D02*
X152525888Y-83560000D01*
X152525888Y-85640000D02*
X152525888Y-86948000D01*
X152565888Y-82271000D02*
X152565888Y-83560000D01*
X152565888Y-85640000D02*
X152565888Y-86929000D01*
X152605888Y-82290000D02*
X152605888Y-83560000D01*
X152605888Y-85640000D02*
X152605888Y-86910000D01*
X152645888Y-82310000D02*
X152645888Y-83560000D01*
X152645888Y-85640000D02*
X152645888Y-86890000D01*
X152685888Y-82332000D02*
X152685888Y-83560000D01*
X152685888Y-85640000D02*
X152685888Y-86868000D01*
X152725888Y-82353000D02*
X152725888Y-83560000D01*
X152725888Y-85640000D02*
X152725888Y-86847000D01*
X152765888Y-82376000D02*
X152765888Y-83560000D01*
X152765888Y-85640000D02*
X152765888Y-86824000D01*
X152805888Y-82400000D02*
X152805888Y-83560000D01*
X152805888Y-85640000D02*
X152805888Y-86800000D01*
X152845888Y-82425000D02*
X152845888Y-83560000D01*
X152845888Y-85640000D02*
X152845888Y-86775000D01*
X152885888Y-82451000D02*
X152885888Y-83560000D01*
X152885888Y-85640000D02*
X152885888Y-86749000D01*
X152925888Y-82478000D02*
X152925888Y-83560000D01*
X152925888Y-85640000D02*
X152925888Y-86722000D01*
X152965888Y-82505000D02*
X152965888Y-83560000D01*
X152965888Y-85640000D02*
X152965888Y-86695000D01*
X153005888Y-82535000D02*
X153005888Y-83560000D01*
X153005888Y-85640000D02*
X153005888Y-86665000D01*
X153045888Y-82565000D02*
X153045888Y-83560000D01*
X153045888Y-85640000D02*
X153045888Y-86635000D01*
X153085888Y-82596000D02*
X153085888Y-83560000D01*
X153085888Y-85640000D02*
X153085888Y-86604000D01*
X153125888Y-82629000D02*
X153125888Y-83560000D01*
X153125888Y-85640000D02*
X153125888Y-86571000D01*
X153165888Y-82663000D02*
X153165888Y-83560000D01*
X153165888Y-85640000D02*
X153165888Y-86537000D01*
X153205888Y-82699000D02*
X153205888Y-83560000D01*
X153205888Y-85640000D02*
X153205888Y-86501000D01*
X153245888Y-82736000D02*
X153245888Y-83560000D01*
X153245888Y-85640000D02*
X153245888Y-86464000D01*
X153285888Y-82774000D02*
X153285888Y-83560000D01*
X153285888Y-85640000D02*
X153285888Y-86426000D01*
X153325888Y-82815000D02*
X153325888Y-83560000D01*
X153325888Y-85640000D02*
X153325888Y-86385000D01*
X153365888Y-82857000D02*
X153365888Y-83560000D01*
X153365888Y-85640000D02*
X153365888Y-86343000D01*
X153405888Y-82901000D02*
X153405888Y-83560000D01*
X153405888Y-85640000D02*
X153405888Y-86299000D01*
X153445888Y-82947000D02*
X153445888Y-83560000D01*
X153445888Y-85640000D02*
X153445888Y-86253000D01*
X153485888Y-82995000D02*
X153485888Y-83560000D01*
X153485888Y-85640000D02*
X153485888Y-86205000D01*
X153525888Y-83046000D02*
X153525888Y-83560000D01*
X153525888Y-85640000D02*
X153525888Y-86154000D01*
X153565888Y-83100000D02*
X153565888Y-83560000D01*
X153565888Y-85640000D02*
X153565888Y-86100000D01*
X153605888Y-83157000D02*
X153605888Y-83560000D01*
X153605888Y-85640000D02*
X153605888Y-86043000D01*
X153645888Y-83217000D02*
X153645888Y-83560000D01*
X153645888Y-85640000D02*
X153645888Y-85983000D01*
X153685888Y-83281000D02*
X153685888Y-83560000D01*
X153685888Y-85640000D02*
X153685888Y-85919000D01*
X153725888Y-83349000D02*
X153725888Y-83560000D01*
X153725888Y-85640000D02*
X153725888Y-85851000D01*
X153765888Y-83422000D02*
X153765888Y-85778000D01*
X153805888Y-83502000D02*
X153805888Y-85698000D01*
X153845888Y-83589000D02*
X153845888Y-85611000D01*
X153885888Y-83685000D02*
X153885888Y-85515000D01*
X153925888Y-83795000D02*
X153925888Y-85405000D01*
X153965888Y-83923000D02*
X153965888Y-85277000D01*
X154005888Y-84082000D02*
X154005888Y-85118000D01*
X154045888Y-84316000D02*
X154045888Y-84884000D01*
X154064888Y-84600000D02*
G75*
G02*
X148824888Y-84600000I-2620000J0D01*
G01*
X148824888Y-84600000D02*
G75*
G02*
X154064888Y-84600000I2620000J0D01*
G01*
X166277500Y-86054724D02*
X166277500Y-85545276D01*
X167322500Y-86054724D02*
X167322500Y-85545276D01*
X131254724Y-93677500D02*
X130745276Y-93677500D01*
X131254724Y-94722500D02*
X130745276Y-94722500D01*
X130790001Y-78600000D02*
X130790001Y-82200000D01*
X130801523Y-78561522D02*
G75*
G02*
X135240002Y-80400000I1838478J-1838479D01*
G01*
X135240001Y-80400000D02*
G75*
G02*
X130801523Y-82238478I-2600000J-1D01*
G01*
X145722500Y-89745276D02*
X145722500Y-90254724D01*
X144677500Y-89745276D02*
X144677500Y-90254724D01*
X142146267Y-87510000D02*
X141853733Y-87510000D01*
X142146267Y-86490000D02*
X141853733Y-86490000D01*
X156477500Y-95454724D02*
X156477500Y-94945276D01*
X157522500Y-95454724D02*
X157522500Y-94945276D01*
X155312264Y-89357619D02*
G75*
G02*
X155899999Y-89750001I-1112264J-2302381D01*
G01*
X151600000Y-91660000D02*
G75*
G02*
X153101193Y-89303599I2600000J0D01*
G01*
X155900000Y-93599999D02*
G75*
G02*
X155322045Y-93982629I-1700000J1939999D01*
G01*
X153101193Y-94016399D02*
G75*
G02*
X151600001Y-91660000I1098807J2356399D01*
G01*
X155900000Y-93599999D02*
X155900000Y-89750000D01*
X129277500Y-81654724D02*
X129277500Y-81145276D01*
X130322500Y-81654724D02*
X130322500Y-81145276D01*
X168439386Y-97900000D02*
G75*
G02*
X168379785Y-95632635I-1311152J1100000D01*
G01*
X161146267Y-95110000D02*
X160853733Y-95110000D01*
X161146267Y-94090000D02*
X160853733Y-94090000D01*
X177500000Y-101599999D02*
X177500000Y-97750000D01*
X174701193Y-102016399D02*
G75*
G02*
X173200001Y-99660000I1098807J2356399D01*
G01*
X177500000Y-101599999D02*
G75*
G02*
X176922045Y-101982629I-1700000J1939999D01*
G01*
X173200000Y-99660000D02*
G75*
G02*
X174701193Y-97303599I2600000J0D01*
G01*
X176912264Y-97357619D02*
G75*
G02*
X177499999Y-97750001I-1112264J-2302381D01*
G01*
X169110000Y-85653733D02*
X169110000Y-85946267D01*
X168090000Y-85653733D02*
X168090000Y-85946267D01*
X155090000Y-46453733D02*
X155090000Y-46746267D01*
X156110000Y-46453733D02*
X156110000Y-46746267D01*
X133100000Y-69711152D02*
G75*
G02*
X135367365Y-69651551I1100000J1311152D01*
G01*
X165759886Y-80475000D02*
X165259887Y-80475000D01*
X165509887Y-80725000D02*
X165509887Y-80225000D01*
X162955112Y-81580000D02*
X162955112Y-76420000D01*
X162915112Y-81580000D02*
X162915112Y-76420000D01*
X162875112Y-81578999D02*
X162875112Y-76421001D01*
X162835112Y-81578000D02*
X162835112Y-76422000D01*
X162795112Y-81576001D02*
X162795112Y-76423999D01*
X162755112Y-81573000D02*
X162755112Y-76427000D01*
X162715112Y-81569000D02*
X162715112Y-80040000D01*
X162715112Y-77960000D02*
X162715112Y-76431000D01*
X162675113Y-81565000D02*
X162675113Y-80040000D01*
X162675113Y-77960000D02*
X162675113Y-76435000D01*
X162635112Y-81561000D02*
X162635112Y-80040000D01*
X162635112Y-77960000D02*
X162635112Y-76439000D01*
X162595112Y-81556000D02*
X162595112Y-80040000D01*
X162595112Y-77960000D02*
X162595112Y-76444000D01*
X162555112Y-81550000D02*
X162555112Y-80040000D01*
X162555112Y-77960000D02*
X162555112Y-76450000D01*
X162515112Y-81543000D02*
X162515112Y-80040001D01*
X162515112Y-77959999D02*
X162515112Y-76457000D01*
X162475112Y-81536000D02*
X162475112Y-80040000D01*
X162475112Y-77960000D02*
X162475112Y-76464000D01*
X162435112Y-81528000D02*
X162435112Y-80040000D01*
X162435112Y-77960000D02*
X162435112Y-76472000D01*
X162395112Y-81520000D02*
X162395112Y-80040000D01*
X162395112Y-77960000D02*
X162395112Y-76480000D01*
X162355112Y-81511001D02*
X162355112Y-80040001D01*
X162355112Y-77959999D02*
X162355112Y-76488999D01*
X162315112Y-81501000D02*
X162315112Y-80040000D01*
X162315112Y-77960000D02*
X162315112Y-76499000D01*
X162275112Y-81491000D02*
X162275112Y-80040000D01*
X162275112Y-77960000D02*
X162275112Y-76509000D01*
X162234112Y-81480000D02*
X162234112Y-80040001D01*
X162234112Y-77959999D02*
X162234112Y-76520000D01*
X162194112Y-81468000D02*
X162194112Y-80040000D01*
X162194112Y-77960000D02*
X162194112Y-76532000D01*
X162154112Y-81455000D02*
X162154112Y-80040000D01*
X162154112Y-77960000D02*
X162154112Y-76545000D01*
X162114112Y-81442000D02*
X162114112Y-80040000D01*
X162114112Y-77960000D02*
X162114112Y-76558000D01*
X162074112Y-81428000D02*
X162074112Y-80040001D01*
X162074112Y-77959999D02*
X162074112Y-76572000D01*
X162034112Y-81414000D02*
X162034112Y-80040000D01*
X162034112Y-77960000D02*
X162034112Y-76586000D01*
X161994112Y-81398000D02*
X161994112Y-80040000D01*
X161994112Y-77960000D02*
X161994112Y-76602000D01*
X161954112Y-81382000D02*
X161954113Y-80040000D01*
X161954113Y-77960000D02*
X161954112Y-76618000D01*
X161914112Y-81365000D02*
X161914111Y-80040000D01*
X161914111Y-77960000D02*
X161914112Y-76635000D01*
X161874112Y-81348000D02*
X161874112Y-80040000D01*
X161874112Y-77960000D02*
X161874112Y-76652000D01*
X161834112Y-81329000D02*
X161834112Y-80040000D01*
X161834112Y-77960000D02*
X161834112Y-76671000D01*
X161794112Y-81310000D02*
X161794112Y-80040001D01*
X161794112Y-77959999D02*
X161794112Y-76690000D01*
X161754112Y-81290000D02*
X161754112Y-80040000D01*
X161754112Y-77960000D02*
X161754112Y-76710000D01*
X161714112Y-81268000D02*
X161714112Y-80040000D01*
X161714112Y-77960000D02*
X161714112Y-76732000D01*
X161674112Y-81247000D02*
X161674112Y-80040000D01*
X161674112Y-77960000D02*
X161674112Y-76753000D01*
X161634112Y-81224000D02*
X161634112Y-80040001D01*
X161634112Y-77959999D02*
X161634112Y-76776000D01*
X161594112Y-81200000D02*
X161594112Y-80040000D01*
X161594112Y-77960000D02*
X161594112Y-76800000D01*
X161554112Y-81175000D02*
X161554112Y-80040000D01*
X161554112Y-77960000D02*
X161554112Y-76825000D01*
X161514112Y-81149000D02*
X161514112Y-80040000D01*
X161514112Y-77960000D02*
X161514112Y-76851000D01*
X161474112Y-81122000D02*
X161474111Y-80040000D01*
X161474111Y-77960000D02*
X161474112Y-76878000D01*
X161434112Y-81095000D02*
X161434112Y-80040000D01*
X161434112Y-77960000D02*
X161434112Y-76905000D01*
X161394112Y-81065000D02*
X161394112Y-80040000D01*
X161394112Y-77960000D02*
X161394112Y-76935000D01*
X161354112Y-81035000D02*
X161354113Y-80040000D01*
X161354113Y-77960000D02*
X161354112Y-76965000D01*
X161314112Y-81004000D02*
X161314112Y-80040000D01*
X161314112Y-77960000D02*
X161314112Y-76996000D01*
X161274112Y-80970999D02*
X161274112Y-80040000D01*
X161274112Y-77960000D02*
X161274112Y-77029001D01*
X161234112Y-80937000D02*
X161234112Y-80040000D01*
X161234112Y-77960000D02*
X161234112Y-77063000D01*
X161194111Y-80901000D02*
X161194112Y-80040001D01*
X161194112Y-77959999D02*
X161194111Y-77099000D01*
X161154112Y-80864000D02*
X161154112Y-80040000D01*
X161154112Y-77960000D02*
X161154112Y-77136000D01*
X161114112Y-80826000D02*
X161114112Y-80040000D01*
X161114112Y-77960000D02*
X161114112Y-77174000D01*
X161074112Y-80785000D02*
X161074112Y-80040000D01*
X161074112Y-77960000D02*
X161074112Y-77215000D01*
X161034112Y-80743001D02*
X161034111Y-80040000D01*
X161034111Y-77960000D02*
X161034112Y-77256999D01*
X160994113Y-80699000D02*
X160994112Y-80040000D01*
X160994112Y-77960000D02*
X160994113Y-77301000D01*
X160954111Y-80653000D02*
X160954112Y-80040000D01*
X160954112Y-77960000D02*
X160954111Y-77347000D01*
X160914112Y-80605000D02*
X160914113Y-80040000D01*
X160914113Y-77960000D02*
X160914112Y-77395000D01*
X160874112Y-80554000D02*
X160874112Y-80040000D01*
X160874112Y-77960000D02*
X160874112Y-77446000D01*
X160834112Y-80500000D02*
X160834112Y-80040000D01*
X160834112Y-77960000D02*
X160834112Y-77500000D01*
X160794112Y-80443000D02*
X160794112Y-80040000D01*
X160794112Y-77960000D02*
X160794112Y-77557000D01*
X160754112Y-80383000D02*
X160754112Y-80040001D01*
X160754112Y-77959999D02*
X160754112Y-77617000D01*
X160714112Y-80319000D02*
X160714112Y-80040000D01*
X160714112Y-77960000D02*
X160714112Y-77681000D01*
X160674112Y-80251001D02*
X160674112Y-80040000D01*
X160674112Y-77960000D02*
X160674112Y-77748999D01*
X160634112Y-80178000D02*
X160634112Y-77822000D01*
X160594112Y-80098000D02*
X160594112Y-77902000D01*
X160554112Y-80011000D02*
X160554112Y-77989000D01*
X160514112Y-79915000D02*
X160514112Y-78085000D01*
X160474113Y-79805000D02*
X160474113Y-78195000D01*
X160434112Y-79677000D02*
X160434112Y-78323000D01*
X160394112Y-79518000D02*
X160394112Y-78482000D01*
X160354112Y-79284000D02*
X160354112Y-78716000D01*
X165575114Y-79000000D02*
G75*
G02*
X160335112Y-79000000I-2620001J0D01*
G01*
X160335112Y-79000000D02*
G75*
G02*
X165575114Y-79000000I2620001J0D01*
G01*
X162477500Y-68454724D02*
X162477500Y-67945276D01*
X163522500Y-68454724D02*
X163522500Y-67945276D01*
X146450000Y-89650001D02*
X146450000Y-93500000D01*
X149248807Y-89233601D02*
G75*
G02*
X150749999Y-91590000I-1098807J-2356399D01*
G01*
X146450000Y-89650001D02*
G75*
G02*
X147027955Y-89267371I1700000J-1939999D01*
G01*
X150750000Y-91590000D02*
G75*
G02*
X149248807Y-93946401I-2600000J0D01*
G01*
X147037736Y-93892381D02*
G75*
G02*
X146450001Y-93499999I1112264J2302381D01*
G01*
X145877500Y-49654724D02*
X145877500Y-49145276D01*
X146922500Y-49654724D02*
X146922500Y-49145276D01*
X129277500Y-78054724D02*
X129277500Y-77545276D01*
X130322500Y-78054724D02*
X130322500Y-77545276D01*
X145359886Y-63275000D02*
X144859887Y-63275000D01*
X145109887Y-63525000D02*
X145109887Y-63025000D01*
X142555112Y-64380000D02*
X142555112Y-59220000D01*
X142515112Y-64380000D02*
X142515112Y-59220000D01*
X142475112Y-64378999D02*
X142475112Y-59221001D01*
X142435112Y-64378000D02*
X142435112Y-59222000D01*
X142395112Y-64376001D02*
X142395112Y-59223999D01*
X142355112Y-64373000D02*
X142355112Y-59227000D01*
X142315112Y-64369000D02*
X142315112Y-62840000D01*
X142315112Y-60760000D02*
X142315112Y-59231000D01*
X142275113Y-64365000D02*
X142275113Y-62840000D01*
X142275113Y-60760000D02*
X142275113Y-59235000D01*
X142235112Y-64361000D02*
X142235112Y-62840000D01*
X142235112Y-60760000D02*
X142235112Y-59239000D01*
X142195112Y-64356000D02*
X142195112Y-62840000D01*
X142195112Y-60760000D02*
X142195112Y-59244000D01*
X142155112Y-64350000D02*
X142155112Y-62840000D01*
X142155112Y-60760000D02*
X142155112Y-59250000D01*
X142115112Y-64343000D02*
X142115112Y-62840001D01*
X142115112Y-60759999D02*
X142115112Y-59257000D01*
X142075112Y-64336000D02*
X142075112Y-62840000D01*
X142075112Y-60760000D02*
X142075112Y-59264000D01*
X142035112Y-64328000D02*
X142035112Y-62840000D01*
X142035112Y-60760000D02*
X142035112Y-59272000D01*
X141995112Y-64320000D02*
X141995112Y-62840000D01*
X141995112Y-60760000D02*
X141995112Y-59280000D01*
X141955112Y-64311001D02*
X141955112Y-62840001D01*
X141955112Y-60759999D02*
X141955112Y-59288999D01*
X141915112Y-64301000D02*
X141915112Y-62840000D01*
X141915112Y-60760000D02*
X141915112Y-59299000D01*
X141875112Y-64291000D02*
X141875112Y-62840000D01*
X141875112Y-60760000D02*
X141875112Y-59309000D01*
X141834112Y-64280000D02*
X141834112Y-62840001D01*
X141834112Y-60759999D02*
X141834112Y-59320000D01*
X141794112Y-64268000D02*
X141794112Y-62840000D01*
X141794112Y-60760000D02*
X141794112Y-59332000D01*
X141754112Y-64255000D02*
X141754112Y-62840000D01*
X141754112Y-60760000D02*
X141754112Y-59345000D01*
X141714112Y-64242000D02*
X141714112Y-62840000D01*
X141714112Y-60760000D02*
X141714112Y-59358000D01*
X141674112Y-64228000D02*
X141674112Y-62840001D01*
X141674112Y-60759999D02*
X141674112Y-59372000D01*
X141634112Y-64214000D02*
X141634112Y-62840000D01*
X141634112Y-60760000D02*
X141634112Y-59386000D01*
X141594112Y-64198000D02*
X141594112Y-62840000D01*
X141594112Y-60760000D02*
X141594112Y-59402000D01*
X141554112Y-64182000D02*
X141554113Y-62840000D01*
X141554113Y-60760000D02*
X141554112Y-59418000D01*
X141514112Y-64165000D02*
X141514111Y-62840000D01*
X141514111Y-60760000D02*
X141514112Y-59435000D01*
X141474112Y-64148000D02*
X141474112Y-62840000D01*
X141474112Y-60760000D02*
X141474112Y-59452000D01*
X141434112Y-64129000D02*
X141434112Y-62840000D01*
X141434112Y-60760000D02*
X141434112Y-59471000D01*
X141394112Y-64110000D02*
X141394112Y-62840001D01*
X141394112Y-60759999D02*
X141394112Y-59490000D01*
X141354112Y-64090000D02*
X141354112Y-62840000D01*
X141354112Y-60760000D02*
X141354112Y-59510000D01*
X141314112Y-64068000D02*
X141314112Y-62840000D01*
X141314112Y-60760000D02*
X141314112Y-59532000D01*
X141274112Y-64047000D02*
X141274112Y-62840000D01*
X141274112Y-60760000D02*
X141274112Y-59553000D01*
X141234112Y-64024000D02*
X141234112Y-62840001D01*
X141234112Y-60759999D02*
X141234112Y-59576000D01*
X141194112Y-64000000D02*
X141194112Y-62840000D01*
X141194112Y-60760000D02*
X141194112Y-59600000D01*
X141154112Y-63975000D02*
X141154112Y-62840000D01*
X141154112Y-60760000D02*
X141154112Y-59625000D01*
X141114112Y-63949000D02*
X141114112Y-62840000D01*
X141114112Y-60760000D02*
X141114112Y-59651000D01*
X141074112Y-63922000D02*
X141074111Y-62840000D01*
X141074111Y-60760000D02*
X141074112Y-59678000D01*
X141034112Y-63895000D02*
X141034112Y-62840000D01*
X141034112Y-60760000D02*
X141034112Y-59705000D01*
X140994112Y-63865000D02*
X140994112Y-62840000D01*
X140994112Y-60760000D02*
X140994112Y-59735000D01*
X140954112Y-63835000D02*
X140954113Y-62840000D01*
X140954113Y-60760000D02*
X140954112Y-59765000D01*
X140914112Y-63804000D02*
X140914112Y-62840000D01*
X140914112Y-60760000D02*
X140914112Y-59796000D01*
X140874112Y-63770999D02*
X140874112Y-62840000D01*
X140874112Y-60760000D02*
X140874112Y-59829001D01*
X140834112Y-63737000D02*
X140834112Y-62840000D01*
X140834112Y-60760000D02*
X140834112Y-59863000D01*
X140794111Y-63701000D02*
X140794112Y-62840001D01*
X140794112Y-60759999D02*
X140794111Y-59899000D01*
X140754112Y-63664000D02*
X140754112Y-62840000D01*
X140754112Y-60760000D02*
X140754112Y-59936000D01*
X140714112Y-63626000D02*
X140714112Y-62840000D01*
X140714112Y-60760000D02*
X140714112Y-59974000D01*
X140674112Y-63585000D02*
X140674112Y-62840000D01*
X140674112Y-60760000D02*
X140674112Y-60015000D01*
X140634112Y-63543001D02*
X140634111Y-62840000D01*
X140634111Y-60760000D02*
X140634112Y-60056999D01*
X140594113Y-63499000D02*
X140594112Y-62840000D01*
X140594112Y-60760000D02*
X140594113Y-60101000D01*
X140554111Y-63453000D02*
X140554112Y-62840000D01*
X140554112Y-60760000D02*
X140554111Y-60147000D01*
X140514112Y-63405000D02*
X140514113Y-62840000D01*
X140514113Y-60760000D02*
X140514112Y-60195000D01*
X140474112Y-63354000D02*
X140474112Y-62840000D01*
X140474112Y-60760000D02*
X140474112Y-60246000D01*
X140434112Y-63300000D02*
X140434112Y-62840000D01*
X140434112Y-60760000D02*
X140434112Y-60300000D01*
X140394112Y-63243000D02*
X140394112Y-62840000D01*
X140394112Y-60760000D02*
X140394112Y-60357000D01*
X140354112Y-63183000D02*
X140354112Y-62840001D01*
X140354112Y-60759999D02*
X140354112Y-60417000D01*
X140314112Y-63119000D02*
X140314112Y-62840000D01*
X140314112Y-60760000D02*
X140314112Y-60481000D01*
X140274112Y-63051001D02*
X140274112Y-62840000D01*
X140274112Y-60760000D02*
X140274112Y-60548999D01*
X140234112Y-62978000D02*
X140234112Y-60622000D01*
X140194112Y-62898000D02*
X140194112Y-60702000D01*
X140154112Y-62811000D02*
X140154112Y-60789000D01*
X140114112Y-62715000D02*
X140114112Y-60885000D01*
X140074113Y-62605000D02*
X140074113Y-60995000D01*
X140034112Y-62477000D02*
X140034112Y-61123000D01*
X139994112Y-62318000D02*
X139994112Y-61282000D01*
X139954112Y-62084000D02*
X139954112Y-61516000D01*
X145175114Y-61800000D02*
G75*
G02*
X139935112Y-61800000I-2620001J0D01*
G01*
X139935112Y-61800000D02*
G75*
G02*
X145175114Y-61800000I2620001J0D01*
G01*
X147122500Y-64345276D02*
X147122500Y-64854724D01*
X146077500Y-64345276D02*
X146077500Y-64854724D01*
X154110000Y-69053733D02*
X154110000Y-69346267D01*
X153090000Y-69053733D02*
X153090000Y-69346267D01*
X168077500Y-82454724D02*
X168077500Y-81945276D01*
X169122500Y-82454724D02*
X169122500Y-81945276D01*
X128722500Y-77545276D02*
X128722500Y-78054724D01*
X127677500Y-77545276D02*
X127677500Y-78054724D01*
X139695000Y-37220000D02*
X139695000Y-39820000D01*
X139695000Y-37220000D02*
X142355000Y-37220000D01*
X139695000Y-39820000D02*
X142355000Y-39820000D01*
X141025000Y-34620000D02*
X142355000Y-34620000D01*
X142355000Y-34620000D02*
X142355000Y-35950000D01*
X142355000Y-37220000D02*
X142355000Y-39820000D01*
D13*
X172006000Y-69720000D02*
G75*
G02*
X169974000Y-69720000I-1016000J-1D01*
G01*
X173910999Y-79880000D02*
X168069001Y-79880000D01*
X173910999Y-79880000D02*
X173910999Y-69720000D01*
X168069001Y-69720000D02*
X168069001Y-79880000D01*
X168069001Y-69720000D02*
X169974000Y-69720000D01*
X173910999Y-69720000D02*
X172006000Y-69720000D01*
D12*
X154345276Y-66077500D02*
X154854724Y-66077500D01*
X154345276Y-67122500D02*
X154854724Y-67122500D01*
X131700000Y-69432380D02*
G75*
G02*
X129432635Y-69491981I-1100000J-1311152D01*
G01*
X134546267Y-93690000D02*
X134253733Y-93690000D01*
X134546267Y-94710000D02*
X134253733Y-94710000D01*
X144122500Y-72345276D02*
X144122500Y-72854724D01*
X143077500Y-72345276D02*
X143077500Y-72854724D01*
X149050000Y-65150000D02*
X152900000Y-65150000D01*
X148633601Y-62351193D02*
G75*
G02*
X150990000Y-60850001I2356399J-1098807D01*
G01*
X149050000Y-65150000D02*
G75*
G02*
X148667369Y-64572045I1940000J1700000D01*
G01*
X150990000Y-60850000D02*
G75*
G02*
X153346400Y-62351193I0J-2600000D01*
G01*
X153292382Y-64562264D02*
G75*
G02*
X152899999Y-65149999I-2302382J1112264D01*
G01*
X145545276Y-86477500D02*
X146054724Y-86477500D01*
X145545276Y-87522500D02*
X146054724Y-87522500D01*
X142454724Y-98122500D02*
X141945276Y-98122500D01*
X142454724Y-97077500D02*
X141945276Y-97077500D01*
X180554774Y-92475000D02*
X180054775Y-92475000D01*
X180304775Y-92725000D02*
X180304775Y-92225000D01*
X177750000Y-93580000D02*
X177750000Y-88420000D01*
X177710000Y-93580000D02*
X177710000Y-88420000D01*
X177670000Y-93578999D02*
X177670000Y-88421001D01*
X177630000Y-93578000D02*
X177630000Y-88422000D01*
X177590000Y-93576001D02*
X177590000Y-88423999D01*
X177550000Y-93573000D02*
X177550000Y-88427000D01*
X177510000Y-93569000D02*
X177510000Y-92040000D01*
X177510000Y-89960000D02*
X177510000Y-88431000D01*
X177470001Y-93565000D02*
X177470001Y-92040000D01*
X177470001Y-89960000D02*
X177470001Y-88435000D01*
X177430000Y-93561000D02*
X177430000Y-92040000D01*
X177430000Y-89960000D02*
X177430000Y-88439000D01*
X177390000Y-93556000D02*
X177390000Y-92040000D01*
X177390000Y-89960000D02*
X177390000Y-88444000D01*
X177350000Y-93550000D02*
X177350000Y-92040000D01*
X177350000Y-89960000D02*
X177350000Y-88450000D01*
X177310000Y-93543000D02*
X177310000Y-92040001D01*
X177310000Y-89959999D02*
X177310000Y-88457000D01*
X177270000Y-93536000D02*
X177270000Y-92040000D01*
X177270000Y-89960000D02*
X177270000Y-88464000D01*
X177230000Y-93528000D02*
X177230000Y-92040000D01*
X177230000Y-89960000D02*
X177230000Y-88472000D01*
X177190000Y-93520000D02*
X177190000Y-92040000D01*
X177190000Y-89960000D02*
X177190000Y-88480000D01*
X177150000Y-93511001D02*
X177150000Y-92040001D01*
X177150000Y-89959999D02*
X177150000Y-88488999D01*
X177110000Y-93501000D02*
X177110000Y-92040000D01*
X177110000Y-89960000D02*
X177110000Y-88499000D01*
X177070000Y-93491000D02*
X177070000Y-92040000D01*
X177070000Y-89960000D02*
X177070000Y-88509000D01*
X177029000Y-93480000D02*
X177029000Y-92040001D01*
X177029000Y-89959999D02*
X177029000Y-88520000D01*
X176989000Y-93468000D02*
X176989000Y-92040000D01*
X176989000Y-89960000D02*
X176989000Y-88532000D01*
X176949000Y-93455000D02*
X176949000Y-92040000D01*
X176949000Y-89960000D02*
X176949000Y-88545000D01*
X176909000Y-93442000D02*
X176909000Y-92040000D01*
X176909000Y-89960000D02*
X176909000Y-88558000D01*
X176869000Y-93428000D02*
X176869000Y-92040001D01*
X176869000Y-89959999D02*
X176869000Y-88572000D01*
X176829000Y-93414000D02*
X176829000Y-92040000D01*
X176829000Y-89960000D02*
X176829000Y-88586000D01*
X176789000Y-93398000D02*
X176789000Y-92040000D01*
X176789000Y-89960000D02*
X176789000Y-88602000D01*
X176749000Y-93382000D02*
X176749001Y-92040000D01*
X176749001Y-89960000D02*
X176749000Y-88618000D01*
X176709000Y-93365000D02*
X176708999Y-92040000D01*
X176708999Y-89960000D02*
X176709000Y-88635000D01*
X176669000Y-93348000D02*
X176669000Y-92040000D01*
X176669000Y-89960000D02*
X176669000Y-88652000D01*
X176629000Y-93329000D02*
X176629000Y-92040000D01*
X176629000Y-89960000D02*
X176629000Y-88671000D01*
X176589000Y-93310000D02*
X176589000Y-92040001D01*
X176589000Y-89959999D02*
X176589000Y-88690000D01*
X176549000Y-93290000D02*
X176549000Y-92040000D01*
X176549000Y-89960000D02*
X176549000Y-88710000D01*
X176509000Y-93268000D02*
X176509000Y-92040000D01*
X176509000Y-89960000D02*
X176509000Y-88732000D01*
X176469000Y-93247000D02*
X176469000Y-92040000D01*
X176469000Y-89960000D02*
X176469000Y-88753000D01*
X176429000Y-93224000D02*
X176429000Y-92040001D01*
X176429000Y-89959999D02*
X176429000Y-88776000D01*
X176389000Y-93200000D02*
X176389000Y-92040000D01*
X176389000Y-89960000D02*
X176389000Y-88800000D01*
X176349000Y-93175000D02*
X176349000Y-92040000D01*
X176349000Y-89960000D02*
X176349000Y-88825000D01*
X176309000Y-93149000D02*
X176309000Y-92040000D01*
X176309000Y-89960000D02*
X176309000Y-88851000D01*
X176269000Y-93122000D02*
X176268999Y-92040000D01*
X176268999Y-89960000D02*
X176269000Y-88878000D01*
X176229000Y-93095000D02*
X176229000Y-92040000D01*
X176229000Y-89960000D02*
X176229000Y-88905000D01*
X176189000Y-93065000D02*
X176189000Y-92040000D01*
X176189000Y-89960000D02*
X176189000Y-88935000D01*
X176149000Y-93035000D02*
X176149001Y-92040000D01*
X176149001Y-89960000D02*
X176149000Y-88965000D01*
X176109000Y-93004000D02*
X176109000Y-92040000D01*
X176109000Y-89960000D02*
X176109000Y-88996000D01*
X176069000Y-92970999D02*
X176069000Y-92040000D01*
X176069000Y-89960000D02*
X176069000Y-89029001D01*
X176029000Y-92937000D02*
X176029000Y-92040000D01*
X176029000Y-89960000D02*
X176029000Y-89063000D01*
X175988999Y-92901000D02*
X175989000Y-92040001D01*
X175989000Y-89959999D02*
X175988999Y-89099000D01*
X175949000Y-92864000D02*
X175949000Y-92040000D01*
X175949000Y-89960000D02*
X175949000Y-89136000D01*
X175909000Y-92826000D02*
X175909000Y-92040000D01*
X175909000Y-89960000D02*
X175909000Y-89174000D01*
X175869000Y-92785000D02*
X175869000Y-92040000D01*
X175869000Y-89960000D02*
X175869000Y-89215000D01*
X175829000Y-92743001D02*
X175828999Y-92040000D01*
X175828999Y-89960000D02*
X175829000Y-89256999D01*
X175789001Y-92699000D02*
X175789000Y-92040000D01*
X175789000Y-89960000D02*
X175789001Y-89301000D01*
X175748999Y-92653000D02*
X175749000Y-92040000D01*
X175749000Y-89960000D02*
X175748999Y-89347000D01*
X175709000Y-92605000D02*
X175709001Y-92040000D01*
X175709001Y-89960000D02*
X175709000Y-89395000D01*
X175669000Y-92554000D02*
X175669000Y-92040000D01*
X175669000Y-89960000D02*
X175669000Y-89446000D01*
X175629000Y-92500000D02*
X175629000Y-92040000D01*
X175629000Y-89960000D02*
X175629000Y-89500000D01*
X175589000Y-92443000D02*
X175589000Y-92040000D01*
X175589000Y-89960000D02*
X175589000Y-89557000D01*
X175549000Y-92383000D02*
X175549000Y-92040001D01*
X175549000Y-89959999D02*
X175549000Y-89617000D01*
X175509000Y-92319000D02*
X175509000Y-92040000D01*
X175509000Y-89960000D02*
X175509000Y-89681000D01*
X175469000Y-92251001D02*
X175469000Y-92040000D01*
X175469000Y-89960000D02*
X175469000Y-89748999D01*
X175429000Y-92178000D02*
X175429000Y-89822000D01*
X175389000Y-92098000D02*
X175389000Y-89902000D01*
X175349000Y-92011000D02*
X175349000Y-89989000D01*
X175309000Y-91915000D02*
X175309000Y-90085000D01*
X175269001Y-91805000D02*
X175269001Y-90195000D01*
X175229000Y-91677000D02*
X175229000Y-90323000D01*
X175189000Y-91518000D02*
X175189000Y-90482000D01*
X175149000Y-91284000D02*
X175149000Y-90716000D01*
X180370002Y-91000000D02*
G75*
G02*
X175130000Y-91000000I-2620001J0D01*
G01*
X175130000Y-91000000D02*
G75*
G02*
X180370002Y-91000000I2620001J0D01*
G01*
X163877500Y-97654724D02*
X163877500Y-97145276D01*
X164922500Y-97654724D02*
X164922500Y-97145276D01*
X153077500Y-72854724D02*
X153077500Y-72345276D01*
X154122500Y-72854724D02*
X154122500Y-72345276D01*
X130745276Y-96877500D02*
X131254724Y-96877500D01*
X130745276Y-97922500D02*
X131254724Y-97922500D01*
X131454724Y-84522500D02*
X130945276Y-84522500D01*
X131454724Y-83477500D02*
X130945276Y-83477500D01*
X138900000Y-69432380D02*
G75*
G02*
X136632635Y-69491981I-1100000J-1311152D01*
G01*
X165959887Y-74475000D02*
X165459888Y-74475000D01*
X165709888Y-74725000D02*
X165709888Y-74225000D01*
X163155113Y-75580000D02*
X163155113Y-70420000D01*
X163115113Y-75580000D02*
X163115113Y-70420000D01*
X163075113Y-75578999D02*
X163075113Y-70421001D01*
X163035113Y-75578000D02*
X163035113Y-70422000D01*
X162995113Y-75576001D02*
X162995113Y-70423999D01*
X162955113Y-75573000D02*
X162955113Y-70427000D01*
X162915113Y-75569000D02*
X162915113Y-74040000D01*
X162915113Y-71960000D02*
X162915113Y-70431000D01*
X162875114Y-75565000D02*
X162875114Y-74040000D01*
X162875114Y-71960000D02*
X162875114Y-70435000D01*
X162835113Y-75561000D02*
X162835113Y-74040000D01*
X162835113Y-71960000D02*
X162835113Y-70439000D01*
X162795113Y-75556000D02*
X162795113Y-74040000D01*
X162795113Y-71960000D02*
X162795113Y-70444000D01*
X162755113Y-75550000D02*
X162755113Y-74040000D01*
X162755113Y-71960000D02*
X162755113Y-70450000D01*
X162715113Y-75543000D02*
X162715113Y-74040001D01*
X162715113Y-71959999D02*
X162715113Y-70457000D01*
X162675113Y-75536000D02*
X162675113Y-74040000D01*
X162675113Y-71960000D02*
X162675113Y-70464000D01*
X162635113Y-75528000D02*
X162635113Y-74040000D01*
X162635113Y-71960000D02*
X162635113Y-70472000D01*
X162595113Y-75520000D02*
X162595113Y-74040000D01*
X162595113Y-71960000D02*
X162595113Y-70480000D01*
X162555113Y-75511001D02*
X162555113Y-74040001D01*
X162555113Y-71959999D02*
X162555113Y-70488999D01*
X162515113Y-75501000D02*
X162515113Y-74040000D01*
X162515113Y-71960000D02*
X162515113Y-70499000D01*
X162475113Y-75491000D02*
X162475113Y-74040000D01*
X162475113Y-71960000D02*
X162475113Y-70509000D01*
X162434113Y-75480000D02*
X162434113Y-74040001D01*
X162434113Y-71959999D02*
X162434113Y-70520000D01*
X162394113Y-75468000D02*
X162394113Y-74040000D01*
X162394113Y-71960000D02*
X162394113Y-70532000D01*
X162354113Y-75455000D02*
X162354113Y-74040000D01*
X162354113Y-71960000D02*
X162354113Y-70545000D01*
X162314113Y-75442000D02*
X162314113Y-74040000D01*
X162314113Y-71960000D02*
X162314113Y-70558000D01*
X162274113Y-75428000D02*
X162274113Y-74040001D01*
X162274113Y-71959999D02*
X162274113Y-70572000D01*
X162234113Y-75414000D02*
X162234113Y-74040000D01*
X162234113Y-71960000D02*
X162234113Y-70586000D01*
X162194113Y-75398000D02*
X162194113Y-74040000D01*
X162194113Y-71960000D02*
X162194113Y-70602000D01*
X162154113Y-75382000D02*
X162154114Y-74040000D01*
X162154114Y-71960000D02*
X162154113Y-70618000D01*
X162114113Y-75365000D02*
X162114112Y-74040000D01*
X162114112Y-71960000D02*
X162114113Y-70635000D01*
X162074113Y-75348000D02*
X162074113Y-74040000D01*
X162074113Y-71960000D02*
X162074113Y-70652000D01*
X162034113Y-75329000D02*
X162034113Y-74040000D01*
X162034113Y-71960000D02*
X162034113Y-70671000D01*
X161994113Y-75310000D02*
X161994113Y-74040001D01*
X161994113Y-71959999D02*
X161994113Y-70690000D01*
X161954113Y-75290000D02*
X161954113Y-74040000D01*
X161954113Y-71960000D02*
X161954113Y-70710000D01*
X161914113Y-75268000D02*
X161914113Y-74040000D01*
X161914113Y-71960000D02*
X161914113Y-70732000D01*
X161874113Y-75247000D02*
X161874113Y-74040000D01*
X161874113Y-71960000D02*
X161874113Y-70753000D01*
X161834113Y-75224000D02*
X161834113Y-74040001D01*
X161834113Y-71959999D02*
X161834113Y-70776000D01*
X161794113Y-75200000D02*
X161794113Y-74040000D01*
X161794113Y-71960000D02*
X161794113Y-70800000D01*
X161754113Y-75175000D02*
X161754113Y-74040000D01*
X161754113Y-71960000D02*
X161754113Y-70825000D01*
X161714113Y-75149000D02*
X161714113Y-74040000D01*
X161714113Y-71960000D02*
X161714113Y-70851000D01*
X161674113Y-75122000D02*
X161674112Y-74040000D01*
X161674112Y-71960000D02*
X161674113Y-70878000D01*
X161634113Y-75095000D02*
X161634113Y-74040000D01*
X161634113Y-71960000D02*
X161634113Y-70905000D01*
X161594113Y-75065000D02*
X161594113Y-74040000D01*
X161594113Y-71960000D02*
X161594113Y-70935000D01*
X161554113Y-75035000D02*
X161554114Y-74040000D01*
X161554114Y-71960000D02*
X161554113Y-70965000D01*
X161514113Y-75004000D02*
X161514113Y-74040000D01*
X161514113Y-71960000D02*
X161514113Y-70996000D01*
X161474113Y-74970999D02*
X161474113Y-74040000D01*
X161474113Y-71960000D02*
X161474113Y-71029001D01*
X161434113Y-74937000D02*
X161434113Y-74040000D01*
X161434113Y-71960000D02*
X161434113Y-71063000D01*
X161394112Y-74901000D02*
X161394113Y-74040001D01*
X161394113Y-71959999D02*
X161394112Y-71099000D01*
X161354113Y-74864000D02*
X161354113Y-74040000D01*
X161354113Y-71960000D02*
X161354113Y-71136000D01*
X161314113Y-74826000D02*
X161314113Y-74040000D01*
X161314113Y-71960000D02*
X161314113Y-71174000D01*
X161274113Y-74785000D02*
X161274113Y-74040000D01*
X161274113Y-71960000D02*
X161274113Y-71215000D01*
X161234113Y-74743001D02*
X161234112Y-74040000D01*
X161234112Y-71960000D02*
X161234113Y-71256999D01*
X161194114Y-74699000D02*
X161194113Y-74040000D01*
X161194113Y-71960000D02*
X161194114Y-71301000D01*
X161154112Y-74653000D02*
X161154113Y-74040000D01*
X161154113Y-71960000D02*
X161154112Y-71347000D01*
X161114113Y-74605000D02*
X161114114Y-74040000D01*
X161114114Y-71960000D02*
X161114113Y-71395000D01*
X161074113Y-74554000D02*
X161074113Y-74040000D01*
X161074113Y-71960000D02*
X161074113Y-71446000D01*
X161034113Y-74500000D02*
X161034113Y-74040000D01*
X161034113Y-71960000D02*
X161034113Y-71500000D01*
X160994113Y-74443000D02*
X160994113Y-74040000D01*
X160994113Y-71960000D02*
X160994113Y-71557000D01*
X160954113Y-74383000D02*
X160954113Y-74040001D01*
X160954113Y-71959999D02*
X160954113Y-71617000D01*
X160914113Y-74319000D02*
X160914113Y-74040000D01*
X160914113Y-71960000D02*
X160914113Y-71681000D01*
X160874113Y-74251001D02*
X160874113Y-74040000D01*
X160874113Y-71960000D02*
X160874113Y-71748999D01*
X160834113Y-74178000D02*
X160834113Y-71822000D01*
X160794113Y-74098000D02*
X160794113Y-71902000D01*
X160754113Y-74011000D02*
X160754113Y-71989000D01*
X160714113Y-73915000D02*
X160714113Y-72085000D01*
X160674114Y-73805000D02*
X160674114Y-72195000D01*
X160634113Y-73677000D02*
X160634113Y-72323000D01*
X160594113Y-73518000D02*
X160594113Y-72482000D01*
X160554113Y-73284000D02*
X160554113Y-72716000D01*
X165775115Y-73000000D02*
G75*
G02*
X160535113Y-73000000I-2620001J0D01*
G01*
X160535113Y-73000000D02*
G75*
G02*
X165775115Y-73000000I2620001J0D01*
G01*
X125510000Y-77453733D02*
X125510000Y-77746267D01*
X124490000Y-77453733D02*
X124490000Y-77746267D01*
X167310000Y-82053733D02*
X167310000Y-82346267D01*
X166290000Y-82053733D02*
X166290000Y-82346267D01*
X164077500Y-68454724D02*
X164077500Y-67945276D01*
X165122500Y-68454724D02*
X165122500Y-67945276D01*
X137877500Y-88054724D02*
X137877500Y-87545276D01*
X138922500Y-88054724D02*
X138922500Y-87545276D01*
X135054724Y-84522500D02*
X134545276Y-84522500D01*
X135054724Y-83477500D02*
X134545276Y-83477500D01*
X154500000Y-40439386D02*
G75*
G02*
X156767365Y-40379785I1100000J1311152D01*
G01*
X146454724Y-96722500D02*
X145945276Y-96722500D01*
X146454724Y-95677500D02*
X145945276Y-95677500D01*
X163322500Y-97145276D02*
X163322500Y-97654724D01*
X162277500Y-97145276D02*
X162277500Y-97654724D01*
X158710000Y-34515000D02*
X158710000Y-37234999D01*
X158710000Y-43635000D02*
X158710000Y-40034999D01*
X158710000Y-55365000D02*
X158710001Y-52735000D01*
X158710001Y-49935000D02*
X158710000Y-46335000D01*
X162110000Y-34515000D02*
X158710000Y-34515000D01*
X162110000Y-34515000D02*
X162110000Y-31515001D01*
X163460000Y-55365000D02*
X158710000Y-55365000D01*
X163460000Y-58285000D02*
X163460000Y-55365000D01*
X172360000Y-58285001D02*
X163460000Y-58285000D01*
X172400000Y-58285000D02*
X172400000Y-55365000D01*
X173750000Y-31515001D02*
X162110000Y-31515001D01*
X173750000Y-34515000D02*
X173750000Y-31515001D01*
X177150000Y-34515000D02*
X173750000Y-34515000D01*
X177150000Y-34515000D02*
X177150000Y-37234999D01*
X177150000Y-40034999D02*
X177150000Y-43635000D01*
X177150000Y-46335000D02*
X177150001Y-49935000D01*
X177150000Y-55365000D02*
X172400000Y-55365000D01*
X177150001Y-52735000D02*
X177150000Y-55365000D01*
X156477500Y-90854724D02*
X156477500Y-90345276D01*
X157522500Y-90854724D02*
X157522500Y-90345276D01*
X123722500Y-77345276D02*
X123722500Y-77854724D01*
X122677500Y-77345276D02*
X122677500Y-77854724D01*
X143700000Y-31535000D02*
X152900000Y-31535000D01*
X143700000Y-40135000D02*
X143700000Y-31535000D01*
X143700000Y-46035000D02*
X143700000Y-44735000D01*
X145700000Y-46035000D02*
X143700000Y-46035000D01*
X151500000Y-46335000D02*
X153200000Y-46335000D01*
X152900000Y-31535000D02*
X152900000Y-46035000D01*
X152900000Y-46035000D02*
X150900000Y-46035000D01*
X153200000Y-46335000D02*
X153200000Y-45035000D01*
X139450000Y-89650001D02*
X139450000Y-93500000D01*
X139450000Y-89650001D02*
G75*
G02*
X140027955Y-89267371I1700000J-1939999D01*
G01*
X140037736Y-93892381D02*
G75*
G02*
X139450001Y-93499999I1112264J2302381D01*
G01*
X142248807Y-89233601D02*
G75*
G02*
X143749999Y-91590000I-1098807J-2356399D01*
G01*
X143750000Y-91590000D02*
G75*
G02*
X142248807Y-93946401I-2600000J0D01*
G01*
X150559887Y-71675000D02*
X150059888Y-71675000D01*
X150309888Y-71925000D02*
X150309888Y-71425000D01*
X147755113Y-72780000D02*
X147755113Y-67620000D01*
X147715113Y-72780000D02*
X147715113Y-67620000D01*
X147675113Y-72778999D02*
X147675113Y-67621001D01*
X147635113Y-72778000D02*
X147635113Y-67622000D01*
X147595113Y-72776001D02*
X147595113Y-67623999D01*
X147555113Y-72773000D02*
X147555113Y-67627000D01*
X147515113Y-72769000D02*
X147515113Y-71240000D01*
X147515113Y-69160000D02*
X147515113Y-67631000D01*
X147475114Y-72765000D02*
X147475114Y-71240000D01*
X147475114Y-69160000D02*
X147475114Y-67635000D01*
X147435113Y-72761000D02*
X147435113Y-71240000D01*
X147435113Y-69160000D02*
X147435113Y-67639000D01*
X147395113Y-72756000D02*
X147395113Y-71240000D01*
X147395113Y-69160000D02*
X147395113Y-67644000D01*
X147355113Y-72750000D02*
X147355113Y-71240000D01*
X147355113Y-69160000D02*
X147355113Y-67650000D01*
X147315113Y-72743000D02*
X147315113Y-71240001D01*
X147315113Y-69159999D02*
X147315113Y-67657000D01*
X147275113Y-72736000D02*
X147275113Y-71240000D01*
X147275113Y-69160000D02*
X147275113Y-67664000D01*
X147235113Y-72728000D02*
X147235113Y-71240000D01*
X147235113Y-69160000D02*
X147235113Y-67672000D01*
X147195113Y-72720000D02*
X147195113Y-71240000D01*
X147195113Y-69160000D02*
X147195113Y-67680000D01*
X147155113Y-72711001D02*
X147155113Y-71240001D01*
X147155113Y-69159999D02*
X147155113Y-67688999D01*
X147115113Y-72701000D02*
X147115113Y-71240000D01*
X147115113Y-69160000D02*
X147115113Y-67699000D01*
X147075113Y-72691000D02*
X147075113Y-71240000D01*
X147075113Y-69160000D02*
X147075113Y-67709000D01*
X147034113Y-72680000D02*
X147034113Y-71240001D01*
X147034113Y-69159999D02*
X147034113Y-67720000D01*
X146994113Y-72668000D02*
X146994113Y-71240000D01*
X146994113Y-69160000D02*
X146994113Y-67732000D01*
X146954113Y-72655000D02*
X146954113Y-71240000D01*
X146954113Y-69160000D02*
X146954113Y-67745000D01*
X146914113Y-72642000D02*
X146914113Y-71240000D01*
X146914113Y-69160000D02*
X146914113Y-67758000D01*
X146874113Y-72628000D02*
X146874113Y-71240001D01*
X146874113Y-69159999D02*
X146874113Y-67772000D01*
X146834113Y-72614000D02*
X146834113Y-71240000D01*
X146834113Y-69160000D02*
X146834113Y-67786000D01*
X146794113Y-72598000D02*
X146794113Y-71240000D01*
X146794113Y-69160000D02*
X146794113Y-67802000D01*
X146754113Y-72582000D02*
X146754114Y-71240000D01*
X146754114Y-69160000D02*
X146754113Y-67818000D01*
X146714113Y-72565000D02*
X146714112Y-71240000D01*
X146714112Y-69160000D02*
X146714113Y-67835000D01*
X146674113Y-72548000D02*
X146674113Y-71240000D01*
X146674113Y-69160000D02*
X146674113Y-67852000D01*
X146634113Y-72529000D02*
X146634113Y-71240000D01*
X146634113Y-69160000D02*
X146634113Y-67871000D01*
X146594113Y-72510000D02*
X146594113Y-71240001D01*
X146594113Y-69159999D02*
X146594113Y-67890000D01*
X146554113Y-72490000D02*
X146554113Y-71240000D01*
X146554113Y-69160000D02*
X146554113Y-67910000D01*
X146514113Y-72468000D02*
X146514113Y-71240000D01*
X146514113Y-69160000D02*
X146514113Y-67932000D01*
X146474113Y-72447000D02*
X146474113Y-71240000D01*
X146474113Y-69160000D02*
X146474113Y-67953000D01*
X146434113Y-72424000D02*
X146434113Y-71240001D01*
X146434113Y-69159999D02*
X146434113Y-67976000D01*
X146394113Y-72400000D02*
X146394113Y-71240000D01*
X146394113Y-69160000D02*
X146394113Y-68000000D01*
X146354113Y-72375000D02*
X146354113Y-71240000D01*
X146354113Y-69160000D02*
X146354113Y-68025000D01*
X146314113Y-72349000D02*
X146314113Y-71240000D01*
X146314113Y-69160000D02*
X146314113Y-68051000D01*
X146274113Y-72322000D02*
X146274112Y-71240000D01*
X146274112Y-69160000D02*
X146274113Y-68078000D01*
X146234113Y-72295000D02*
X146234113Y-71240000D01*
X146234113Y-69160000D02*
X146234113Y-68105000D01*
X146194113Y-72265000D02*
X146194113Y-71240000D01*
X146194113Y-69160000D02*
X146194113Y-68135000D01*
X146154113Y-72235000D02*
X146154114Y-71240000D01*
X146154114Y-69160000D02*
X146154113Y-68165000D01*
X146114113Y-72204000D02*
X146114113Y-71240000D01*
X146114113Y-69160000D02*
X146114113Y-68196000D01*
X146074113Y-72170999D02*
X146074113Y-71240000D01*
X146074113Y-69160000D02*
X146074113Y-68229001D01*
X146034113Y-72137000D02*
X146034113Y-71240000D01*
X146034113Y-69160000D02*
X146034113Y-68263000D01*
X145994112Y-72101000D02*
X145994113Y-71240001D01*
X145994113Y-69159999D02*
X145994112Y-68299000D01*
X145954113Y-72064000D02*
X145954113Y-71240000D01*
X145954113Y-69160000D02*
X145954113Y-68336000D01*
X145914113Y-72026000D02*
X145914113Y-71240000D01*
X145914113Y-69160000D02*
X145914113Y-68374000D01*
X145874113Y-71985000D02*
X145874113Y-71240000D01*
X145874113Y-69160000D02*
X145874113Y-68415000D01*
X145834113Y-71943001D02*
X145834112Y-71240000D01*
X145834112Y-69160000D02*
X145834113Y-68456999D01*
X145794114Y-71899000D02*
X145794113Y-71240000D01*
X145794113Y-69160000D02*
X145794114Y-68501000D01*
X145754112Y-71853000D02*
X145754113Y-71240000D01*
X145754113Y-69160000D02*
X145754112Y-68547000D01*
X145714113Y-71805000D02*
X145714114Y-71240000D01*
X145714114Y-69160000D02*
X145714113Y-68595000D01*
X145674113Y-71754000D02*
X145674113Y-71240000D01*
X145674113Y-69160000D02*
X145674113Y-68646000D01*
X145634113Y-71700000D02*
X145634113Y-71240000D01*
X145634113Y-69160000D02*
X145634113Y-68700000D01*
X145594113Y-71643000D02*
X145594113Y-71240000D01*
X145594113Y-69160000D02*
X145594113Y-68757000D01*
X145554113Y-71583000D02*
X145554113Y-71240001D01*
X145554113Y-69159999D02*
X145554113Y-68817000D01*
X145514113Y-71519000D02*
X145514113Y-71240000D01*
X145514113Y-69160000D02*
X145514113Y-68881000D01*
X145474113Y-71451001D02*
X145474113Y-71240000D01*
X145474113Y-69160000D02*
X145474113Y-68948999D01*
X145434113Y-71378000D02*
X145434113Y-69022000D01*
X145394113Y-71298000D02*
X145394113Y-69102000D01*
X145354113Y-71211000D02*
X145354113Y-69189000D01*
X145314113Y-71115000D02*
X145314113Y-69285000D01*
X145274114Y-71005000D02*
X145274114Y-69395000D01*
X145234113Y-70877000D02*
X145234113Y-69523000D01*
X145194113Y-70718000D02*
X145194113Y-69682000D01*
X145154113Y-70484000D02*
X145154113Y-69916000D01*
X150375115Y-70200000D02*
G75*
G02*
X145135113Y-70200000I-2620001J0D01*
G01*
X145135113Y-70200000D02*
G75*
G02*
X150375115Y-70200000I2620001J0D01*
G01*
X154690000Y-72746267D02*
X154690000Y-72453733D01*
X155710000Y-72746267D02*
X155710000Y-72453733D01*
X119860000Y-34515000D02*
X119860000Y-37234999D01*
X119860000Y-43635000D02*
X119860000Y-40034999D01*
X119860000Y-55365000D02*
X119860001Y-52735000D01*
X119860001Y-49935000D02*
X119860000Y-46335000D01*
X123260000Y-34515000D02*
X119860000Y-34515000D01*
X123260000Y-34515000D02*
X123260000Y-31515001D01*
X124610000Y-55365000D02*
X119860000Y-55365000D01*
X124610000Y-58285000D02*
X124610000Y-55365000D01*
X133510000Y-58285001D02*
X124610000Y-58285000D01*
X133550000Y-58285000D02*
X133550000Y-55365000D01*
X134900000Y-31515001D02*
X123260000Y-31515001D01*
X134900000Y-34515000D02*
X134900000Y-31515001D01*
X138300000Y-34515000D02*
X134900000Y-34515000D01*
X138300000Y-34515000D02*
X138300000Y-37234999D01*
X138300000Y-40034999D02*
X138300000Y-43635000D01*
X138300000Y-46335000D02*
X138300001Y-49935000D01*
X138300000Y-55365000D02*
X133550000Y-55365000D01*
X138300001Y-52735000D02*
X138300000Y-55365000D01*
X145722500Y-93145276D02*
X145722500Y-93654724D01*
X144677500Y-93145276D02*
X144677500Y-93654724D01*
X170843732Y-67890002D02*
X171136266Y-67890002D01*
X170843732Y-68910002D02*
X171136266Y-68910002D01*
X168439386Y-94300000D02*
G75*
G02*
X168379785Y-92032635I-1311152J1100000D01*
G01*
X161146267Y-93510000D02*
X160853733Y-93510000D01*
X161146267Y-92490000D02*
X160853733Y-92490000D01*
X150959999Y-50284887D02*
X149457000Y-50284887D01*
X150959999Y-50444887D02*
X149488999Y-50444887D01*
X150959999Y-50565887D02*
X149520000Y-50565887D01*
X150959999Y-50725887D02*
X149572000Y-50725887D01*
X150959999Y-51005887D02*
X149690000Y-51005887D01*
X150959999Y-51165887D02*
X149776000Y-51165887D01*
X150959999Y-51605887D02*
X150099000Y-51605888D01*
X150959999Y-52045887D02*
X150617000Y-52045887D01*
X150960000Y-50084887D02*
X149431000Y-50084887D01*
X150960000Y-50124886D02*
X149435000Y-50124886D01*
X150960000Y-50164887D02*
X149439000Y-50164887D01*
X150960000Y-50204887D02*
X149444000Y-50204887D01*
X150960000Y-50244887D02*
X149450000Y-50244887D01*
X150960000Y-50324887D02*
X149464000Y-50324887D01*
X150960000Y-50364887D02*
X149472000Y-50364887D01*
X150960000Y-50404887D02*
X149480000Y-50404887D01*
X150960000Y-50484887D02*
X149499000Y-50484887D01*
X150960000Y-50524887D02*
X149509000Y-50524887D01*
X150960000Y-50605887D02*
X149532000Y-50605887D01*
X150960000Y-50645887D02*
X149545000Y-50645887D01*
X150960000Y-50685887D02*
X149558000Y-50685887D01*
X150960000Y-50765887D02*
X149586000Y-50765887D01*
X150960000Y-50805887D02*
X149602000Y-50805887D01*
X150960000Y-50845886D02*
X149618000Y-50845887D01*
X150960000Y-50885888D02*
X149635000Y-50885887D01*
X150960000Y-50925887D02*
X149652000Y-50925887D01*
X150960000Y-50965887D02*
X149671000Y-50965887D01*
X150960000Y-51045887D02*
X149710000Y-51045887D01*
X150960000Y-51085887D02*
X149732000Y-51085887D01*
X150960000Y-51125887D02*
X149753000Y-51125887D01*
X150960000Y-51205887D02*
X149800000Y-51205887D01*
X150960000Y-51245887D02*
X149825000Y-51245887D01*
X150960000Y-51285887D02*
X149851000Y-51285887D01*
X150960000Y-51325888D02*
X149878000Y-51325887D01*
X150960000Y-51365887D02*
X149905000Y-51365887D01*
X150960000Y-51405887D02*
X149935000Y-51405887D01*
X150960000Y-51445886D02*
X149965000Y-51445887D01*
X150960000Y-51485887D02*
X149996000Y-51485887D01*
X150960000Y-51525887D02*
X150029001Y-51525887D01*
X150960000Y-51565887D02*
X150063000Y-51565887D01*
X150960000Y-51645887D02*
X150136000Y-51645887D01*
X150960000Y-51685887D02*
X150174000Y-51685887D01*
X150960000Y-51725887D02*
X150215000Y-51725887D01*
X150960000Y-51765888D02*
X150256999Y-51765887D01*
X150960000Y-51805887D02*
X150301000Y-51805886D01*
X150960000Y-51845887D02*
X150347000Y-51845888D01*
X150960000Y-51885886D02*
X150395000Y-51885887D01*
X150960000Y-51925887D02*
X150446000Y-51925887D01*
X150960000Y-51965887D02*
X150500000Y-51965887D01*
X150960000Y-52005887D02*
X150557000Y-52005887D01*
X150960000Y-52085887D02*
X150681000Y-52085887D01*
X150960000Y-52125887D02*
X150748999Y-52125887D01*
X152284000Y-52445887D02*
X151716000Y-52445887D01*
X152518000Y-52405887D02*
X151482000Y-52405887D01*
X152677000Y-52365887D02*
X151323000Y-52365887D01*
X152805000Y-52325886D02*
X151195000Y-52325886D01*
X152915000Y-52285887D02*
X151085000Y-52285887D01*
X153011000Y-52245887D02*
X150989000Y-52245887D01*
X153098000Y-52205887D02*
X150902000Y-52205887D01*
X153178000Y-52165887D02*
X150822000Y-52165887D01*
X153251001Y-52125887D02*
X153040000Y-52125887D01*
X153319000Y-52085887D02*
X153040000Y-52085887D01*
X153383000Y-52045887D02*
X153040001Y-52045887D01*
X153443000Y-52005887D02*
X153040000Y-52005887D01*
X153475000Y-47040113D02*
X153475000Y-47540112D01*
X153500000Y-51965887D02*
X153040000Y-51965887D01*
X153554000Y-51925887D02*
X153040000Y-51925887D01*
X153605000Y-51885887D02*
X153040000Y-51885886D01*
X153653000Y-51845888D02*
X153040000Y-51845887D01*
X153699000Y-51805886D02*
X153040000Y-51805887D01*
X153725000Y-47290112D02*
X153225000Y-47290112D01*
X153743001Y-51765887D02*
X153040000Y-51765888D01*
X153785000Y-51725887D02*
X153040000Y-51725887D01*
X153826000Y-51685887D02*
X153040000Y-51685887D01*
X153864000Y-51645887D02*
X153040000Y-51645887D01*
X153901000Y-51605888D02*
X153040001Y-51605887D01*
X153937000Y-51565887D02*
X153040000Y-51565887D01*
X153970999Y-51525887D02*
X153040000Y-51525887D01*
X154004000Y-51485887D02*
X153040000Y-51485887D01*
X154035000Y-51445887D02*
X153040000Y-51445886D01*
X154065000Y-51405887D02*
X153040000Y-51405887D01*
X154095000Y-51365887D02*
X153040000Y-51365887D01*
X154122000Y-51325887D02*
X153040000Y-51325888D01*
X154149000Y-51285887D02*
X153040000Y-51285887D01*
X154175000Y-51245887D02*
X153040000Y-51245887D01*
X154200000Y-51205887D02*
X153040000Y-51205887D01*
X154224000Y-51165887D02*
X153040001Y-51165887D01*
X154247000Y-51125887D02*
X153040000Y-51125887D01*
X154268000Y-51085887D02*
X153040000Y-51085887D01*
X154290000Y-51045887D02*
X153040000Y-51045887D01*
X154310000Y-51005887D02*
X153040001Y-51005887D01*
X154329000Y-50965887D02*
X153040000Y-50965887D01*
X154348000Y-50925887D02*
X153040000Y-50925887D01*
X154365000Y-50885887D02*
X153040000Y-50885888D01*
X154382000Y-50845887D02*
X153040000Y-50845886D01*
X154398000Y-50805887D02*
X153040000Y-50805887D01*
X154414000Y-50765887D02*
X153040000Y-50765887D01*
X154428000Y-50725887D02*
X153040001Y-50725887D01*
X154442000Y-50685887D02*
X153040000Y-50685887D01*
X154455000Y-50645887D02*
X153040000Y-50645887D01*
X154468000Y-50605887D02*
X153040000Y-50605887D01*
X154480000Y-50565887D02*
X153040001Y-50565887D01*
X154491000Y-50524887D02*
X153040000Y-50524887D01*
X154501000Y-50484887D02*
X153040000Y-50484887D01*
X154511001Y-50444887D02*
X153040001Y-50444887D01*
X154520000Y-50404887D02*
X153040000Y-50404887D01*
X154528000Y-50364887D02*
X153040000Y-50364887D01*
X154536000Y-50324887D02*
X153040000Y-50324887D01*
X154543000Y-50284887D02*
X153040001Y-50284887D01*
X154550000Y-50244887D02*
X153040000Y-50244887D01*
X154556000Y-50204887D02*
X153040000Y-50204887D01*
X154561000Y-50164887D02*
X153040000Y-50164887D01*
X154565000Y-50124886D02*
X153040000Y-50124886D01*
X154569000Y-50084887D02*
X153040000Y-50084887D01*
X154573000Y-50044887D02*
X149427000Y-50044887D01*
X154576001Y-50004887D02*
X149423999Y-50004887D01*
X154578000Y-49964887D02*
X149422000Y-49964887D01*
X154578999Y-49924887D02*
X149421001Y-49924887D01*
X154580000Y-49844887D02*
X149420000Y-49844887D01*
X154580000Y-49884887D02*
X149420000Y-49884887D01*
X154620001Y-49844886D02*
G75*
G02*
X149379999Y-49844886I-2620001J0D01*
G01*
X149379999Y-49844886D02*
G75*
G02*
X154620001Y-49844886I2620001J0D01*
G01*
X171146267Y-67110000D02*
X170853733Y-67110000D01*
X171146267Y-66090000D02*
X170853733Y-66090000D01*
X131146267Y-95290000D02*
X130853733Y-95290000D01*
X131146267Y-96310000D02*
X130853733Y-96310000D01*
X139620000Y-49715113D02*
X144780000Y-49715113D01*
X139620000Y-49755113D02*
X144780000Y-49755113D01*
X139621001Y-49675113D02*
X144778999Y-49675113D01*
X139622000Y-49635113D02*
X144778000Y-49635113D01*
X139623999Y-49595113D02*
X144776001Y-49595113D01*
X139627000Y-49555113D02*
X144773000Y-49555113D01*
X139631000Y-49515113D02*
X141160000Y-49515113D01*
X139635000Y-49475114D02*
X141160000Y-49475114D01*
X139639000Y-49435113D02*
X141160000Y-49435113D01*
X139644000Y-49395113D02*
X141160000Y-49395113D01*
X139650000Y-49355113D02*
X141160000Y-49355113D01*
X139657000Y-49315113D02*
X141159999Y-49315113D01*
X139664000Y-49275113D02*
X141160000Y-49275113D01*
X139672000Y-49235113D02*
X141160000Y-49235113D01*
X139680000Y-49195113D02*
X141160000Y-49195113D01*
X139688999Y-49155113D02*
X141159999Y-49155113D01*
X139699000Y-49115113D02*
X141160000Y-49115113D01*
X139709000Y-49075113D02*
X141160000Y-49075113D01*
X139720000Y-49034113D02*
X141159999Y-49034113D01*
X139732000Y-48994113D02*
X141160000Y-48994113D01*
X139745000Y-48954113D02*
X141160000Y-48954113D01*
X139758000Y-48914113D02*
X141160000Y-48914113D01*
X139772000Y-48874113D02*
X141159999Y-48874113D01*
X139786000Y-48834113D02*
X141160000Y-48834113D01*
X139802000Y-48794113D02*
X141160000Y-48794113D01*
X139818000Y-48754113D02*
X141160000Y-48754114D01*
X139835000Y-48714113D02*
X141160000Y-48714112D01*
X139852000Y-48674113D02*
X141160000Y-48674113D01*
X139871000Y-48634113D02*
X141160000Y-48634113D01*
X139890000Y-48594113D02*
X141159999Y-48594113D01*
X139910000Y-48554113D02*
X141160000Y-48554113D01*
X139932000Y-48514113D02*
X141160000Y-48514113D01*
X139953000Y-48474113D02*
X141160000Y-48474113D01*
X139976000Y-48434113D02*
X141159999Y-48434113D01*
X140000000Y-48394113D02*
X141160000Y-48394113D01*
X140025000Y-48354113D02*
X141160000Y-48354113D01*
X140051000Y-48314113D02*
X141160000Y-48314113D01*
X140078000Y-48274113D02*
X141160000Y-48274112D01*
X140105000Y-48234113D02*
X141160000Y-48234113D01*
X140135000Y-48194113D02*
X141160000Y-48194113D01*
X140165000Y-48154113D02*
X141160000Y-48154114D01*
X140196000Y-48114113D02*
X141160000Y-48114113D01*
X140229001Y-48074113D02*
X141160000Y-48074113D01*
X140263000Y-48034113D02*
X141160000Y-48034113D01*
X140299000Y-47994112D02*
X141159999Y-47994113D01*
X140336000Y-47954113D02*
X141160000Y-47954113D01*
X140374000Y-47914113D02*
X141160000Y-47914113D01*
X140415000Y-47874113D02*
X141160000Y-47874113D01*
X140456999Y-47834113D02*
X141160000Y-47834112D01*
X140475000Y-52309888D02*
X140975000Y-52309888D01*
X140501000Y-47794114D02*
X141160000Y-47794113D01*
X140547000Y-47754112D02*
X141160000Y-47754113D01*
X140595000Y-47714113D02*
X141160000Y-47714114D01*
X140646000Y-47674113D02*
X141160000Y-47674113D01*
X140700000Y-47634113D02*
X141160000Y-47634113D01*
X140725000Y-52559887D02*
X140725000Y-52059888D01*
X140757000Y-47594113D02*
X141160000Y-47594113D01*
X140817000Y-47554113D02*
X141159999Y-47554113D01*
X140881000Y-47514113D02*
X141160000Y-47514113D01*
X140948999Y-47474113D02*
X141160000Y-47474113D01*
X141022000Y-47434113D02*
X143378000Y-47434113D01*
X141102000Y-47394113D02*
X143298000Y-47394113D01*
X141189000Y-47354113D02*
X143211000Y-47354113D01*
X141285000Y-47314113D02*
X143115000Y-47314113D01*
X141395000Y-47274114D02*
X143005000Y-47274114D01*
X141523000Y-47234113D02*
X142877000Y-47234113D01*
X141682000Y-47194113D02*
X142718000Y-47194113D01*
X141916000Y-47154113D02*
X142484000Y-47154113D01*
X143240000Y-47474113D02*
X143451001Y-47474113D01*
X143240000Y-47514113D02*
X143519000Y-47514113D01*
X143240000Y-47594113D02*
X143643000Y-47594113D01*
X143240000Y-47634113D02*
X143700000Y-47634113D01*
X143240000Y-47674113D02*
X143754000Y-47674113D01*
X143240000Y-47714114D02*
X143805000Y-47714113D01*
X143240000Y-47754113D02*
X143853000Y-47754112D01*
X143240000Y-47794113D02*
X143899000Y-47794114D01*
X143240000Y-47834112D02*
X143943001Y-47834113D01*
X143240000Y-47874113D02*
X143985000Y-47874113D01*
X143240000Y-47914113D02*
X144026000Y-47914113D01*
X143240000Y-47954113D02*
X144064000Y-47954113D01*
X143240000Y-48034113D02*
X144137000Y-48034113D01*
X143240000Y-48074113D02*
X144170999Y-48074113D01*
X143240000Y-48114113D02*
X144204000Y-48114113D01*
X143240000Y-48154114D02*
X144235000Y-48154113D01*
X143240000Y-48194113D02*
X144265000Y-48194113D01*
X143240000Y-48234113D02*
X144295000Y-48234113D01*
X143240000Y-48274112D02*
X144322000Y-48274113D01*
X143240000Y-48314113D02*
X144349000Y-48314113D01*
X143240000Y-48354113D02*
X144375000Y-48354113D01*
X143240000Y-48394113D02*
X144400000Y-48394113D01*
X143240000Y-48474113D02*
X144447000Y-48474113D01*
X143240000Y-48514113D02*
X144468000Y-48514113D01*
X143240000Y-48554113D02*
X144490000Y-48554113D01*
X143240000Y-48634113D02*
X144529000Y-48634113D01*
X143240000Y-48674113D02*
X144548000Y-48674113D01*
X143240000Y-48714112D02*
X144565000Y-48714113D01*
X143240000Y-48754114D02*
X144582000Y-48754113D01*
X143240000Y-48794113D02*
X144598000Y-48794113D01*
X143240000Y-48834113D02*
X144614000Y-48834113D01*
X143240000Y-48914113D02*
X144642000Y-48914113D01*
X143240000Y-48954113D02*
X144655000Y-48954113D01*
X143240000Y-48994113D02*
X144668000Y-48994113D01*
X143240000Y-49075113D02*
X144691000Y-49075113D01*
X143240000Y-49115113D02*
X144701000Y-49115113D01*
X143240000Y-49195113D02*
X144720000Y-49195113D01*
X143240000Y-49235113D02*
X144728000Y-49235113D01*
X143240000Y-49275113D02*
X144736000Y-49275113D01*
X143240000Y-49355113D02*
X144750000Y-49355113D01*
X143240000Y-49395113D02*
X144756000Y-49395113D01*
X143240000Y-49435113D02*
X144761000Y-49435113D01*
X143240000Y-49475114D02*
X144765000Y-49475114D01*
X143240000Y-49515113D02*
X144769000Y-49515113D01*
X143240001Y-47554113D02*
X143583000Y-47554113D01*
X143240001Y-47994113D02*
X144101000Y-47994112D01*
X143240001Y-48434113D02*
X144424000Y-48434113D01*
X143240001Y-48594113D02*
X144510000Y-48594113D01*
X143240001Y-48874113D02*
X144628000Y-48874113D01*
X143240001Y-49034113D02*
X144680000Y-49034113D01*
X143240001Y-49155113D02*
X144711001Y-49155113D01*
X143240001Y-49315113D02*
X144743000Y-49315113D01*
X144820001Y-49755114D02*
G75*
G02*
X139579999Y-49755114I-2620001J0D01*
G01*
X139579999Y-49755114D02*
G75*
G02*
X144820001Y-49755114I2620001J0D01*
G01*
X134654724Y-95277500D02*
X134145276Y-95277500D01*
X134654724Y-96322500D02*
X134145276Y-96322500D01*
X124275000Y-82345226D02*
X124275000Y-82845225D01*
X124525000Y-82595225D02*
X124025000Y-82595225D01*
X125380000Y-85150000D02*
X120220000Y-85150000D01*
X125380000Y-85190000D02*
X120220000Y-85190000D01*
X125378999Y-85230000D02*
X120221001Y-85230000D01*
X125378000Y-85270000D02*
X120222000Y-85270000D01*
X125376001Y-85310000D02*
X120223999Y-85310000D01*
X125373000Y-85350000D02*
X120227000Y-85350000D01*
X125369000Y-85390000D02*
X123840000Y-85390000D01*
X121760000Y-85390000D02*
X120231000Y-85390000D01*
X125365000Y-85429999D02*
X123840000Y-85429999D01*
X121760000Y-85429999D02*
X120235000Y-85429999D01*
X125361000Y-85470000D02*
X123840000Y-85470000D01*
X121760000Y-85470000D02*
X120239000Y-85470000D01*
X125356000Y-85510000D02*
X123840000Y-85510000D01*
X121760000Y-85510000D02*
X120244000Y-85510000D01*
X125350000Y-85550000D02*
X123840000Y-85550000D01*
X121760000Y-85550000D02*
X120250000Y-85550000D01*
X125343000Y-85590000D02*
X123840001Y-85590000D01*
X121759999Y-85590000D02*
X120257000Y-85590000D01*
X125336000Y-85630000D02*
X123840000Y-85630000D01*
X121760000Y-85630000D02*
X120264000Y-85630000D01*
X125328000Y-85670000D02*
X123840000Y-85670000D01*
X121760000Y-85670000D02*
X120272000Y-85670000D01*
X125320000Y-85710000D02*
X123840000Y-85710000D01*
X121760000Y-85710000D02*
X120280000Y-85710000D01*
X125311001Y-85750000D02*
X123840001Y-85750000D01*
X121759999Y-85750000D02*
X120288999Y-85750000D01*
X125301000Y-85790000D02*
X123840000Y-85790000D01*
X121760000Y-85790000D02*
X120299000Y-85790000D01*
X125291000Y-85830000D02*
X123840000Y-85830000D01*
X121760000Y-85830000D02*
X120309000Y-85830000D01*
X125280000Y-85871000D02*
X123840001Y-85871000D01*
X121759999Y-85871000D02*
X120320000Y-85871000D01*
X125268000Y-85911000D02*
X123840000Y-85911000D01*
X121760000Y-85911000D02*
X120332000Y-85911000D01*
X125255000Y-85951000D02*
X123840000Y-85951000D01*
X121760000Y-85951000D02*
X120345000Y-85951000D01*
X125242000Y-85991000D02*
X123840000Y-85991000D01*
X121760000Y-85991000D02*
X120358000Y-85991000D01*
X125228000Y-86031000D02*
X123840001Y-86031000D01*
X121759999Y-86031000D02*
X120372000Y-86031000D01*
X125214000Y-86071000D02*
X123840000Y-86071000D01*
X121760000Y-86071000D02*
X120386000Y-86071000D01*
X125198000Y-86111000D02*
X123840000Y-86111000D01*
X121760000Y-86111000D02*
X120402000Y-86111000D01*
X125182000Y-86151000D02*
X123840000Y-86150999D01*
X121760000Y-86150999D02*
X120418000Y-86151000D01*
X125165000Y-86191000D02*
X123840000Y-86191001D01*
X121760000Y-86191001D02*
X120435000Y-86191000D01*
X125148000Y-86231000D02*
X123840000Y-86231000D01*
X121760000Y-86231000D02*
X120452000Y-86231000D01*
X125129000Y-86271000D02*
X123840000Y-86271000D01*
X121760000Y-86271000D02*
X120471000Y-86271000D01*
X125110000Y-86311000D02*
X123840001Y-86311000D01*
X121759999Y-86311000D02*
X120490000Y-86311000D01*
X125090000Y-86351000D02*
X123840000Y-86351000D01*
X121760000Y-86351000D02*
X120510000Y-86351000D01*
X125068000Y-86391000D02*
X123840000Y-86391000D01*
X121760000Y-86391000D02*
X120532000Y-86391000D01*
X125047000Y-86431000D02*
X123840000Y-86431000D01*
X121760000Y-86431000D02*
X120553000Y-86431000D01*
X125024000Y-86471000D02*
X123840001Y-86471000D01*
X121759999Y-86471000D02*
X120576000Y-86471000D01*
X125000000Y-86511000D02*
X123840000Y-86511000D01*
X121760000Y-86511000D02*
X120600000Y-86511000D01*
X124975000Y-86551000D02*
X123840000Y-86551000D01*
X121760000Y-86551000D02*
X120625000Y-86551000D01*
X124949000Y-86591000D02*
X123840000Y-86591000D01*
X121760000Y-86591000D02*
X120651000Y-86591000D01*
X124922000Y-86631000D02*
X123840000Y-86631001D01*
X121760000Y-86631001D02*
X120678000Y-86631000D01*
X124895000Y-86671000D02*
X123840000Y-86671000D01*
X121760000Y-86671000D02*
X120705000Y-86671000D01*
X124865000Y-86711000D02*
X123840000Y-86711000D01*
X121760000Y-86711000D02*
X120735000Y-86711000D01*
X124835000Y-86751000D02*
X123840000Y-86750999D01*
X121760000Y-86750999D02*
X120765000Y-86751000D01*
X124804000Y-86791000D02*
X123840000Y-86791000D01*
X121760000Y-86791000D02*
X120796000Y-86791000D01*
X124770999Y-86831000D02*
X123840000Y-86831000D01*
X121760000Y-86831000D02*
X120829001Y-86831000D01*
X124737000Y-86871000D02*
X123840000Y-86871000D01*
X121760000Y-86871000D02*
X120863000Y-86871000D01*
X124701000Y-86911001D02*
X123840001Y-86911000D01*
X121759999Y-86911000D02*
X120899000Y-86911001D01*
X124664000Y-86951000D02*
X123840000Y-86951000D01*
X121760000Y-86951000D02*
X120936000Y-86951000D01*
X124626000Y-86991000D02*
X123840000Y-86991000D01*
X121760000Y-86991000D02*
X120974000Y-86991000D01*
X124585000Y-87031000D02*
X123840000Y-87031000D01*
X121760000Y-87031000D02*
X121015000Y-87031000D01*
X124543001Y-87071000D02*
X123840000Y-87071001D01*
X121760000Y-87071001D02*
X121056999Y-87071000D01*
X124499000Y-87110999D02*
X123840000Y-87111000D01*
X121760000Y-87111000D02*
X121101000Y-87110999D01*
X124453000Y-87151001D02*
X123840000Y-87151000D01*
X121760000Y-87151000D02*
X121147000Y-87151001D01*
X124405000Y-87191000D02*
X123840000Y-87190999D01*
X121760000Y-87190999D02*
X121195000Y-87191000D01*
X124354000Y-87231000D02*
X123840000Y-87231000D01*
X121760000Y-87231000D02*
X121246000Y-87231000D01*
X124300000Y-87271000D02*
X123840000Y-87271000D01*
X121760000Y-87271000D02*
X121300000Y-87271000D01*
X124243000Y-87311000D02*
X123840000Y-87311000D01*
X121760000Y-87311000D02*
X121357000Y-87311000D01*
X124183000Y-87351000D02*
X123840001Y-87351000D01*
X121759999Y-87351000D02*
X121417000Y-87351000D01*
X124119000Y-87391000D02*
X123840000Y-87391000D01*
X121760000Y-87391000D02*
X121481000Y-87391000D01*
X124051001Y-87431000D02*
X123840000Y-87431000D01*
X121760000Y-87431000D02*
X121548999Y-87431000D01*
X123978000Y-87471000D02*
X121622000Y-87471000D01*
X123898000Y-87511000D02*
X121702000Y-87511000D01*
X123811000Y-87551000D02*
X121789000Y-87551000D01*
X123715000Y-87591000D02*
X121885000Y-87591000D01*
X123605000Y-87630999D02*
X121995000Y-87630999D01*
X123477000Y-87671000D02*
X122123000Y-87671000D01*
X123318000Y-87711000D02*
X122282000Y-87711000D01*
X123084000Y-87751000D02*
X122516000Y-87751000D01*
X125420001Y-85149999D02*
G75*
G02*
X120179999Y-85149999I-2620001J0D01*
G01*
X120179999Y-85149999D02*
G75*
G02*
X125420001Y-85149999I2620001J0D01*
G01*
X176695273Y-94727500D02*
X177204721Y-94727500D01*
X176695273Y-95772500D02*
X177204721Y-95772500D01*
X162277500Y-101254724D02*
X162277500Y-100745276D01*
X163322500Y-101254724D02*
X163322500Y-100745276D01*
%LPC*%
D14*
X123800000Y-70743533D03*
D15*
X123800000Y-68203533D03*
D16*
X127600000Y-80537499D03*
X127600000Y-82262501D03*
D17*
X148000000Y-48487500D03*
X148000000Y-50312500D03*
X164400000Y-100087500D03*
X164400000Y-101912500D03*
D14*
X127200000Y-68400000D03*
D15*
X127200000Y-70940000D03*
D18*
X150194888Y-84600000D03*
D19*
X152694888Y-84600000D03*
D20*
X166800000Y-86712500D03*
X166800000Y-84887500D03*
D21*
X131912500Y-94200000D03*
X130087500Y-94200000D03*
D22*
X132640001Y-79130000D03*
D23*
X132640001Y-80400001D03*
X132640001Y-81670000D03*
D17*
X145200000Y-89087500D03*
X145200000Y-90912500D03*
D24*
X142862501Y-87000000D03*
X141137499Y-87000000D03*
D20*
X157000000Y-96112500D03*
X157000000Y-94287500D03*
D25*
X154200000Y-89120001D03*
X154200000Y-91660000D03*
D26*
X154200000Y-94200000D03*
D20*
X129800000Y-82312500D03*
X129800000Y-80487500D03*
D15*
X169668234Y-96800000D03*
D14*
X167128234Y-96800000D03*
D27*
X119400000Y-101200000D03*
D26*
X118200000Y-71740000D03*
D19*
X118200000Y-69200000D03*
X118200000Y-74280000D03*
D24*
X161862501Y-94600000D03*
X160137499Y-94600000D03*
D27*
X154600000Y-56200000D03*
D26*
X175800000Y-102200000D03*
D25*
X175800000Y-99660000D03*
X175800000Y-97120001D03*
D16*
X168600000Y-84937499D03*
X168600000Y-86662501D03*
X155600000Y-45737499D03*
X155600000Y-47462501D03*
D15*
X134200000Y-70940000D03*
D14*
X134200000Y-68400000D03*
D18*
X164205112Y-79000000D03*
D19*
X161705112Y-79000000D03*
D20*
X163000000Y-69112500D03*
X163000000Y-67287500D03*
D26*
X148150000Y-89050000D03*
D25*
X148150000Y-91590000D03*
X148150000Y-94129999D03*
D27*
X141400000Y-101200000D03*
D20*
X146400000Y-50312500D03*
X146400000Y-48487500D03*
X129800000Y-78712500D03*
X129800000Y-76887500D03*
D18*
X143805112Y-61800000D03*
D19*
X141305112Y-61800000D03*
D27*
X147085714Y-101200000D03*
D17*
X146600000Y-63687500D03*
X146600000Y-65512500D03*
D27*
X130028572Y-101200000D03*
D16*
X153600000Y-68337499D03*
X153600000Y-70062501D03*
D20*
X168600000Y-83112500D03*
X168600000Y-81287500D03*
D17*
X128200000Y-76887500D03*
X128200000Y-78712500D03*
D28*
X141025000Y-35950000D03*
D29*
X141025000Y-38490000D03*
D27*
X142200000Y-56000000D03*
D30*
X174800000Y-70990000D03*
X174800000Y-73530000D03*
X174800000Y-76070000D03*
X174800000Y-78610000D03*
X167180000Y-78610000D03*
X167180000Y-76070000D03*
X167180000Y-73530000D03*
X167180000Y-70990000D03*
D31*
X153687500Y-66600000D03*
X155512500Y-66600000D03*
D15*
X130600000Y-68203532D03*
D14*
X130600000Y-70743532D03*
D24*
X135262501Y-94200000D03*
X133537499Y-94200000D03*
D17*
X143600000Y-71687500D03*
X143600000Y-73512500D03*
D26*
X148450000Y-63450000D03*
D25*
X150990000Y-63450000D03*
X153530000Y-63450000D03*
D31*
X144887500Y-87000000D03*
X146712500Y-87000000D03*
D21*
X143112500Y-97600000D03*
X141287500Y-97600000D03*
D18*
X179000000Y-91000000D03*
D19*
X176500000Y-91000000D03*
D20*
X164400000Y-98312500D03*
X164400000Y-96487500D03*
X153600000Y-73512500D03*
X153600000Y-71687500D03*
D31*
X130087500Y-97400000D03*
X131912500Y-97400000D03*
D21*
X132112500Y-84000000D03*
X130287500Y-84000000D03*
D15*
X137800000Y-68203532D03*
D14*
X137800000Y-70743532D03*
D18*
X164405113Y-73000000D03*
D19*
X161905113Y-73000000D03*
D16*
X125000000Y-76737499D03*
X125000000Y-78462501D03*
X166800000Y-81337499D03*
X166800000Y-83062501D03*
D20*
X164600000Y-69112500D03*
X164600000Y-67287500D03*
X138400000Y-88712500D03*
X138400000Y-86887500D03*
D27*
X124600000Y-101200000D03*
D21*
X135712500Y-84000000D03*
X133887500Y-84000000D03*
D15*
X155600000Y-41668234D03*
D14*
X155600000Y-39128234D03*
D21*
X147112500Y-96200000D03*
X145287500Y-96200000D03*
D17*
X162800000Y-96487500D03*
X162800000Y-98312500D03*
D32*
X159815000Y-44985000D03*
X176045000Y-44985000D03*
X159815000Y-38635000D03*
X176045000Y-38635000D03*
X159815000Y-51335000D03*
X176045000Y-51335000D03*
D20*
X157000000Y-91512500D03*
X157000000Y-89687500D03*
D17*
X123200000Y-76687500D03*
X123200000Y-78512500D03*
D33*
X148300000Y-45335000D03*
D34*
X148300000Y-39035000D03*
D35*
X143500000Y-42435000D03*
D26*
X143260000Y-80200000D03*
D19*
X145800000Y-80200000D03*
X140720000Y-80200000D03*
D26*
X141150000Y-89050000D03*
D25*
X141150000Y-91590000D03*
X141150000Y-94129999D03*
D18*
X149005113Y-70200000D03*
D19*
X146505113Y-70200000D03*
D36*
X155200000Y-73462501D03*
X155200000Y-71737499D03*
D32*
X120965000Y-44985000D03*
X137195000Y-44985000D03*
X120965000Y-38635000D03*
X137195000Y-38635000D03*
X120965000Y-51335000D03*
X137195000Y-51335000D03*
D17*
X145200000Y-92487500D03*
X145200000Y-94312500D03*
D37*
X170127498Y-68400002D03*
X171852500Y-68400002D03*
D27*
X152400000Y-101200000D03*
D15*
X169668234Y-93200000D03*
D14*
X167128234Y-93200000D03*
D24*
X161862501Y-93000000D03*
X160137499Y-93000000D03*
D18*
X152000000Y-48594887D03*
D19*
X152000000Y-51094887D03*
D24*
X171862501Y-66600000D03*
X170137499Y-66600000D03*
X131862501Y-95800000D03*
X130137499Y-95800000D03*
D18*
X142200000Y-51005113D03*
D19*
X142200000Y-48505113D03*
D21*
X135312500Y-95800000D03*
X133487500Y-95800000D03*
D18*
X122800000Y-83900000D03*
D19*
X122800000Y-86400000D03*
D31*
X176037497Y-95250000D03*
X177862497Y-95250000D03*
D20*
X162800000Y-101912500D03*
X162800000Y-100087500D03*
D38*
X163600000Y-63800000D03*
X168600000Y-63800000D03*
X173600000Y-63800000D03*
X153550000Y-76300000D03*
X148550000Y-76300000D03*
X143550000Y-76300000D03*
X133600000Y-89900000D03*
X128600000Y-89900000D03*
X123600000Y-89900000D03*
X133600000Y-63800000D03*
X128600000Y-63800000D03*
X123600000Y-63800000D03*
X173600000Y-89900000D03*
X168600000Y-89900000D03*
X163600000Y-89900000D03*
D39*
X152400000Y-59800000D03*
X158000000Y-63400000D03*
X132800000Y-76800000D03*
X144000000Y-85600000D03*
X146600000Y-90000000D03*
X145800000Y-98000000D03*
X157000000Y-98000000D03*
X162600000Y-103800000D03*
X147800000Y-66000000D03*
X156000000Y-67800000D03*
X155600000Y-75200000D03*
X165600000Y-83400000D03*
X178800000Y-95400000D03*
X164400000Y-102800000D03*
X158000000Y-89200000D03*
X144600000Y-97400000D03*
X144000000Y-94600000D03*
X128800000Y-81200000D03*
X138400000Y-85800000D03*
X136600000Y-84000000D03*
X132000000Y-84800000D03*
X133800000Y-97000000D03*
X133200000Y-97800000D03*
X146000000Y-47400000D03*
X155600000Y-49000000D03*
%LPD*%
M02*
