G04 #@! TF.GenerationSoftware,KiCad,Pcbnew,8.0.1*
G04 #@! TF.CreationDate,2024-07-26T15:20:18+05:00*
G04 #@! TF.ProjectId,Life_pedal,4c696665-5f70-4656-9461-6c2e6b696361,rev?*
G04 #@! TF.SameCoordinates,Original*
G04 #@! TF.FileFunction,Soldermask,Top*
G04 #@! TF.FilePolarity,Negative*
%FSLAX46Y46*%
G04 Gerber Fmt 4.6, Leading zero omitted, Abs format (unit mm)*
G04 Created by KiCad (PCBNEW 8.0.1) date 2024-07-26 15:20:18*
%MOMM*%
%LPD*%
G01*
G04 APERTURE LIST*
G04 Aperture macros list*
%AMRoundRect*
0 Rectangle with rounded corners*
0 $1 Rounding radius*
0 $2 $3 $4 $5 $6 $7 $8 $9 X,Y pos of 4 corners*
0 Add a 4 corners polygon primitive as box body*
4,1,4,$2,$3,$4,$5,$6,$7,$8,$9,$2,$3,0*
0 Add four circle primitives for the rounded corners*
1,1,$1+$1,$2,$3*
1,1,$1+$1,$4,$5*
1,1,$1+$1,$6,$7*
1,1,$1+$1,$8,$9*
0 Add four rect primitives between the rounded corners*
20,1,$1+$1,$2,$3,$4,$5,0*
20,1,$1+$1,$4,$5,$6,$7,0*
20,1,$1+$1,$6,$7,$8,$9,0*
20,1,$1+$1,$8,$9,$2,$3,0*%
G04 Aperture macros list end*
%ADD10O,2.200000X2.200000*%
%ADD11R,2.200000X2.200000*%
%ADD12RoundRect,0.237500X-0.237500X0.300000X-0.237500X-0.300000X0.237500X-0.300000X0.237500X0.300000X0*%
%ADD13RoundRect,0.237500X-0.237500X0.250000X-0.237500X-0.250000X0.237500X-0.250000X0.237500X0.250000X0*%
%ADD14R,1.600000X1.600000*%
%ADD15C,1.600000*%
%ADD16RoundRect,0.237500X0.237500X-0.250000X0.237500X0.250000X-0.237500X0.250000X-0.237500X-0.250000X0*%
%ADD17RoundRect,0.237500X0.250000X0.237500X-0.250000X0.237500X-0.250000X-0.237500X0.250000X-0.237500X0*%
%ADD18R,1.500000X1.050000*%
%ADD19O,1.500000X1.050000*%
%ADD20RoundRect,0.237500X0.300000X0.237500X-0.300000X0.237500X-0.300000X-0.237500X0.300000X-0.237500X0*%
%ADD21C,1.500000*%
%ADD22R,1.500000X1.500000*%
%ADD23RoundRect,0.250002X1.699998X-1.699998X1.699998X1.699998X-1.699998X1.699998X-1.699998X-1.699998X0*%
%ADD24R,1.700000X1.700000*%
%ADD25O,1.700000X1.700000*%
%ADD26C,1.804000*%
%ADD27RoundRect,0.237500X-0.250000X-0.237500X0.250000X-0.237500X0.250000X0.237500X-0.250000X0.237500X0*%
%ADD28C,3.000000*%
%ADD29R,4.600000X2.000000*%
%ADD30O,4.200000X2.000000*%
%ADD31O,2.000000X4.200000*%
%ADD32RoundRect,0.237500X0.237500X-0.300000X0.237500X0.300000X-0.237500X0.300000X-0.237500X-0.300000X0*%
%ADD33RoundRect,0.237500X-0.300000X-0.237500X0.300000X-0.237500X0.300000X0.237500X-0.300000X0.237500X0*%
%ADD34C,2.340000*%
%ADD35C,0.600000*%
G04 APERTURE END LIST*
D10*
X123800000Y-70743533D03*
D11*
X123800000Y-68203533D03*
D12*
X127600000Y-80537499D03*
X127600000Y-82262501D03*
D13*
X148000000Y-48487500D03*
X148000000Y-50312500D03*
X164400000Y-100087500D03*
X164400000Y-101912500D03*
D10*
X127200000Y-68400000D03*
D11*
X127200000Y-70940000D03*
D14*
X150194888Y-84600000D03*
D15*
X152694888Y-84600000D03*
D16*
X166800000Y-86712500D03*
X166800000Y-84887500D03*
D17*
X131912500Y-94200000D03*
X130087500Y-94200000D03*
D18*
X132640001Y-79130000D03*
D19*
X132640001Y-80400001D03*
X132640001Y-81670000D03*
D13*
X145200000Y-89087500D03*
X145200000Y-90912500D03*
D20*
X142862501Y-87000000D03*
X141137499Y-87000000D03*
D16*
X157000000Y-96112500D03*
X157000000Y-94287500D03*
D21*
X154200000Y-89120001D03*
X154200000Y-91660000D03*
D22*
X154200000Y-94200000D03*
D16*
X129800000Y-82312500D03*
X129800000Y-80487500D03*
D11*
X169668234Y-96800000D03*
D10*
X167128234Y-96800000D03*
D23*
X119400000Y-101200000D03*
D22*
X118200000Y-71740000D03*
D15*
X118200000Y-69200000D03*
X118200000Y-74280000D03*
D20*
X161862501Y-94600000D03*
X160137499Y-94600000D03*
D23*
X154600000Y-56200000D03*
D22*
X175800000Y-102200000D03*
D21*
X175800000Y-99660000D03*
X175800000Y-97120001D03*
D12*
X168600000Y-84937499D03*
X168600000Y-86662501D03*
X155600000Y-45737499D03*
X155600000Y-47462501D03*
D11*
X134200000Y-70940000D03*
D10*
X134200000Y-68400000D03*
D14*
X164205112Y-79000000D03*
D15*
X161705112Y-79000000D03*
D16*
X163000000Y-69112500D03*
X163000000Y-67287500D03*
D22*
X148150000Y-89050000D03*
D21*
X148150000Y-91590000D03*
X148150000Y-94129999D03*
D23*
X141400000Y-101200000D03*
D16*
X146400000Y-50312500D03*
X146400000Y-48487500D03*
X129800000Y-78712500D03*
X129800000Y-76887500D03*
D14*
X143805112Y-61800000D03*
D15*
X141305112Y-61800000D03*
D23*
X147085714Y-101200000D03*
D13*
X146600000Y-63687500D03*
X146600000Y-65512500D03*
D23*
X130028572Y-101200000D03*
D12*
X153600000Y-68337499D03*
X153600000Y-70062501D03*
D16*
X168600000Y-83112500D03*
X168600000Y-81287500D03*
D13*
X128200000Y-76887500D03*
X128200000Y-78712500D03*
D24*
X141025000Y-35950000D03*
D25*
X141025000Y-38490000D03*
D23*
X142200000Y-56000000D03*
D26*
X174800000Y-70990000D03*
X174800000Y-73530000D03*
X174800000Y-76070000D03*
X174800000Y-78610000D03*
X167180000Y-78610000D03*
X167180000Y-76070000D03*
X167180000Y-73530000D03*
X167180000Y-70990000D03*
D27*
X153687500Y-66600000D03*
X155512500Y-66600000D03*
D11*
X130600000Y-68203532D03*
D10*
X130600000Y-70743532D03*
D20*
X135262501Y-94200000D03*
X133537499Y-94200000D03*
D13*
X143600000Y-71687500D03*
X143600000Y-73512500D03*
D22*
X148450000Y-63450000D03*
D21*
X150990000Y-63450000D03*
X153530000Y-63450000D03*
D27*
X144887500Y-87000000D03*
X146712500Y-87000000D03*
D17*
X143112500Y-97600000D03*
X141287500Y-97600000D03*
D14*
X179000000Y-91000000D03*
D15*
X176500000Y-91000000D03*
D16*
X164400000Y-98312500D03*
X164400000Y-96487500D03*
X153600000Y-73512500D03*
X153600000Y-71687500D03*
D27*
X130087500Y-97400000D03*
X131912500Y-97400000D03*
D17*
X132112500Y-84000000D03*
X130287500Y-84000000D03*
D11*
X137800000Y-68203532D03*
D10*
X137800000Y-70743532D03*
D14*
X164405113Y-73000000D03*
D15*
X161905113Y-73000000D03*
D12*
X125000000Y-76737499D03*
X125000000Y-78462501D03*
X166800000Y-81337499D03*
X166800000Y-83062501D03*
D16*
X164600000Y-69112500D03*
X164600000Y-67287500D03*
X138400000Y-88712500D03*
X138400000Y-86887500D03*
D23*
X124600000Y-101200000D03*
D17*
X135712500Y-84000000D03*
X133887500Y-84000000D03*
D11*
X155600000Y-41668234D03*
D10*
X155600000Y-39128234D03*
D17*
X147112500Y-96200000D03*
X145287500Y-96200000D03*
D13*
X162800000Y-96487500D03*
X162800000Y-98312500D03*
D28*
X159815000Y-44985000D03*
X176045000Y-44985000D03*
X159815000Y-38635000D03*
X176045000Y-38635000D03*
X159815000Y-51335000D03*
X176045000Y-51335000D03*
D16*
X157000000Y-91512500D03*
X157000000Y-89687500D03*
D13*
X123200000Y-76687500D03*
X123200000Y-78512500D03*
D29*
X148300000Y-45335000D03*
D30*
X148300000Y-39035000D03*
D31*
X143500000Y-42435000D03*
D22*
X143260000Y-80200000D03*
D15*
X145800000Y-80200000D03*
X140720000Y-80200000D03*
D22*
X141150000Y-89050000D03*
D21*
X141150000Y-91590000D03*
X141150000Y-94129999D03*
D14*
X149005113Y-70200000D03*
D15*
X146505113Y-70200000D03*
D32*
X155200000Y-73462501D03*
X155200000Y-71737499D03*
D28*
X120965000Y-44985000D03*
X137195000Y-44985000D03*
X120965000Y-38635000D03*
X137195000Y-38635000D03*
X120965000Y-51335000D03*
X137195000Y-51335000D03*
D13*
X145200000Y-92487500D03*
X145200000Y-94312500D03*
D33*
X170127498Y-68400002D03*
X171852500Y-68400002D03*
D23*
X152400000Y-101200000D03*
D11*
X169668234Y-93200000D03*
D10*
X167128234Y-93200000D03*
D20*
X161862501Y-93000000D03*
X160137499Y-93000000D03*
D14*
X152000000Y-48594887D03*
D15*
X152000000Y-51094887D03*
D20*
X171862501Y-66600000D03*
X170137499Y-66600000D03*
X131862501Y-95800000D03*
X130137499Y-95800000D03*
D14*
X142200000Y-51005113D03*
D15*
X142200000Y-48505113D03*
D17*
X135312500Y-95800000D03*
X133487500Y-95800000D03*
D14*
X122800000Y-83900000D03*
D15*
X122800000Y-86400000D03*
D27*
X176037497Y-95250000D03*
X177862497Y-95250000D03*
D16*
X162800000Y-101912500D03*
X162800000Y-100087500D03*
D34*
X163600000Y-63800000D03*
X168600000Y-63800000D03*
X173600000Y-63800000D03*
X153550000Y-76300000D03*
X148550000Y-76300000D03*
X143550000Y-76300000D03*
X133600000Y-89900000D03*
X128600000Y-89900000D03*
X123600000Y-89900000D03*
X133600000Y-63800000D03*
X128600000Y-63800000D03*
X123600000Y-63800000D03*
X173600000Y-89900000D03*
X168600000Y-89900000D03*
X163600000Y-89900000D03*
D35*
X152400000Y-59800000D03*
X158000000Y-63400000D03*
X132800000Y-76800000D03*
X144000000Y-85600000D03*
X146600000Y-90000000D03*
X145800000Y-98000000D03*
X157000000Y-98000000D03*
X162600000Y-103800000D03*
X147800000Y-66000000D03*
X156000000Y-67800000D03*
X155600000Y-75200000D03*
X165600000Y-83400000D03*
X178800000Y-95400000D03*
X164400000Y-102800000D03*
X158000000Y-89200000D03*
X144600000Y-97400000D03*
X144000000Y-94600000D03*
X128800000Y-81200000D03*
X138400000Y-85800000D03*
X136600000Y-84000000D03*
X132000000Y-84800000D03*
X133800000Y-97000000D03*
X133200000Y-97800000D03*
X146000000Y-47400000D03*
X155600000Y-49000000D03*
M02*
