M48
; DRILL file {KiCad 8.0.1} date 2024-07-26T15:20:42+0500
; FORMAT={-:-/ absolute / metric / decimal}
; #@! TF.CreationDate,2024-07-26T15:20:42+05:00
; #@! TF.GenerationSoftware,Kicad,Pcbnew,8.0.1
; #@! TF.FileFunction,Plated,1,4,PTH
FMAT,2
METRIC
; #@! TA.AperFunction,Plated,PTH,ViaDrill
T1C0.300
; #@! TA.AperFunction,Plated,PTH,ComponentDrill
T2C0.600
; #@! TA.AperFunction,Plated,PTH,ComponentDrill
T3C0.750
; #@! TA.AperFunction,Plated,PTH,ComponentDrill
T4C0.800
; #@! TA.AperFunction,Plated,PTH,ComponentDrill
T5C1.000
; #@! TA.AperFunction,Plated,PTH,ComponentDrill
T6C1.100
; #@! TA.AperFunction,Plated,PTH,ComponentDrill
T7C1.300
; #@! TA.AperFunction,Plated,PTH,ComponentDrill
T8C1.400
; #@! TA.AperFunction,Plated,PTH,ComponentDrill
T9C2.500
%
G90
G05
T1
X128.8Y-81.2
X132.0Y-84.8
X132.8Y-76.8
X133.2Y-97.8
X133.8Y-97.0
X136.6Y-84.0
X138.4Y-85.8
X144.0Y-85.6
X144.0Y-94.6
X144.6Y-97.4
X145.8Y-98.0
X146.0Y-47.4
X146.6Y-90.0
X147.8Y-66.0
X152.4Y-59.8
X155.6Y-49.0
X155.6Y-75.2
X156.0Y-67.8
X157.0Y-98.0
X158.0Y-63.4
X158.0Y-89.2
X162.6Y-103.8
X164.4Y-102.8
X165.6Y-83.4
X178.8Y-95.4
T2
X167.18Y-70.99
X167.18Y-73.53
X167.18Y-76.07
X167.18Y-78.61
X174.8Y-70.99
X174.8Y-73.53
X174.8Y-76.07
X174.8Y-78.61
T3
X132.64Y-79.13
X132.64Y-80.4
X132.64Y-81.67
T4
X118.2Y-69.2
X118.2Y-71.74
X118.2Y-74.28
X122.8Y-83.9
X122.8Y-86.4
X140.72Y-80.2
X141.15Y-89.05
X141.15Y-91.59
X141.15Y-94.13
X141.305Y-61.8
X142.2Y-48.505
X142.2Y-51.005
X143.26Y-80.2
X143.805Y-61.8
X145.8Y-80.2
X146.505Y-70.2
X148.15Y-89.05
X148.15Y-91.59
X148.15Y-94.13
X148.45Y-63.45
X149.005Y-70.2
X150.195Y-84.6
X150.99Y-63.45
X152.0Y-48.595
X152.0Y-51.095
X152.695Y-84.6
X153.53Y-63.45
X154.2Y-89.12
X154.2Y-91.66
X154.2Y-94.2
X161.705Y-79.0
X161.905Y-73.0
X164.205Y-79.0
X164.405Y-73.0
X175.8Y-97.12
X175.8Y-99.66
X175.8Y-102.2
X176.5Y-91.0
X179.0Y-91.0
T5
X141.025Y-35.95
X141.025Y-38.49
T6
X123.8Y-68.204
X123.8Y-70.744
X127.2Y-68.4
X127.2Y-70.94
X130.6Y-68.204
X130.6Y-70.744
X134.2Y-68.4
X134.2Y-70.94
X137.8Y-68.204
X137.8Y-70.744
X155.6Y-39.128
X155.6Y-41.668
X167.128Y-93.2
X167.128Y-96.8
X169.668Y-93.2
X169.668Y-96.8
T7
X123.6Y-63.8
X123.6Y-89.9
X128.6Y-63.8
X128.6Y-89.9
X133.6Y-63.8
X133.6Y-89.9
X143.55Y-76.3
X148.55Y-76.3
X153.55Y-76.3
X163.6Y-63.8
X163.6Y-89.9
X168.6Y-63.8
X168.6Y-89.9
X173.6Y-63.8
X173.6Y-89.9
T8
X120.965Y-38.635
X120.965Y-44.985
X120.965Y-51.335
X137.195Y-38.635
X137.195Y-44.985
X137.195Y-51.335
X159.815Y-38.635
X159.815Y-44.985
X159.815Y-51.335
X176.045Y-38.635
X176.045Y-44.985
X176.045Y-51.335
T9
X119.4Y-101.2
X124.6Y-101.2
X130.029Y-101.2
X141.4Y-101.2
X142.2Y-56.0
X147.086Y-101.2
X152.4Y-101.2
X154.6Y-56.2
T5
X143.5Y-43.535G85X143.5Y-41.335
G05
X149.4Y-39.035G85X147.2Y-39.035
G05
X149.6Y-45.335G85X147.0Y-45.335
G05
M30
