%TF.GenerationSoftware,KiCad,Pcbnew,8.0.1*%
%TF.CreationDate,2024-07-26T15:20:45+05:00*%
%TF.ProjectId,Life_pedal,4c696665-5f70-4656-9461-6c2e6b696361,rev?*%
%TF.SameCoordinates,Original*%
%TF.FileFunction,Drillmap*%
%TF.FilePolarity,Positive*%
%FSLAX45Y45*%
G04 Gerber Fmt 4.5, Leading zero omitted, Abs format (unit mm)*
G04 Created by KiCad (PCBNEW 8.0.1) date 2024-07-26 15:20:45*
%MOMM*%
%LPD*%
G01*
G04 APERTURE LIST*
%ADD10C,0.050000*%
%ADD11C,0.200000*%
%ADD12C,0.100000*%
%ADD13C,0.110000*%
%ADD14C,0.130000*%
%ADD15C,0.140000*%
%ADD16C,0.250000*%
G04 APERTURE END LIST*
D10*
X11580000Y-3440000D02*
X18080000Y-3440000D01*
X18080000Y-10480000D01*
X11580000Y-10480000D01*
X11580000Y-3440000D01*
D11*
D12*
X12865000Y-8105000D02*
X12895000Y-8135000D01*
X12895000Y-8105000D02*
X12865000Y-8135000D01*
X13185000Y-8465000D02*
X13215000Y-8495000D01*
X13215000Y-8465000D02*
X13185000Y-8495000D01*
X13265000Y-7665000D02*
X13295000Y-7695000D01*
X13295000Y-7665000D02*
X13265000Y-7695000D01*
X13305000Y-9765000D02*
X13335000Y-9795000D01*
X13335000Y-9765000D02*
X13305000Y-9795000D01*
X13365000Y-9685000D02*
X13395000Y-9715000D01*
X13395000Y-9685000D02*
X13365000Y-9715000D01*
X13645000Y-8385000D02*
X13675000Y-8415000D01*
X13675000Y-8385000D02*
X13645000Y-8415000D01*
X13825000Y-8565000D02*
X13855000Y-8595000D01*
X13855000Y-8565000D02*
X13825000Y-8595000D01*
X14385000Y-8545000D02*
X14415000Y-8575000D01*
X14415000Y-8545000D02*
X14385000Y-8575000D01*
X14385000Y-9445000D02*
X14415000Y-9475000D01*
X14415000Y-9445000D02*
X14385000Y-9475000D01*
X14445000Y-9725000D02*
X14475000Y-9755000D01*
X14475000Y-9725000D02*
X14445000Y-9755000D01*
X14565000Y-9785000D02*
X14595000Y-9815000D01*
X14595000Y-9785000D02*
X14565000Y-9815000D01*
X14585000Y-4725000D02*
X14615000Y-4755000D01*
X14615000Y-4725000D02*
X14585000Y-4755000D01*
X14645000Y-8985000D02*
X14675000Y-9015000D01*
X14675000Y-8985000D02*
X14645000Y-9015000D01*
X14765000Y-6585000D02*
X14795000Y-6615000D01*
X14795000Y-6585000D02*
X14765000Y-6615000D01*
X15225000Y-5965000D02*
X15255000Y-5995000D01*
X15255000Y-5965000D02*
X15225000Y-5995000D01*
X15545000Y-4885000D02*
X15575000Y-4915000D01*
X15575000Y-4885000D02*
X15545000Y-4915000D01*
X15545000Y-7505000D02*
X15575000Y-7535000D01*
X15575000Y-7505000D02*
X15545000Y-7535000D01*
X15585000Y-6765000D02*
X15615000Y-6795000D01*
X15615000Y-6765000D02*
X15585000Y-6795000D01*
X15685000Y-9785000D02*
X15715000Y-9815000D01*
X15715000Y-9785000D02*
X15685000Y-9815000D01*
X15785000Y-6325000D02*
X15815000Y-6355000D01*
X15815000Y-6325000D02*
X15785000Y-6355000D01*
X15785000Y-8905000D02*
X15815000Y-8935000D01*
X15815000Y-8905000D02*
X15785000Y-8935000D01*
X16245000Y-10365000D02*
X16275000Y-10395000D01*
X16275000Y-10365000D02*
X16245000Y-10395000D01*
X16425000Y-10265000D02*
X16455000Y-10295000D01*
X16455000Y-10265000D02*
X16425000Y-10295000D01*
X16545000Y-8325000D02*
X16575000Y-8355000D01*
X16575000Y-8325000D02*
X16545000Y-8355000D01*
X17865000Y-9525000D02*
X17895000Y-9555000D01*
X17895000Y-9525000D02*
X17865000Y-9555000D01*
X16748000Y-7099000D02*
G75*
G02*
X16688000Y-7099000I-30000J0D01*
G01*
X16688000Y-7099000D02*
G75*
G02*
X16748000Y-7099000I30000J0D01*
G01*
X16748000Y-7353000D02*
G75*
G02*
X16688000Y-7353000I-30000J0D01*
G01*
X16688000Y-7353000D02*
G75*
G02*
X16748000Y-7353000I30000J0D01*
G01*
X16748000Y-7607000D02*
G75*
G02*
X16688000Y-7607000I-30000J0D01*
G01*
X16688000Y-7607000D02*
G75*
G02*
X16748000Y-7607000I30000J0D01*
G01*
X16748000Y-7861000D02*
G75*
G02*
X16688000Y-7861000I-30000J0D01*
G01*
X16688000Y-7861000D02*
G75*
G02*
X16748000Y-7861000I30000J0D01*
G01*
X17510000Y-7099000D02*
G75*
G02*
X17450000Y-7099000I-30000J0D01*
G01*
X17450000Y-7099000D02*
G75*
G02*
X17510000Y-7099000I30000J0D01*
G01*
X17510000Y-7353000D02*
G75*
G02*
X17450000Y-7353000I-30000J0D01*
G01*
X17450000Y-7353000D02*
G75*
G02*
X17510000Y-7353000I30000J0D01*
G01*
X17510000Y-7607000D02*
G75*
G02*
X17450000Y-7607000I-30000J0D01*
G01*
X17450000Y-7607000D02*
G75*
G02*
X17510000Y-7607000I30000J0D01*
G01*
X17510000Y-7861000D02*
G75*
G02*
X17450000Y-7861000I-30000J0D01*
G01*
X17450000Y-7861000D02*
G75*
G02*
X17510000Y-7861000I30000J0D01*
G01*
X13264000Y-7875500D02*
X13264000Y-7950500D01*
X13226500Y-7913000D02*
X13301500Y-7913000D01*
X13264000Y-8002500D02*
X13264000Y-8077500D01*
X13226500Y-8040000D02*
X13301500Y-8040000D01*
X13264000Y-8129500D02*
X13264000Y-8204500D01*
X13226500Y-8167000D02*
X13301500Y-8167000D01*
X11848284Y-6948284D02*
X11848284Y-6891715D01*
X11791715Y-6891715D01*
X11791715Y-6948284D01*
X11848284Y-6948284D01*
X11848284Y-7202284D02*
X11848284Y-7145715D01*
X11791715Y-7145715D01*
X11791715Y-7202284D01*
X11848284Y-7202284D01*
X11848284Y-7456284D02*
X11848284Y-7399715D01*
X11791715Y-7399715D01*
X11791715Y-7456284D01*
X11848284Y-7456284D01*
X12308284Y-8418285D02*
X12308284Y-8361715D01*
X12251715Y-8361715D01*
X12251715Y-8418285D01*
X12308284Y-8418285D01*
X12308284Y-8668285D02*
X12308284Y-8611716D01*
X12251715Y-8611716D01*
X12251715Y-8668285D01*
X12308284Y-8668285D01*
X14100284Y-8048284D02*
X14100284Y-7991715D01*
X14043715Y-7991715D01*
X14043715Y-8048284D01*
X14100284Y-8048284D01*
X14143284Y-8933285D02*
X14143284Y-8876716D01*
X14086715Y-8876716D01*
X14086715Y-8933285D01*
X14143284Y-8933285D01*
X14143284Y-9187285D02*
X14143284Y-9130716D01*
X14086715Y-9130716D01*
X14086715Y-9187285D01*
X14143284Y-9187285D01*
X14143284Y-9441284D02*
X14143284Y-9384715D01*
X14086715Y-9384715D01*
X14086715Y-9441284D01*
X14143284Y-9441284D01*
X14158796Y-6208284D02*
X14158796Y-6151715D01*
X14102227Y-6151715D01*
X14102227Y-6208284D01*
X14158796Y-6208284D01*
X14248284Y-4878796D02*
X14248284Y-4822227D01*
X14191715Y-4822227D01*
X14191715Y-4878796D01*
X14248284Y-4878796D01*
X14248284Y-5128796D02*
X14248284Y-5072227D01*
X14191715Y-5072227D01*
X14191715Y-5128796D01*
X14248284Y-5128796D01*
X14354284Y-8048284D02*
X14354284Y-7991715D01*
X14297715Y-7991715D01*
X14297715Y-8048284D01*
X14354284Y-8048284D01*
X14408796Y-6208284D02*
X14408796Y-6151715D01*
X14352227Y-6151715D01*
X14352227Y-6208284D01*
X14408796Y-6208284D01*
X14608284Y-8048284D02*
X14608284Y-7991715D01*
X14551715Y-7991715D01*
X14551715Y-8048284D01*
X14608284Y-8048284D01*
X14678796Y-7048284D02*
X14678796Y-6991715D01*
X14622227Y-6991715D01*
X14622227Y-7048284D01*
X14678796Y-7048284D01*
X14843284Y-8933285D02*
X14843284Y-8876716D01*
X14786715Y-8876716D01*
X14786715Y-8933285D01*
X14843284Y-8933285D01*
X14843284Y-9187285D02*
X14843284Y-9130716D01*
X14786715Y-9130716D01*
X14786715Y-9187285D01*
X14843284Y-9187285D01*
X14843284Y-9441284D02*
X14843284Y-9384715D01*
X14786715Y-9384715D01*
X14786715Y-9441284D01*
X14843284Y-9441284D01*
X14873284Y-6373284D02*
X14873284Y-6316715D01*
X14816715Y-6316715D01*
X14816715Y-6373284D01*
X14873284Y-6373284D01*
X14928796Y-7048284D02*
X14928796Y-6991715D01*
X14872227Y-6991715D01*
X14872227Y-7048284D01*
X14928796Y-7048284D01*
X15047773Y-8488285D02*
X15047773Y-8431716D01*
X14991204Y-8431716D01*
X14991204Y-8488285D01*
X15047773Y-8488285D01*
X15127284Y-6373284D02*
X15127284Y-6316715D01*
X15070715Y-6316715D01*
X15070715Y-6373284D01*
X15127284Y-6373284D01*
X15228284Y-4887773D02*
X15228284Y-4831204D01*
X15171715Y-4831204D01*
X15171715Y-4887773D01*
X15228284Y-4887773D01*
X15228284Y-5137773D02*
X15228284Y-5081204D01*
X15171715Y-5081204D01*
X15171715Y-5137773D01*
X15228284Y-5137773D01*
X15297773Y-8488285D02*
X15297773Y-8431716D01*
X15241204Y-8431716D01*
X15241204Y-8488285D01*
X15297773Y-8488285D01*
X15381284Y-6373284D02*
X15381284Y-6316715D01*
X15324715Y-6316715D01*
X15324715Y-6373284D01*
X15381284Y-6373284D01*
X15448284Y-8940285D02*
X15448284Y-8883716D01*
X15391715Y-8883716D01*
X15391715Y-8940285D01*
X15448284Y-8940285D01*
X15448284Y-9194285D02*
X15448284Y-9137716D01*
X15391715Y-9137716D01*
X15391715Y-9194285D01*
X15448284Y-9194285D01*
X15448284Y-9448285D02*
X15448284Y-9391716D01*
X15391715Y-9391716D01*
X15391715Y-9448285D01*
X15448284Y-9448285D01*
X16198796Y-7928284D02*
X16198796Y-7871715D01*
X16142227Y-7871715D01*
X16142227Y-7928284D01*
X16198796Y-7928284D01*
X16218796Y-7328284D02*
X16218796Y-7271715D01*
X16162227Y-7271715D01*
X16162227Y-7328284D01*
X16218796Y-7328284D01*
X16448796Y-7928284D02*
X16448796Y-7871715D01*
X16392227Y-7871715D01*
X16392227Y-7928284D01*
X16448796Y-7928284D01*
X16468796Y-7328284D02*
X16468796Y-7271715D01*
X16412227Y-7271715D01*
X16412227Y-7328284D01*
X16468796Y-7328284D01*
X17608285Y-9740285D02*
X17608285Y-9683716D01*
X17551716Y-9683716D01*
X17551716Y-9740285D01*
X17608285Y-9740285D01*
X17608285Y-9994285D02*
X17608285Y-9937716D01*
X17551716Y-9937716D01*
X17551716Y-9994285D01*
X17608285Y-9994285D01*
X17608285Y-10248285D02*
X17608285Y-10191716D01*
X17551716Y-10191716D01*
X17551716Y-10248285D01*
X17608285Y-10248285D01*
X17678285Y-9128285D02*
X17678285Y-9071716D01*
X17621716Y-9071716D01*
X17621716Y-9128285D01*
X17678285Y-9128285D01*
X17928285Y-9128285D02*
X17928285Y-9071716D01*
X17871716Y-9071716D01*
X17871716Y-9128285D01*
X17928285Y-9128285D01*
X14102500Y-3645000D02*
X14152500Y-3595000D01*
X14102500Y-3545000D01*
X14052500Y-3595000D01*
X14102500Y-3645000D01*
X14102500Y-3899000D02*
X14152500Y-3849000D01*
X14102500Y-3799000D01*
X14052500Y-3849000D01*
X14102500Y-3899000D01*
X14350000Y-4293500D02*
X14400000Y-4243500D01*
X14350000Y-4193500D01*
X14300000Y-4243500D01*
X14350000Y-4293500D01*
X14400000Y-4353500D02*
X14400000Y-4133500D01*
X14300000Y-4133500D02*
G75*
G02*
X14400000Y-4133500I50000J0D01*
G01*
X14300000Y-4133500D02*
X14300000Y-4353500D01*
X14300000Y-4353500D02*
G75*
G03*
X14400000Y-4353500I50000J0D01*
G01*
X14830000Y-3953500D02*
X14880000Y-3903500D01*
X14830000Y-3853500D01*
X14780000Y-3903500D01*
X14830000Y-3953500D01*
X14940000Y-3853500D02*
X14720000Y-3853500D01*
X14720000Y-3953500D02*
G75*
G02*
X14720000Y-3853500I0J50000D01*
G01*
X14720000Y-3953500D02*
X14940000Y-3953500D01*
X14940000Y-3953500D02*
G75*
G03*
X14940000Y-3853500I0J50000D01*
G01*
X14830000Y-4583500D02*
X14880000Y-4533500D01*
X14830000Y-4483500D01*
X14780000Y-4533500D01*
X14830000Y-4583500D01*
X14960000Y-4483500D02*
X14700000Y-4483500D01*
X14700000Y-4583500D02*
G75*
G02*
X14700000Y-4483500I0J50000D01*
G01*
X14700000Y-4583500D02*
X14960000Y-4583500D01*
X14960000Y-4583500D02*
G75*
G03*
X14960000Y-4483500I0J50000D01*
G01*
D13*
X12325000Y-6765353D02*
X12435000Y-6875353D01*
X12435000Y-6765353D02*
X12325000Y-6875353D01*
X12435000Y-6820353D02*
G75*
G02*
X12325000Y-6820353I-55000J0D01*
G01*
X12325000Y-6820353D02*
G75*
G02*
X12435000Y-6820353I55000J0D01*
G01*
X12325000Y-7019353D02*
X12435000Y-7129353D01*
X12435000Y-7019353D02*
X12325000Y-7129353D01*
X12435000Y-7074353D02*
G75*
G02*
X12325000Y-7074353I-55000J0D01*
G01*
X12325000Y-7074353D02*
G75*
G02*
X12435000Y-7074353I55000J0D01*
G01*
X12665000Y-6785000D02*
X12775000Y-6895000D01*
X12775000Y-6785000D02*
X12665000Y-6895000D01*
X12775000Y-6840000D02*
G75*
G02*
X12665000Y-6840000I-55000J0D01*
G01*
X12665000Y-6840000D02*
G75*
G02*
X12775000Y-6840000I55000J0D01*
G01*
X12665000Y-7039000D02*
X12775000Y-7149000D01*
X12775000Y-7039000D02*
X12665000Y-7149000D01*
X12775000Y-7094000D02*
G75*
G02*
X12665000Y-7094000I-55000J0D01*
G01*
X12665000Y-7094000D02*
G75*
G02*
X12775000Y-7094000I55000J0D01*
G01*
X13005000Y-6765353D02*
X13115000Y-6875353D01*
X13115000Y-6765353D02*
X13005000Y-6875353D01*
X13115000Y-6820353D02*
G75*
G02*
X13005000Y-6820353I-55000J0D01*
G01*
X13005000Y-6820353D02*
G75*
G02*
X13115000Y-6820353I55000J0D01*
G01*
X13005000Y-7019353D02*
X13115000Y-7129353D01*
X13115000Y-7019353D02*
X13005000Y-7129353D01*
X13115000Y-7074353D02*
G75*
G02*
X13005000Y-7074353I-55000J0D01*
G01*
X13005000Y-7074353D02*
G75*
G02*
X13115000Y-7074353I55000J0D01*
G01*
X13365000Y-6785000D02*
X13475000Y-6895000D01*
X13475000Y-6785000D02*
X13365000Y-6895000D01*
X13475000Y-6840000D02*
G75*
G02*
X13365000Y-6840000I-55000J0D01*
G01*
X13365000Y-6840000D02*
G75*
G02*
X13475000Y-6840000I55000J0D01*
G01*
X13365000Y-7039000D02*
X13475000Y-7149000D01*
X13475000Y-7039000D02*
X13365000Y-7149000D01*
X13475000Y-7094000D02*
G75*
G02*
X13365000Y-7094000I-55000J0D01*
G01*
X13365000Y-7094000D02*
G75*
G02*
X13475000Y-7094000I55000J0D01*
G01*
X13725000Y-6765353D02*
X13835000Y-6875353D01*
X13835000Y-6765353D02*
X13725000Y-6875353D01*
X13835000Y-6820353D02*
G75*
G02*
X13725000Y-6820353I-55000J0D01*
G01*
X13725000Y-6820353D02*
G75*
G02*
X13835000Y-6820353I55000J0D01*
G01*
X13725000Y-7019353D02*
X13835000Y-7129353D01*
X13835000Y-7019353D02*
X13725000Y-7129353D01*
X13835000Y-7074353D02*
G75*
G02*
X13725000Y-7074353I-55000J0D01*
G01*
X13725000Y-7074353D02*
G75*
G02*
X13835000Y-7074353I55000J0D01*
G01*
X15505000Y-3857823D02*
X15615000Y-3967823D01*
X15615000Y-3857823D02*
X15505000Y-3967823D01*
X15615000Y-3912823D02*
G75*
G02*
X15505000Y-3912823I-55000J0D01*
G01*
X15505000Y-3912823D02*
G75*
G02*
X15615000Y-3912823I55000J0D01*
G01*
X15505000Y-4111823D02*
X15615000Y-4221823D01*
X15615000Y-4111823D02*
X15505000Y-4221823D01*
X15615000Y-4166823D02*
G75*
G02*
X15505000Y-4166823I-55000J0D01*
G01*
X15505000Y-4166823D02*
G75*
G02*
X15615000Y-4166823I55000J0D01*
G01*
X16657823Y-9265000D02*
X16767823Y-9375000D01*
X16767823Y-9265000D02*
X16657823Y-9375000D01*
X16767823Y-9320000D02*
G75*
G02*
X16657823Y-9320000I-55000J0D01*
G01*
X16657823Y-9320000D02*
G75*
G02*
X16767823Y-9320000I55000J0D01*
G01*
X16657823Y-9625000D02*
X16767823Y-9735000D01*
X16767823Y-9625000D02*
X16657823Y-9735000D01*
X16767823Y-9680000D02*
G75*
G02*
X16657823Y-9680000I-55000J0D01*
G01*
X16657823Y-9680000D02*
G75*
G02*
X16767823Y-9680000I55000J0D01*
G01*
X16911823Y-9265000D02*
X17021823Y-9375000D01*
X17021823Y-9265000D02*
X16911823Y-9375000D01*
X17021823Y-9320000D02*
G75*
G02*
X16911823Y-9320000I-55000J0D01*
G01*
X16911823Y-9320000D02*
G75*
G02*
X17021823Y-9320000I55000J0D01*
G01*
X16911823Y-9625000D02*
X17021823Y-9735000D01*
X17021823Y-9625000D02*
X16911823Y-9735000D01*
X17021823Y-9680000D02*
G75*
G02*
X16911823Y-9680000I-55000J0D01*
G01*
X16911823Y-9680000D02*
G75*
G02*
X17021823Y-9680000I55000J0D01*
G01*
D14*
X12295000Y-6315000D02*
X12425000Y-6445000D01*
X12425000Y-6315000D02*
X12295000Y-6445000D01*
X12360000Y-6315000D02*
X12360000Y-6445000D01*
X12295000Y-6380000D02*
X12425000Y-6380000D01*
X12295000Y-8925000D02*
X12425000Y-9055000D01*
X12425000Y-8925000D02*
X12295000Y-9055000D01*
X12360000Y-8925000D02*
X12360000Y-9055000D01*
X12295000Y-8990000D02*
X12425000Y-8990000D01*
X12795000Y-6315000D02*
X12925000Y-6445000D01*
X12925000Y-6315000D02*
X12795000Y-6445000D01*
X12860000Y-6315000D02*
X12860000Y-6445000D01*
X12795000Y-6380000D02*
X12925000Y-6380000D01*
X12795000Y-8925000D02*
X12925000Y-9055000D01*
X12925000Y-8925000D02*
X12795000Y-9055000D01*
X12860000Y-8925000D02*
X12860000Y-9055000D01*
X12795000Y-8990000D02*
X12925000Y-8990000D01*
X13295000Y-6315000D02*
X13425000Y-6445000D01*
X13425000Y-6315000D02*
X13295000Y-6445000D01*
X13360000Y-6315000D02*
X13360000Y-6445000D01*
X13295000Y-6380000D02*
X13425000Y-6380000D01*
X13295000Y-8925000D02*
X13425000Y-9055000D01*
X13425000Y-8925000D02*
X13295000Y-9055000D01*
X13360000Y-8925000D02*
X13360000Y-9055000D01*
X13295000Y-8990000D02*
X13425000Y-8990000D01*
X14290000Y-7565000D02*
X14420000Y-7695000D01*
X14420000Y-7565000D02*
X14290000Y-7695000D01*
X14355000Y-7565000D02*
X14355000Y-7695000D01*
X14290000Y-7630000D02*
X14420000Y-7630000D01*
X14790000Y-7565000D02*
X14920000Y-7695000D01*
X14920000Y-7565000D02*
X14790000Y-7695000D01*
X14855000Y-7565000D02*
X14855000Y-7695000D01*
X14790000Y-7630000D02*
X14920000Y-7630000D01*
X15290000Y-7565000D02*
X15420000Y-7695000D01*
X15420000Y-7565000D02*
X15290000Y-7695000D01*
X15355000Y-7565000D02*
X15355000Y-7695000D01*
X15290000Y-7630000D02*
X15420000Y-7630000D01*
X16295000Y-6315000D02*
X16425000Y-6445000D01*
X16425000Y-6315000D02*
X16295000Y-6445000D01*
X16360000Y-6315000D02*
X16360000Y-6445000D01*
X16295000Y-6380000D02*
X16425000Y-6380000D01*
X16295000Y-8925000D02*
X16425000Y-9055000D01*
X16425000Y-8925000D02*
X16295000Y-9055000D01*
X16360000Y-8925000D02*
X16360000Y-9055000D01*
X16295000Y-8990000D02*
X16425000Y-8990000D01*
X16795000Y-6315000D02*
X16925000Y-6445000D01*
X16925000Y-6315000D02*
X16795000Y-6445000D01*
X16860000Y-6315000D02*
X16860000Y-6445000D01*
X16795000Y-6380000D02*
X16925000Y-6380000D01*
X16795000Y-8925000D02*
X16925000Y-9055000D01*
X16925000Y-8925000D02*
X16795000Y-9055000D01*
X16860000Y-8925000D02*
X16860000Y-9055000D01*
X16795000Y-8990000D02*
X16925000Y-8990000D01*
X17295000Y-6315000D02*
X17425000Y-6445000D01*
X17425000Y-6315000D02*
X17295000Y-6445000D01*
X17360000Y-6315000D02*
X17360000Y-6445000D01*
X17295000Y-6380000D02*
X17425000Y-6380000D01*
X17295000Y-8925000D02*
X17425000Y-9055000D01*
X17425000Y-8925000D02*
X17295000Y-9055000D01*
X17360000Y-8925000D02*
X17360000Y-9055000D01*
X17295000Y-8990000D02*
X17425000Y-8990000D01*
D15*
X12026500Y-3793500D02*
X12166500Y-3933500D01*
X12166500Y-3793500D02*
X12026500Y-3933500D01*
X12145998Y-3912998D02*
X12145998Y-3814002D01*
X12047002Y-3814002D01*
X12047002Y-3912998D01*
X12145998Y-3912998D01*
X12026500Y-4428500D02*
X12166500Y-4568500D01*
X12166500Y-4428500D02*
X12026500Y-4568500D01*
X12145998Y-4547998D02*
X12145998Y-4449002D01*
X12047002Y-4449002D01*
X12047002Y-4547998D01*
X12145998Y-4547998D01*
X12026500Y-5063500D02*
X12166500Y-5203500D01*
X12166500Y-5063500D02*
X12026500Y-5203500D01*
X12145998Y-5182998D02*
X12145998Y-5084002D01*
X12047002Y-5084002D01*
X12047002Y-5182998D01*
X12145998Y-5182998D01*
X13649500Y-3793500D02*
X13789500Y-3933500D01*
X13789500Y-3793500D02*
X13649500Y-3933500D01*
X13768998Y-3912998D02*
X13768998Y-3814002D01*
X13670002Y-3814002D01*
X13670002Y-3912998D01*
X13768998Y-3912998D01*
X13649500Y-4428500D02*
X13789500Y-4568500D01*
X13789500Y-4428500D02*
X13649500Y-4568500D01*
X13768998Y-4547998D02*
X13768998Y-4449002D01*
X13670002Y-4449002D01*
X13670002Y-4547998D01*
X13768998Y-4547998D01*
X13649500Y-5063500D02*
X13789500Y-5203500D01*
X13789500Y-5063500D02*
X13649500Y-5203500D01*
X13768998Y-5182998D02*
X13768998Y-5084002D01*
X13670002Y-5084002D01*
X13670002Y-5182998D01*
X13768998Y-5182998D01*
X15911500Y-3793500D02*
X16051500Y-3933500D01*
X16051500Y-3793500D02*
X15911500Y-3933500D01*
X16030998Y-3912998D02*
X16030998Y-3814002D01*
X15932002Y-3814002D01*
X15932002Y-3912998D01*
X16030998Y-3912998D01*
X15911500Y-4428500D02*
X16051500Y-4568500D01*
X16051500Y-4428500D02*
X15911500Y-4568500D01*
X16030998Y-4547998D02*
X16030998Y-4449002D01*
X15932002Y-4449002D01*
X15932002Y-4547998D01*
X16030998Y-4547998D01*
X15911500Y-5063500D02*
X16051500Y-5203500D01*
X16051500Y-5063500D02*
X15911500Y-5203500D01*
X16030998Y-5182998D02*
X16030998Y-5084002D01*
X15932002Y-5084002D01*
X15932002Y-5182998D01*
X16030998Y-5182998D01*
X17534500Y-3793500D02*
X17674500Y-3933500D01*
X17674500Y-3793500D02*
X17534500Y-3933500D01*
X17653998Y-3912998D02*
X17653998Y-3814002D01*
X17555002Y-3814002D01*
X17555002Y-3912998D01*
X17653998Y-3912998D01*
X17534500Y-4428500D02*
X17674500Y-4568500D01*
X17674500Y-4428500D02*
X17534500Y-4568500D01*
X17653998Y-4547998D02*
X17653998Y-4449002D01*
X17555002Y-4449002D01*
X17555002Y-4547998D01*
X17653998Y-4547998D01*
X17534500Y-5063500D02*
X17674500Y-5203500D01*
X17674500Y-5063500D02*
X17534500Y-5203500D01*
X17653998Y-5182998D02*
X17653998Y-5084002D01*
X17555002Y-5084002D01*
X17555002Y-5182998D01*
X17653998Y-5182998D01*
D16*
X11815000Y-9995000D02*
X12065000Y-10245000D01*
X12065000Y-9995000D02*
X11815000Y-10245000D01*
X11940000Y-10245000D02*
X12065000Y-10120000D01*
X11940000Y-9995000D01*
X11815000Y-10120000D01*
X11940000Y-10245000D01*
X12335000Y-9995000D02*
X12585000Y-10245000D01*
X12585000Y-9995000D02*
X12335000Y-10245000D01*
X12460000Y-10245000D02*
X12585000Y-10120000D01*
X12460000Y-9995000D01*
X12335000Y-10120000D01*
X12460000Y-10245000D01*
X12877857Y-9995000D02*
X13127857Y-10245000D01*
X13127857Y-9995000D02*
X12877857Y-10245000D01*
X13002857Y-10245000D02*
X13127857Y-10120000D01*
X13002857Y-9995000D01*
X12877857Y-10120000D01*
X13002857Y-10245000D01*
X14015000Y-9995000D02*
X14265000Y-10245000D01*
X14265000Y-9995000D02*
X14015000Y-10245000D01*
X14140000Y-10245000D02*
X14265000Y-10120000D01*
X14140000Y-9995000D01*
X14015000Y-10120000D01*
X14140000Y-10245000D01*
X14095000Y-5475000D02*
X14345000Y-5725000D01*
X14345000Y-5475000D02*
X14095000Y-5725000D01*
X14220000Y-5725000D02*
X14345000Y-5600000D01*
X14220000Y-5475000D01*
X14095000Y-5600000D01*
X14220000Y-5725000D01*
X14583571Y-9995000D02*
X14833571Y-10245000D01*
X14833571Y-9995000D02*
X14583571Y-10245000D01*
X14708571Y-10245000D02*
X14833571Y-10120000D01*
X14708571Y-9995000D01*
X14583571Y-10120000D01*
X14708571Y-10245000D01*
X15115000Y-9995000D02*
X15365000Y-10245000D01*
X15365000Y-9995000D02*
X15115000Y-10245000D01*
X15240000Y-10245000D02*
X15365000Y-10120000D01*
X15240000Y-9995000D01*
X15115000Y-10120000D01*
X15240000Y-10245000D01*
X15335000Y-5495000D02*
X15585000Y-5745000D01*
X15585000Y-5495000D02*
X15335000Y-5745000D01*
X15460000Y-5745000D02*
X15585000Y-5620000D01*
X15460000Y-5495000D01*
X15335000Y-5620000D01*
X15460000Y-5745000D01*
D11*
X11838277Y-10793984D02*
X11838277Y-10593984D01*
X11838277Y-10593984D02*
X11885896Y-10593984D01*
X11885896Y-10593984D02*
X11914467Y-10603508D01*
X11914467Y-10603508D02*
X11933515Y-10622555D01*
X11933515Y-10622555D02*
X11943039Y-10641603D01*
X11943039Y-10641603D02*
X11952562Y-10679698D01*
X11952562Y-10679698D02*
X11952562Y-10708270D01*
X11952562Y-10708270D02*
X11943039Y-10746365D01*
X11943039Y-10746365D02*
X11933515Y-10765412D01*
X11933515Y-10765412D02*
X11914467Y-10784460D01*
X11914467Y-10784460D02*
X11885896Y-10793984D01*
X11885896Y-10793984D02*
X11838277Y-10793984D01*
X12038277Y-10793984D02*
X12038277Y-10660650D01*
X12038277Y-10698746D02*
X12047801Y-10679698D01*
X12047801Y-10679698D02*
X12057324Y-10670174D01*
X12057324Y-10670174D02*
X12076372Y-10660650D01*
X12076372Y-10660650D02*
X12095420Y-10660650D01*
X12162086Y-10793984D02*
X12162086Y-10660650D01*
X12162086Y-10593984D02*
X12152562Y-10603508D01*
X12152562Y-10603508D02*
X12162086Y-10613031D01*
X12162086Y-10613031D02*
X12171610Y-10603508D01*
X12171610Y-10603508D02*
X12162086Y-10593984D01*
X12162086Y-10593984D02*
X12162086Y-10613031D01*
X12285896Y-10793984D02*
X12266848Y-10784460D01*
X12266848Y-10784460D02*
X12257324Y-10765412D01*
X12257324Y-10765412D02*
X12257324Y-10593984D01*
X12390658Y-10793984D02*
X12371610Y-10784460D01*
X12371610Y-10784460D02*
X12362086Y-10765412D01*
X12362086Y-10765412D02*
X12362086Y-10593984D01*
X12619229Y-10793984D02*
X12619229Y-10593984D01*
X12619229Y-10593984D02*
X12685896Y-10736841D01*
X12685896Y-10736841D02*
X12752562Y-10593984D01*
X12752562Y-10593984D02*
X12752562Y-10793984D01*
X12933515Y-10793984D02*
X12933515Y-10689222D01*
X12933515Y-10689222D02*
X12923991Y-10670174D01*
X12923991Y-10670174D02*
X12904943Y-10660650D01*
X12904943Y-10660650D02*
X12866848Y-10660650D01*
X12866848Y-10660650D02*
X12847801Y-10670174D01*
X12933515Y-10784460D02*
X12914467Y-10793984D01*
X12914467Y-10793984D02*
X12866848Y-10793984D01*
X12866848Y-10793984D02*
X12847801Y-10784460D01*
X12847801Y-10784460D02*
X12838277Y-10765412D01*
X12838277Y-10765412D02*
X12838277Y-10746365D01*
X12838277Y-10746365D02*
X12847801Y-10727317D01*
X12847801Y-10727317D02*
X12866848Y-10717793D01*
X12866848Y-10717793D02*
X12914467Y-10717793D01*
X12914467Y-10717793D02*
X12933515Y-10708270D01*
X13028753Y-10660650D02*
X13028753Y-10860650D01*
X13028753Y-10670174D02*
X13047801Y-10660650D01*
X13047801Y-10660650D02*
X13085896Y-10660650D01*
X13085896Y-10660650D02*
X13104943Y-10670174D01*
X13104943Y-10670174D02*
X13114467Y-10679698D01*
X13114467Y-10679698D02*
X13123991Y-10698746D01*
X13123991Y-10698746D02*
X13123991Y-10755889D01*
X13123991Y-10755889D02*
X13114467Y-10774936D01*
X13114467Y-10774936D02*
X13104943Y-10784460D01*
X13104943Y-10784460D02*
X13085896Y-10793984D01*
X13085896Y-10793984D02*
X13047801Y-10793984D01*
X13047801Y-10793984D02*
X13028753Y-10784460D01*
X13209705Y-10774936D02*
X13219229Y-10784460D01*
X13219229Y-10784460D02*
X13209705Y-10793984D01*
X13209705Y-10793984D02*
X13200182Y-10784460D01*
X13200182Y-10784460D02*
X13209705Y-10774936D01*
X13209705Y-10774936D02*
X13209705Y-10793984D01*
X13209705Y-10670174D02*
X13219229Y-10679698D01*
X13219229Y-10679698D02*
X13209705Y-10689222D01*
X13209705Y-10689222D02*
X13200182Y-10679698D01*
X13200182Y-10679698D02*
X13209705Y-10670174D01*
X13209705Y-10670174D02*
X13209705Y-10689222D01*
D12*
X11547500Y-11107500D02*
X11577500Y-11137500D01*
X11577500Y-11107500D02*
X11547500Y-11137500D01*
D11*
X11876372Y-11013984D02*
X11895420Y-11013984D01*
X11895420Y-11013984D02*
X11914467Y-11023508D01*
X11914467Y-11023508D02*
X11923991Y-11033031D01*
X11923991Y-11033031D02*
X11933515Y-11052079D01*
X11933515Y-11052079D02*
X11943039Y-11090174D01*
X11943039Y-11090174D02*
X11943039Y-11137793D01*
X11943039Y-11137793D02*
X11933515Y-11175889D01*
X11933515Y-11175889D02*
X11923991Y-11194936D01*
X11923991Y-11194936D02*
X11914467Y-11204460D01*
X11914467Y-11204460D02*
X11895420Y-11213984D01*
X11895420Y-11213984D02*
X11876372Y-11213984D01*
X11876372Y-11213984D02*
X11857324Y-11204460D01*
X11857324Y-11204460D02*
X11847801Y-11194936D01*
X11847801Y-11194936D02*
X11838277Y-11175889D01*
X11838277Y-11175889D02*
X11828753Y-11137793D01*
X11828753Y-11137793D02*
X11828753Y-11090174D01*
X11828753Y-11090174D02*
X11838277Y-11052079D01*
X11838277Y-11052079D02*
X11847801Y-11033031D01*
X11847801Y-11033031D02*
X11857324Y-11023508D01*
X11857324Y-11023508D02*
X11876372Y-11013984D01*
X12028753Y-11194936D02*
X12038277Y-11204460D01*
X12038277Y-11204460D02*
X12028753Y-11213984D01*
X12028753Y-11213984D02*
X12019229Y-11204460D01*
X12019229Y-11204460D02*
X12028753Y-11194936D01*
X12028753Y-11194936D02*
X12028753Y-11213984D01*
X12104943Y-11013984D02*
X12228753Y-11013984D01*
X12228753Y-11013984D02*
X12162086Y-11090174D01*
X12162086Y-11090174D02*
X12190658Y-11090174D01*
X12190658Y-11090174D02*
X12209705Y-11099698D01*
X12209705Y-11099698D02*
X12219229Y-11109222D01*
X12219229Y-11109222D02*
X12228753Y-11128270D01*
X12228753Y-11128270D02*
X12228753Y-11175889D01*
X12228753Y-11175889D02*
X12219229Y-11194936D01*
X12219229Y-11194936D02*
X12209705Y-11204460D01*
X12209705Y-11204460D02*
X12190658Y-11213984D01*
X12190658Y-11213984D02*
X12133515Y-11213984D01*
X12133515Y-11213984D02*
X12114467Y-11204460D01*
X12114467Y-11204460D02*
X12104943Y-11194936D01*
X12352562Y-11013984D02*
X12371610Y-11013984D01*
X12371610Y-11013984D02*
X12390658Y-11023508D01*
X12390658Y-11023508D02*
X12400182Y-11033031D01*
X12400182Y-11033031D02*
X12409705Y-11052079D01*
X12409705Y-11052079D02*
X12419229Y-11090174D01*
X12419229Y-11090174D02*
X12419229Y-11137793D01*
X12419229Y-11137793D02*
X12409705Y-11175889D01*
X12409705Y-11175889D02*
X12400182Y-11194936D01*
X12400182Y-11194936D02*
X12390658Y-11204460D01*
X12390658Y-11204460D02*
X12371610Y-11213984D01*
X12371610Y-11213984D02*
X12352562Y-11213984D01*
X12352562Y-11213984D02*
X12333515Y-11204460D01*
X12333515Y-11204460D02*
X12323991Y-11194936D01*
X12323991Y-11194936D02*
X12314467Y-11175889D01*
X12314467Y-11175889D02*
X12304943Y-11137793D01*
X12304943Y-11137793D02*
X12304943Y-11090174D01*
X12304943Y-11090174D02*
X12314467Y-11052079D01*
X12314467Y-11052079D02*
X12323991Y-11033031D01*
X12323991Y-11033031D02*
X12333515Y-11023508D01*
X12333515Y-11023508D02*
X12352562Y-11013984D01*
X12543039Y-11013984D02*
X12562086Y-11013984D01*
X12562086Y-11013984D02*
X12581134Y-11023508D01*
X12581134Y-11023508D02*
X12590658Y-11033031D01*
X12590658Y-11033031D02*
X12600182Y-11052079D01*
X12600182Y-11052079D02*
X12609705Y-11090174D01*
X12609705Y-11090174D02*
X12609705Y-11137793D01*
X12609705Y-11137793D02*
X12600182Y-11175889D01*
X12600182Y-11175889D02*
X12590658Y-11194936D01*
X12590658Y-11194936D02*
X12581134Y-11204460D01*
X12581134Y-11204460D02*
X12562086Y-11213984D01*
X12562086Y-11213984D02*
X12543039Y-11213984D01*
X12543039Y-11213984D02*
X12523991Y-11204460D01*
X12523991Y-11204460D02*
X12514467Y-11194936D01*
X12514467Y-11194936D02*
X12504943Y-11175889D01*
X12504943Y-11175889D02*
X12495420Y-11137793D01*
X12495420Y-11137793D02*
X12495420Y-11090174D01*
X12495420Y-11090174D02*
X12504943Y-11052079D01*
X12504943Y-11052079D02*
X12514467Y-11033031D01*
X12514467Y-11033031D02*
X12523991Y-11023508D01*
X12523991Y-11023508D02*
X12543039Y-11013984D01*
X12695420Y-11213984D02*
X12695420Y-11080650D01*
X12695420Y-11099698D02*
X12704943Y-11090174D01*
X12704943Y-11090174D02*
X12723991Y-11080650D01*
X12723991Y-11080650D02*
X12752563Y-11080650D01*
X12752563Y-11080650D02*
X12771610Y-11090174D01*
X12771610Y-11090174D02*
X12781134Y-11109222D01*
X12781134Y-11109222D02*
X12781134Y-11213984D01*
X12781134Y-11109222D02*
X12790658Y-11090174D01*
X12790658Y-11090174D02*
X12809705Y-11080650D01*
X12809705Y-11080650D02*
X12838277Y-11080650D01*
X12838277Y-11080650D02*
X12857324Y-11090174D01*
X12857324Y-11090174D02*
X12866848Y-11109222D01*
X12866848Y-11109222D02*
X12866848Y-11213984D01*
X12962086Y-11213984D02*
X12962086Y-11080650D01*
X12962086Y-11099698D02*
X12971610Y-11090174D01*
X12971610Y-11090174D02*
X12990658Y-11080650D01*
X12990658Y-11080650D02*
X13019229Y-11080650D01*
X13019229Y-11080650D02*
X13038277Y-11090174D01*
X13038277Y-11090174D02*
X13047801Y-11109222D01*
X13047801Y-11109222D02*
X13047801Y-11213984D01*
X13047801Y-11109222D02*
X13057324Y-11090174D01*
X13057324Y-11090174D02*
X13076372Y-11080650D01*
X13076372Y-11080650D02*
X13104943Y-11080650D01*
X13104943Y-11080650D02*
X13123991Y-11090174D01*
X13123991Y-11090174D02*
X13133515Y-11109222D01*
X13133515Y-11109222D02*
X13133515Y-11213984D01*
X13523991Y-11004460D02*
X13352563Y-11261603D01*
X13781134Y-11013984D02*
X13800182Y-11013984D01*
X13800182Y-11013984D02*
X13819229Y-11023508D01*
X13819229Y-11023508D02*
X13828753Y-11033031D01*
X13828753Y-11033031D02*
X13838277Y-11052079D01*
X13838277Y-11052079D02*
X13847801Y-11090174D01*
X13847801Y-11090174D02*
X13847801Y-11137793D01*
X13847801Y-11137793D02*
X13838277Y-11175889D01*
X13838277Y-11175889D02*
X13828753Y-11194936D01*
X13828753Y-11194936D02*
X13819229Y-11204460D01*
X13819229Y-11204460D02*
X13800182Y-11213984D01*
X13800182Y-11213984D02*
X13781134Y-11213984D01*
X13781134Y-11213984D02*
X13762086Y-11204460D01*
X13762086Y-11204460D02*
X13752563Y-11194936D01*
X13752563Y-11194936D02*
X13743039Y-11175889D01*
X13743039Y-11175889D02*
X13733515Y-11137793D01*
X13733515Y-11137793D02*
X13733515Y-11090174D01*
X13733515Y-11090174D02*
X13743039Y-11052079D01*
X13743039Y-11052079D02*
X13752563Y-11033031D01*
X13752563Y-11033031D02*
X13762086Y-11023508D01*
X13762086Y-11023508D02*
X13781134Y-11013984D01*
X13933515Y-11194936D02*
X13943039Y-11204460D01*
X13943039Y-11204460D02*
X13933515Y-11213984D01*
X13933515Y-11213984D02*
X13923991Y-11204460D01*
X13923991Y-11204460D02*
X13933515Y-11194936D01*
X13933515Y-11194936D02*
X13933515Y-11213984D01*
X14066848Y-11013984D02*
X14085896Y-11013984D01*
X14085896Y-11013984D02*
X14104944Y-11023508D01*
X14104944Y-11023508D02*
X14114467Y-11033031D01*
X14114467Y-11033031D02*
X14123991Y-11052079D01*
X14123991Y-11052079D02*
X14133515Y-11090174D01*
X14133515Y-11090174D02*
X14133515Y-11137793D01*
X14133515Y-11137793D02*
X14123991Y-11175889D01*
X14123991Y-11175889D02*
X14114467Y-11194936D01*
X14114467Y-11194936D02*
X14104944Y-11204460D01*
X14104944Y-11204460D02*
X14085896Y-11213984D01*
X14085896Y-11213984D02*
X14066848Y-11213984D01*
X14066848Y-11213984D02*
X14047801Y-11204460D01*
X14047801Y-11204460D02*
X14038277Y-11194936D01*
X14038277Y-11194936D02*
X14028753Y-11175889D01*
X14028753Y-11175889D02*
X14019229Y-11137793D01*
X14019229Y-11137793D02*
X14019229Y-11090174D01*
X14019229Y-11090174D02*
X14028753Y-11052079D01*
X14028753Y-11052079D02*
X14038277Y-11033031D01*
X14038277Y-11033031D02*
X14047801Y-11023508D01*
X14047801Y-11023508D02*
X14066848Y-11013984D01*
X14323991Y-11213984D02*
X14209706Y-11213984D01*
X14266848Y-11213984D02*
X14266848Y-11013984D01*
X14266848Y-11013984D02*
X14247801Y-11042555D01*
X14247801Y-11042555D02*
X14228753Y-11061603D01*
X14228753Y-11061603D02*
X14209706Y-11071127D01*
X14514467Y-11213984D02*
X14400182Y-11213984D01*
X14457325Y-11213984D02*
X14457325Y-11013984D01*
X14457325Y-11013984D02*
X14438277Y-11042555D01*
X14438277Y-11042555D02*
X14419229Y-11061603D01*
X14419229Y-11061603D02*
X14400182Y-11071127D01*
X14628753Y-11099698D02*
X14609706Y-11090174D01*
X14609706Y-11090174D02*
X14600182Y-11080650D01*
X14600182Y-11080650D02*
X14590658Y-11061603D01*
X14590658Y-11061603D02*
X14590658Y-11052079D01*
X14590658Y-11052079D02*
X14600182Y-11033031D01*
X14600182Y-11033031D02*
X14609706Y-11023508D01*
X14609706Y-11023508D02*
X14628753Y-11013984D01*
X14628753Y-11013984D02*
X14666848Y-11013984D01*
X14666848Y-11013984D02*
X14685896Y-11023508D01*
X14685896Y-11023508D02*
X14695420Y-11033031D01*
X14695420Y-11033031D02*
X14704944Y-11052079D01*
X14704944Y-11052079D02*
X14704944Y-11061603D01*
X14704944Y-11061603D02*
X14695420Y-11080650D01*
X14695420Y-11080650D02*
X14685896Y-11090174D01*
X14685896Y-11090174D02*
X14666848Y-11099698D01*
X14666848Y-11099698D02*
X14628753Y-11099698D01*
X14628753Y-11099698D02*
X14609706Y-11109222D01*
X14609706Y-11109222D02*
X14600182Y-11118746D01*
X14600182Y-11118746D02*
X14590658Y-11137793D01*
X14590658Y-11137793D02*
X14590658Y-11175889D01*
X14590658Y-11175889D02*
X14600182Y-11194936D01*
X14600182Y-11194936D02*
X14609706Y-11204460D01*
X14609706Y-11204460D02*
X14628753Y-11213984D01*
X14628753Y-11213984D02*
X14666848Y-11213984D01*
X14666848Y-11213984D02*
X14685896Y-11204460D01*
X14685896Y-11204460D02*
X14695420Y-11194936D01*
X14695420Y-11194936D02*
X14704944Y-11175889D01*
X14704944Y-11175889D02*
X14704944Y-11137793D01*
X14704944Y-11137793D02*
X14695420Y-11118746D01*
X14695420Y-11118746D02*
X14685896Y-11109222D01*
X14685896Y-11109222D02*
X14666848Y-11099698D01*
X14781134Y-11013984D02*
X14781134Y-11052079D01*
X14857325Y-11013984D02*
X14857325Y-11052079D01*
X15152563Y-11290174D02*
X15143039Y-11280650D01*
X15143039Y-11280650D02*
X15123991Y-11252079D01*
X15123991Y-11252079D02*
X15114468Y-11233031D01*
X15114468Y-11233031D02*
X15104944Y-11204460D01*
X15104944Y-11204460D02*
X15095420Y-11156841D01*
X15095420Y-11156841D02*
X15095420Y-11118746D01*
X15095420Y-11118746D02*
X15104944Y-11071127D01*
X15104944Y-11071127D02*
X15114468Y-11042555D01*
X15114468Y-11042555D02*
X15123991Y-11023508D01*
X15123991Y-11023508D02*
X15143039Y-10994936D01*
X15143039Y-10994936D02*
X15152563Y-10985412D01*
X15219229Y-11033031D02*
X15228753Y-11023508D01*
X15228753Y-11023508D02*
X15247801Y-11013984D01*
X15247801Y-11013984D02*
X15295420Y-11013984D01*
X15295420Y-11013984D02*
X15314468Y-11023508D01*
X15314468Y-11023508D02*
X15323991Y-11033031D01*
X15323991Y-11033031D02*
X15333515Y-11052079D01*
X15333515Y-11052079D02*
X15333515Y-11071127D01*
X15333515Y-11071127D02*
X15323991Y-11099698D01*
X15323991Y-11099698D02*
X15209706Y-11213984D01*
X15209706Y-11213984D02*
X15333515Y-11213984D01*
X15514468Y-11013984D02*
X15419229Y-11013984D01*
X15419229Y-11013984D02*
X15409706Y-11109222D01*
X15409706Y-11109222D02*
X15419229Y-11099698D01*
X15419229Y-11099698D02*
X15438277Y-11090174D01*
X15438277Y-11090174D02*
X15485896Y-11090174D01*
X15485896Y-11090174D02*
X15504944Y-11099698D01*
X15504944Y-11099698D02*
X15514468Y-11109222D01*
X15514468Y-11109222D02*
X15523991Y-11128270D01*
X15523991Y-11128270D02*
X15523991Y-11175889D01*
X15523991Y-11175889D02*
X15514468Y-11194936D01*
X15514468Y-11194936D02*
X15504944Y-11204460D01*
X15504944Y-11204460D02*
X15485896Y-11213984D01*
X15485896Y-11213984D02*
X15438277Y-11213984D01*
X15438277Y-11213984D02*
X15419229Y-11204460D01*
X15419229Y-11204460D02*
X15409706Y-11194936D01*
X15762087Y-11213984D02*
X15762087Y-11013984D01*
X15847801Y-11213984D02*
X15847801Y-11109222D01*
X15847801Y-11109222D02*
X15838277Y-11090174D01*
X15838277Y-11090174D02*
X15819230Y-11080650D01*
X15819230Y-11080650D02*
X15790658Y-11080650D01*
X15790658Y-11080650D02*
X15771610Y-11090174D01*
X15771610Y-11090174D02*
X15762087Y-11099698D01*
X15971610Y-11213984D02*
X15952563Y-11204460D01*
X15952563Y-11204460D02*
X15943039Y-11194936D01*
X15943039Y-11194936D02*
X15933515Y-11175889D01*
X15933515Y-11175889D02*
X15933515Y-11118746D01*
X15933515Y-11118746D02*
X15943039Y-11099698D01*
X15943039Y-11099698D02*
X15952563Y-11090174D01*
X15952563Y-11090174D02*
X15971610Y-11080650D01*
X15971610Y-11080650D02*
X16000182Y-11080650D01*
X16000182Y-11080650D02*
X16019230Y-11090174D01*
X16019230Y-11090174D02*
X16028753Y-11099698D01*
X16028753Y-11099698D02*
X16038277Y-11118746D01*
X16038277Y-11118746D02*
X16038277Y-11175889D01*
X16038277Y-11175889D02*
X16028753Y-11194936D01*
X16028753Y-11194936D02*
X16019230Y-11204460D01*
X16019230Y-11204460D02*
X16000182Y-11213984D01*
X16000182Y-11213984D02*
X15971610Y-11213984D01*
X16152563Y-11213984D02*
X16133515Y-11204460D01*
X16133515Y-11204460D02*
X16123991Y-11185412D01*
X16123991Y-11185412D02*
X16123991Y-11013984D01*
X16304944Y-11204460D02*
X16285896Y-11213984D01*
X16285896Y-11213984D02*
X16247801Y-11213984D01*
X16247801Y-11213984D02*
X16228753Y-11204460D01*
X16228753Y-11204460D02*
X16219230Y-11185412D01*
X16219230Y-11185412D02*
X16219230Y-11109222D01*
X16219230Y-11109222D02*
X16228753Y-11090174D01*
X16228753Y-11090174D02*
X16247801Y-11080650D01*
X16247801Y-11080650D02*
X16285896Y-11080650D01*
X16285896Y-11080650D02*
X16304944Y-11090174D01*
X16304944Y-11090174D02*
X16314468Y-11109222D01*
X16314468Y-11109222D02*
X16314468Y-11128270D01*
X16314468Y-11128270D02*
X16219230Y-11147317D01*
X16390658Y-11204460D02*
X16409706Y-11213984D01*
X16409706Y-11213984D02*
X16447801Y-11213984D01*
X16447801Y-11213984D02*
X16466849Y-11204460D01*
X16466849Y-11204460D02*
X16476372Y-11185412D01*
X16476372Y-11185412D02*
X16476372Y-11175889D01*
X16476372Y-11175889D02*
X16466849Y-11156841D01*
X16466849Y-11156841D02*
X16447801Y-11147317D01*
X16447801Y-11147317D02*
X16419230Y-11147317D01*
X16419230Y-11147317D02*
X16400182Y-11137793D01*
X16400182Y-11137793D02*
X16390658Y-11118746D01*
X16390658Y-11118746D02*
X16390658Y-11109222D01*
X16390658Y-11109222D02*
X16400182Y-11090174D01*
X16400182Y-11090174D02*
X16419230Y-11080650D01*
X16419230Y-11080650D02*
X16447801Y-11080650D01*
X16447801Y-11080650D02*
X16466849Y-11090174D01*
X16543039Y-11290174D02*
X16552563Y-11280650D01*
X16552563Y-11280650D02*
X16571611Y-11252079D01*
X16571611Y-11252079D02*
X16581134Y-11233031D01*
X16581134Y-11233031D02*
X16590658Y-11204460D01*
X16590658Y-11204460D02*
X16600182Y-11156841D01*
X16600182Y-11156841D02*
X16600182Y-11118746D01*
X16600182Y-11118746D02*
X16590658Y-11071127D01*
X16590658Y-11071127D02*
X16581134Y-11042555D01*
X16581134Y-11042555D02*
X16571611Y-11023508D01*
X16571611Y-11023508D02*
X16552563Y-10994936D01*
X16552563Y-10994936D02*
X16543039Y-10985412D01*
D12*
X11577500Y-11386500D02*
G75*
G02*
X11517500Y-11386500I-30000J0D01*
G01*
X11517500Y-11386500D02*
G75*
G02*
X11577500Y-11386500I30000J0D01*
G01*
D11*
X11876372Y-11277984D02*
X11895420Y-11277984D01*
X11895420Y-11277984D02*
X11914467Y-11287508D01*
X11914467Y-11287508D02*
X11923991Y-11297031D01*
X11923991Y-11297031D02*
X11933515Y-11316079D01*
X11933515Y-11316079D02*
X11943039Y-11354174D01*
X11943039Y-11354174D02*
X11943039Y-11401793D01*
X11943039Y-11401793D02*
X11933515Y-11439888D01*
X11933515Y-11439888D02*
X11923991Y-11458936D01*
X11923991Y-11458936D02*
X11914467Y-11468460D01*
X11914467Y-11468460D02*
X11895420Y-11477984D01*
X11895420Y-11477984D02*
X11876372Y-11477984D01*
X11876372Y-11477984D02*
X11857324Y-11468460D01*
X11857324Y-11468460D02*
X11847801Y-11458936D01*
X11847801Y-11458936D02*
X11838277Y-11439888D01*
X11838277Y-11439888D02*
X11828753Y-11401793D01*
X11828753Y-11401793D02*
X11828753Y-11354174D01*
X11828753Y-11354174D02*
X11838277Y-11316079D01*
X11838277Y-11316079D02*
X11847801Y-11297031D01*
X11847801Y-11297031D02*
X11857324Y-11287508D01*
X11857324Y-11287508D02*
X11876372Y-11277984D01*
X12028753Y-11458936D02*
X12038277Y-11468460D01*
X12038277Y-11468460D02*
X12028753Y-11477984D01*
X12028753Y-11477984D02*
X12019229Y-11468460D01*
X12019229Y-11468460D02*
X12028753Y-11458936D01*
X12028753Y-11458936D02*
X12028753Y-11477984D01*
X12209705Y-11277984D02*
X12171610Y-11277984D01*
X12171610Y-11277984D02*
X12152562Y-11287508D01*
X12152562Y-11287508D02*
X12143039Y-11297031D01*
X12143039Y-11297031D02*
X12123991Y-11325603D01*
X12123991Y-11325603D02*
X12114467Y-11363698D01*
X12114467Y-11363698D02*
X12114467Y-11439888D01*
X12114467Y-11439888D02*
X12123991Y-11458936D01*
X12123991Y-11458936D02*
X12133515Y-11468460D01*
X12133515Y-11468460D02*
X12152562Y-11477984D01*
X12152562Y-11477984D02*
X12190658Y-11477984D01*
X12190658Y-11477984D02*
X12209705Y-11468460D01*
X12209705Y-11468460D02*
X12219229Y-11458936D01*
X12219229Y-11458936D02*
X12228753Y-11439888D01*
X12228753Y-11439888D02*
X12228753Y-11392269D01*
X12228753Y-11392269D02*
X12219229Y-11373222D01*
X12219229Y-11373222D02*
X12209705Y-11363698D01*
X12209705Y-11363698D02*
X12190658Y-11354174D01*
X12190658Y-11354174D02*
X12152562Y-11354174D01*
X12152562Y-11354174D02*
X12133515Y-11363698D01*
X12133515Y-11363698D02*
X12123991Y-11373222D01*
X12123991Y-11373222D02*
X12114467Y-11392269D01*
X12352562Y-11277984D02*
X12371610Y-11277984D01*
X12371610Y-11277984D02*
X12390658Y-11287508D01*
X12390658Y-11287508D02*
X12400182Y-11297031D01*
X12400182Y-11297031D02*
X12409705Y-11316079D01*
X12409705Y-11316079D02*
X12419229Y-11354174D01*
X12419229Y-11354174D02*
X12419229Y-11401793D01*
X12419229Y-11401793D02*
X12409705Y-11439888D01*
X12409705Y-11439888D02*
X12400182Y-11458936D01*
X12400182Y-11458936D02*
X12390658Y-11468460D01*
X12390658Y-11468460D02*
X12371610Y-11477984D01*
X12371610Y-11477984D02*
X12352562Y-11477984D01*
X12352562Y-11477984D02*
X12333515Y-11468460D01*
X12333515Y-11468460D02*
X12323991Y-11458936D01*
X12323991Y-11458936D02*
X12314467Y-11439888D01*
X12314467Y-11439888D02*
X12304943Y-11401793D01*
X12304943Y-11401793D02*
X12304943Y-11354174D01*
X12304943Y-11354174D02*
X12314467Y-11316079D01*
X12314467Y-11316079D02*
X12323991Y-11297031D01*
X12323991Y-11297031D02*
X12333515Y-11287508D01*
X12333515Y-11287508D02*
X12352562Y-11277984D01*
X12543039Y-11277984D02*
X12562086Y-11277984D01*
X12562086Y-11277984D02*
X12581134Y-11287508D01*
X12581134Y-11287508D02*
X12590658Y-11297031D01*
X12590658Y-11297031D02*
X12600182Y-11316079D01*
X12600182Y-11316079D02*
X12609705Y-11354174D01*
X12609705Y-11354174D02*
X12609705Y-11401793D01*
X12609705Y-11401793D02*
X12600182Y-11439888D01*
X12600182Y-11439888D02*
X12590658Y-11458936D01*
X12590658Y-11458936D02*
X12581134Y-11468460D01*
X12581134Y-11468460D02*
X12562086Y-11477984D01*
X12562086Y-11477984D02*
X12543039Y-11477984D01*
X12543039Y-11477984D02*
X12523991Y-11468460D01*
X12523991Y-11468460D02*
X12514467Y-11458936D01*
X12514467Y-11458936D02*
X12504943Y-11439888D01*
X12504943Y-11439888D02*
X12495420Y-11401793D01*
X12495420Y-11401793D02*
X12495420Y-11354174D01*
X12495420Y-11354174D02*
X12504943Y-11316079D01*
X12504943Y-11316079D02*
X12514467Y-11297031D01*
X12514467Y-11297031D02*
X12523991Y-11287508D01*
X12523991Y-11287508D02*
X12543039Y-11277984D01*
X12695420Y-11477984D02*
X12695420Y-11344650D01*
X12695420Y-11363698D02*
X12704943Y-11354174D01*
X12704943Y-11354174D02*
X12723991Y-11344650D01*
X12723991Y-11344650D02*
X12752563Y-11344650D01*
X12752563Y-11344650D02*
X12771610Y-11354174D01*
X12771610Y-11354174D02*
X12781134Y-11373222D01*
X12781134Y-11373222D02*
X12781134Y-11477984D01*
X12781134Y-11373222D02*
X12790658Y-11354174D01*
X12790658Y-11354174D02*
X12809705Y-11344650D01*
X12809705Y-11344650D02*
X12838277Y-11344650D01*
X12838277Y-11344650D02*
X12857324Y-11354174D01*
X12857324Y-11354174D02*
X12866848Y-11373222D01*
X12866848Y-11373222D02*
X12866848Y-11477984D01*
X12962086Y-11477984D02*
X12962086Y-11344650D01*
X12962086Y-11363698D02*
X12971610Y-11354174D01*
X12971610Y-11354174D02*
X12990658Y-11344650D01*
X12990658Y-11344650D02*
X13019229Y-11344650D01*
X13019229Y-11344650D02*
X13038277Y-11354174D01*
X13038277Y-11354174D02*
X13047801Y-11373222D01*
X13047801Y-11373222D02*
X13047801Y-11477984D01*
X13047801Y-11373222D02*
X13057324Y-11354174D01*
X13057324Y-11354174D02*
X13076372Y-11344650D01*
X13076372Y-11344650D02*
X13104943Y-11344650D01*
X13104943Y-11344650D02*
X13123991Y-11354174D01*
X13123991Y-11354174D02*
X13133515Y-11373222D01*
X13133515Y-11373222D02*
X13133515Y-11477984D01*
X13523991Y-11268460D02*
X13352563Y-11525603D01*
X13781134Y-11277984D02*
X13800182Y-11277984D01*
X13800182Y-11277984D02*
X13819229Y-11287508D01*
X13819229Y-11287508D02*
X13828753Y-11297031D01*
X13828753Y-11297031D02*
X13838277Y-11316079D01*
X13838277Y-11316079D02*
X13847801Y-11354174D01*
X13847801Y-11354174D02*
X13847801Y-11401793D01*
X13847801Y-11401793D02*
X13838277Y-11439888D01*
X13838277Y-11439888D02*
X13828753Y-11458936D01*
X13828753Y-11458936D02*
X13819229Y-11468460D01*
X13819229Y-11468460D02*
X13800182Y-11477984D01*
X13800182Y-11477984D02*
X13781134Y-11477984D01*
X13781134Y-11477984D02*
X13762086Y-11468460D01*
X13762086Y-11468460D02*
X13752563Y-11458936D01*
X13752563Y-11458936D02*
X13743039Y-11439888D01*
X13743039Y-11439888D02*
X13733515Y-11401793D01*
X13733515Y-11401793D02*
X13733515Y-11354174D01*
X13733515Y-11354174D02*
X13743039Y-11316079D01*
X13743039Y-11316079D02*
X13752563Y-11297031D01*
X13752563Y-11297031D02*
X13762086Y-11287508D01*
X13762086Y-11287508D02*
X13781134Y-11277984D01*
X13933515Y-11458936D02*
X13943039Y-11468460D01*
X13943039Y-11468460D02*
X13933515Y-11477984D01*
X13933515Y-11477984D02*
X13923991Y-11468460D01*
X13923991Y-11468460D02*
X13933515Y-11458936D01*
X13933515Y-11458936D02*
X13933515Y-11477984D01*
X14066848Y-11277984D02*
X14085896Y-11277984D01*
X14085896Y-11277984D02*
X14104944Y-11287508D01*
X14104944Y-11287508D02*
X14114467Y-11297031D01*
X14114467Y-11297031D02*
X14123991Y-11316079D01*
X14123991Y-11316079D02*
X14133515Y-11354174D01*
X14133515Y-11354174D02*
X14133515Y-11401793D01*
X14133515Y-11401793D02*
X14123991Y-11439888D01*
X14123991Y-11439888D02*
X14114467Y-11458936D01*
X14114467Y-11458936D02*
X14104944Y-11468460D01*
X14104944Y-11468460D02*
X14085896Y-11477984D01*
X14085896Y-11477984D02*
X14066848Y-11477984D01*
X14066848Y-11477984D02*
X14047801Y-11468460D01*
X14047801Y-11468460D02*
X14038277Y-11458936D01*
X14038277Y-11458936D02*
X14028753Y-11439888D01*
X14028753Y-11439888D02*
X14019229Y-11401793D01*
X14019229Y-11401793D02*
X14019229Y-11354174D01*
X14019229Y-11354174D02*
X14028753Y-11316079D01*
X14028753Y-11316079D02*
X14038277Y-11297031D01*
X14038277Y-11297031D02*
X14047801Y-11287508D01*
X14047801Y-11287508D02*
X14066848Y-11277984D01*
X14209706Y-11297031D02*
X14219229Y-11287508D01*
X14219229Y-11287508D02*
X14238277Y-11277984D01*
X14238277Y-11277984D02*
X14285896Y-11277984D01*
X14285896Y-11277984D02*
X14304944Y-11287508D01*
X14304944Y-11287508D02*
X14314467Y-11297031D01*
X14314467Y-11297031D02*
X14323991Y-11316079D01*
X14323991Y-11316079D02*
X14323991Y-11335127D01*
X14323991Y-11335127D02*
X14314467Y-11363698D01*
X14314467Y-11363698D02*
X14200182Y-11477984D01*
X14200182Y-11477984D02*
X14323991Y-11477984D01*
X14390658Y-11277984D02*
X14514467Y-11277984D01*
X14514467Y-11277984D02*
X14447801Y-11354174D01*
X14447801Y-11354174D02*
X14476372Y-11354174D01*
X14476372Y-11354174D02*
X14495420Y-11363698D01*
X14495420Y-11363698D02*
X14504944Y-11373222D01*
X14504944Y-11373222D02*
X14514467Y-11392269D01*
X14514467Y-11392269D02*
X14514467Y-11439888D01*
X14514467Y-11439888D02*
X14504944Y-11458936D01*
X14504944Y-11458936D02*
X14495420Y-11468460D01*
X14495420Y-11468460D02*
X14476372Y-11477984D01*
X14476372Y-11477984D02*
X14419229Y-11477984D01*
X14419229Y-11477984D02*
X14400182Y-11468460D01*
X14400182Y-11468460D02*
X14390658Y-11458936D01*
X14685896Y-11277984D02*
X14647801Y-11277984D01*
X14647801Y-11277984D02*
X14628753Y-11287508D01*
X14628753Y-11287508D02*
X14619229Y-11297031D01*
X14619229Y-11297031D02*
X14600182Y-11325603D01*
X14600182Y-11325603D02*
X14590658Y-11363698D01*
X14590658Y-11363698D02*
X14590658Y-11439888D01*
X14590658Y-11439888D02*
X14600182Y-11458936D01*
X14600182Y-11458936D02*
X14609706Y-11468460D01*
X14609706Y-11468460D02*
X14628753Y-11477984D01*
X14628753Y-11477984D02*
X14666848Y-11477984D01*
X14666848Y-11477984D02*
X14685896Y-11468460D01*
X14685896Y-11468460D02*
X14695420Y-11458936D01*
X14695420Y-11458936D02*
X14704944Y-11439888D01*
X14704944Y-11439888D02*
X14704944Y-11392269D01*
X14704944Y-11392269D02*
X14695420Y-11373222D01*
X14695420Y-11373222D02*
X14685896Y-11363698D01*
X14685896Y-11363698D02*
X14666848Y-11354174D01*
X14666848Y-11354174D02*
X14628753Y-11354174D01*
X14628753Y-11354174D02*
X14609706Y-11363698D01*
X14609706Y-11363698D02*
X14600182Y-11373222D01*
X14600182Y-11373222D02*
X14590658Y-11392269D01*
X14781134Y-11277984D02*
X14781134Y-11316079D01*
X14857325Y-11277984D02*
X14857325Y-11316079D01*
X15152563Y-11554174D02*
X15143039Y-11544650D01*
X15143039Y-11544650D02*
X15123991Y-11516079D01*
X15123991Y-11516079D02*
X15114468Y-11497031D01*
X15114468Y-11497031D02*
X15104944Y-11468460D01*
X15104944Y-11468460D02*
X15095420Y-11420841D01*
X15095420Y-11420841D02*
X15095420Y-11382746D01*
X15095420Y-11382746D02*
X15104944Y-11335127D01*
X15104944Y-11335127D02*
X15114468Y-11306555D01*
X15114468Y-11306555D02*
X15123991Y-11287508D01*
X15123991Y-11287508D02*
X15143039Y-11258936D01*
X15143039Y-11258936D02*
X15152563Y-11249412D01*
X15257325Y-11363698D02*
X15238277Y-11354174D01*
X15238277Y-11354174D02*
X15228753Y-11344650D01*
X15228753Y-11344650D02*
X15219229Y-11325603D01*
X15219229Y-11325603D02*
X15219229Y-11316079D01*
X15219229Y-11316079D02*
X15228753Y-11297031D01*
X15228753Y-11297031D02*
X15238277Y-11287508D01*
X15238277Y-11287508D02*
X15257325Y-11277984D01*
X15257325Y-11277984D02*
X15295420Y-11277984D01*
X15295420Y-11277984D02*
X15314468Y-11287508D01*
X15314468Y-11287508D02*
X15323991Y-11297031D01*
X15323991Y-11297031D02*
X15333515Y-11316079D01*
X15333515Y-11316079D02*
X15333515Y-11325603D01*
X15333515Y-11325603D02*
X15323991Y-11344650D01*
X15323991Y-11344650D02*
X15314468Y-11354174D01*
X15314468Y-11354174D02*
X15295420Y-11363698D01*
X15295420Y-11363698D02*
X15257325Y-11363698D01*
X15257325Y-11363698D02*
X15238277Y-11373222D01*
X15238277Y-11373222D02*
X15228753Y-11382746D01*
X15228753Y-11382746D02*
X15219229Y-11401793D01*
X15219229Y-11401793D02*
X15219229Y-11439888D01*
X15219229Y-11439888D02*
X15228753Y-11458936D01*
X15228753Y-11458936D02*
X15238277Y-11468460D01*
X15238277Y-11468460D02*
X15257325Y-11477984D01*
X15257325Y-11477984D02*
X15295420Y-11477984D01*
X15295420Y-11477984D02*
X15314468Y-11468460D01*
X15314468Y-11468460D02*
X15323991Y-11458936D01*
X15323991Y-11458936D02*
X15333515Y-11439888D01*
X15333515Y-11439888D02*
X15333515Y-11401793D01*
X15333515Y-11401793D02*
X15323991Y-11382746D01*
X15323991Y-11382746D02*
X15314468Y-11373222D01*
X15314468Y-11373222D02*
X15295420Y-11363698D01*
X15571610Y-11477984D02*
X15571610Y-11277984D01*
X15657325Y-11477984D02*
X15657325Y-11373222D01*
X15657325Y-11373222D02*
X15647801Y-11354174D01*
X15647801Y-11354174D02*
X15628753Y-11344650D01*
X15628753Y-11344650D02*
X15600182Y-11344650D01*
X15600182Y-11344650D02*
X15581134Y-11354174D01*
X15581134Y-11354174D02*
X15571610Y-11363698D01*
X15781134Y-11477984D02*
X15762087Y-11468460D01*
X15762087Y-11468460D02*
X15752563Y-11458936D01*
X15752563Y-11458936D02*
X15743039Y-11439888D01*
X15743039Y-11439888D02*
X15743039Y-11382746D01*
X15743039Y-11382746D02*
X15752563Y-11363698D01*
X15752563Y-11363698D02*
X15762087Y-11354174D01*
X15762087Y-11354174D02*
X15781134Y-11344650D01*
X15781134Y-11344650D02*
X15809706Y-11344650D01*
X15809706Y-11344650D02*
X15828753Y-11354174D01*
X15828753Y-11354174D02*
X15838277Y-11363698D01*
X15838277Y-11363698D02*
X15847801Y-11382746D01*
X15847801Y-11382746D02*
X15847801Y-11439888D01*
X15847801Y-11439888D02*
X15838277Y-11458936D01*
X15838277Y-11458936D02*
X15828753Y-11468460D01*
X15828753Y-11468460D02*
X15809706Y-11477984D01*
X15809706Y-11477984D02*
X15781134Y-11477984D01*
X15962087Y-11477984D02*
X15943039Y-11468460D01*
X15943039Y-11468460D02*
X15933515Y-11449412D01*
X15933515Y-11449412D02*
X15933515Y-11277984D01*
X16114468Y-11468460D02*
X16095420Y-11477984D01*
X16095420Y-11477984D02*
X16057325Y-11477984D01*
X16057325Y-11477984D02*
X16038277Y-11468460D01*
X16038277Y-11468460D02*
X16028753Y-11449412D01*
X16028753Y-11449412D02*
X16028753Y-11373222D01*
X16028753Y-11373222D02*
X16038277Y-11354174D01*
X16038277Y-11354174D02*
X16057325Y-11344650D01*
X16057325Y-11344650D02*
X16095420Y-11344650D01*
X16095420Y-11344650D02*
X16114468Y-11354174D01*
X16114468Y-11354174D02*
X16123991Y-11373222D01*
X16123991Y-11373222D02*
X16123991Y-11392269D01*
X16123991Y-11392269D02*
X16028753Y-11411317D01*
X16200182Y-11468460D02*
X16219230Y-11477984D01*
X16219230Y-11477984D02*
X16257325Y-11477984D01*
X16257325Y-11477984D02*
X16276372Y-11468460D01*
X16276372Y-11468460D02*
X16285896Y-11449412D01*
X16285896Y-11449412D02*
X16285896Y-11439888D01*
X16285896Y-11439888D02*
X16276372Y-11420841D01*
X16276372Y-11420841D02*
X16257325Y-11411317D01*
X16257325Y-11411317D02*
X16228753Y-11411317D01*
X16228753Y-11411317D02*
X16209706Y-11401793D01*
X16209706Y-11401793D02*
X16200182Y-11382746D01*
X16200182Y-11382746D02*
X16200182Y-11373222D01*
X16200182Y-11373222D02*
X16209706Y-11354174D01*
X16209706Y-11354174D02*
X16228753Y-11344650D01*
X16228753Y-11344650D02*
X16257325Y-11344650D01*
X16257325Y-11344650D02*
X16276372Y-11354174D01*
X16352563Y-11554174D02*
X16362087Y-11544650D01*
X16362087Y-11544650D02*
X16381134Y-11516079D01*
X16381134Y-11516079D02*
X16390658Y-11497031D01*
X16390658Y-11497031D02*
X16400182Y-11468460D01*
X16400182Y-11468460D02*
X16409706Y-11420841D01*
X16409706Y-11420841D02*
X16409706Y-11382746D01*
X16409706Y-11382746D02*
X16400182Y-11335127D01*
X16400182Y-11335127D02*
X16390658Y-11306555D01*
X16390658Y-11306555D02*
X16381134Y-11287508D01*
X16381134Y-11287508D02*
X16362087Y-11258936D01*
X16362087Y-11258936D02*
X16352563Y-11249412D01*
D12*
X11540000Y-11613000D02*
X11540000Y-11688000D01*
X11502500Y-11650500D02*
X11577500Y-11650500D01*
D11*
X11876372Y-11541984D02*
X11895420Y-11541984D01*
X11895420Y-11541984D02*
X11914467Y-11551508D01*
X11914467Y-11551508D02*
X11923991Y-11561031D01*
X11923991Y-11561031D02*
X11933515Y-11580079D01*
X11933515Y-11580079D02*
X11943039Y-11618174D01*
X11943039Y-11618174D02*
X11943039Y-11665793D01*
X11943039Y-11665793D02*
X11933515Y-11703888D01*
X11933515Y-11703888D02*
X11923991Y-11722936D01*
X11923991Y-11722936D02*
X11914467Y-11732460D01*
X11914467Y-11732460D02*
X11895420Y-11741984D01*
X11895420Y-11741984D02*
X11876372Y-11741984D01*
X11876372Y-11741984D02*
X11857324Y-11732460D01*
X11857324Y-11732460D02*
X11847801Y-11722936D01*
X11847801Y-11722936D02*
X11838277Y-11703888D01*
X11838277Y-11703888D02*
X11828753Y-11665793D01*
X11828753Y-11665793D02*
X11828753Y-11618174D01*
X11828753Y-11618174D02*
X11838277Y-11580079D01*
X11838277Y-11580079D02*
X11847801Y-11561031D01*
X11847801Y-11561031D02*
X11857324Y-11551508D01*
X11857324Y-11551508D02*
X11876372Y-11541984D01*
X12028753Y-11722936D02*
X12038277Y-11732460D01*
X12038277Y-11732460D02*
X12028753Y-11741984D01*
X12028753Y-11741984D02*
X12019229Y-11732460D01*
X12019229Y-11732460D02*
X12028753Y-11722936D01*
X12028753Y-11722936D02*
X12028753Y-11741984D01*
X12104943Y-11541984D02*
X12238277Y-11541984D01*
X12238277Y-11541984D02*
X12152562Y-11741984D01*
X12409705Y-11541984D02*
X12314467Y-11541984D01*
X12314467Y-11541984D02*
X12304943Y-11637222D01*
X12304943Y-11637222D02*
X12314467Y-11627698D01*
X12314467Y-11627698D02*
X12333515Y-11618174D01*
X12333515Y-11618174D02*
X12381134Y-11618174D01*
X12381134Y-11618174D02*
X12400182Y-11627698D01*
X12400182Y-11627698D02*
X12409705Y-11637222D01*
X12409705Y-11637222D02*
X12419229Y-11656269D01*
X12419229Y-11656269D02*
X12419229Y-11703888D01*
X12419229Y-11703888D02*
X12409705Y-11722936D01*
X12409705Y-11722936D02*
X12400182Y-11732460D01*
X12400182Y-11732460D02*
X12381134Y-11741984D01*
X12381134Y-11741984D02*
X12333515Y-11741984D01*
X12333515Y-11741984D02*
X12314467Y-11732460D01*
X12314467Y-11732460D02*
X12304943Y-11722936D01*
X12543039Y-11541984D02*
X12562086Y-11541984D01*
X12562086Y-11541984D02*
X12581134Y-11551508D01*
X12581134Y-11551508D02*
X12590658Y-11561031D01*
X12590658Y-11561031D02*
X12600182Y-11580079D01*
X12600182Y-11580079D02*
X12609705Y-11618174D01*
X12609705Y-11618174D02*
X12609705Y-11665793D01*
X12609705Y-11665793D02*
X12600182Y-11703888D01*
X12600182Y-11703888D02*
X12590658Y-11722936D01*
X12590658Y-11722936D02*
X12581134Y-11732460D01*
X12581134Y-11732460D02*
X12562086Y-11741984D01*
X12562086Y-11741984D02*
X12543039Y-11741984D01*
X12543039Y-11741984D02*
X12523991Y-11732460D01*
X12523991Y-11732460D02*
X12514467Y-11722936D01*
X12514467Y-11722936D02*
X12504943Y-11703888D01*
X12504943Y-11703888D02*
X12495420Y-11665793D01*
X12495420Y-11665793D02*
X12495420Y-11618174D01*
X12495420Y-11618174D02*
X12504943Y-11580079D01*
X12504943Y-11580079D02*
X12514467Y-11561031D01*
X12514467Y-11561031D02*
X12523991Y-11551508D01*
X12523991Y-11551508D02*
X12543039Y-11541984D01*
X12695420Y-11741984D02*
X12695420Y-11608650D01*
X12695420Y-11627698D02*
X12704943Y-11618174D01*
X12704943Y-11618174D02*
X12723991Y-11608650D01*
X12723991Y-11608650D02*
X12752563Y-11608650D01*
X12752563Y-11608650D02*
X12771610Y-11618174D01*
X12771610Y-11618174D02*
X12781134Y-11637222D01*
X12781134Y-11637222D02*
X12781134Y-11741984D01*
X12781134Y-11637222D02*
X12790658Y-11618174D01*
X12790658Y-11618174D02*
X12809705Y-11608650D01*
X12809705Y-11608650D02*
X12838277Y-11608650D01*
X12838277Y-11608650D02*
X12857324Y-11618174D01*
X12857324Y-11618174D02*
X12866848Y-11637222D01*
X12866848Y-11637222D02*
X12866848Y-11741984D01*
X12962086Y-11741984D02*
X12962086Y-11608650D01*
X12962086Y-11627698D02*
X12971610Y-11618174D01*
X12971610Y-11618174D02*
X12990658Y-11608650D01*
X12990658Y-11608650D02*
X13019229Y-11608650D01*
X13019229Y-11608650D02*
X13038277Y-11618174D01*
X13038277Y-11618174D02*
X13047801Y-11637222D01*
X13047801Y-11637222D02*
X13047801Y-11741984D01*
X13047801Y-11637222D02*
X13057324Y-11618174D01*
X13057324Y-11618174D02*
X13076372Y-11608650D01*
X13076372Y-11608650D02*
X13104943Y-11608650D01*
X13104943Y-11608650D02*
X13123991Y-11618174D01*
X13123991Y-11618174D02*
X13133515Y-11637222D01*
X13133515Y-11637222D02*
X13133515Y-11741984D01*
X13523991Y-11532460D02*
X13352563Y-11789603D01*
X13781134Y-11541984D02*
X13800182Y-11541984D01*
X13800182Y-11541984D02*
X13819229Y-11551508D01*
X13819229Y-11551508D02*
X13828753Y-11561031D01*
X13828753Y-11561031D02*
X13838277Y-11580079D01*
X13838277Y-11580079D02*
X13847801Y-11618174D01*
X13847801Y-11618174D02*
X13847801Y-11665793D01*
X13847801Y-11665793D02*
X13838277Y-11703888D01*
X13838277Y-11703888D02*
X13828753Y-11722936D01*
X13828753Y-11722936D02*
X13819229Y-11732460D01*
X13819229Y-11732460D02*
X13800182Y-11741984D01*
X13800182Y-11741984D02*
X13781134Y-11741984D01*
X13781134Y-11741984D02*
X13762086Y-11732460D01*
X13762086Y-11732460D02*
X13752563Y-11722936D01*
X13752563Y-11722936D02*
X13743039Y-11703888D01*
X13743039Y-11703888D02*
X13733515Y-11665793D01*
X13733515Y-11665793D02*
X13733515Y-11618174D01*
X13733515Y-11618174D02*
X13743039Y-11580079D01*
X13743039Y-11580079D02*
X13752563Y-11561031D01*
X13752563Y-11561031D02*
X13762086Y-11551508D01*
X13762086Y-11551508D02*
X13781134Y-11541984D01*
X13933515Y-11722936D02*
X13943039Y-11732460D01*
X13943039Y-11732460D02*
X13933515Y-11741984D01*
X13933515Y-11741984D02*
X13923991Y-11732460D01*
X13923991Y-11732460D02*
X13933515Y-11722936D01*
X13933515Y-11722936D02*
X13933515Y-11741984D01*
X14066848Y-11541984D02*
X14085896Y-11541984D01*
X14085896Y-11541984D02*
X14104944Y-11551508D01*
X14104944Y-11551508D02*
X14114467Y-11561031D01*
X14114467Y-11561031D02*
X14123991Y-11580079D01*
X14123991Y-11580079D02*
X14133515Y-11618174D01*
X14133515Y-11618174D02*
X14133515Y-11665793D01*
X14133515Y-11665793D02*
X14123991Y-11703888D01*
X14123991Y-11703888D02*
X14114467Y-11722936D01*
X14114467Y-11722936D02*
X14104944Y-11732460D01*
X14104944Y-11732460D02*
X14085896Y-11741984D01*
X14085896Y-11741984D02*
X14066848Y-11741984D01*
X14066848Y-11741984D02*
X14047801Y-11732460D01*
X14047801Y-11732460D02*
X14038277Y-11722936D01*
X14038277Y-11722936D02*
X14028753Y-11703888D01*
X14028753Y-11703888D02*
X14019229Y-11665793D01*
X14019229Y-11665793D02*
X14019229Y-11618174D01*
X14019229Y-11618174D02*
X14028753Y-11580079D01*
X14028753Y-11580079D02*
X14038277Y-11561031D01*
X14038277Y-11561031D02*
X14047801Y-11551508D01*
X14047801Y-11551508D02*
X14066848Y-11541984D01*
X14209706Y-11561031D02*
X14219229Y-11551508D01*
X14219229Y-11551508D02*
X14238277Y-11541984D01*
X14238277Y-11541984D02*
X14285896Y-11541984D01*
X14285896Y-11541984D02*
X14304944Y-11551508D01*
X14304944Y-11551508D02*
X14314467Y-11561031D01*
X14314467Y-11561031D02*
X14323991Y-11580079D01*
X14323991Y-11580079D02*
X14323991Y-11599127D01*
X14323991Y-11599127D02*
X14314467Y-11627698D01*
X14314467Y-11627698D02*
X14200182Y-11741984D01*
X14200182Y-11741984D02*
X14323991Y-11741984D01*
X14419229Y-11741984D02*
X14457325Y-11741984D01*
X14457325Y-11741984D02*
X14476372Y-11732460D01*
X14476372Y-11732460D02*
X14485896Y-11722936D01*
X14485896Y-11722936D02*
X14504944Y-11694365D01*
X14504944Y-11694365D02*
X14514467Y-11656269D01*
X14514467Y-11656269D02*
X14514467Y-11580079D01*
X14514467Y-11580079D02*
X14504944Y-11561031D01*
X14504944Y-11561031D02*
X14495420Y-11551508D01*
X14495420Y-11551508D02*
X14476372Y-11541984D01*
X14476372Y-11541984D02*
X14438277Y-11541984D01*
X14438277Y-11541984D02*
X14419229Y-11551508D01*
X14419229Y-11551508D02*
X14409706Y-11561031D01*
X14409706Y-11561031D02*
X14400182Y-11580079D01*
X14400182Y-11580079D02*
X14400182Y-11627698D01*
X14400182Y-11627698D02*
X14409706Y-11646746D01*
X14409706Y-11646746D02*
X14419229Y-11656269D01*
X14419229Y-11656269D02*
X14438277Y-11665793D01*
X14438277Y-11665793D02*
X14476372Y-11665793D01*
X14476372Y-11665793D02*
X14495420Y-11656269D01*
X14495420Y-11656269D02*
X14504944Y-11646746D01*
X14504944Y-11646746D02*
X14514467Y-11627698D01*
X14695420Y-11541984D02*
X14600182Y-11541984D01*
X14600182Y-11541984D02*
X14590658Y-11637222D01*
X14590658Y-11637222D02*
X14600182Y-11627698D01*
X14600182Y-11627698D02*
X14619229Y-11618174D01*
X14619229Y-11618174D02*
X14666848Y-11618174D01*
X14666848Y-11618174D02*
X14685896Y-11627698D01*
X14685896Y-11627698D02*
X14695420Y-11637222D01*
X14695420Y-11637222D02*
X14704944Y-11656269D01*
X14704944Y-11656269D02*
X14704944Y-11703888D01*
X14704944Y-11703888D02*
X14695420Y-11722936D01*
X14695420Y-11722936D02*
X14685896Y-11732460D01*
X14685896Y-11732460D02*
X14666848Y-11741984D01*
X14666848Y-11741984D02*
X14619229Y-11741984D01*
X14619229Y-11741984D02*
X14600182Y-11732460D01*
X14600182Y-11732460D02*
X14590658Y-11722936D01*
X14781134Y-11541984D02*
X14781134Y-11580079D01*
X14857325Y-11541984D02*
X14857325Y-11580079D01*
X15152563Y-11818174D02*
X15143039Y-11808650D01*
X15143039Y-11808650D02*
X15123991Y-11780079D01*
X15123991Y-11780079D02*
X15114468Y-11761031D01*
X15114468Y-11761031D02*
X15104944Y-11732460D01*
X15104944Y-11732460D02*
X15095420Y-11684841D01*
X15095420Y-11684841D02*
X15095420Y-11646746D01*
X15095420Y-11646746D02*
X15104944Y-11599127D01*
X15104944Y-11599127D02*
X15114468Y-11570555D01*
X15114468Y-11570555D02*
X15123991Y-11551508D01*
X15123991Y-11551508D02*
X15143039Y-11522936D01*
X15143039Y-11522936D02*
X15152563Y-11513412D01*
X15209706Y-11541984D02*
X15333515Y-11541984D01*
X15333515Y-11541984D02*
X15266848Y-11618174D01*
X15266848Y-11618174D02*
X15295420Y-11618174D01*
X15295420Y-11618174D02*
X15314468Y-11627698D01*
X15314468Y-11627698D02*
X15323991Y-11637222D01*
X15323991Y-11637222D02*
X15333515Y-11656269D01*
X15333515Y-11656269D02*
X15333515Y-11703888D01*
X15333515Y-11703888D02*
X15323991Y-11722936D01*
X15323991Y-11722936D02*
X15314468Y-11732460D01*
X15314468Y-11732460D02*
X15295420Y-11741984D01*
X15295420Y-11741984D02*
X15238277Y-11741984D01*
X15238277Y-11741984D02*
X15219229Y-11732460D01*
X15219229Y-11732460D02*
X15209706Y-11722936D01*
X15571610Y-11741984D02*
X15571610Y-11541984D01*
X15657325Y-11741984D02*
X15657325Y-11637222D01*
X15657325Y-11637222D02*
X15647801Y-11618174D01*
X15647801Y-11618174D02*
X15628753Y-11608650D01*
X15628753Y-11608650D02*
X15600182Y-11608650D01*
X15600182Y-11608650D02*
X15581134Y-11618174D01*
X15581134Y-11618174D02*
X15571610Y-11627698D01*
X15781134Y-11741984D02*
X15762087Y-11732460D01*
X15762087Y-11732460D02*
X15752563Y-11722936D01*
X15752563Y-11722936D02*
X15743039Y-11703888D01*
X15743039Y-11703888D02*
X15743039Y-11646746D01*
X15743039Y-11646746D02*
X15752563Y-11627698D01*
X15752563Y-11627698D02*
X15762087Y-11618174D01*
X15762087Y-11618174D02*
X15781134Y-11608650D01*
X15781134Y-11608650D02*
X15809706Y-11608650D01*
X15809706Y-11608650D02*
X15828753Y-11618174D01*
X15828753Y-11618174D02*
X15838277Y-11627698D01*
X15838277Y-11627698D02*
X15847801Y-11646746D01*
X15847801Y-11646746D02*
X15847801Y-11703888D01*
X15847801Y-11703888D02*
X15838277Y-11722936D01*
X15838277Y-11722936D02*
X15828753Y-11732460D01*
X15828753Y-11732460D02*
X15809706Y-11741984D01*
X15809706Y-11741984D02*
X15781134Y-11741984D01*
X15962087Y-11741984D02*
X15943039Y-11732460D01*
X15943039Y-11732460D02*
X15933515Y-11713412D01*
X15933515Y-11713412D02*
X15933515Y-11541984D01*
X16114468Y-11732460D02*
X16095420Y-11741984D01*
X16095420Y-11741984D02*
X16057325Y-11741984D01*
X16057325Y-11741984D02*
X16038277Y-11732460D01*
X16038277Y-11732460D02*
X16028753Y-11713412D01*
X16028753Y-11713412D02*
X16028753Y-11637222D01*
X16028753Y-11637222D02*
X16038277Y-11618174D01*
X16038277Y-11618174D02*
X16057325Y-11608650D01*
X16057325Y-11608650D02*
X16095420Y-11608650D01*
X16095420Y-11608650D02*
X16114468Y-11618174D01*
X16114468Y-11618174D02*
X16123991Y-11637222D01*
X16123991Y-11637222D02*
X16123991Y-11656269D01*
X16123991Y-11656269D02*
X16028753Y-11675317D01*
X16200182Y-11732460D02*
X16219230Y-11741984D01*
X16219230Y-11741984D02*
X16257325Y-11741984D01*
X16257325Y-11741984D02*
X16276372Y-11732460D01*
X16276372Y-11732460D02*
X16285896Y-11713412D01*
X16285896Y-11713412D02*
X16285896Y-11703888D01*
X16285896Y-11703888D02*
X16276372Y-11684841D01*
X16276372Y-11684841D02*
X16257325Y-11675317D01*
X16257325Y-11675317D02*
X16228753Y-11675317D01*
X16228753Y-11675317D02*
X16209706Y-11665793D01*
X16209706Y-11665793D02*
X16200182Y-11646746D01*
X16200182Y-11646746D02*
X16200182Y-11637222D01*
X16200182Y-11637222D02*
X16209706Y-11618174D01*
X16209706Y-11618174D02*
X16228753Y-11608650D01*
X16228753Y-11608650D02*
X16257325Y-11608650D01*
X16257325Y-11608650D02*
X16276372Y-11618174D01*
X16352563Y-11818174D02*
X16362087Y-11808650D01*
X16362087Y-11808650D02*
X16381134Y-11780079D01*
X16381134Y-11780079D02*
X16390658Y-11761031D01*
X16390658Y-11761031D02*
X16400182Y-11732460D01*
X16400182Y-11732460D02*
X16409706Y-11684841D01*
X16409706Y-11684841D02*
X16409706Y-11646746D01*
X16409706Y-11646746D02*
X16400182Y-11599127D01*
X16400182Y-11599127D02*
X16390658Y-11570555D01*
X16390658Y-11570555D02*
X16381134Y-11551508D01*
X16381134Y-11551508D02*
X16362087Y-11522936D01*
X16362087Y-11522936D02*
X16352563Y-11513412D01*
D12*
X11565784Y-11942784D02*
X11565784Y-11886215D01*
X11509215Y-11886215D01*
X11509215Y-11942784D01*
X11565784Y-11942784D01*
D11*
X11876372Y-11805984D02*
X11895420Y-11805984D01*
X11895420Y-11805984D02*
X11914467Y-11815508D01*
X11914467Y-11815508D02*
X11923991Y-11825031D01*
X11923991Y-11825031D02*
X11933515Y-11844079D01*
X11933515Y-11844079D02*
X11943039Y-11882174D01*
X11943039Y-11882174D02*
X11943039Y-11929793D01*
X11943039Y-11929793D02*
X11933515Y-11967888D01*
X11933515Y-11967888D02*
X11923991Y-11986936D01*
X11923991Y-11986936D02*
X11914467Y-11996460D01*
X11914467Y-11996460D02*
X11895420Y-12005984D01*
X11895420Y-12005984D02*
X11876372Y-12005984D01*
X11876372Y-12005984D02*
X11857324Y-11996460D01*
X11857324Y-11996460D02*
X11847801Y-11986936D01*
X11847801Y-11986936D02*
X11838277Y-11967888D01*
X11838277Y-11967888D02*
X11828753Y-11929793D01*
X11828753Y-11929793D02*
X11828753Y-11882174D01*
X11828753Y-11882174D02*
X11838277Y-11844079D01*
X11838277Y-11844079D02*
X11847801Y-11825031D01*
X11847801Y-11825031D02*
X11857324Y-11815508D01*
X11857324Y-11815508D02*
X11876372Y-11805984D01*
X12028753Y-11986936D02*
X12038277Y-11996460D01*
X12038277Y-11996460D02*
X12028753Y-12005984D01*
X12028753Y-12005984D02*
X12019229Y-11996460D01*
X12019229Y-11996460D02*
X12028753Y-11986936D01*
X12028753Y-11986936D02*
X12028753Y-12005984D01*
X12152562Y-11891698D02*
X12133515Y-11882174D01*
X12133515Y-11882174D02*
X12123991Y-11872650D01*
X12123991Y-11872650D02*
X12114467Y-11853603D01*
X12114467Y-11853603D02*
X12114467Y-11844079D01*
X12114467Y-11844079D02*
X12123991Y-11825031D01*
X12123991Y-11825031D02*
X12133515Y-11815508D01*
X12133515Y-11815508D02*
X12152562Y-11805984D01*
X12152562Y-11805984D02*
X12190658Y-11805984D01*
X12190658Y-11805984D02*
X12209705Y-11815508D01*
X12209705Y-11815508D02*
X12219229Y-11825031D01*
X12219229Y-11825031D02*
X12228753Y-11844079D01*
X12228753Y-11844079D02*
X12228753Y-11853603D01*
X12228753Y-11853603D02*
X12219229Y-11872650D01*
X12219229Y-11872650D02*
X12209705Y-11882174D01*
X12209705Y-11882174D02*
X12190658Y-11891698D01*
X12190658Y-11891698D02*
X12152562Y-11891698D01*
X12152562Y-11891698D02*
X12133515Y-11901222D01*
X12133515Y-11901222D02*
X12123991Y-11910746D01*
X12123991Y-11910746D02*
X12114467Y-11929793D01*
X12114467Y-11929793D02*
X12114467Y-11967888D01*
X12114467Y-11967888D02*
X12123991Y-11986936D01*
X12123991Y-11986936D02*
X12133515Y-11996460D01*
X12133515Y-11996460D02*
X12152562Y-12005984D01*
X12152562Y-12005984D02*
X12190658Y-12005984D01*
X12190658Y-12005984D02*
X12209705Y-11996460D01*
X12209705Y-11996460D02*
X12219229Y-11986936D01*
X12219229Y-11986936D02*
X12228753Y-11967888D01*
X12228753Y-11967888D02*
X12228753Y-11929793D01*
X12228753Y-11929793D02*
X12219229Y-11910746D01*
X12219229Y-11910746D02*
X12209705Y-11901222D01*
X12209705Y-11901222D02*
X12190658Y-11891698D01*
X12352562Y-11805984D02*
X12371610Y-11805984D01*
X12371610Y-11805984D02*
X12390658Y-11815508D01*
X12390658Y-11815508D02*
X12400182Y-11825031D01*
X12400182Y-11825031D02*
X12409705Y-11844079D01*
X12409705Y-11844079D02*
X12419229Y-11882174D01*
X12419229Y-11882174D02*
X12419229Y-11929793D01*
X12419229Y-11929793D02*
X12409705Y-11967888D01*
X12409705Y-11967888D02*
X12400182Y-11986936D01*
X12400182Y-11986936D02*
X12390658Y-11996460D01*
X12390658Y-11996460D02*
X12371610Y-12005984D01*
X12371610Y-12005984D02*
X12352562Y-12005984D01*
X12352562Y-12005984D02*
X12333515Y-11996460D01*
X12333515Y-11996460D02*
X12323991Y-11986936D01*
X12323991Y-11986936D02*
X12314467Y-11967888D01*
X12314467Y-11967888D02*
X12304943Y-11929793D01*
X12304943Y-11929793D02*
X12304943Y-11882174D01*
X12304943Y-11882174D02*
X12314467Y-11844079D01*
X12314467Y-11844079D02*
X12323991Y-11825031D01*
X12323991Y-11825031D02*
X12333515Y-11815508D01*
X12333515Y-11815508D02*
X12352562Y-11805984D01*
X12543039Y-11805984D02*
X12562086Y-11805984D01*
X12562086Y-11805984D02*
X12581134Y-11815508D01*
X12581134Y-11815508D02*
X12590658Y-11825031D01*
X12590658Y-11825031D02*
X12600182Y-11844079D01*
X12600182Y-11844079D02*
X12609705Y-11882174D01*
X12609705Y-11882174D02*
X12609705Y-11929793D01*
X12609705Y-11929793D02*
X12600182Y-11967888D01*
X12600182Y-11967888D02*
X12590658Y-11986936D01*
X12590658Y-11986936D02*
X12581134Y-11996460D01*
X12581134Y-11996460D02*
X12562086Y-12005984D01*
X12562086Y-12005984D02*
X12543039Y-12005984D01*
X12543039Y-12005984D02*
X12523991Y-11996460D01*
X12523991Y-11996460D02*
X12514467Y-11986936D01*
X12514467Y-11986936D02*
X12504943Y-11967888D01*
X12504943Y-11967888D02*
X12495420Y-11929793D01*
X12495420Y-11929793D02*
X12495420Y-11882174D01*
X12495420Y-11882174D02*
X12504943Y-11844079D01*
X12504943Y-11844079D02*
X12514467Y-11825031D01*
X12514467Y-11825031D02*
X12523991Y-11815508D01*
X12523991Y-11815508D02*
X12543039Y-11805984D01*
X12695420Y-12005984D02*
X12695420Y-11872650D01*
X12695420Y-11891698D02*
X12704943Y-11882174D01*
X12704943Y-11882174D02*
X12723991Y-11872650D01*
X12723991Y-11872650D02*
X12752563Y-11872650D01*
X12752563Y-11872650D02*
X12771610Y-11882174D01*
X12771610Y-11882174D02*
X12781134Y-11901222D01*
X12781134Y-11901222D02*
X12781134Y-12005984D01*
X12781134Y-11901222D02*
X12790658Y-11882174D01*
X12790658Y-11882174D02*
X12809705Y-11872650D01*
X12809705Y-11872650D02*
X12838277Y-11872650D01*
X12838277Y-11872650D02*
X12857324Y-11882174D01*
X12857324Y-11882174D02*
X12866848Y-11901222D01*
X12866848Y-11901222D02*
X12866848Y-12005984D01*
X12962086Y-12005984D02*
X12962086Y-11872650D01*
X12962086Y-11891698D02*
X12971610Y-11882174D01*
X12971610Y-11882174D02*
X12990658Y-11872650D01*
X12990658Y-11872650D02*
X13019229Y-11872650D01*
X13019229Y-11872650D02*
X13038277Y-11882174D01*
X13038277Y-11882174D02*
X13047801Y-11901222D01*
X13047801Y-11901222D02*
X13047801Y-12005984D01*
X13047801Y-11901222D02*
X13057324Y-11882174D01*
X13057324Y-11882174D02*
X13076372Y-11872650D01*
X13076372Y-11872650D02*
X13104943Y-11872650D01*
X13104943Y-11872650D02*
X13123991Y-11882174D01*
X13123991Y-11882174D02*
X13133515Y-11901222D01*
X13133515Y-11901222D02*
X13133515Y-12005984D01*
X13523991Y-11796460D02*
X13352563Y-12053603D01*
X13781134Y-11805984D02*
X13800182Y-11805984D01*
X13800182Y-11805984D02*
X13819229Y-11815508D01*
X13819229Y-11815508D02*
X13828753Y-11825031D01*
X13828753Y-11825031D02*
X13838277Y-11844079D01*
X13838277Y-11844079D02*
X13847801Y-11882174D01*
X13847801Y-11882174D02*
X13847801Y-11929793D01*
X13847801Y-11929793D02*
X13838277Y-11967888D01*
X13838277Y-11967888D02*
X13828753Y-11986936D01*
X13828753Y-11986936D02*
X13819229Y-11996460D01*
X13819229Y-11996460D02*
X13800182Y-12005984D01*
X13800182Y-12005984D02*
X13781134Y-12005984D01*
X13781134Y-12005984D02*
X13762086Y-11996460D01*
X13762086Y-11996460D02*
X13752563Y-11986936D01*
X13752563Y-11986936D02*
X13743039Y-11967888D01*
X13743039Y-11967888D02*
X13733515Y-11929793D01*
X13733515Y-11929793D02*
X13733515Y-11882174D01*
X13733515Y-11882174D02*
X13743039Y-11844079D01*
X13743039Y-11844079D02*
X13752563Y-11825031D01*
X13752563Y-11825031D02*
X13762086Y-11815508D01*
X13762086Y-11815508D02*
X13781134Y-11805984D01*
X13933515Y-11986936D02*
X13943039Y-11996460D01*
X13943039Y-11996460D02*
X13933515Y-12005984D01*
X13933515Y-12005984D02*
X13923991Y-11996460D01*
X13923991Y-11996460D02*
X13933515Y-11986936D01*
X13933515Y-11986936D02*
X13933515Y-12005984D01*
X14066848Y-11805984D02*
X14085896Y-11805984D01*
X14085896Y-11805984D02*
X14104944Y-11815508D01*
X14104944Y-11815508D02*
X14114467Y-11825031D01*
X14114467Y-11825031D02*
X14123991Y-11844079D01*
X14123991Y-11844079D02*
X14133515Y-11882174D01*
X14133515Y-11882174D02*
X14133515Y-11929793D01*
X14133515Y-11929793D02*
X14123991Y-11967888D01*
X14123991Y-11967888D02*
X14114467Y-11986936D01*
X14114467Y-11986936D02*
X14104944Y-11996460D01*
X14104944Y-11996460D02*
X14085896Y-12005984D01*
X14085896Y-12005984D02*
X14066848Y-12005984D01*
X14066848Y-12005984D02*
X14047801Y-11996460D01*
X14047801Y-11996460D02*
X14038277Y-11986936D01*
X14038277Y-11986936D02*
X14028753Y-11967888D01*
X14028753Y-11967888D02*
X14019229Y-11929793D01*
X14019229Y-11929793D02*
X14019229Y-11882174D01*
X14019229Y-11882174D02*
X14028753Y-11844079D01*
X14028753Y-11844079D02*
X14038277Y-11825031D01*
X14038277Y-11825031D02*
X14047801Y-11815508D01*
X14047801Y-11815508D02*
X14066848Y-11805984D01*
X14200182Y-11805984D02*
X14323991Y-11805984D01*
X14323991Y-11805984D02*
X14257325Y-11882174D01*
X14257325Y-11882174D02*
X14285896Y-11882174D01*
X14285896Y-11882174D02*
X14304944Y-11891698D01*
X14304944Y-11891698D02*
X14314467Y-11901222D01*
X14314467Y-11901222D02*
X14323991Y-11920269D01*
X14323991Y-11920269D02*
X14323991Y-11967888D01*
X14323991Y-11967888D02*
X14314467Y-11986936D01*
X14314467Y-11986936D02*
X14304944Y-11996460D01*
X14304944Y-11996460D02*
X14285896Y-12005984D01*
X14285896Y-12005984D02*
X14228753Y-12005984D01*
X14228753Y-12005984D02*
X14209706Y-11996460D01*
X14209706Y-11996460D02*
X14200182Y-11986936D01*
X14514467Y-12005984D02*
X14400182Y-12005984D01*
X14457325Y-12005984D02*
X14457325Y-11805984D01*
X14457325Y-11805984D02*
X14438277Y-11834555D01*
X14438277Y-11834555D02*
X14419229Y-11853603D01*
X14419229Y-11853603D02*
X14400182Y-11863127D01*
X14695420Y-11805984D02*
X14600182Y-11805984D01*
X14600182Y-11805984D02*
X14590658Y-11901222D01*
X14590658Y-11901222D02*
X14600182Y-11891698D01*
X14600182Y-11891698D02*
X14619229Y-11882174D01*
X14619229Y-11882174D02*
X14666848Y-11882174D01*
X14666848Y-11882174D02*
X14685896Y-11891698D01*
X14685896Y-11891698D02*
X14695420Y-11901222D01*
X14695420Y-11901222D02*
X14704944Y-11920269D01*
X14704944Y-11920269D02*
X14704944Y-11967888D01*
X14704944Y-11967888D02*
X14695420Y-11986936D01*
X14695420Y-11986936D02*
X14685896Y-11996460D01*
X14685896Y-11996460D02*
X14666848Y-12005984D01*
X14666848Y-12005984D02*
X14619229Y-12005984D01*
X14619229Y-12005984D02*
X14600182Y-11996460D01*
X14600182Y-11996460D02*
X14590658Y-11986936D01*
X14781134Y-11805984D02*
X14781134Y-11844079D01*
X14857325Y-11805984D02*
X14857325Y-11844079D01*
X15152563Y-12082174D02*
X15143039Y-12072650D01*
X15143039Y-12072650D02*
X15123991Y-12044079D01*
X15123991Y-12044079D02*
X15114468Y-12025031D01*
X15114468Y-12025031D02*
X15104944Y-11996460D01*
X15104944Y-11996460D02*
X15095420Y-11948841D01*
X15095420Y-11948841D02*
X15095420Y-11910746D01*
X15095420Y-11910746D02*
X15104944Y-11863127D01*
X15104944Y-11863127D02*
X15114468Y-11834555D01*
X15114468Y-11834555D02*
X15123991Y-11815508D01*
X15123991Y-11815508D02*
X15143039Y-11786936D01*
X15143039Y-11786936D02*
X15152563Y-11777412D01*
X15209706Y-11805984D02*
X15333515Y-11805984D01*
X15333515Y-11805984D02*
X15266848Y-11882174D01*
X15266848Y-11882174D02*
X15295420Y-11882174D01*
X15295420Y-11882174D02*
X15314468Y-11891698D01*
X15314468Y-11891698D02*
X15323991Y-11901222D01*
X15323991Y-11901222D02*
X15333515Y-11920269D01*
X15333515Y-11920269D02*
X15333515Y-11967888D01*
X15333515Y-11967888D02*
X15323991Y-11986936D01*
X15323991Y-11986936D02*
X15314468Y-11996460D01*
X15314468Y-11996460D02*
X15295420Y-12005984D01*
X15295420Y-12005984D02*
X15238277Y-12005984D01*
X15238277Y-12005984D02*
X15219229Y-11996460D01*
X15219229Y-11996460D02*
X15209706Y-11986936D01*
X15428753Y-12005984D02*
X15466848Y-12005984D01*
X15466848Y-12005984D02*
X15485896Y-11996460D01*
X15485896Y-11996460D02*
X15495420Y-11986936D01*
X15495420Y-11986936D02*
X15514468Y-11958365D01*
X15514468Y-11958365D02*
X15523991Y-11920269D01*
X15523991Y-11920269D02*
X15523991Y-11844079D01*
X15523991Y-11844079D02*
X15514468Y-11825031D01*
X15514468Y-11825031D02*
X15504944Y-11815508D01*
X15504944Y-11815508D02*
X15485896Y-11805984D01*
X15485896Y-11805984D02*
X15447801Y-11805984D01*
X15447801Y-11805984D02*
X15428753Y-11815508D01*
X15428753Y-11815508D02*
X15419229Y-11825031D01*
X15419229Y-11825031D02*
X15409706Y-11844079D01*
X15409706Y-11844079D02*
X15409706Y-11891698D01*
X15409706Y-11891698D02*
X15419229Y-11910746D01*
X15419229Y-11910746D02*
X15428753Y-11920269D01*
X15428753Y-11920269D02*
X15447801Y-11929793D01*
X15447801Y-11929793D02*
X15485896Y-11929793D01*
X15485896Y-11929793D02*
X15504944Y-11920269D01*
X15504944Y-11920269D02*
X15514468Y-11910746D01*
X15514468Y-11910746D02*
X15523991Y-11891698D01*
X15762087Y-12005984D02*
X15762087Y-11805984D01*
X15847801Y-12005984D02*
X15847801Y-11901222D01*
X15847801Y-11901222D02*
X15838277Y-11882174D01*
X15838277Y-11882174D02*
X15819230Y-11872650D01*
X15819230Y-11872650D02*
X15790658Y-11872650D01*
X15790658Y-11872650D02*
X15771610Y-11882174D01*
X15771610Y-11882174D02*
X15762087Y-11891698D01*
X15971610Y-12005984D02*
X15952563Y-11996460D01*
X15952563Y-11996460D02*
X15943039Y-11986936D01*
X15943039Y-11986936D02*
X15933515Y-11967888D01*
X15933515Y-11967888D02*
X15933515Y-11910746D01*
X15933515Y-11910746D02*
X15943039Y-11891698D01*
X15943039Y-11891698D02*
X15952563Y-11882174D01*
X15952563Y-11882174D02*
X15971610Y-11872650D01*
X15971610Y-11872650D02*
X16000182Y-11872650D01*
X16000182Y-11872650D02*
X16019230Y-11882174D01*
X16019230Y-11882174D02*
X16028753Y-11891698D01*
X16028753Y-11891698D02*
X16038277Y-11910746D01*
X16038277Y-11910746D02*
X16038277Y-11967888D01*
X16038277Y-11967888D02*
X16028753Y-11986936D01*
X16028753Y-11986936D02*
X16019230Y-11996460D01*
X16019230Y-11996460D02*
X16000182Y-12005984D01*
X16000182Y-12005984D02*
X15971610Y-12005984D01*
X16152563Y-12005984D02*
X16133515Y-11996460D01*
X16133515Y-11996460D02*
X16123991Y-11977412D01*
X16123991Y-11977412D02*
X16123991Y-11805984D01*
X16304944Y-11996460D02*
X16285896Y-12005984D01*
X16285896Y-12005984D02*
X16247801Y-12005984D01*
X16247801Y-12005984D02*
X16228753Y-11996460D01*
X16228753Y-11996460D02*
X16219230Y-11977412D01*
X16219230Y-11977412D02*
X16219230Y-11901222D01*
X16219230Y-11901222D02*
X16228753Y-11882174D01*
X16228753Y-11882174D02*
X16247801Y-11872650D01*
X16247801Y-11872650D02*
X16285896Y-11872650D01*
X16285896Y-11872650D02*
X16304944Y-11882174D01*
X16304944Y-11882174D02*
X16314468Y-11901222D01*
X16314468Y-11901222D02*
X16314468Y-11920269D01*
X16314468Y-11920269D02*
X16219230Y-11939317D01*
X16390658Y-11996460D02*
X16409706Y-12005984D01*
X16409706Y-12005984D02*
X16447801Y-12005984D01*
X16447801Y-12005984D02*
X16466849Y-11996460D01*
X16466849Y-11996460D02*
X16476372Y-11977412D01*
X16476372Y-11977412D02*
X16476372Y-11967888D01*
X16476372Y-11967888D02*
X16466849Y-11948841D01*
X16466849Y-11948841D02*
X16447801Y-11939317D01*
X16447801Y-11939317D02*
X16419230Y-11939317D01*
X16419230Y-11939317D02*
X16400182Y-11929793D01*
X16400182Y-11929793D02*
X16390658Y-11910746D01*
X16390658Y-11910746D02*
X16390658Y-11901222D01*
X16390658Y-11901222D02*
X16400182Y-11882174D01*
X16400182Y-11882174D02*
X16419230Y-11872650D01*
X16419230Y-11872650D02*
X16447801Y-11872650D01*
X16447801Y-11872650D02*
X16466849Y-11882174D01*
X16543039Y-12082174D02*
X16552563Y-12072650D01*
X16552563Y-12072650D02*
X16571611Y-12044079D01*
X16571611Y-12044079D02*
X16581134Y-12025031D01*
X16581134Y-12025031D02*
X16590658Y-11996460D01*
X16590658Y-11996460D02*
X16600182Y-11948841D01*
X16600182Y-11948841D02*
X16600182Y-11910746D01*
X16600182Y-11910746D02*
X16590658Y-11863127D01*
X16590658Y-11863127D02*
X16581134Y-11834555D01*
X16581134Y-11834555D02*
X16571611Y-11815508D01*
X16571611Y-11815508D02*
X16552563Y-11786936D01*
X16552563Y-11786936D02*
X16543039Y-11777412D01*
D12*
X11527500Y-12228500D02*
X11577500Y-12178500D01*
X11527500Y-12128500D01*
X11477500Y-12178500D01*
X11527500Y-12228500D01*
D11*
X11943039Y-12269984D02*
X11828753Y-12269984D01*
X11885896Y-12269984D02*
X11885896Y-12069984D01*
X11885896Y-12069984D02*
X11866848Y-12098555D01*
X11866848Y-12098555D02*
X11847801Y-12117603D01*
X11847801Y-12117603D02*
X11828753Y-12127127D01*
X12028753Y-12250936D02*
X12038277Y-12260460D01*
X12038277Y-12260460D02*
X12028753Y-12269984D01*
X12028753Y-12269984D02*
X12019229Y-12260460D01*
X12019229Y-12260460D02*
X12028753Y-12250936D01*
X12028753Y-12250936D02*
X12028753Y-12269984D01*
X12162086Y-12069984D02*
X12181134Y-12069984D01*
X12181134Y-12069984D02*
X12200182Y-12079508D01*
X12200182Y-12079508D02*
X12209705Y-12089031D01*
X12209705Y-12089031D02*
X12219229Y-12108079D01*
X12219229Y-12108079D02*
X12228753Y-12146174D01*
X12228753Y-12146174D02*
X12228753Y-12193793D01*
X12228753Y-12193793D02*
X12219229Y-12231888D01*
X12219229Y-12231888D02*
X12209705Y-12250936D01*
X12209705Y-12250936D02*
X12200182Y-12260460D01*
X12200182Y-12260460D02*
X12181134Y-12269984D01*
X12181134Y-12269984D02*
X12162086Y-12269984D01*
X12162086Y-12269984D02*
X12143039Y-12260460D01*
X12143039Y-12260460D02*
X12133515Y-12250936D01*
X12133515Y-12250936D02*
X12123991Y-12231888D01*
X12123991Y-12231888D02*
X12114467Y-12193793D01*
X12114467Y-12193793D02*
X12114467Y-12146174D01*
X12114467Y-12146174D02*
X12123991Y-12108079D01*
X12123991Y-12108079D02*
X12133515Y-12089031D01*
X12133515Y-12089031D02*
X12143039Y-12079508D01*
X12143039Y-12079508D02*
X12162086Y-12069984D01*
X12352562Y-12069984D02*
X12371610Y-12069984D01*
X12371610Y-12069984D02*
X12390658Y-12079508D01*
X12390658Y-12079508D02*
X12400182Y-12089031D01*
X12400182Y-12089031D02*
X12409705Y-12108079D01*
X12409705Y-12108079D02*
X12419229Y-12146174D01*
X12419229Y-12146174D02*
X12419229Y-12193793D01*
X12419229Y-12193793D02*
X12409705Y-12231888D01*
X12409705Y-12231888D02*
X12400182Y-12250936D01*
X12400182Y-12250936D02*
X12390658Y-12260460D01*
X12390658Y-12260460D02*
X12371610Y-12269984D01*
X12371610Y-12269984D02*
X12352562Y-12269984D01*
X12352562Y-12269984D02*
X12333515Y-12260460D01*
X12333515Y-12260460D02*
X12323991Y-12250936D01*
X12323991Y-12250936D02*
X12314467Y-12231888D01*
X12314467Y-12231888D02*
X12304943Y-12193793D01*
X12304943Y-12193793D02*
X12304943Y-12146174D01*
X12304943Y-12146174D02*
X12314467Y-12108079D01*
X12314467Y-12108079D02*
X12323991Y-12089031D01*
X12323991Y-12089031D02*
X12333515Y-12079508D01*
X12333515Y-12079508D02*
X12352562Y-12069984D01*
X12543039Y-12069984D02*
X12562086Y-12069984D01*
X12562086Y-12069984D02*
X12581134Y-12079508D01*
X12581134Y-12079508D02*
X12590658Y-12089031D01*
X12590658Y-12089031D02*
X12600182Y-12108079D01*
X12600182Y-12108079D02*
X12609705Y-12146174D01*
X12609705Y-12146174D02*
X12609705Y-12193793D01*
X12609705Y-12193793D02*
X12600182Y-12231888D01*
X12600182Y-12231888D02*
X12590658Y-12250936D01*
X12590658Y-12250936D02*
X12581134Y-12260460D01*
X12581134Y-12260460D02*
X12562086Y-12269984D01*
X12562086Y-12269984D02*
X12543039Y-12269984D01*
X12543039Y-12269984D02*
X12523991Y-12260460D01*
X12523991Y-12260460D02*
X12514467Y-12250936D01*
X12514467Y-12250936D02*
X12504943Y-12231888D01*
X12504943Y-12231888D02*
X12495420Y-12193793D01*
X12495420Y-12193793D02*
X12495420Y-12146174D01*
X12495420Y-12146174D02*
X12504943Y-12108079D01*
X12504943Y-12108079D02*
X12514467Y-12089031D01*
X12514467Y-12089031D02*
X12523991Y-12079508D01*
X12523991Y-12079508D02*
X12543039Y-12069984D01*
X12695420Y-12269984D02*
X12695420Y-12136650D01*
X12695420Y-12155698D02*
X12704943Y-12146174D01*
X12704943Y-12146174D02*
X12723991Y-12136650D01*
X12723991Y-12136650D02*
X12752563Y-12136650D01*
X12752563Y-12136650D02*
X12771610Y-12146174D01*
X12771610Y-12146174D02*
X12781134Y-12165222D01*
X12781134Y-12165222D02*
X12781134Y-12269984D01*
X12781134Y-12165222D02*
X12790658Y-12146174D01*
X12790658Y-12146174D02*
X12809705Y-12136650D01*
X12809705Y-12136650D02*
X12838277Y-12136650D01*
X12838277Y-12136650D02*
X12857324Y-12146174D01*
X12857324Y-12146174D02*
X12866848Y-12165222D01*
X12866848Y-12165222D02*
X12866848Y-12269984D01*
X12962086Y-12269984D02*
X12962086Y-12136650D01*
X12962086Y-12155698D02*
X12971610Y-12146174D01*
X12971610Y-12146174D02*
X12990658Y-12136650D01*
X12990658Y-12136650D02*
X13019229Y-12136650D01*
X13019229Y-12136650D02*
X13038277Y-12146174D01*
X13038277Y-12146174D02*
X13047801Y-12165222D01*
X13047801Y-12165222D02*
X13047801Y-12269984D01*
X13047801Y-12165222D02*
X13057324Y-12146174D01*
X13057324Y-12146174D02*
X13076372Y-12136650D01*
X13076372Y-12136650D02*
X13104943Y-12136650D01*
X13104943Y-12136650D02*
X13123991Y-12146174D01*
X13123991Y-12146174D02*
X13133515Y-12165222D01*
X13133515Y-12165222D02*
X13133515Y-12269984D01*
X13523991Y-12060460D02*
X13352563Y-12317603D01*
X13781134Y-12069984D02*
X13800182Y-12069984D01*
X13800182Y-12069984D02*
X13819229Y-12079508D01*
X13819229Y-12079508D02*
X13828753Y-12089031D01*
X13828753Y-12089031D02*
X13838277Y-12108079D01*
X13838277Y-12108079D02*
X13847801Y-12146174D01*
X13847801Y-12146174D02*
X13847801Y-12193793D01*
X13847801Y-12193793D02*
X13838277Y-12231888D01*
X13838277Y-12231888D02*
X13828753Y-12250936D01*
X13828753Y-12250936D02*
X13819229Y-12260460D01*
X13819229Y-12260460D02*
X13800182Y-12269984D01*
X13800182Y-12269984D02*
X13781134Y-12269984D01*
X13781134Y-12269984D02*
X13762086Y-12260460D01*
X13762086Y-12260460D02*
X13752563Y-12250936D01*
X13752563Y-12250936D02*
X13743039Y-12231888D01*
X13743039Y-12231888D02*
X13733515Y-12193793D01*
X13733515Y-12193793D02*
X13733515Y-12146174D01*
X13733515Y-12146174D02*
X13743039Y-12108079D01*
X13743039Y-12108079D02*
X13752563Y-12089031D01*
X13752563Y-12089031D02*
X13762086Y-12079508D01*
X13762086Y-12079508D02*
X13781134Y-12069984D01*
X13933515Y-12250936D02*
X13943039Y-12260460D01*
X13943039Y-12260460D02*
X13933515Y-12269984D01*
X13933515Y-12269984D02*
X13923991Y-12260460D01*
X13923991Y-12260460D02*
X13933515Y-12250936D01*
X13933515Y-12250936D02*
X13933515Y-12269984D01*
X14066848Y-12069984D02*
X14085896Y-12069984D01*
X14085896Y-12069984D02*
X14104944Y-12079508D01*
X14104944Y-12079508D02*
X14114467Y-12089031D01*
X14114467Y-12089031D02*
X14123991Y-12108079D01*
X14123991Y-12108079D02*
X14133515Y-12146174D01*
X14133515Y-12146174D02*
X14133515Y-12193793D01*
X14133515Y-12193793D02*
X14123991Y-12231888D01*
X14123991Y-12231888D02*
X14114467Y-12250936D01*
X14114467Y-12250936D02*
X14104944Y-12260460D01*
X14104944Y-12260460D02*
X14085896Y-12269984D01*
X14085896Y-12269984D02*
X14066848Y-12269984D01*
X14066848Y-12269984D02*
X14047801Y-12260460D01*
X14047801Y-12260460D02*
X14038277Y-12250936D01*
X14038277Y-12250936D02*
X14028753Y-12231888D01*
X14028753Y-12231888D02*
X14019229Y-12193793D01*
X14019229Y-12193793D02*
X14019229Y-12146174D01*
X14019229Y-12146174D02*
X14028753Y-12108079D01*
X14028753Y-12108079D02*
X14038277Y-12089031D01*
X14038277Y-12089031D02*
X14047801Y-12079508D01*
X14047801Y-12079508D02*
X14066848Y-12069984D01*
X14200182Y-12069984D02*
X14323991Y-12069984D01*
X14323991Y-12069984D02*
X14257325Y-12146174D01*
X14257325Y-12146174D02*
X14285896Y-12146174D01*
X14285896Y-12146174D02*
X14304944Y-12155698D01*
X14304944Y-12155698D02*
X14314467Y-12165222D01*
X14314467Y-12165222D02*
X14323991Y-12184269D01*
X14323991Y-12184269D02*
X14323991Y-12231888D01*
X14323991Y-12231888D02*
X14314467Y-12250936D01*
X14314467Y-12250936D02*
X14304944Y-12260460D01*
X14304944Y-12260460D02*
X14285896Y-12269984D01*
X14285896Y-12269984D02*
X14228753Y-12269984D01*
X14228753Y-12269984D02*
X14209706Y-12260460D01*
X14209706Y-12260460D02*
X14200182Y-12250936D01*
X14419229Y-12269984D02*
X14457325Y-12269984D01*
X14457325Y-12269984D02*
X14476372Y-12260460D01*
X14476372Y-12260460D02*
X14485896Y-12250936D01*
X14485896Y-12250936D02*
X14504944Y-12222365D01*
X14504944Y-12222365D02*
X14514467Y-12184269D01*
X14514467Y-12184269D02*
X14514467Y-12108079D01*
X14514467Y-12108079D02*
X14504944Y-12089031D01*
X14504944Y-12089031D02*
X14495420Y-12079508D01*
X14495420Y-12079508D02*
X14476372Y-12069984D01*
X14476372Y-12069984D02*
X14438277Y-12069984D01*
X14438277Y-12069984D02*
X14419229Y-12079508D01*
X14419229Y-12079508D02*
X14409706Y-12089031D01*
X14409706Y-12089031D02*
X14400182Y-12108079D01*
X14400182Y-12108079D02*
X14400182Y-12155698D01*
X14400182Y-12155698D02*
X14409706Y-12174746D01*
X14409706Y-12174746D02*
X14419229Y-12184269D01*
X14419229Y-12184269D02*
X14438277Y-12193793D01*
X14438277Y-12193793D02*
X14476372Y-12193793D01*
X14476372Y-12193793D02*
X14495420Y-12184269D01*
X14495420Y-12184269D02*
X14504944Y-12174746D01*
X14504944Y-12174746D02*
X14514467Y-12155698D01*
X14685896Y-12136650D02*
X14685896Y-12269984D01*
X14638277Y-12060460D02*
X14590658Y-12203317D01*
X14590658Y-12203317D02*
X14714467Y-12203317D01*
X14781134Y-12069984D02*
X14781134Y-12108079D01*
X14857325Y-12069984D02*
X14857325Y-12108079D01*
X15152563Y-12346174D02*
X15143039Y-12336650D01*
X15143039Y-12336650D02*
X15123991Y-12308079D01*
X15123991Y-12308079D02*
X15114468Y-12289031D01*
X15114468Y-12289031D02*
X15104944Y-12260460D01*
X15104944Y-12260460D02*
X15095420Y-12212841D01*
X15095420Y-12212841D02*
X15095420Y-12174746D01*
X15095420Y-12174746D02*
X15104944Y-12127127D01*
X15104944Y-12127127D02*
X15114468Y-12098555D01*
X15114468Y-12098555D02*
X15123991Y-12079508D01*
X15123991Y-12079508D02*
X15143039Y-12050936D01*
X15143039Y-12050936D02*
X15152563Y-12041412D01*
X15219229Y-12089031D02*
X15228753Y-12079508D01*
X15228753Y-12079508D02*
X15247801Y-12069984D01*
X15247801Y-12069984D02*
X15295420Y-12069984D01*
X15295420Y-12069984D02*
X15314468Y-12079508D01*
X15314468Y-12079508D02*
X15323991Y-12089031D01*
X15323991Y-12089031D02*
X15333515Y-12108079D01*
X15333515Y-12108079D02*
X15333515Y-12127127D01*
X15333515Y-12127127D02*
X15323991Y-12155698D01*
X15323991Y-12155698D02*
X15209706Y-12269984D01*
X15209706Y-12269984D02*
X15333515Y-12269984D01*
X15571610Y-12269984D02*
X15571610Y-12069984D01*
X15657325Y-12269984D02*
X15657325Y-12165222D01*
X15657325Y-12165222D02*
X15647801Y-12146174D01*
X15647801Y-12146174D02*
X15628753Y-12136650D01*
X15628753Y-12136650D02*
X15600182Y-12136650D01*
X15600182Y-12136650D02*
X15581134Y-12146174D01*
X15581134Y-12146174D02*
X15571610Y-12155698D01*
X15781134Y-12269984D02*
X15762087Y-12260460D01*
X15762087Y-12260460D02*
X15752563Y-12250936D01*
X15752563Y-12250936D02*
X15743039Y-12231888D01*
X15743039Y-12231888D02*
X15743039Y-12174746D01*
X15743039Y-12174746D02*
X15752563Y-12155698D01*
X15752563Y-12155698D02*
X15762087Y-12146174D01*
X15762087Y-12146174D02*
X15781134Y-12136650D01*
X15781134Y-12136650D02*
X15809706Y-12136650D01*
X15809706Y-12136650D02*
X15828753Y-12146174D01*
X15828753Y-12146174D02*
X15838277Y-12155698D01*
X15838277Y-12155698D02*
X15847801Y-12174746D01*
X15847801Y-12174746D02*
X15847801Y-12231888D01*
X15847801Y-12231888D02*
X15838277Y-12250936D01*
X15838277Y-12250936D02*
X15828753Y-12260460D01*
X15828753Y-12260460D02*
X15809706Y-12269984D01*
X15809706Y-12269984D02*
X15781134Y-12269984D01*
X15962087Y-12269984D02*
X15943039Y-12260460D01*
X15943039Y-12260460D02*
X15933515Y-12241412D01*
X15933515Y-12241412D02*
X15933515Y-12069984D01*
X16114468Y-12260460D02*
X16095420Y-12269984D01*
X16095420Y-12269984D02*
X16057325Y-12269984D01*
X16057325Y-12269984D02*
X16038277Y-12260460D01*
X16038277Y-12260460D02*
X16028753Y-12241412D01*
X16028753Y-12241412D02*
X16028753Y-12165222D01*
X16028753Y-12165222D02*
X16038277Y-12146174D01*
X16038277Y-12146174D02*
X16057325Y-12136650D01*
X16057325Y-12136650D02*
X16095420Y-12136650D01*
X16095420Y-12136650D02*
X16114468Y-12146174D01*
X16114468Y-12146174D02*
X16123991Y-12165222D01*
X16123991Y-12165222D02*
X16123991Y-12184269D01*
X16123991Y-12184269D02*
X16028753Y-12203317D01*
X16200182Y-12260460D02*
X16219230Y-12269984D01*
X16219230Y-12269984D02*
X16257325Y-12269984D01*
X16257325Y-12269984D02*
X16276372Y-12260460D01*
X16276372Y-12260460D02*
X16285896Y-12241412D01*
X16285896Y-12241412D02*
X16285896Y-12231888D01*
X16285896Y-12231888D02*
X16276372Y-12212841D01*
X16276372Y-12212841D02*
X16257325Y-12203317D01*
X16257325Y-12203317D02*
X16228753Y-12203317D01*
X16228753Y-12203317D02*
X16209706Y-12193793D01*
X16209706Y-12193793D02*
X16200182Y-12174746D01*
X16200182Y-12174746D02*
X16200182Y-12165222D01*
X16200182Y-12165222D02*
X16209706Y-12146174D01*
X16209706Y-12146174D02*
X16228753Y-12136650D01*
X16228753Y-12136650D02*
X16257325Y-12136650D01*
X16257325Y-12136650D02*
X16276372Y-12146174D01*
X16523992Y-12193793D02*
X16676373Y-12193793D01*
X16600182Y-12269984D02*
X16600182Y-12117603D01*
X16904944Y-12069984D02*
X17028754Y-12069984D01*
X17028754Y-12069984D02*
X16962087Y-12146174D01*
X16962087Y-12146174D02*
X16990658Y-12146174D01*
X16990658Y-12146174D02*
X17009706Y-12155698D01*
X17009706Y-12155698D02*
X17019230Y-12165222D01*
X17019230Y-12165222D02*
X17028754Y-12184269D01*
X17028754Y-12184269D02*
X17028754Y-12231888D01*
X17028754Y-12231888D02*
X17019230Y-12250936D01*
X17019230Y-12250936D02*
X17009706Y-12260460D01*
X17009706Y-12260460D02*
X16990658Y-12269984D01*
X16990658Y-12269984D02*
X16933515Y-12269984D01*
X16933515Y-12269984D02*
X16914468Y-12260460D01*
X16914468Y-12260460D02*
X16904944Y-12250936D01*
X17257325Y-12260460D02*
X17276373Y-12269984D01*
X17276373Y-12269984D02*
X17314468Y-12269984D01*
X17314468Y-12269984D02*
X17333516Y-12260460D01*
X17333516Y-12260460D02*
X17343039Y-12241412D01*
X17343039Y-12241412D02*
X17343039Y-12231888D01*
X17343039Y-12231888D02*
X17333516Y-12212841D01*
X17333516Y-12212841D02*
X17314468Y-12203317D01*
X17314468Y-12203317D02*
X17285896Y-12203317D01*
X17285896Y-12203317D02*
X17266849Y-12193793D01*
X17266849Y-12193793D02*
X17257325Y-12174746D01*
X17257325Y-12174746D02*
X17257325Y-12165222D01*
X17257325Y-12165222D02*
X17266849Y-12146174D01*
X17266849Y-12146174D02*
X17285896Y-12136650D01*
X17285896Y-12136650D02*
X17314468Y-12136650D01*
X17314468Y-12136650D02*
X17333516Y-12146174D01*
X17457325Y-12269984D02*
X17438277Y-12260460D01*
X17438277Y-12260460D02*
X17428754Y-12241412D01*
X17428754Y-12241412D02*
X17428754Y-12069984D01*
X17562087Y-12269984D02*
X17543039Y-12260460D01*
X17543039Y-12260460D02*
X17533516Y-12250936D01*
X17533516Y-12250936D02*
X17523992Y-12231888D01*
X17523992Y-12231888D02*
X17523992Y-12174746D01*
X17523992Y-12174746D02*
X17533516Y-12155698D01*
X17533516Y-12155698D02*
X17543039Y-12146174D01*
X17543039Y-12146174D02*
X17562087Y-12136650D01*
X17562087Y-12136650D02*
X17590658Y-12136650D01*
X17590658Y-12136650D02*
X17609706Y-12146174D01*
X17609706Y-12146174D02*
X17619230Y-12155698D01*
X17619230Y-12155698D02*
X17628754Y-12174746D01*
X17628754Y-12174746D02*
X17628754Y-12231888D01*
X17628754Y-12231888D02*
X17619230Y-12250936D01*
X17619230Y-12250936D02*
X17609706Y-12260460D01*
X17609706Y-12260460D02*
X17590658Y-12269984D01*
X17590658Y-12269984D02*
X17562087Y-12269984D01*
X17685897Y-12136650D02*
X17762087Y-12136650D01*
X17714468Y-12069984D02*
X17714468Y-12241412D01*
X17714468Y-12241412D02*
X17723992Y-12260460D01*
X17723992Y-12260460D02*
X17743039Y-12269984D01*
X17743039Y-12269984D02*
X17762087Y-12269984D01*
X17819230Y-12260460D02*
X17838277Y-12269984D01*
X17838277Y-12269984D02*
X17876373Y-12269984D01*
X17876373Y-12269984D02*
X17895420Y-12260460D01*
X17895420Y-12260460D02*
X17904944Y-12241412D01*
X17904944Y-12241412D02*
X17904944Y-12231888D01*
X17904944Y-12231888D02*
X17895420Y-12212841D01*
X17895420Y-12212841D02*
X17876373Y-12203317D01*
X17876373Y-12203317D02*
X17847801Y-12203317D01*
X17847801Y-12203317D02*
X17828754Y-12193793D01*
X17828754Y-12193793D02*
X17819230Y-12174746D01*
X17819230Y-12174746D02*
X17819230Y-12165222D01*
X17819230Y-12165222D02*
X17828754Y-12146174D01*
X17828754Y-12146174D02*
X17847801Y-12136650D01*
X17847801Y-12136650D02*
X17876373Y-12136650D01*
X17876373Y-12136650D02*
X17895420Y-12146174D01*
X17971611Y-12346174D02*
X17981135Y-12336650D01*
X17981135Y-12336650D02*
X18000182Y-12308079D01*
X18000182Y-12308079D02*
X18009706Y-12289031D01*
X18009706Y-12289031D02*
X18019230Y-12260460D01*
X18019230Y-12260460D02*
X18028754Y-12212841D01*
X18028754Y-12212841D02*
X18028754Y-12174746D01*
X18028754Y-12174746D02*
X18019230Y-12127127D01*
X18019230Y-12127127D02*
X18009706Y-12098555D01*
X18009706Y-12098555D02*
X18000182Y-12079508D01*
X18000182Y-12079508D02*
X17981135Y-12050936D01*
X17981135Y-12050936D02*
X17971611Y-12041412D01*
D13*
X11467500Y-12387500D02*
X11577500Y-12497500D01*
X11577500Y-12387500D02*
X11467500Y-12497500D01*
X11577500Y-12442500D02*
G75*
G02*
X11467500Y-12442500I-55000J0D01*
G01*
X11467500Y-12442500D02*
G75*
G02*
X11577500Y-12442500I55000J0D01*
G01*
D11*
X11943039Y-12533984D02*
X11828753Y-12533984D01*
X11885896Y-12533984D02*
X11885896Y-12333984D01*
X11885896Y-12333984D02*
X11866848Y-12362555D01*
X11866848Y-12362555D02*
X11847801Y-12381603D01*
X11847801Y-12381603D02*
X11828753Y-12391127D01*
X12028753Y-12514936D02*
X12038277Y-12524460D01*
X12038277Y-12524460D02*
X12028753Y-12533984D01*
X12028753Y-12533984D02*
X12019229Y-12524460D01*
X12019229Y-12524460D02*
X12028753Y-12514936D01*
X12028753Y-12514936D02*
X12028753Y-12533984D01*
X12228753Y-12533984D02*
X12114467Y-12533984D01*
X12171610Y-12533984D02*
X12171610Y-12333984D01*
X12171610Y-12333984D02*
X12152562Y-12362555D01*
X12152562Y-12362555D02*
X12133515Y-12381603D01*
X12133515Y-12381603D02*
X12114467Y-12391127D01*
X12352562Y-12333984D02*
X12371610Y-12333984D01*
X12371610Y-12333984D02*
X12390658Y-12343508D01*
X12390658Y-12343508D02*
X12400182Y-12353031D01*
X12400182Y-12353031D02*
X12409705Y-12372079D01*
X12409705Y-12372079D02*
X12419229Y-12410174D01*
X12419229Y-12410174D02*
X12419229Y-12457793D01*
X12419229Y-12457793D02*
X12409705Y-12495888D01*
X12409705Y-12495888D02*
X12400182Y-12514936D01*
X12400182Y-12514936D02*
X12390658Y-12524460D01*
X12390658Y-12524460D02*
X12371610Y-12533984D01*
X12371610Y-12533984D02*
X12352562Y-12533984D01*
X12352562Y-12533984D02*
X12333515Y-12524460D01*
X12333515Y-12524460D02*
X12323991Y-12514936D01*
X12323991Y-12514936D02*
X12314467Y-12495888D01*
X12314467Y-12495888D02*
X12304943Y-12457793D01*
X12304943Y-12457793D02*
X12304943Y-12410174D01*
X12304943Y-12410174D02*
X12314467Y-12372079D01*
X12314467Y-12372079D02*
X12323991Y-12353031D01*
X12323991Y-12353031D02*
X12333515Y-12343508D01*
X12333515Y-12343508D02*
X12352562Y-12333984D01*
X12543039Y-12333984D02*
X12562086Y-12333984D01*
X12562086Y-12333984D02*
X12581134Y-12343508D01*
X12581134Y-12343508D02*
X12590658Y-12353031D01*
X12590658Y-12353031D02*
X12600182Y-12372079D01*
X12600182Y-12372079D02*
X12609705Y-12410174D01*
X12609705Y-12410174D02*
X12609705Y-12457793D01*
X12609705Y-12457793D02*
X12600182Y-12495888D01*
X12600182Y-12495888D02*
X12590658Y-12514936D01*
X12590658Y-12514936D02*
X12581134Y-12524460D01*
X12581134Y-12524460D02*
X12562086Y-12533984D01*
X12562086Y-12533984D02*
X12543039Y-12533984D01*
X12543039Y-12533984D02*
X12523991Y-12524460D01*
X12523991Y-12524460D02*
X12514467Y-12514936D01*
X12514467Y-12514936D02*
X12504943Y-12495888D01*
X12504943Y-12495888D02*
X12495420Y-12457793D01*
X12495420Y-12457793D02*
X12495420Y-12410174D01*
X12495420Y-12410174D02*
X12504943Y-12372079D01*
X12504943Y-12372079D02*
X12514467Y-12353031D01*
X12514467Y-12353031D02*
X12523991Y-12343508D01*
X12523991Y-12343508D02*
X12543039Y-12333984D01*
X12695420Y-12533984D02*
X12695420Y-12400650D01*
X12695420Y-12419698D02*
X12704943Y-12410174D01*
X12704943Y-12410174D02*
X12723991Y-12400650D01*
X12723991Y-12400650D02*
X12752563Y-12400650D01*
X12752563Y-12400650D02*
X12771610Y-12410174D01*
X12771610Y-12410174D02*
X12781134Y-12429222D01*
X12781134Y-12429222D02*
X12781134Y-12533984D01*
X12781134Y-12429222D02*
X12790658Y-12410174D01*
X12790658Y-12410174D02*
X12809705Y-12400650D01*
X12809705Y-12400650D02*
X12838277Y-12400650D01*
X12838277Y-12400650D02*
X12857324Y-12410174D01*
X12857324Y-12410174D02*
X12866848Y-12429222D01*
X12866848Y-12429222D02*
X12866848Y-12533984D01*
X12962086Y-12533984D02*
X12962086Y-12400650D01*
X12962086Y-12419698D02*
X12971610Y-12410174D01*
X12971610Y-12410174D02*
X12990658Y-12400650D01*
X12990658Y-12400650D02*
X13019229Y-12400650D01*
X13019229Y-12400650D02*
X13038277Y-12410174D01*
X13038277Y-12410174D02*
X13047801Y-12429222D01*
X13047801Y-12429222D02*
X13047801Y-12533984D01*
X13047801Y-12429222D02*
X13057324Y-12410174D01*
X13057324Y-12410174D02*
X13076372Y-12400650D01*
X13076372Y-12400650D02*
X13104943Y-12400650D01*
X13104943Y-12400650D02*
X13123991Y-12410174D01*
X13123991Y-12410174D02*
X13133515Y-12429222D01*
X13133515Y-12429222D02*
X13133515Y-12533984D01*
X13523991Y-12324460D02*
X13352563Y-12581603D01*
X13781134Y-12333984D02*
X13800182Y-12333984D01*
X13800182Y-12333984D02*
X13819229Y-12343508D01*
X13819229Y-12343508D02*
X13828753Y-12353031D01*
X13828753Y-12353031D02*
X13838277Y-12372079D01*
X13838277Y-12372079D02*
X13847801Y-12410174D01*
X13847801Y-12410174D02*
X13847801Y-12457793D01*
X13847801Y-12457793D02*
X13838277Y-12495888D01*
X13838277Y-12495888D02*
X13828753Y-12514936D01*
X13828753Y-12514936D02*
X13819229Y-12524460D01*
X13819229Y-12524460D02*
X13800182Y-12533984D01*
X13800182Y-12533984D02*
X13781134Y-12533984D01*
X13781134Y-12533984D02*
X13762086Y-12524460D01*
X13762086Y-12524460D02*
X13752563Y-12514936D01*
X13752563Y-12514936D02*
X13743039Y-12495888D01*
X13743039Y-12495888D02*
X13733515Y-12457793D01*
X13733515Y-12457793D02*
X13733515Y-12410174D01*
X13733515Y-12410174D02*
X13743039Y-12372079D01*
X13743039Y-12372079D02*
X13752563Y-12353031D01*
X13752563Y-12353031D02*
X13762086Y-12343508D01*
X13762086Y-12343508D02*
X13781134Y-12333984D01*
X13933515Y-12514936D02*
X13943039Y-12524460D01*
X13943039Y-12524460D02*
X13933515Y-12533984D01*
X13933515Y-12533984D02*
X13923991Y-12524460D01*
X13923991Y-12524460D02*
X13933515Y-12514936D01*
X13933515Y-12514936D02*
X13933515Y-12533984D01*
X14066848Y-12333984D02*
X14085896Y-12333984D01*
X14085896Y-12333984D02*
X14104944Y-12343508D01*
X14104944Y-12343508D02*
X14114467Y-12353031D01*
X14114467Y-12353031D02*
X14123991Y-12372079D01*
X14123991Y-12372079D02*
X14133515Y-12410174D01*
X14133515Y-12410174D02*
X14133515Y-12457793D01*
X14133515Y-12457793D02*
X14123991Y-12495888D01*
X14123991Y-12495888D02*
X14114467Y-12514936D01*
X14114467Y-12514936D02*
X14104944Y-12524460D01*
X14104944Y-12524460D02*
X14085896Y-12533984D01*
X14085896Y-12533984D02*
X14066848Y-12533984D01*
X14066848Y-12533984D02*
X14047801Y-12524460D01*
X14047801Y-12524460D02*
X14038277Y-12514936D01*
X14038277Y-12514936D02*
X14028753Y-12495888D01*
X14028753Y-12495888D02*
X14019229Y-12457793D01*
X14019229Y-12457793D02*
X14019229Y-12410174D01*
X14019229Y-12410174D02*
X14028753Y-12372079D01*
X14028753Y-12372079D02*
X14038277Y-12353031D01*
X14038277Y-12353031D02*
X14047801Y-12343508D01*
X14047801Y-12343508D02*
X14066848Y-12333984D01*
X14304944Y-12400650D02*
X14304944Y-12533984D01*
X14257325Y-12324460D02*
X14209706Y-12467317D01*
X14209706Y-12467317D02*
X14333515Y-12467317D01*
X14390658Y-12333984D02*
X14514467Y-12333984D01*
X14514467Y-12333984D02*
X14447801Y-12410174D01*
X14447801Y-12410174D02*
X14476372Y-12410174D01*
X14476372Y-12410174D02*
X14495420Y-12419698D01*
X14495420Y-12419698D02*
X14504944Y-12429222D01*
X14504944Y-12429222D02*
X14514467Y-12448269D01*
X14514467Y-12448269D02*
X14514467Y-12495888D01*
X14514467Y-12495888D02*
X14504944Y-12514936D01*
X14504944Y-12514936D02*
X14495420Y-12524460D01*
X14495420Y-12524460D02*
X14476372Y-12533984D01*
X14476372Y-12533984D02*
X14419229Y-12533984D01*
X14419229Y-12533984D02*
X14400182Y-12524460D01*
X14400182Y-12524460D02*
X14390658Y-12514936D01*
X14581134Y-12333984D02*
X14704944Y-12333984D01*
X14704944Y-12333984D02*
X14638277Y-12410174D01*
X14638277Y-12410174D02*
X14666848Y-12410174D01*
X14666848Y-12410174D02*
X14685896Y-12419698D01*
X14685896Y-12419698D02*
X14695420Y-12429222D01*
X14695420Y-12429222D02*
X14704944Y-12448269D01*
X14704944Y-12448269D02*
X14704944Y-12495888D01*
X14704944Y-12495888D02*
X14695420Y-12514936D01*
X14695420Y-12514936D02*
X14685896Y-12524460D01*
X14685896Y-12524460D02*
X14666848Y-12533984D01*
X14666848Y-12533984D02*
X14609706Y-12533984D01*
X14609706Y-12533984D02*
X14590658Y-12524460D01*
X14590658Y-12524460D02*
X14581134Y-12514936D01*
X14781134Y-12333984D02*
X14781134Y-12372079D01*
X14857325Y-12333984D02*
X14857325Y-12372079D01*
X15152563Y-12610174D02*
X15143039Y-12600650D01*
X15143039Y-12600650D02*
X15123991Y-12572079D01*
X15123991Y-12572079D02*
X15114468Y-12553031D01*
X15114468Y-12553031D02*
X15104944Y-12524460D01*
X15104944Y-12524460D02*
X15095420Y-12476841D01*
X15095420Y-12476841D02*
X15095420Y-12438746D01*
X15095420Y-12438746D02*
X15104944Y-12391127D01*
X15104944Y-12391127D02*
X15114468Y-12362555D01*
X15114468Y-12362555D02*
X15123991Y-12343508D01*
X15123991Y-12343508D02*
X15143039Y-12314936D01*
X15143039Y-12314936D02*
X15152563Y-12305412D01*
X15333515Y-12533984D02*
X15219229Y-12533984D01*
X15276372Y-12533984D02*
X15276372Y-12333984D01*
X15276372Y-12333984D02*
X15257325Y-12362555D01*
X15257325Y-12362555D02*
X15238277Y-12381603D01*
X15238277Y-12381603D02*
X15219229Y-12391127D01*
X15504944Y-12333984D02*
X15466848Y-12333984D01*
X15466848Y-12333984D02*
X15447801Y-12343508D01*
X15447801Y-12343508D02*
X15438277Y-12353031D01*
X15438277Y-12353031D02*
X15419229Y-12381603D01*
X15419229Y-12381603D02*
X15409706Y-12419698D01*
X15409706Y-12419698D02*
X15409706Y-12495888D01*
X15409706Y-12495888D02*
X15419229Y-12514936D01*
X15419229Y-12514936D02*
X15428753Y-12524460D01*
X15428753Y-12524460D02*
X15447801Y-12533984D01*
X15447801Y-12533984D02*
X15485896Y-12533984D01*
X15485896Y-12533984D02*
X15504944Y-12524460D01*
X15504944Y-12524460D02*
X15514468Y-12514936D01*
X15514468Y-12514936D02*
X15523991Y-12495888D01*
X15523991Y-12495888D02*
X15523991Y-12448269D01*
X15523991Y-12448269D02*
X15514468Y-12429222D01*
X15514468Y-12429222D02*
X15504944Y-12419698D01*
X15504944Y-12419698D02*
X15485896Y-12410174D01*
X15485896Y-12410174D02*
X15447801Y-12410174D01*
X15447801Y-12410174D02*
X15428753Y-12419698D01*
X15428753Y-12419698D02*
X15419229Y-12429222D01*
X15419229Y-12429222D02*
X15409706Y-12448269D01*
X15762087Y-12533984D02*
X15762087Y-12333984D01*
X15847801Y-12533984D02*
X15847801Y-12429222D01*
X15847801Y-12429222D02*
X15838277Y-12410174D01*
X15838277Y-12410174D02*
X15819230Y-12400650D01*
X15819230Y-12400650D02*
X15790658Y-12400650D01*
X15790658Y-12400650D02*
X15771610Y-12410174D01*
X15771610Y-12410174D02*
X15762087Y-12419698D01*
X15971610Y-12533984D02*
X15952563Y-12524460D01*
X15952563Y-12524460D02*
X15943039Y-12514936D01*
X15943039Y-12514936D02*
X15933515Y-12495888D01*
X15933515Y-12495888D02*
X15933515Y-12438746D01*
X15933515Y-12438746D02*
X15943039Y-12419698D01*
X15943039Y-12419698D02*
X15952563Y-12410174D01*
X15952563Y-12410174D02*
X15971610Y-12400650D01*
X15971610Y-12400650D02*
X16000182Y-12400650D01*
X16000182Y-12400650D02*
X16019230Y-12410174D01*
X16019230Y-12410174D02*
X16028753Y-12419698D01*
X16028753Y-12419698D02*
X16038277Y-12438746D01*
X16038277Y-12438746D02*
X16038277Y-12495888D01*
X16038277Y-12495888D02*
X16028753Y-12514936D01*
X16028753Y-12514936D02*
X16019230Y-12524460D01*
X16019230Y-12524460D02*
X16000182Y-12533984D01*
X16000182Y-12533984D02*
X15971610Y-12533984D01*
X16152563Y-12533984D02*
X16133515Y-12524460D01*
X16133515Y-12524460D02*
X16123991Y-12505412D01*
X16123991Y-12505412D02*
X16123991Y-12333984D01*
X16304944Y-12524460D02*
X16285896Y-12533984D01*
X16285896Y-12533984D02*
X16247801Y-12533984D01*
X16247801Y-12533984D02*
X16228753Y-12524460D01*
X16228753Y-12524460D02*
X16219230Y-12505412D01*
X16219230Y-12505412D02*
X16219230Y-12429222D01*
X16219230Y-12429222D02*
X16228753Y-12410174D01*
X16228753Y-12410174D02*
X16247801Y-12400650D01*
X16247801Y-12400650D02*
X16285896Y-12400650D01*
X16285896Y-12400650D02*
X16304944Y-12410174D01*
X16304944Y-12410174D02*
X16314468Y-12429222D01*
X16314468Y-12429222D02*
X16314468Y-12448269D01*
X16314468Y-12448269D02*
X16219230Y-12467317D01*
X16390658Y-12524460D02*
X16409706Y-12533984D01*
X16409706Y-12533984D02*
X16447801Y-12533984D01*
X16447801Y-12533984D02*
X16466849Y-12524460D01*
X16466849Y-12524460D02*
X16476372Y-12505412D01*
X16476372Y-12505412D02*
X16476372Y-12495888D01*
X16476372Y-12495888D02*
X16466849Y-12476841D01*
X16466849Y-12476841D02*
X16447801Y-12467317D01*
X16447801Y-12467317D02*
X16419230Y-12467317D01*
X16419230Y-12467317D02*
X16400182Y-12457793D01*
X16400182Y-12457793D02*
X16390658Y-12438746D01*
X16390658Y-12438746D02*
X16390658Y-12429222D01*
X16390658Y-12429222D02*
X16400182Y-12410174D01*
X16400182Y-12410174D02*
X16419230Y-12400650D01*
X16419230Y-12400650D02*
X16447801Y-12400650D01*
X16447801Y-12400650D02*
X16466849Y-12410174D01*
X16543039Y-12610174D02*
X16552563Y-12600650D01*
X16552563Y-12600650D02*
X16571611Y-12572079D01*
X16571611Y-12572079D02*
X16581134Y-12553031D01*
X16581134Y-12553031D02*
X16590658Y-12524460D01*
X16590658Y-12524460D02*
X16600182Y-12476841D01*
X16600182Y-12476841D02*
X16600182Y-12438746D01*
X16600182Y-12438746D02*
X16590658Y-12391127D01*
X16590658Y-12391127D02*
X16581134Y-12362555D01*
X16581134Y-12362555D02*
X16571611Y-12343508D01*
X16571611Y-12343508D02*
X16552563Y-12314936D01*
X16552563Y-12314936D02*
X16543039Y-12305412D01*
D14*
X11447500Y-12641500D02*
X11577500Y-12771500D01*
X11577500Y-12641500D02*
X11447500Y-12771500D01*
X11512500Y-12641500D02*
X11512500Y-12771500D01*
X11447500Y-12706500D02*
X11577500Y-12706500D01*
D11*
X11943039Y-12797984D02*
X11828753Y-12797984D01*
X11885896Y-12797984D02*
X11885896Y-12597984D01*
X11885896Y-12597984D02*
X11866848Y-12626555D01*
X11866848Y-12626555D02*
X11847801Y-12645603D01*
X11847801Y-12645603D02*
X11828753Y-12655127D01*
X12028753Y-12778936D02*
X12038277Y-12788460D01*
X12038277Y-12788460D02*
X12028753Y-12797984D01*
X12028753Y-12797984D02*
X12019229Y-12788460D01*
X12019229Y-12788460D02*
X12028753Y-12778936D01*
X12028753Y-12778936D02*
X12028753Y-12797984D01*
X12104943Y-12597984D02*
X12228753Y-12597984D01*
X12228753Y-12597984D02*
X12162086Y-12674174D01*
X12162086Y-12674174D02*
X12190658Y-12674174D01*
X12190658Y-12674174D02*
X12209705Y-12683698D01*
X12209705Y-12683698D02*
X12219229Y-12693222D01*
X12219229Y-12693222D02*
X12228753Y-12712269D01*
X12228753Y-12712269D02*
X12228753Y-12759888D01*
X12228753Y-12759888D02*
X12219229Y-12778936D01*
X12219229Y-12778936D02*
X12209705Y-12788460D01*
X12209705Y-12788460D02*
X12190658Y-12797984D01*
X12190658Y-12797984D02*
X12133515Y-12797984D01*
X12133515Y-12797984D02*
X12114467Y-12788460D01*
X12114467Y-12788460D02*
X12104943Y-12778936D01*
X12352562Y-12597984D02*
X12371610Y-12597984D01*
X12371610Y-12597984D02*
X12390658Y-12607508D01*
X12390658Y-12607508D02*
X12400182Y-12617031D01*
X12400182Y-12617031D02*
X12409705Y-12636079D01*
X12409705Y-12636079D02*
X12419229Y-12674174D01*
X12419229Y-12674174D02*
X12419229Y-12721793D01*
X12419229Y-12721793D02*
X12409705Y-12759888D01*
X12409705Y-12759888D02*
X12400182Y-12778936D01*
X12400182Y-12778936D02*
X12390658Y-12788460D01*
X12390658Y-12788460D02*
X12371610Y-12797984D01*
X12371610Y-12797984D02*
X12352562Y-12797984D01*
X12352562Y-12797984D02*
X12333515Y-12788460D01*
X12333515Y-12788460D02*
X12323991Y-12778936D01*
X12323991Y-12778936D02*
X12314467Y-12759888D01*
X12314467Y-12759888D02*
X12304943Y-12721793D01*
X12304943Y-12721793D02*
X12304943Y-12674174D01*
X12304943Y-12674174D02*
X12314467Y-12636079D01*
X12314467Y-12636079D02*
X12323991Y-12617031D01*
X12323991Y-12617031D02*
X12333515Y-12607508D01*
X12333515Y-12607508D02*
X12352562Y-12597984D01*
X12543039Y-12597984D02*
X12562086Y-12597984D01*
X12562086Y-12597984D02*
X12581134Y-12607508D01*
X12581134Y-12607508D02*
X12590658Y-12617031D01*
X12590658Y-12617031D02*
X12600182Y-12636079D01*
X12600182Y-12636079D02*
X12609705Y-12674174D01*
X12609705Y-12674174D02*
X12609705Y-12721793D01*
X12609705Y-12721793D02*
X12600182Y-12759888D01*
X12600182Y-12759888D02*
X12590658Y-12778936D01*
X12590658Y-12778936D02*
X12581134Y-12788460D01*
X12581134Y-12788460D02*
X12562086Y-12797984D01*
X12562086Y-12797984D02*
X12543039Y-12797984D01*
X12543039Y-12797984D02*
X12523991Y-12788460D01*
X12523991Y-12788460D02*
X12514467Y-12778936D01*
X12514467Y-12778936D02*
X12504943Y-12759888D01*
X12504943Y-12759888D02*
X12495420Y-12721793D01*
X12495420Y-12721793D02*
X12495420Y-12674174D01*
X12495420Y-12674174D02*
X12504943Y-12636079D01*
X12504943Y-12636079D02*
X12514467Y-12617031D01*
X12514467Y-12617031D02*
X12523991Y-12607508D01*
X12523991Y-12607508D02*
X12543039Y-12597984D01*
X12695420Y-12797984D02*
X12695420Y-12664650D01*
X12695420Y-12683698D02*
X12704943Y-12674174D01*
X12704943Y-12674174D02*
X12723991Y-12664650D01*
X12723991Y-12664650D02*
X12752563Y-12664650D01*
X12752563Y-12664650D02*
X12771610Y-12674174D01*
X12771610Y-12674174D02*
X12781134Y-12693222D01*
X12781134Y-12693222D02*
X12781134Y-12797984D01*
X12781134Y-12693222D02*
X12790658Y-12674174D01*
X12790658Y-12674174D02*
X12809705Y-12664650D01*
X12809705Y-12664650D02*
X12838277Y-12664650D01*
X12838277Y-12664650D02*
X12857324Y-12674174D01*
X12857324Y-12674174D02*
X12866848Y-12693222D01*
X12866848Y-12693222D02*
X12866848Y-12797984D01*
X12962086Y-12797984D02*
X12962086Y-12664650D01*
X12962086Y-12683698D02*
X12971610Y-12674174D01*
X12971610Y-12674174D02*
X12990658Y-12664650D01*
X12990658Y-12664650D02*
X13019229Y-12664650D01*
X13019229Y-12664650D02*
X13038277Y-12674174D01*
X13038277Y-12674174D02*
X13047801Y-12693222D01*
X13047801Y-12693222D02*
X13047801Y-12797984D01*
X13047801Y-12693222D02*
X13057324Y-12674174D01*
X13057324Y-12674174D02*
X13076372Y-12664650D01*
X13076372Y-12664650D02*
X13104943Y-12664650D01*
X13104943Y-12664650D02*
X13123991Y-12674174D01*
X13123991Y-12674174D02*
X13133515Y-12693222D01*
X13133515Y-12693222D02*
X13133515Y-12797984D01*
X13523991Y-12588460D02*
X13352563Y-12845603D01*
X13781134Y-12597984D02*
X13800182Y-12597984D01*
X13800182Y-12597984D02*
X13819229Y-12607508D01*
X13819229Y-12607508D02*
X13828753Y-12617031D01*
X13828753Y-12617031D02*
X13838277Y-12636079D01*
X13838277Y-12636079D02*
X13847801Y-12674174D01*
X13847801Y-12674174D02*
X13847801Y-12721793D01*
X13847801Y-12721793D02*
X13838277Y-12759888D01*
X13838277Y-12759888D02*
X13828753Y-12778936D01*
X13828753Y-12778936D02*
X13819229Y-12788460D01*
X13819229Y-12788460D02*
X13800182Y-12797984D01*
X13800182Y-12797984D02*
X13781134Y-12797984D01*
X13781134Y-12797984D02*
X13762086Y-12788460D01*
X13762086Y-12788460D02*
X13752563Y-12778936D01*
X13752563Y-12778936D02*
X13743039Y-12759888D01*
X13743039Y-12759888D02*
X13733515Y-12721793D01*
X13733515Y-12721793D02*
X13733515Y-12674174D01*
X13733515Y-12674174D02*
X13743039Y-12636079D01*
X13743039Y-12636079D02*
X13752563Y-12617031D01*
X13752563Y-12617031D02*
X13762086Y-12607508D01*
X13762086Y-12607508D02*
X13781134Y-12597984D01*
X13933515Y-12778936D02*
X13943039Y-12788460D01*
X13943039Y-12788460D02*
X13933515Y-12797984D01*
X13933515Y-12797984D02*
X13923991Y-12788460D01*
X13923991Y-12788460D02*
X13933515Y-12778936D01*
X13933515Y-12778936D02*
X13933515Y-12797984D01*
X14066848Y-12597984D02*
X14085896Y-12597984D01*
X14085896Y-12597984D02*
X14104944Y-12607508D01*
X14104944Y-12607508D02*
X14114467Y-12617031D01*
X14114467Y-12617031D02*
X14123991Y-12636079D01*
X14123991Y-12636079D02*
X14133515Y-12674174D01*
X14133515Y-12674174D02*
X14133515Y-12721793D01*
X14133515Y-12721793D02*
X14123991Y-12759888D01*
X14123991Y-12759888D02*
X14114467Y-12778936D01*
X14114467Y-12778936D02*
X14104944Y-12788460D01*
X14104944Y-12788460D02*
X14085896Y-12797984D01*
X14085896Y-12797984D02*
X14066848Y-12797984D01*
X14066848Y-12797984D02*
X14047801Y-12788460D01*
X14047801Y-12788460D02*
X14038277Y-12778936D01*
X14038277Y-12778936D02*
X14028753Y-12759888D01*
X14028753Y-12759888D02*
X14019229Y-12721793D01*
X14019229Y-12721793D02*
X14019229Y-12674174D01*
X14019229Y-12674174D02*
X14028753Y-12636079D01*
X14028753Y-12636079D02*
X14038277Y-12617031D01*
X14038277Y-12617031D02*
X14047801Y-12607508D01*
X14047801Y-12607508D02*
X14066848Y-12597984D01*
X14314467Y-12597984D02*
X14219229Y-12597984D01*
X14219229Y-12597984D02*
X14209706Y-12693222D01*
X14209706Y-12693222D02*
X14219229Y-12683698D01*
X14219229Y-12683698D02*
X14238277Y-12674174D01*
X14238277Y-12674174D02*
X14285896Y-12674174D01*
X14285896Y-12674174D02*
X14304944Y-12683698D01*
X14304944Y-12683698D02*
X14314467Y-12693222D01*
X14314467Y-12693222D02*
X14323991Y-12712269D01*
X14323991Y-12712269D02*
X14323991Y-12759888D01*
X14323991Y-12759888D02*
X14314467Y-12778936D01*
X14314467Y-12778936D02*
X14304944Y-12788460D01*
X14304944Y-12788460D02*
X14285896Y-12797984D01*
X14285896Y-12797984D02*
X14238277Y-12797984D01*
X14238277Y-12797984D02*
X14219229Y-12788460D01*
X14219229Y-12788460D02*
X14209706Y-12778936D01*
X14514467Y-12797984D02*
X14400182Y-12797984D01*
X14457325Y-12797984D02*
X14457325Y-12597984D01*
X14457325Y-12597984D02*
X14438277Y-12626555D01*
X14438277Y-12626555D02*
X14419229Y-12645603D01*
X14419229Y-12645603D02*
X14400182Y-12655127D01*
X14590658Y-12617031D02*
X14600182Y-12607508D01*
X14600182Y-12607508D02*
X14619229Y-12597984D01*
X14619229Y-12597984D02*
X14666848Y-12597984D01*
X14666848Y-12597984D02*
X14685896Y-12607508D01*
X14685896Y-12607508D02*
X14695420Y-12617031D01*
X14695420Y-12617031D02*
X14704944Y-12636079D01*
X14704944Y-12636079D02*
X14704944Y-12655127D01*
X14704944Y-12655127D02*
X14695420Y-12683698D01*
X14695420Y-12683698D02*
X14581134Y-12797984D01*
X14581134Y-12797984D02*
X14704944Y-12797984D01*
X14781134Y-12597984D02*
X14781134Y-12636079D01*
X14857325Y-12597984D02*
X14857325Y-12636079D01*
X15152563Y-12874174D02*
X15143039Y-12864650D01*
X15143039Y-12864650D02*
X15123991Y-12836079D01*
X15123991Y-12836079D02*
X15114468Y-12817031D01*
X15114468Y-12817031D02*
X15104944Y-12788460D01*
X15104944Y-12788460D02*
X15095420Y-12740841D01*
X15095420Y-12740841D02*
X15095420Y-12702746D01*
X15095420Y-12702746D02*
X15104944Y-12655127D01*
X15104944Y-12655127D02*
X15114468Y-12626555D01*
X15114468Y-12626555D02*
X15123991Y-12607508D01*
X15123991Y-12607508D02*
X15143039Y-12578936D01*
X15143039Y-12578936D02*
X15152563Y-12569412D01*
X15333515Y-12797984D02*
X15219229Y-12797984D01*
X15276372Y-12797984D02*
X15276372Y-12597984D01*
X15276372Y-12597984D02*
X15257325Y-12626555D01*
X15257325Y-12626555D02*
X15238277Y-12645603D01*
X15238277Y-12645603D02*
X15219229Y-12655127D01*
X15514468Y-12597984D02*
X15419229Y-12597984D01*
X15419229Y-12597984D02*
X15409706Y-12693222D01*
X15409706Y-12693222D02*
X15419229Y-12683698D01*
X15419229Y-12683698D02*
X15438277Y-12674174D01*
X15438277Y-12674174D02*
X15485896Y-12674174D01*
X15485896Y-12674174D02*
X15504944Y-12683698D01*
X15504944Y-12683698D02*
X15514468Y-12693222D01*
X15514468Y-12693222D02*
X15523991Y-12712269D01*
X15523991Y-12712269D02*
X15523991Y-12759888D01*
X15523991Y-12759888D02*
X15514468Y-12778936D01*
X15514468Y-12778936D02*
X15504944Y-12788460D01*
X15504944Y-12788460D02*
X15485896Y-12797984D01*
X15485896Y-12797984D02*
X15438277Y-12797984D01*
X15438277Y-12797984D02*
X15419229Y-12788460D01*
X15419229Y-12788460D02*
X15409706Y-12778936D01*
X15762087Y-12797984D02*
X15762087Y-12597984D01*
X15847801Y-12797984D02*
X15847801Y-12693222D01*
X15847801Y-12693222D02*
X15838277Y-12674174D01*
X15838277Y-12674174D02*
X15819230Y-12664650D01*
X15819230Y-12664650D02*
X15790658Y-12664650D01*
X15790658Y-12664650D02*
X15771610Y-12674174D01*
X15771610Y-12674174D02*
X15762087Y-12683698D01*
X15971610Y-12797984D02*
X15952563Y-12788460D01*
X15952563Y-12788460D02*
X15943039Y-12778936D01*
X15943039Y-12778936D02*
X15933515Y-12759888D01*
X15933515Y-12759888D02*
X15933515Y-12702746D01*
X15933515Y-12702746D02*
X15943039Y-12683698D01*
X15943039Y-12683698D02*
X15952563Y-12674174D01*
X15952563Y-12674174D02*
X15971610Y-12664650D01*
X15971610Y-12664650D02*
X16000182Y-12664650D01*
X16000182Y-12664650D02*
X16019230Y-12674174D01*
X16019230Y-12674174D02*
X16028753Y-12683698D01*
X16028753Y-12683698D02*
X16038277Y-12702746D01*
X16038277Y-12702746D02*
X16038277Y-12759888D01*
X16038277Y-12759888D02*
X16028753Y-12778936D01*
X16028753Y-12778936D02*
X16019230Y-12788460D01*
X16019230Y-12788460D02*
X16000182Y-12797984D01*
X16000182Y-12797984D02*
X15971610Y-12797984D01*
X16152563Y-12797984D02*
X16133515Y-12788460D01*
X16133515Y-12788460D02*
X16123991Y-12769412D01*
X16123991Y-12769412D02*
X16123991Y-12597984D01*
X16304944Y-12788460D02*
X16285896Y-12797984D01*
X16285896Y-12797984D02*
X16247801Y-12797984D01*
X16247801Y-12797984D02*
X16228753Y-12788460D01*
X16228753Y-12788460D02*
X16219230Y-12769412D01*
X16219230Y-12769412D02*
X16219230Y-12693222D01*
X16219230Y-12693222D02*
X16228753Y-12674174D01*
X16228753Y-12674174D02*
X16247801Y-12664650D01*
X16247801Y-12664650D02*
X16285896Y-12664650D01*
X16285896Y-12664650D02*
X16304944Y-12674174D01*
X16304944Y-12674174D02*
X16314468Y-12693222D01*
X16314468Y-12693222D02*
X16314468Y-12712269D01*
X16314468Y-12712269D02*
X16219230Y-12731317D01*
X16390658Y-12788460D02*
X16409706Y-12797984D01*
X16409706Y-12797984D02*
X16447801Y-12797984D01*
X16447801Y-12797984D02*
X16466849Y-12788460D01*
X16466849Y-12788460D02*
X16476372Y-12769412D01*
X16476372Y-12769412D02*
X16476372Y-12759888D01*
X16476372Y-12759888D02*
X16466849Y-12740841D01*
X16466849Y-12740841D02*
X16447801Y-12731317D01*
X16447801Y-12731317D02*
X16419230Y-12731317D01*
X16419230Y-12731317D02*
X16400182Y-12721793D01*
X16400182Y-12721793D02*
X16390658Y-12702746D01*
X16390658Y-12702746D02*
X16390658Y-12693222D01*
X16390658Y-12693222D02*
X16400182Y-12674174D01*
X16400182Y-12674174D02*
X16419230Y-12664650D01*
X16419230Y-12664650D02*
X16447801Y-12664650D01*
X16447801Y-12664650D02*
X16466849Y-12674174D01*
X16543039Y-12874174D02*
X16552563Y-12864650D01*
X16552563Y-12864650D02*
X16571611Y-12836079D01*
X16571611Y-12836079D02*
X16581134Y-12817031D01*
X16581134Y-12817031D02*
X16590658Y-12788460D01*
X16590658Y-12788460D02*
X16600182Y-12740841D01*
X16600182Y-12740841D02*
X16600182Y-12702746D01*
X16600182Y-12702746D02*
X16590658Y-12655127D01*
X16590658Y-12655127D02*
X16581134Y-12626555D01*
X16581134Y-12626555D02*
X16571611Y-12607508D01*
X16571611Y-12607508D02*
X16552563Y-12578936D01*
X16552563Y-12578936D02*
X16543039Y-12569412D01*
D15*
X11437500Y-12900500D02*
X11577500Y-13040500D01*
X11577500Y-12900500D02*
X11437500Y-13040500D01*
X11556998Y-13019998D02*
X11556998Y-12921002D01*
X11458002Y-12921002D01*
X11458002Y-13019998D01*
X11556998Y-13019998D01*
D11*
X11943039Y-13061984D02*
X11828753Y-13061984D01*
X11885896Y-13061984D02*
X11885896Y-12861984D01*
X11885896Y-12861984D02*
X11866848Y-12890555D01*
X11866848Y-12890555D02*
X11847801Y-12909603D01*
X11847801Y-12909603D02*
X11828753Y-12919127D01*
X12028753Y-13042936D02*
X12038277Y-13052460D01*
X12038277Y-13052460D02*
X12028753Y-13061984D01*
X12028753Y-13061984D02*
X12019229Y-13052460D01*
X12019229Y-13052460D02*
X12028753Y-13042936D01*
X12028753Y-13042936D02*
X12028753Y-13061984D01*
X12209705Y-12928650D02*
X12209705Y-13061984D01*
X12162086Y-12852460D02*
X12114467Y-12995317D01*
X12114467Y-12995317D02*
X12238277Y-12995317D01*
X12352562Y-12861984D02*
X12371610Y-12861984D01*
X12371610Y-12861984D02*
X12390658Y-12871508D01*
X12390658Y-12871508D02*
X12400182Y-12881031D01*
X12400182Y-12881031D02*
X12409705Y-12900079D01*
X12409705Y-12900079D02*
X12419229Y-12938174D01*
X12419229Y-12938174D02*
X12419229Y-12985793D01*
X12419229Y-12985793D02*
X12409705Y-13023888D01*
X12409705Y-13023888D02*
X12400182Y-13042936D01*
X12400182Y-13042936D02*
X12390658Y-13052460D01*
X12390658Y-13052460D02*
X12371610Y-13061984D01*
X12371610Y-13061984D02*
X12352562Y-13061984D01*
X12352562Y-13061984D02*
X12333515Y-13052460D01*
X12333515Y-13052460D02*
X12323991Y-13042936D01*
X12323991Y-13042936D02*
X12314467Y-13023888D01*
X12314467Y-13023888D02*
X12304943Y-12985793D01*
X12304943Y-12985793D02*
X12304943Y-12938174D01*
X12304943Y-12938174D02*
X12314467Y-12900079D01*
X12314467Y-12900079D02*
X12323991Y-12881031D01*
X12323991Y-12881031D02*
X12333515Y-12871508D01*
X12333515Y-12871508D02*
X12352562Y-12861984D01*
X12543039Y-12861984D02*
X12562086Y-12861984D01*
X12562086Y-12861984D02*
X12581134Y-12871508D01*
X12581134Y-12871508D02*
X12590658Y-12881031D01*
X12590658Y-12881031D02*
X12600182Y-12900079D01*
X12600182Y-12900079D02*
X12609705Y-12938174D01*
X12609705Y-12938174D02*
X12609705Y-12985793D01*
X12609705Y-12985793D02*
X12600182Y-13023888D01*
X12600182Y-13023888D02*
X12590658Y-13042936D01*
X12590658Y-13042936D02*
X12581134Y-13052460D01*
X12581134Y-13052460D02*
X12562086Y-13061984D01*
X12562086Y-13061984D02*
X12543039Y-13061984D01*
X12543039Y-13061984D02*
X12523991Y-13052460D01*
X12523991Y-13052460D02*
X12514467Y-13042936D01*
X12514467Y-13042936D02*
X12504943Y-13023888D01*
X12504943Y-13023888D02*
X12495420Y-12985793D01*
X12495420Y-12985793D02*
X12495420Y-12938174D01*
X12495420Y-12938174D02*
X12504943Y-12900079D01*
X12504943Y-12900079D02*
X12514467Y-12881031D01*
X12514467Y-12881031D02*
X12523991Y-12871508D01*
X12523991Y-12871508D02*
X12543039Y-12861984D01*
X12695420Y-13061984D02*
X12695420Y-12928650D01*
X12695420Y-12947698D02*
X12704943Y-12938174D01*
X12704943Y-12938174D02*
X12723991Y-12928650D01*
X12723991Y-12928650D02*
X12752563Y-12928650D01*
X12752563Y-12928650D02*
X12771610Y-12938174D01*
X12771610Y-12938174D02*
X12781134Y-12957222D01*
X12781134Y-12957222D02*
X12781134Y-13061984D01*
X12781134Y-12957222D02*
X12790658Y-12938174D01*
X12790658Y-12938174D02*
X12809705Y-12928650D01*
X12809705Y-12928650D02*
X12838277Y-12928650D01*
X12838277Y-12928650D02*
X12857324Y-12938174D01*
X12857324Y-12938174D02*
X12866848Y-12957222D01*
X12866848Y-12957222D02*
X12866848Y-13061984D01*
X12962086Y-13061984D02*
X12962086Y-12928650D01*
X12962086Y-12947698D02*
X12971610Y-12938174D01*
X12971610Y-12938174D02*
X12990658Y-12928650D01*
X12990658Y-12928650D02*
X13019229Y-12928650D01*
X13019229Y-12928650D02*
X13038277Y-12938174D01*
X13038277Y-12938174D02*
X13047801Y-12957222D01*
X13047801Y-12957222D02*
X13047801Y-13061984D01*
X13047801Y-12957222D02*
X13057324Y-12938174D01*
X13057324Y-12938174D02*
X13076372Y-12928650D01*
X13076372Y-12928650D02*
X13104943Y-12928650D01*
X13104943Y-12928650D02*
X13123991Y-12938174D01*
X13123991Y-12938174D02*
X13133515Y-12957222D01*
X13133515Y-12957222D02*
X13133515Y-13061984D01*
X13523991Y-12852460D02*
X13352563Y-13109603D01*
X13781134Y-12861984D02*
X13800182Y-12861984D01*
X13800182Y-12861984D02*
X13819229Y-12871508D01*
X13819229Y-12871508D02*
X13828753Y-12881031D01*
X13828753Y-12881031D02*
X13838277Y-12900079D01*
X13838277Y-12900079D02*
X13847801Y-12938174D01*
X13847801Y-12938174D02*
X13847801Y-12985793D01*
X13847801Y-12985793D02*
X13838277Y-13023888D01*
X13838277Y-13023888D02*
X13828753Y-13042936D01*
X13828753Y-13042936D02*
X13819229Y-13052460D01*
X13819229Y-13052460D02*
X13800182Y-13061984D01*
X13800182Y-13061984D02*
X13781134Y-13061984D01*
X13781134Y-13061984D02*
X13762086Y-13052460D01*
X13762086Y-13052460D02*
X13752563Y-13042936D01*
X13752563Y-13042936D02*
X13743039Y-13023888D01*
X13743039Y-13023888D02*
X13733515Y-12985793D01*
X13733515Y-12985793D02*
X13733515Y-12938174D01*
X13733515Y-12938174D02*
X13743039Y-12900079D01*
X13743039Y-12900079D02*
X13752563Y-12881031D01*
X13752563Y-12881031D02*
X13762086Y-12871508D01*
X13762086Y-12871508D02*
X13781134Y-12861984D01*
X13933515Y-13042936D02*
X13943039Y-13052460D01*
X13943039Y-13052460D02*
X13933515Y-13061984D01*
X13933515Y-13061984D02*
X13923991Y-13052460D01*
X13923991Y-13052460D02*
X13933515Y-13042936D01*
X13933515Y-13042936D02*
X13933515Y-13061984D01*
X14066848Y-12861984D02*
X14085896Y-12861984D01*
X14085896Y-12861984D02*
X14104944Y-12871508D01*
X14104944Y-12871508D02*
X14114467Y-12881031D01*
X14114467Y-12881031D02*
X14123991Y-12900079D01*
X14123991Y-12900079D02*
X14133515Y-12938174D01*
X14133515Y-12938174D02*
X14133515Y-12985793D01*
X14133515Y-12985793D02*
X14123991Y-13023888D01*
X14123991Y-13023888D02*
X14114467Y-13042936D01*
X14114467Y-13042936D02*
X14104944Y-13052460D01*
X14104944Y-13052460D02*
X14085896Y-13061984D01*
X14085896Y-13061984D02*
X14066848Y-13061984D01*
X14066848Y-13061984D02*
X14047801Y-13052460D01*
X14047801Y-13052460D02*
X14038277Y-13042936D01*
X14038277Y-13042936D02*
X14028753Y-13023888D01*
X14028753Y-13023888D02*
X14019229Y-12985793D01*
X14019229Y-12985793D02*
X14019229Y-12938174D01*
X14019229Y-12938174D02*
X14028753Y-12900079D01*
X14028753Y-12900079D02*
X14038277Y-12881031D01*
X14038277Y-12881031D02*
X14047801Y-12871508D01*
X14047801Y-12871508D02*
X14066848Y-12861984D01*
X14314467Y-12861984D02*
X14219229Y-12861984D01*
X14219229Y-12861984D02*
X14209706Y-12957222D01*
X14209706Y-12957222D02*
X14219229Y-12947698D01*
X14219229Y-12947698D02*
X14238277Y-12938174D01*
X14238277Y-12938174D02*
X14285896Y-12938174D01*
X14285896Y-12938174D02*
X14304944Y-12947698D01*
X14304944Y-12947698D02*
X14314467Y-12957222D01*
X14314467Y-12957222D02*
X14323991Y-12976269D01*
X14323991Y-12976269D02*
X14323991Y-13023888D01*
X14323991Y-13023888D02*
X14314467Y-13042936D01*
X14314467Y-13042936D02*
X14304944Y-13052460D01*
X14304944Y-13052460D02*
X14285896Y-13061984D01*
X14285896Y-13061984D02*
X14238277Y-13061984D01*
X14238277Y-13061984D02*
X14219229Y-13052460D01*
X14219229Y-13052460D02*
X14209706Y-13042936D01*
X14504944Y-12861984D02*
X14409706Y-12861984D01*
X14409706Y-12861984D02*
X14400182Y-12957222D01*
X14400182Y-12957222D02*
X14409706Y-12947698D01*
X14409706Y-12947698D02*
X14428753Y-12938174D01*
X14428753Y-12938174D02*
X14476372Y-12938174D01*
X14476372Y-12938174D02*
X14495420Y-12947698D01*
X14495420Y-12947698D02*
X14504944Y-12957222D01*
X14504944Y-12957222D02*
X14514467Y-12976269D01*
X14514467Y-12976269D02*
X14514467Y-13023888D01*
X14514467Y-13023888D02*
X14504944Y-13042936D01*
X14504944Y-13042936D02*
X14495420Y-13052460D01*
X14495420Y-13052460D02*
X14476372Y-13061984D01*
X14476372Y-13061984D02*
X14428753Y-13061984D01*
X14428753Y-13061984D02*
X14409706Y-13052460D01*
X14409706Y-13052460D02*
X14400182Y-13042936D01*
X14704944Y-13061984D02*
X14590658Y-13061984D01*
X14647801Y-13061984D02*
X14647801Y-12861984D01*
X14647801Y-12861984D02*
X14628753Y-12890555D01*
X14628753Y-12890555D02*
X14609706Y-12909603D01*
X14609706Y-12909603D02*
X14590658Y-12919127D01*
X14781134Y-12861984D02*
X14781134Y-12900079D01*
X14857325Y-12861984D02*
X14857325Y-12900079D01*
X15152563Y-13138174D02*
X15143039Y-13128650D01*
X15143039Y-13128650D02*
X15123991Y-13100079D01*
X15123991Y-13100079D02*
X15114468Y-13081031D01*
X15114468Y-13081031D02*
X15104944Y-13052460D01*
X15104944Y-13052460D02*
X15095420Y-13004841D01*
X15095420Y-13004841D02*
X15095420Y-12966746D01*
X15095420Y-12966746D02*
X15104944Y-12919127D01*
X15104944Y-12919127D02*
X15114468Y-12890555D01*
X15114468Y-12890555D02*
X15123991Y-12871508D01*
X15123991Y-12871508D02*
X15143039Y-12842936D01*
X15143039Y-12842936D02*
X15152563Y-12833412D01*
X15333515Y-13061984D02*
X15219229Y-13061984D01*
X15276372Y-13061984D02*
X15276372Y-12861984D01*
X15276372Y-12861984D02*
X15257325Y-12890555D01*
X15257325Y-12890555D02*
X15238277Y-12909603D01*
X15238277Y-12909603D02*
X15219229Y-12919127D01*
X15409706Y-12881031D02*
X15419229Y-12871508D01*
X15419229Y-12871508D02*
X15438277Y-12861984D01*
X15438277Y-12861984D02*
X15485896Y-12861984D01*
X15485896Y-12861984D02*
X15504944Y-12871508D01*
X15504944Y-12871508D02*
X15514468Y-12881031D01*
X15514468Y-12881031D02*
X15523991Y-12900079D01*
X15523991Y-12900079D02*
X15523991Y-12919127D01*
X15523991Y-12919127D02*
X15514468Y-12947698D01*
X15514468Y-12947698D02*
X15400182Y-13061984D01*
X15400182Y-13061984D02*
X15523991Y-13061984D01*
X15762087Y-13061984D02*
X15762087Y-12861984D01*
X15847801Y-13061984D02*
X15847801Y-12957222D01*
X15847801Y-12957222D02*
X15838277Y-12938174D01*
X15838277Y-12938174D02*
X15819230Y-12928650D01*
X15819230Y-12928650D02*
X15790658Y-12928650D01*
X15790658Y-12928650D02*
X15771610Y-12938174D01*
X15771610Y-12938174D02*
X15762087Y-12947698D01*
X15971610Y-13061984D02*
X15952563Y-13052460D01*
X15952563Y-13052460D02*
X15943039Y-13042936D01*
X15943039Y-13042936D02*
X15933515Y-13023888D01*
X15933515Y-13023888D02*
X15933515Y-12966746D01*
X15933515Y-12966746D02*
X15943039Y-12947698D01*
X15943039Y-12947698D02*
X15952563Y-12938174D01*
X15952563Y-12938174D02*
X15971610Y-12928650D01*
X15971610Y-12928650D02*
X16000182Y-12928650D01*
X16000182Y-12928650D02*
X16019230Y-12938174D01*
X16019230Y-12938174D02*
X16028753Y-12947698D01*
X16028753Y-12947698D02*
X16038277Y-12966746D01*
X16038277Y-12966746D02*
X16038277Y-13023888D01*
X16038277Y-13023888D02*
X16028753Y-13042936D01*
X16028753Y-13042936D02*
X16019230Y-13052460D01*
X16019230Y-13052460D02*
X16000182Y-13061984D01*
X16000182Y-13061984D02*
X15971610Y-13061984D01*
X16152563Y-13061984D02*
X16133515Y-13052460D01*
X16133515Y-13052460D02*
X16123991Y-13033412D01*
X16123991Y-13033412D02*
X16123991Y-12861984D01*
X16304944Y-13052460D02*
X16285896Y-13061984D01*
X16285896Y-13061984D02*
X16247801Y-13061984D01*
X16247801Y-13061984D02*
X16228753Y-13052460D01*
X16228753Y-13052460D02*
X16219230Y-13033412D01*
X16219230Y-13033412D02*
X16219230Y-12957222D01*
X16219230Y-12957222D02*
X16228753Y-12938174D01*
X16228753Y-12938174D02*
X16247801Y-12928650D01*
X16247801Y-12928650D02*
X16285896Y-12928650D01*
X16285896Y-12928650D02*
X16304944Y-12938174D01*
X16304944Y-12938174D02*
X16314468Y-12957222D01*
X16314468Y-12957222D02*
X16314468Y-12976269D01*
X16314468Y-12976269D02*
X16219230Y-12995317D01*
X16390658Y-13052460D02*
X16409706Y-13061984D01*
X16409706Y-13061984D02*
X16447801Y-13061984D01*
X16447801Y-13061984D02*
X16466849Y-13052460D01*
X16466849Y-13052460D02*
X16476372Y-13033412D01*
X16476372Y-13033412D02*
X16476372Y-13023888D01*
X16476372Y-13023888D02*
X16466849Y-13004841D01*
X16466849Y-13004841D02*
X16447801Y-12995317D01*
X16447801Y-12995317D02*
X16419230Y-12995317D01*
X16419230Y-12995317D02*
X16400182Y-12985793D01*
X16400182Y-12985793D02*
X16390658Y-12966746D01*
X16390658Y-12966746D02*
X16390658Y-12957222D01*
X16390658Y-12957222D02*
X16400182Y-12938174D01*
X16400182Y-12938174D02*
X16419230Y-12928650D01*
X16419230Y-12928650D02*
X16447801Y-12928650D01*
X16447801Y-12928650D02*
X16466849Y-12938174D01*
X16543039Y-13138174D02*
X16552563Y-13128650D01*
X16552563Y-13128650D02*
X16571611Y-13100079D01*
X16571611Y-13100079D02*
X16581134Y-13081031D01*
X16581134Y-13081031D02*
X16590658Y-13052460D01*
X16590658Y-13052460D02*
X16600182Y-13004841D01*
X16600182Y-13004841D02*
X16600182Y-12966746D01*
X16600182Y-12966746D02*
X16590658Y-12919127D01*
X16590658Y-12919127D02*
X16581134Y-12890555D01*
X16581134Y-12890555D02*
X16571611Y-12871508D01*
X16571611Y-12871508D02*
X16552563Y-12842936D01*
X16552563Y-12842936D02*
X16543039Y-12833412D01*
X11377500Y-13134500D02*
X11577500Y-13334500D01*
X11577500Y-13134500D02*
X11377500Y-13334500D01*
X11477500Y-13334500D02*
X11577500Y-13234500D01*
X11477500Y-13134500D01*
X11377500Y-13234500D01*
X11477500Y-13334500D01*
X11828753Y-13145031D02*
X11838277Y-13135508D01*
X11838277Y-13135508D02*
X11857324Y-13125984D01*
X11857324Y-13125984D02*
X11904943Y-13125984D01*
X11904943Y-13125984D02*
X11923991Y-13135508D01*
X11923991Y-13135508D02*
X11933515Y-13145031D01*
X11933515Y-13145031D02*
X11943039Y-13164079D01*
X11943039Y-13164079D02*
X11943039Y-13183127D01*
X11943039Y-13183127D02*
X11933515Y-13211698D01*
X11933515Y-13211698D02*
X11819229Y-13325984D01*
X11819229Y-13325984D02*
X11943039Y-13325984D01*
X12028753Y-13306936D02*
X12038277Y-13316460D01*
X12038277Y-13316460D02*
X12028753Y-13325984D01*
X12028753Y-13325984D02*
X12019229Y-13316460D01*
X12019229Y-13316460D02*
X12028753Y-13306936D01*
X12028753Y-13306936D02*
X12028753Y-13325984D01*
X12219229Y-13125984D02*
X12123991Y-13125984D01*
X12123991Y-13125984D02*
X12114467Y-13221222D01*
X12114467Y-13221222D02*
X12123991Y-13211698D01*
X12123991Y-13211698D02*
X12143039Y-13202174D01*
X12143039Y-13202174D02*
X12190658Y-13202174D01*
X12190658Y-13202174D02*
X12209705Y-13211698D01*
X12209705Y-13211698D02*
X12219229Y-13221222D01*
X12219229Y-13221222D02*
X12228753Y-13240269D01*
X12228753Y-13240269D02*
X12228753Y-13287888D01*
X12228753Y-13287888D02*
X12219229Y-13306936D01*
X12219229Y-13306936D02*
X12209705Y-13316460D01*
X12209705Y-13316460D02*
X12190658Y-13325984D01*
X12190658Y-13325984D02*
X12143039Y-13325984D01*
X12143039Y-13325984D02*
X12123991Y-13316460D01*
X12123991Y-13316460D02*
X12114467Y-13306936D01*
X12352562Y-13125984D02*
X12371610Y-13125984D01*
X12371610Y-13125984D02*
X12390658Y-13135508D01*
X12390658Y-13135508D02*
X12400182Y-13145031D01*
X12400182Y-13145031D02*
X12409705Y-13164079D01*
X12409705Y-13164079D02*
X12419229Y-13202174D01*
X12419229Y-13202174D02*
X12419229Y-13249793D01*
X12419229Y-13249793D02*
X12409705Y-13287888D01*
X12409705Y-13287888D02*
X12400182Y-13306936D01*
X12400182Y-13306936D02*
X12390658Y-13316460D01*
X12390658Y-13316460D02*
X12371610Y-13325984D01*
X12371610Y-13325984D02*
X12352562Y-13325984D01*
X12352562Y-13325984D02*
X12333515Y-13316460D01*
X12333515Y-13316460D02*
X12323991Y-13306936D01*
X12323991Y-13306936D02*
X12314467Y-13287888D01*
X12314467Y-13287888D02*
X12304943Y-13249793D01*
X12304943Y-13249793D02*
X12304943Y-13202174D01*
X12304943Y-13202174D02*
X12314467Y-13164079D01*
X12314467Y-13164079D02*
X12323991Y-13145031D01*
X12323991Y-13145031D02*
X12333515Y-13135508D01*
X12333515Y-13135508D02*
X12352562Y-13125984D01*
X12543039Y-13125984D02*
X12562086Y-13125984D01*
X12562086Y-13125984D02*
X12581134Y-13135508D01*
X12581134Y-13135508D02*
X12590658Y-13145031D01*
X12590658Y-13145031D02*
X12600182Y-13164079D01*
X12600182Y-13164079D02*
X12609705Y-13202174D01*
X12609705Y-13202174D02*
X12609705Y-13249793D01*
X12609705Y-13249793D02*
X12600182Y-13287888D01*
X12600182Y-13287888D02*
X12590658Y-13306936D01*
X12590658Y-13306936D02*
X12581134Y-13316460D01*
X12581134Y-13316460D02*
X12562086Y-13325984D01*
X12562086Y-13325984D02*
X12543039Y-13325984D01*
X12543039Y-13325984D02*
X12523991Y-13316460D01*
X12523991Y-13316460D02*
X12514467Y-13306936D01*
X12514467Y-13306936D02*
X12504943Y-13287888D01*
X12504943Y-13287888D02*
X12495420Y-13249793D01*
X12495420Y-13249793D02*
X12495420Y-13202174D01*
X12495420Y-13202174D02*
X12504943Y-13164079D01*
X12504943Y-13164079D02*
X12514467Y-13145031D01*
X12514467Y-13145031D02*
X12523991Y-13135508D01*
X12523991Y-13135508D02*
X12543039Y-13125984D01*
X12695420Y-13325984D02*
X12695420Y-13192650D01*
X12695420Y-13211698D02*
X12704943Y-13202174D01*
X12704943Y-13202174D02*
X12723991Y-13192650D01*
X12723991Y-13192650D02*
X12752563Y-13192650D01*
X12752563Y-13192650D02*
X12771610Y-13202174D01*
X12771610Y-13202174D02*
X12781134Y-13221222D01*
X12781134Y-13221222D02*
X12781134Y-13325984D01*
X12781134Y-13221222D02*
X12790658Y-13202174D01*
X12790658Y-13202174D02*
X12809705Y-13192650D01*
X12809705Y-13192650D02*
X12838277Y-13192650D01*
X12838277Y-13192650D02*
X12857324Y-13202174D01*
X12857324Y-13202174D02*
X12866848Y-13221222D01*
X12866848Y-13221222D02*
X12866848Y-13325984D01*
X12962086Y-13325984D02*
X12962086Y-13192650D01*
X12962086Y-13211698D02*
X12971610Y-13202174D01*
X12971610Y-13202174D02*
X12990658Y-13192650D01*
X12990658Y-13192650D02*
X13019229Y-13192650D01*
X13019229Y-13192650D02*
X13038277Y-13202174D01*
X13038277Y-13202174D02*
X13047801Y-13221222D01*
X13047801Y-13221222D02*
X13047801Y-13325984D01*
X13047801Y-13221222D02*
X13057324Y-13202174D01*
X13057324Y-13202174D02*
X13076372Y-13192650D01*
X13076372Y-13192650D02*
X13104943Y-13192650D01*
X13104943Y-13192650D02*
X13123991Y-13202174D01*
X13123991Y-13202174D02*
X13133515Y-13221222D01*
X13133515Y-13221222D02*
X13133515Y-13325984D01*
X13523991Y-13116460D02*
X13352563Y-13373603D01*
X13781134Y-13125984D02*
X13800182Y-13125984D01*
X13800182Y-13125984D02*
X13819229Y-13135508D01*
X13819229Y-13135508D02*
X13828753Y-13145031D01*
X13828753Y-13145031D02*
X13838277Y-13164079D01*
X13838277Y-13164079D02*
X13847801Y-13202174D01*
X13847801Y-13202174D02*
X13847801Y-13249793D01*
X13847801Y-13249793D02*
X13838277Y-13287888D01*
X13838277Y-13287888D02*
X13828753Y-13306936D01*
X13828753Y-13306936D02*
X13819229Y-13316460D01*
X13819229Y-13316460D02*
X13800182Y-13325984D01*
X13800182Y-13325984D02*
X13781134Y-13325984D01*
X13781134Y-13325984D02*
X13762086Y-13316460D01*
X13762086Y-13316460D02*
X13752563Y-13306936D01*
X13752563Y-13306936D02*
X13743039Y-13287888D01*
X13743039Y-13287888D02*
X13733515Y-13249793D01*
X13733515Y-13249793D02*
X13733515Y-13202174D01*
X13733515Y-13202174D02*
X13743039Y-13164079D01*
X13743039Y-13164079D02*
X13752563Y-13145031D01*
X13752563Y-13145031D02*
X13762086Y-13135508D01*
X13762086Y-13135508D02*
X13781134Y-13125984D01*
X13933515Y-13306936D02*
X13943039Y-13316460D01*
X13943039Y-13316460D02*
X13933515Y-13325984D01*
X13933515Y-13325984D02*
X13923991Y-13316460D01*
X13923991Y-13316460D02*
X13933515Y-13306936D01*
X13933515Y-13306936D02*
X13933515Y-13325984D01*
X14066848Y-13125984D02*
X14085896Y-13125984D01*
X14085896Y-13125984D02*
X14104944Y-13135508D01*
X14104944Y-13135508D02*
X14114467Y-13145031D01*
X14114467Y-13145031D02*
X14123991Y-13164079D01*
X14123991Y-13164079D02*
X14133515Y-13202174D01*
X14133515Y-13202174D02*
X14133515Y-13249793D01*
X14133515Y-13249793D02*
X14123991Y-13287888D01*
X14123991Y-13287888D02*
X14114467Y-13306936D01*
X14114467Y-13306936D02*
X14104944Y-13316460D01*
X14104944Y-13316460D02*
X14085896Y-13325984D01*
X14085896Y-13325984D02*
X14066848Y-13325984D01*
X14066848Y-13325984D02*
X14047801Y-13316460D01*
X14047801Y-13316460D02*
X14038277Y-13306936D01*
X14038277Y-13306936D02*
X14028753Y-13287888D01*
X14028753Y-13287888D02*
X14019229Y-13249793D01*
X14019229Y-13249793D02*
X14019229Y-13202174D01*
X14019229Y-13202174D02*
X14028753Y-13164079D01*
X14028753Y-13164079D02*
X14038277Y-13145031D01*
X14038277Y-13145031D02*
X14047801Y-13135508D01*
X14047801Y-13135508D02*
X14066848Y-13125984D01*
X14228753Y-13325984D02*
X14266848Y-13325984D01*
X14266848Y-13325984D02*
X14285896Y-13316460D01*
X14285896Y-13316460D02*
X14295420Y-13306936D01*
X14295420Y-13306936D02*
X14314467Y-13278365D01*
X14314467Y-13278365D02*
X14323991Y-13240269D01*
X14323991Y-13240269D02*
X14323991Y-13164079D01*
X14323991Y-13164079D02*
X14314467Y-13145031D01*
X14314467Y-13145031D02*
X14304944Y-13135508D01*
X14304944Y-13135508D02*
X14285896Y-13125984D01*
X14285896Y-13125984D02*
X14247801Y-13125984D01*
X14247801Y-13125984D02*
X14228753Y-13135508D01*
X14228753Y-13135508D02*
X14219229Y-13145031D01*
X14219229Y-13145031D02*
X14209706Y-13164079D01*
X14209706Y-13164079D02*
X14209706Y-13211698D01*
X14209706Y-13211698D02*
X14219229Y-13230746D01*
X14219229Y-13230746D02*
X14228753Y-13240269D01*
X14228753Y-13240269D02*
X14247801Y-13249793D01*
X14247801Y-13249793D02*
X14285896Y-13249793D01*
X14285896Y-13249793D02*
X14304944Y-13240269D01*
X14304944Y-13240269D02*
X14314467Y-13230746D01*
X14314467Y-13230746D02*
X14323991Y-13211698D01*
X14438277Y-13211698D02*
X14419229Y-13202174D01*
X14419229Y-13202174D02*
X14409706Y-13192650D01*
X14409706Y-13192650D02*
X14400182Y-13173603D01*
X14400182Y-13173603D02*
X14400182Y-13164079D01*
X14400182Y-13164079D02*
X14409706Y-13145031D01*
X14409706Y-13145031D02*
X14419229Y-13135508D01*
X14419229Y-13135508D02*
X14438277Y-13125984D01*
X14438277Y-13125984D02*
X14476372Y-13125984D01*
X14476372Y-13125984D02*
X14495420Y-13135508D01*
X14495420Y-13135508D02*
X14504944Y-13145031D01*
X14504944Y-13145031D02*
X14514467Y-13164079D01*
X14514467Y-13164079D02*
X14514467Y-13173603D01*
X14514467Y-13173603D02*
X14504944Y-13192650D01*
X14504944Y-13192650D02*
X14495420Y-13202174D01*
X14495420Y-13202174D02*
X14476372Y-13211698D01*
X14476372Y-13211698D02*
X14438277Y-13211698D01*
X14438277Y-13211698D02*
X14419229Y-13221222D01*
X14419229Y-13221222D02*
X14409706Y-13230746D01*
X14409706Y-13230746D02*
X14400182Y-13249793D01*
X14400182Y-13249793D02*
X14400182Y-13287888D01*
X14400182Y-13287888D02*
X14409706Y-13306936D01*
X14409706Y-13306936D02*
X14419229Y-13316460D01*
X14419229Y-13316460D02*
X14438277Y-13325984D01*
X14438277Y-13325984D02*
X14476372Y-13325984D01*
X14476372Y-13325984D02*
X14495420Y-13316460D01*
X14495420Y-13316460D02*
X14504944Y-13306936D01*
X14504944Y-13306936D02*
X14514467Y-13287888D01*
X14514467Y-13287888D02*
X14514467Y-13249793D01*
X14514467Y-13249793D02*
X14504944Y-13230746D01*
X14504944Y-13230746D02*
X14495420Y-13221222D01*
X14495420Y-13221222D02*
X14476372Y-13211698D01*
X14685896Y-13192650D02*
X14685896Y-13325984D01*
X14638277Y-13116460D02*
X14590658Y-13259317D01*
X14590658Y-13259317D02*
X14714467Y-13259317D01*
X14781134Y-13125984D02*
X14781134Y-13164079D01*
X14857325Y-13125984D02*
X14857325Y-13164079D01*
X15152563Y-13402174D02*
X15143039Y-13392650D01*
X15143039Y-13392650D02*
X15123991Y-13364079D01*
X15123991Y-13364079D02*
X15114468Y-13345031D01*
X15114468Y-13345031D02*
X15104944Y-13316460D01*
X15104944Y-13316460D02*
X15095420Y-13268841D01*
X15095420Y-13268841D02*
X15095420Y-13230746D01*
X15095420Y-13230746D02*
X15104944Y-13183127D01*
X15104944Y-13183127D02*
X15114468Y-13154555D01*
X15114468Y-13154555D02*
X15123991Y-13135508D01*
X15123991Y-13135508D02*
X15143039Y-13106936D01*
X15143039Y-13106936D02*
X15152563Y-13097412D01*
X15257325Y-13211698D02*
X15238277Y-13202174D01*
X15238277Y-13202174D02*
X15228753Y-13192650D01*
X15228753Y-13192650D02*
X15219229Y-13173603D01*
X15219229Y-13173603D02*
X15219229Y-13164079D01*
X15219229Y-13164079D02*
X15228753Y-13145031D01*
X15228753Y-13145031D02*
X15238277Y-13135508D01*
X15238277Y-13135508D02*
X15257325Y-13125984D01*
X15257325Y-13125984D02*
X15295420Y-13125984D01*
X15295420Y-13125984D02*
X15314468Y-13135508D01*
X15314468Y-13135508D02*
X15323991Y-13145031D01*
X15323991Y-13145031D02*
X15333515Y-13164079D01*
X15333515Y-13164079D02*
X15333515Y-13173603D01*
X15333515Y-13173603D02*
X15323991Y-13192650D01*
X15323991Y-13192650D02*
X15314468Y-13202174D01*
X15314468Y-13202174D02*
X15295420Y-13211698D01*
X15295420Y-13211698D02*
X15257325Y-13211698D01*
X15257325Y-13211698D02*
X15238277Y-13221222D01*
X15238277Y-13221222D02*
X15228753Y-13230746D01*
X15228753Y-13230746D02*
X15219229Y-13249793D01*
X15219229Y-13249793D02*
X15219229Y-13287888D01*
X15219229Y-13287888D02*
X15228753Y-13306936D01*
X15228753Y-13306936D02*
X15238277Y-13316460D01*
X15238277Y-13316460D02*
X15257325Y-13325984D01*
X15257325Y-13325984D02*
X15295420Y-13325984D01*
X15295420Y-13325984D02*
X15314468Y-13316460D01*
X15314468Y-13316460D02*
X15323991Y-13306936D01*
X15323991Y-13306936D02*
X15333515Y-13287888D01*
X15333515Y-13287888D02*
X15333515Y-13249793D01*
X15333515Y-13249793D02*
X15323991Y-13230746D01*
X15323991Y-13230746D02*
X15314468Y-13221222D01*
X15314468Y-13221222D02*
X15295420Y-13211698D01*
X15571610Y-13325984D02*
X15571610Y-13125984D01*
X15657325Y-13325984D02*
X15657325Y-13221222D01*
X15657325Y-13221222D02*
X15647801Y-13202174D01*
X15647801Y-13202174D02*
X15628753Y-13192650D01*
X15628753Y-13192650D02*
X15600182Y-13192650D01*
X15600182Y-13192650D02*
X15581134Y-13202174D01*
X15581134Y-13202174D02*
X15571610Y-13211698D01*
X15781134Y-13325984D02*
X15762087Y-13316460D01*
X15762087Y-13316460D02*
X15752563Y-13306936D01*
X15752563Y-13306936D02*
X15743039Y-13287888D01*
X15743039Y-13287888D02*
X15743039Y-13230746D01*
X15743039Y-13230746D02*
X15752563Y-13211698D01*
X15752563Y-13211698D02*
X15762087Y-13202174D01*
X15762087Y-13202174D02*
X15781134Y-13192650D01*
X15781134Y-13192650D02*
X15809706Y-13192650D01*
X15809706Y-13192650D02*
X15828753Y-13202174D01*
X15828753Y-13202174D02*
X15838277Y-13211698D01*
X15838277Y-13211698D02*
X15847801Y-13230746D01*
X15847801Y-13230746D02*
X15847801Y-13287888D01*
X15847801Y-13287888D02*
X15838277Y-13306936D01*
X15838277Y-13306936D02*
X15828753Y-13316460D01*
X15828753Y-13316460D02*
X15809706Y-13325984D01*
X15809706Y-13325984D02*
X15781134Y-13325984D01*
X15962087Y-13325984D02*
X15943039Y-13316460D01*
X15943039Y-13316460D02*
X15933515Y-13297412D01*
X15933515Y-13297412D02*
X15933515Y-13125984D01*
X16114468Y-13316460D02*
X16095420Y-13325984D01*
X16095420Y-13325984D02*
X16057325Y-13325984D01*
X16057325Y-13325984D02*
X16038277Y-13316460D01*
X16038277Y-13316460D02*
X16028753Y-13297412D01*
X16028753Y-13297412D02*
X16028753Y-13221222D01*
X16028753Y-13221222D02*
X16038277Y-13202174D01*
X16038277Y-13202174D02*
X16057325Y-13192650D01*
X16057325Y-13192650D02*
X16095420Y-13192650D01*
X16095420Y-13192650D02*
X16114468Y-13202174D01*
X16114468Y-13202174D02*
X16123991Y-13221222D01*
X16123991Y-13221222D02*
X16123991Y-13240269D01*
X16123991Y-13240269D02*
X16028753Y-13259317D01*
X16200182Y-13316460D02*
X16219230Y-13325984D01*
X16219230Y-13325984D02*
X16257325Y-13325984D01*
X16257325Y-13325984D02*
X16276372Y-13316460D01*
X16276372Y-13316460D02*
X16285896Y-13297412D01*
X16285896Y-13297412D02*
X16285896Y-13287888D01*
X16285896Y-13287888D02*
X16276372Y-13268841D01*
X16276372Y-13268841D02*
X16257325Y-13259317D01*
X16257325Y-13259317D02*
X16228753Y-13259317D01*
X16228753Y-13259317D02*
X16209706Y-13249793D01*
X16209706Y-13249793D02*
X16200182Y-13230746D01*
X16200182Y-13230746D02*
X16200182Y-13221222D01*
X16200182Y-13221222D02*
X16209706Y-13202174D01*
X16209706Y-13202174D02*
X16228753Y-13192650D01*
X16228753Y-13192650D02*
X16257325Y-13192650D01*
X16257325Y-13192650D02*
X16276372Y-13202174D01*
X16352563Y-13402174D02*
X16362087Y-13392650D01*
X16362087Y-13392650D02*
X16381134Y-13364079D01*
X16381134Y-13364079D02*
X16390658Y-13345031D01*
X16390658Y-13345031D02*
X16400182Y-13316460D01*
X16400182Y-13316460D02*
X16409706Y-13268841D01*
X16409706Y-13268841D02*
X16409706Y-13230746D01*
X16409706Y-13230746D02*
X16400182Y-13183127D01*
X16400182Y-13183127D02*
X16390658Y-13154555D01*
X16390658Y-13154555D02*
X16381134Y-13135508D01*
X16381134Y-13135508D02*
X16362087Y-13106936D01*
X16362087Y-13106936D02*
X16352563Y-13097412D01*
M02*
