G04 #@! TF.GenerationSoftware,KiCad,Pcbnew,8.0.1*
G04 #@! TF.CreationDate,2024-07-26T15:20:18+05:00*
G04 #@! TF.ProjectId,Life_pedal,4c696665-5f70-4656-9461-6c2e6b696361,rev?*
G04 #@! TF.SameCoordinates,Original*
G04 #@! TF.FileFunction,Soldermask,Bot*
G04 #@! TF.FilePolarity,Negative*
%FSLAX46Y46*%
G04 Gerber Fmt 4.6, Leading zero omitted, Abs format (unit mm)*
G04 Created by KiCad (PCBNEW 8.0.1) date 2024-07-26 15:20:18*
%MOMM*%
%LPD*%
G01*
G04 APERTURE LIST*
G04 Aperture macros list*
%AMRoundRect*
0 Rectangle with rounded corners*
0 $1 Rounding radius*
0 $2 $3 $4 $5 $6 $7 $8 $9 X,Y pos of 4 corners*
0 Add a 4 corners polygon primitive as box body*
4,1,4,$2,$3,$4,$5,$6,$7,$8,$9,$2,$3,0*
0 Add four circle primitives for the rounded corners*
1,1,$1+$1,$2,$3*
1,1,$1+$1,$4,$5*
1,1,$1+$1,$6,$7*
1,1,$1+$1,$8,$9*
0 Add four rect primitives between the rounded corners*
20,1,$1+$1,$2,$3,$4,$5,0*
20,1,$1+$1,$4,$5,$6,$7,0*
20,1,$1+$1,$6,$7,$8,$9,0*
20,1,$1+$1,$8,$9,$2,$3,0*%
G04 Aperture macros list end*
%ADD10O,2.200000X2.200000*%
%ADD11R,2.200000X2.200000*%
%ADD12R,1.600000X1.600000*%
%ADD13C,1.600000*%
%ADD14R,1.500000X1.050000*%
%ADD15O,1.500000X1.050000*%
%ADD16C,1.500000*%
%ADD17R,1.500000X1.500000*%
%ADD18RoundRect,0.250002X1.699998X-1.699998X1.699998X1.699998X-1.699998X1.699998X-1.699998X-1.699998X0*%
%ADD19R,1.700000X1.700000*%
%ADD20O,1.700000X1.700000*%
%ADD21C,1.804000*%
%ADD22C,3.000000*%
%ADD23R,4.600000X2.000000*%
%ADD24O,4.200000X2.000000*%
%ADD25O,2.000000X4.200000*%
%ADD26C,2.340000*%
%ADD27C,0.600000*%
G04 APERTURE END LIST*
D10*
X123800000Y-70743533D03*
D11*
X123800000Y-68203533D03*
D10*
X127200000Y-68400000D03*
D11*
X127200000Y-70940000D03*
D12*
X150194888Y-84600000D03*
D13*
X152694888Y-84600000D03*
D14*
X132640001Y-79130000D03*
D15*
X132640001Y-80400001D03*
X132640001Y-81670000D03*
D16*
X154200000Y-89120001D03*
X154200000Y-91660000D03*
D17*
X154200000Y-94200000D03*
D11*
X169668234Y-96800000D03*
D10*
X167128234Y-96800000D03*
D18*
X119400000Y-101200000D03*
D17*
X118200000Y-71740000D03*
D13*
X118200000Y-69200000D03*
X118200000Y-74280000D03*
D18*
X154600000Y-56200000D03*
D17*
X175800000Y-102200000D03*
D16*
X175800000Y-99660000D03*
X175800000Y-97120001D03*
D11*
X134200000Y-70940000D03*
D10*
X134200000Y-68400000D03*
D12*
X164205112Y-79000000D03*
D13*
X161705112Y-79000000D03*
D17*
X148150000Y-89050000D03*
D16*
X148150000Y-91590000D03*
X148150000Y-94129999D03*
D18*
X141400000Y-101200000D03*
D12*
X143805112Y-61800000D03*
D13*
X141305112Y-61800000D03*
D18*
X147085714Y-101200000D03*
X130028572Y-101200000D03*
D19*
X141025000Y-35950000D03*
D20*
X141025000Y-38490000D03*
D18*
X142200000Y-56000000D03*
D21*
X174800000Y-70990000D03*
X174800000Y-73530000D03*
X174800000Y-76070000D03*
X174800000Y-78610000D03*
X167180000Y-78610000D03*
X167180000Y-76070000D03*
X167180000Y-73530000D03*
X167180000Y-70990000D03*
D11*
X130600000Y-68203532D03*
D10*
X130600000Y-70743532D03*
D17*
X148450000Y-63450000D03*
D16*
X150990000Y-63450000D03*
X153530000Y-63450000D03*
D12*
X179000000Y-91000000D03*
D13*
X176500000Y-91000000D03*
D11*
X137800000Y-68203532D03*
D10*
X137800000Y-70743532D03*
D12*
X164405113Y-73000000D03*
D13*
X161905113Y-73000000D03*
D18*
X124600000Y-101200000D03*
D11*
X155600000Y-41668234D03*
D10*
X155600000Y-39128234D03*
D22*
X159815000Y-44985000D03*
X176045000Y-44985000D03*
X159815000Y-38635000D03*
X176045000Y-38635000D03*
X159815000Y-51335000D03*
X176045000Y-51335000D03*
D23*
X148300000Y-45335000D03*
D24*
X148300000Y-39035000D03*
D25*
X143500000Y-42435000D03*
D17*
X143260000Y-80200000D03*
D13*
X145800000Y-80200000D03*
X140720000Y-80200000D03*
D17*
X141150000Y-89050000D03*
D16*
X141150000Y-91590000D03*
X141150000Y-94129999D03*
D12*
X149005113Y-70200000D03*
D13*
X146505113Y-70200000D03*
D22*
X120965000Y-44985000D03*
X137195000Y-44985000D03*
X120965000Y-38635000D03*
X137195000Y-38635000D03*
X120965000Y-51335000D03*
X137195000Y-51335000D03*
D18*
X152400000Y-101200000D03*
D11*
X169668234Y-93200000D03*
D10*
X167128234Y-93200000D03*
D12*
X152000000Y-48594887D03*
D13*
X152000000Y-51094887D03*
D12*
X142200000Y-51005113D03*
D13*
X142200000Y-48505113D03*
D12*
X122800000Y-83900000D03*
D13*
X122800000Y-86400000D03*
D26*
X163600000Y-63800000D03*
X168600000Y-63800000D03*
X173600000Y-63800000D03*
X153550000Y-76300000D03*
X148550000Y-76300000D03*
X143550000Y-76300000D03*
X133600000Y-89900000D03*
X128600000Y-89900000D03*
X123600000Y-89900000D03*
X133600000Y-63800000D03*
X128600000Y-63800000D03*
X123600000Y-63800000D03*
X173600000Y-89900000D03*
X168600000Y-89900000D03*
X163600000Y-89900000D03*
D27*
X152400000Y-59800000D03*
X158000000Y-63400000D03*
X132800000Y-76800000D03*
X144000000Y-85600000D03*
X146600000Y-90000000D03*
X145800000Y-98000000D03*
X157000000Y-98000000D03*
X162600000Y-103800000D03*
X147800000Y-66000000D03*
X156000000Y-67800000D03*
X155600000Y-75200000D03*
X165600000Y-83400000D03*
X178800000Y-95400000D03*
X164400000Y-102800000D03*
X158000000Y-89200000D03*
X144600000Y-97400000D03*
X144000000Y-94600000D03*
X128800000Y-81200000D03*
X138400000Y-85800000D03*
X136600000Y-84000000D03*
X132000000Y-84800000D03*
X133800000Y-97000000D03*
X133200000Y-97800000D03*
X146000000Y-47400000D03*
X155600000Y-49000000D03*
M02*
